%TF.GenerationSoftware,KiCad,Pcbnew,9.0.6*%
%TF.CreationDate,2026-03-01T18:26:51+00:00*%
%TF.ProjectId,Cro_,43726fed-2e6b-4696-9361-645f70636258,rev?*%
%TF.SameCoordinates,Original*%
%TF.FileFunction,Legend,Bot*%
%TF.FilePolarity,Positive*%
%FSLAX46Y46*%
G04 Gerber Fmt 4.6, Leading zero omitted, Abs format (unit mm)*
G04 Created by KiCad (PCBNEW 9.0.6) date 2026-03-01 18:26:51*
%MOMM*%
%LPD*%
G01*
G04 APERTURE LIST*
%ADD10C,0.100000*%
%ADD11C,0.300000*%
%ADD12C,0.000000*%
G04 APERTURE END LIST*
D10*
X70885024Y-93256265D02*
X70932643Y-93399122D01*
X70932643Y-93399122D02*
X70932643Y-93637217D01*
X70932643Y-93637217D02*
X70885024Y-93732455D01*
X70885024Y-93732455D02*
X70837404Y-93780074D01*
X70837404Y-93780074D02*
X70742166Y-93827693D01*
X70742166Y-93827693D02*
X70646928Y-93827693D01*
X70646928Y-93827693D02*
X70551690Y-93780074D01*
X70551690Y-93780074D02*
X70504071Y-93732455D01*
X70504071Y-93732455D02*
X70456452Y-93637217D01*
X70456452Y-93637217D02*
X70408833Y-93446741D01*
X70408833Y-93446741D02*
X70361214Y-93351503D01*
X70361214Y-93351503D02*
X70313595Y-93303884D01*
X70313595Y-93303884D02*
X70218357Y-93256265D01*
X70218357Y-93256265D02*
X70123119Y-93256265D01*
X70123119Y-93256265D02*
X70027881Y-93303884D01*
X70027881Y-93303884D02*
X69980262Y-93351503D01*
X69980262Y-93351503D02*
X69932643Y-93446741D01*
X69932643Y-93446741D02*
X69932643Y-93684836D01*
X69932643Y-93684836D02*
X69980262Y-93827693D01*
X69932643Y-94161027D02*
X70932643Y-94399122D01*
X70932643Y-94399122D02*
X70218357Y-94589598D01*
X70218357Y-94589598D02*
X70932643Y-94780074D01*
X70932643Y-94780074D02*
X69932643Y-95018170D01*
X70837404Y-95970550D02*
X70885024Y-95922931D01*
X70885024Y-95922931D02*
X70932643Y-95780074D01*
X70932643Y-95780074D02*
X70932643Y-95684836D01*
X70932643Y-95684836D02*
X70885024Y-95541979D01*
X70885024Y-95541979D02*
X70789785Y-95446741D01*
X70789785Y-95446741D02*
X70694547Y-95399122D01*
X70694547Y-95399122D02*
X70504071Y-95351503D01*
X70504071Y-95351503D02*
X70361214Y-95351503D01*
X70361214Y-95351503D02*
X70170738Y-95399122D01*
X70170738Y-95399122D02*
X70075500Y-95446741D01*
X70075500Y-95446741D02*
X69980262Y-95541979D01*
X69980262Y-95541979D02*
X69932643Y-95684836D01*
X69932643Y-95684836D02*
X69932643Y-95780074D01*
X69932643Y-95780074D02*
X69980262Y-95922931D01*
X69980262Y-95922931D02*
X70027881Y-95970550D01*
X70932643Y-96875312D02*
X70932643Y-96399122D01*
X70932643Y-96399122D02*
X69932643Y-96399122D01*
X70932643Y-97208646D02*
X69932643Y-97208646D01*
X70932643Y-97780074D02*
X70361214Y-97351503D01*
X69932643Y-97780074D02*
X70504071Y-97208646D01*
X72494968Y-93256265D02*
X72542587Y-93399122D01*
X72542587Y-93399122D02*
X72542587Y-93637217D01*
X72542587Y-93637217D02*
X72494968Y-93732455D01*
X72494968Y-93732455D02*
X72447348Y-93780074D01*
X72447348Y-93780074D02*
X72352110Y-93827693D01*
X72352110Y-93827693D02*
X72256872Y-93827693D01*
X72256872Y-93827693D02*
X72161634Y-93780074D01*
X72161634Y-93780074D02*
X72114015Y-93732455D01*
X72114015Y-93732455D02*
X72066396Y-93637217D01*
X72066396Y-93637217D02*
X72018777Y-93446741D01*
X72018777Y-93446741D02*
X71971158Y-93351503D01*
X71971158Y-93351503D02*
X71923539Y-93303884D01*
X71923539Y-93303884D02*
X71828301Y-93256265D01*
X71828301Y-93256265D02*
X71733063Y-93256265D01*
X71733063Y-93256265D02*
X71637825Y-93303884D01*
X71637825Y-93303884D02*
X71590206Y-93351503D01*
X71590206Y-93351503D02*
X71542587Y-93446741D01*
X71542587Y-93446741D02*
X71542587Y-93684836D01*
X71542587Y-93684836D02*
X71590206Y-93827693D01*
X71542587Y-94161027D02*
X72542587Y-94399122D01*
X72542587Y-94399122D02*
X71828301Y-94589598D01*
X71828301Y-94589598D02*
X72542587Y-94780074D01*
X72542587Y-94780074D02*
X71542587Y-95018170D01*
X72542587Y-95399122D02*
X71542587Y-95399122D01*
X71542587Y-95399122D02*
X71542587Y-95637217D01*
X71542587Y-95637217D02*
X71590206Y-95780074D01*
X71590206Y-95780074D02*
X71685444Y-95875312D01*
X71685444Y-95875312D02*
X71780682Y-95922931D01*
X71780682Y-95922931D02*
X71971158Y-95970550D01*
X71971158Y-95970550D02*
X72114015Y-95970550D01*
X72114015Y-95970550D02*
X72304491Y-95922931D01*
X72304491Y-95922931D02*
X72399729Y-95875312D01*
X72399729Y-95875312D02*
X72494968Y-95780074D01*
X72494968Y-95780074D02*
X72542587Y-95637217D01*
X72542587Y-95637217D02*
X72542587Y-95399122D01*
X72542587Y-96399122D02*
X71542587Y-96399122D01*
X71542587Y-97065788D02*
X71542587Y-97256264D01*
X71542587Y-97256264D02*
X71590206Y-97351502D01*
X71590206Y-97351502D02*
X71685444Y-97446740D01*
X71685444Y-97446740D02*
X71875920Y-97494359D01*
X71875920Y-97494359D02*
X72209253Y-97494359D01*
X72209253Y-97494359D02*
X72399729Y-97446740D01*
X72399729Y-97446740D02*
X72494968Y-97351502D01*
X72494968Y-97351502D02*
X72542587Y-97256264D01*
X72542587Y-97256264D02*
X72542587Y-97065788D01*
X72542587Y-97065788D02*
X72494968Y-96970550D01*
X72494968Y-96970550D02*
X72399729Y-96875312D01*
X72399729Y-96875312D02*
X72209253Y-96827693D01*
X72209253Y-96827693D02*
X71875920Y-96827693D01*
X71875920Y-96827693D02*
X71685444Y-96875312D01*
X71685444Y-96875312D02*
X71590206Y-96970550D01*
X71590206Y-96970550D02*
X71542587Y-97065788D01*
X74152531Y-93303884D02*
X73152531Y-93303884D01*
X73152531Y-93303884D02*
X74152531Y-93875312D01*
X74152531Y-93875312D02*
X73152531Y-93875312D01*
X74152531Y-94922931D02*
X73676340Y-94589598D01*
X74152531Y-94351503D02*
X73152531Y-94351503D01*
X73152531Y-94351503D02*
X73152531Y-94732455D01*
X73152531Y-94732455D02*
X73200150Y-94827693D01*
X73200150Y-94827693D02*
X73247769Y-94875312D01*
X73247769Y-94875312D02*
X73343007Y-94922931D01*
X73343007Y-94922931D02*
X73485864Y-94922931D01*
X73485864Y-94922931D02*
X73581102Y-94875312D01*
X73581102Y-94875312D02*
X73628721Y-94827693D01*
X73628721Y-94827693D02*
X73676340Y-94732455D01*
X73676340Y-94732455D02*
X73676340Y-94351503D01*
X74104912Y-95303884D02*
X74152531Y-95446741D01*
X74152531Y-95446741D02*
X74152531Y-95684836D01*
X74152531Y-95684836D02*
X74104912Y-95780074D01*
X74104912Y-95780074D02*
X74057292Y-95827693D01*
X74057292Y-95827693D02*
X73962054Y-95875312D01*
X73962054Y-95875312D02*
X73866816Y-95875312D01*
X73866816Y-95875312D02*
X73771578Y-95827693D01*
X73771578Y-95827693D02*
X73723959Y-95780074D01*
X73723959Y-95780074D02*
X73676340Y-95684836D01*
X73676340Y-95684836D02*
X73628721Y-95494360D01*
X73628721Y-95494360D02*
X73581102Y-95399122D01*
X73581102Y-95399122D02*
X73533483Y-95351503D01*
X73533483Y-95351503D02*
X73438245Y-95303884D01*
X73438245Y-95303884D02*
X73343007Y-95303884D01*
X73343007Y-95303884D02*
X73247769Y-95351503D01*
X73247769Y-95351503D02*
X73200150Y-95399122D01*
X73200150Y-95399122D02*
X73152531Y-95494360D01*
X73152531Y-95494360D02*
X73152531Y-95732455D01*
X73152531Y-95732455D02*
X73200150Y-95875312D01*
X73152531Y-96161027D02*
X73152531Y-96732455D01*
X74152531Y-96446741D02*
X73152531Y-96446741D01*
X74762475Y-93208646D02*
X74762475Y-93827693D01*
X74762475Y-93827693D02*
X75143427Y-93494360D01*
X75143427Y-93494360D02*
X75143427Y-93637217D01*
X75143427Y-93637217D02*
X75191046Y-93732455D01*
X75191046Y-93732455D02*
X75238665Y-93780074D01*
X75238665Y-93780074D02*
X75333903Y-93827693D01*
X75333903Y-93827693D02*
X75571998Y-93827693D01*
X75571998Y-93827693D02*
X75667236Y-93780074D01*
X75667236Y-93780074D02*
X75714856Y-93732455D01*
X75714856Y-93732455D02*
X75762475Y-93637217D01*
X75762475Y-93637217D02*
X75762475Y-93351503D01*
X75762475Y-93351503D02*
X75714856Y-93256265D01*
X75714856Y-93256265D02*
X75667236Y-93208646D01*
X75095808Y-94161027D02*
X75762475Y-94399122D01*
X75762475Y-94399122D02*
X75095808Y-94637217D01*
X74762475Y-94922932D02*
X74762475Y-95541979D01*
X74762475Y-95541979D02*
X75143427Y-95208646D01*
X75143427Y-95208646D02*
X75143427Y-95351503D01*
X75143427Y-95351503D02*
X75191046Y-95446741D01*
X75191046Y-95446741D02*
X75238665Y-95494360D01*
X75238665Y-95494360D02*
X75333903Y-95541979D01*
X75333903Y-95541979D02*
X75571998Y-95541979D01*
X75571998Y-95541979D02*
X75667236Y-95494360D01*
X75667236Y-95494360D02*
X75714856Y-95446741D01*
X75714856Y-95446741D02*
X75762475Y-95351503D01*
X75762475Y-95351503D02*
X75762475Y-95065789D01*
X75762475Y-95065789D02*
X75714856Y-94970551D01*
X75714856Y-94970551D02*
X75667236Y-94922932D01*
X76420038Y-93827693D02*
X76372419Y-93732455D01*
X76372419Y-93732455D02*
X76372419Y-93589598D01*
X76372419Y-93589598D02*
X76420038Y-93446741D01*
X76420038Y-93446741D02*
X76515276Y-93351503D01*
X76515276Y-93351503D02*
X76610514Y-93303884D01*
X76610514Y-93303884D02*
X76800990Y-93256265D01*
X76800990Y-93256265D02*
X76943847Y-93256265D01*
X76943847Y-93256265D02*
X77134323Y-93303884D01*
X77134323Y-93303884D02*
X77229561Y-93351503D01*
X77229561Y-93351503D02*
X77324800Y-93446741D01*
X77324800Y-93446741D02*
X77372419Y-93589598D01*
X77372419Y-93589598D02*
X77372419Y-93684836D01*
X77372419Y-93684836D02*
X77324800Y-93827693D01*
X77324800Y-93827693D02*
X77277180Y-93875312D01*
X77277180Y-93875312D02*
X76943847Y-93875312D01*
X76943847Y-93875312D02*
X76943847Y-93684836D01*
X77372419Y-94303884D02*
X76372419Y-94303884D01*
X76372419Y-94303884D02*
X77372419Y-94875312D01*
X77372419Y-94875312D02*
X76372419Y-94875312D01*
X77372419Y-95351503D02*
X76372419Y-95351503D01*
X76372419Y-95351503D02*
X76372419Y-95589598D01*
X76372419Y-95589598D02*
X76420038Y-95732455D01*
X76420038Y-95732455D02*
X76515276Y-95827693D01*
X76515276Y-95827693D02*
X76610514Y-95875312D01*
X76610514Y-95875312D02*
X76800990Y-95922931D01*
X76800990Y-95922931D02*
X76943847Y-95922931D01*
X76943847Y-95922931D02*
X77134323Y-95875312D01*
X77134323Y-95875312D02*
X77229561Y-95827693D01*
X77229561Y-95827693D02*
X77324800Y-95732455D01*
X77324800Y-95732455D02*
X77372419Y-95589598D01*
X77372419Y-95589598D02*
X77372419Y-95351503D01*
D11*
X75152427Y-67168757D02*
X75295285Y-67097328D01*
X75295285Y-67097328D02*
X75509570Y-67097328D01*
X75509570Y-67097328D02*
X75723856Y-67168757D01*
X75723856Y-67168757D02*
X75866713Y-67311614D01*
X75866713Y-67311614D02*
X75938142Y-67454471D01*
X75938142Y-67454471D02*
X76009570Y-67740185D01*
X76009570Y-67740185D02*
X76009570Y-67954471D01*
X76009570Y-67954471D02*
X75938142Y-68240185D01*
X75938142Y-68240185D02*
X75866713Y-68383042D01*
X75866713Y-68383042D02*
X75723856Y-68525900D01*
X75723856Y-68525900D02*
X75509570Y-68597328D01*
X75509570Y-68597328D02*
X75366713Y-68597328D01*
X75366713Y-68597328D02*
X75152427Y-68525900D01*
X75152427Y-68525900D02*
X75080999Y-68454471D01*
X75080999Y-68454471D02*
X75080999Y-67954471D01*
X75080999Y-67954471D02*
X75366713Y-67954471D01*
X74223856Y-67097328D02*
X74223856Y-67454471D01*
X74580999Y-67311614D02*
X74223856Y-67454471D01*
X74223856Y-67454471D02*
X73866713Y-67311614D01*
X74438142Y-67740185D02*
X74223856Y-67454471D01*
X74223856Y-67454471D02*
X74009570Y-67740185D01*
X73080999Y-67097328D02*
X73080999Y-67454471D01*
X73438142Y-67311614D02*
X73080999Y-67454471D01*
X73080999Y-67454471D02*
X72723856Y-67311614D01*
X73295285Y-67740185D02*
X73080999Y-67454471D01*
X73080999Y-67454471D02*
X72866713Y-67740185D01*
X71938142Y-67097328D02*
X71938142Y-67454471D01*
X72295285Y-67311614D02*
X71938142Y-67454471D01*
X71938142Y-67454471D02*
X71580999Y-67311614D01*
X72152428Y-67740185D02*
X71938142Y-67454471D01*
X71938142Y-67454471D02*
X71723856Y-67740185D01*
D12*
%TO.C,G\u002A\u002A\u002A*%
G36*
X64023080Y-51593422D02*
G01*
X64002123Y-51614379D01*
X63981166Y-51593422D01*
X64002123Y-51572464D01*
X64023080Y-51593422D01*
G37*
G36*
X65364334Y-55030385D02*
G01*
X65343377Y-55051342D01*
X65322420Y-55030385D01*
X65343377Y-55009428D01*
X65364334Y-55030385D01*
G37*
G36*
X66412189Y-87807283D02*
G01*
X66391232Y-87828240D01*
X66370275Y-87807283D01*
X66391232Y-87786326D01*
X66412189Y-87807283D01*
G37*
G36*
X67460044Y-48785171D02*
G01*
X67439087Y-48806128D01*
X67418130Y-48785171D01*
X67439087Y-48764214D01*
X67460044Y-48785171D01*
G37*
G36*
X67753443Y-58886491D02*
G01*
X67732486Y-58907448D01*
X67711529Y-58886491D01*
X67732486Y-58865534D01*
X67753443Y-58886491D01*
G37*
G36*
X67753443Y-64461078D02*
G01*
X67732486Y-64482035D01*
X67711529Y-64461078D01*
X67732486Y-64440121D01*
X67753443Y-64461078D01*
G37*
G36*
X68927041Y-63664709D02*
G01*
X68906083Y-63685666D01*
X68885126Y-63664709D01*
X68906083Y-63643752D01*
X68927041Y-63664709D01*
G37*
G36*
X71525720Y-54359758D02*
G01*
X71504763Y-54380715D01*
X71483806Y-54359758D01*
X71504763Y-54338801D01*
X71525720Y-54359758D01*
G37*
G36*
X72154433Y-55952497D02*
G01*
X72133476Y-55973455D01*
X72112519Y-55952497D01*
X72133476Y-55931540D01*
X72154433Y-55952497D01*
G37*
G36*
X72447833Y-61610913D02*
G01*
X72426876Y-61631870D01*
X72405918Y-61610913D01*
X72426876Y-61589956D01*
X72447833Y-61610913D01*
G37*
G36*
X73411859Y-56078240D02*
G01*
X73390902Y-56099197D01*
X73369945Y-56078240D01*
X73390902Y-56057283D01*
X73411859Y-56078240D01*
G37*
G36*
X74208229Y-53521474D02*
G01*
X74187272Y-53542431D01*
X74166315Y-53521474D01*
X74187272Y-53500517D01*
X74208229Y-53521474D01*
G37*
G36*
X74333971Y-51090451D02*
G01*
X74313014Y-51111408D01*
X74292057Y-51090451D01*
X74313014Y-51069494D01*
X74333971Y-51090451D01*
G37*
G36*
X74711199Y-51132365D02*
G01*
X74690242Y-51153323D01*
X74669285Y-51132365D01*
X74690242Y-51111408D01*
X74711199Y-51132365D01*
G37*
G36*
X74711199Y-64544907D02*
G01*
X74690242Y-64565864D01*
X74669285Y-64544907D01*
X74690242Y-64523950D01*
X74711199Y-64544907D01*
G37*
G36*
X77770935Y-72592431D02*
G01*
X77749978Y-72613389D01*
X77729021Y-72592431D01*
X77749978Y-72571474D01*
X77770935Y-72592431D01*
G37*
G36*
X78609219Y-59515204D02*
G01*
X78588262Y-59536161D01*
X78567305Y-59515204D01*
X78588262Y-59494247D01*
X78609219Y-59515204D01*
G37*
G36*
X79154103Y-58132035D02*
G01*
X79133146Y-58152993D01*
X79112189Y-58132035D01*
X79133146Y-58111078D01*
X79154103Y-58132035D01*
G37*
G36*
X79824730Y-49833026D02*
G01*
X79803773Y-49853983D01*
X79782816Y-49833026D01*
X79803773Y-49812068D01*
X79824730Y-49833026D01*
G37*
G36*
X80621100Y-48449857D02*
G01*
X80600143Y-48470814D01*
X80579186Y-48449857D01*
X80600143Y-48428900D01*
X80621100Y-48449857D01*
G37*
G36*
X82255753Y-50335996D02*
G01*
X82234796Y-50356953D01*
X82213839Y-50335996D01*
X82234796Y-50315039D01*
X82255753Y-50335996D01*
G37*
G36*
X82465324Y-87597712D02*
G01*
X82444367Y-87618669D01*
X82423410Y-87597712D01*
X82444367Y-87576755D01*
X82465324Y-87597712D01*
G37*
G36*
X85818460Y-86382200D02*
G01*
X85797503Y-86403158D01*
X85776546Y-86382200D01*
X85797503Y-86361243D01*
X85818460Y-86382200D01*
G37*
G36*
X86489087Y-86801342D02*
G01*
X86468130Y-86822299D01*
X86447173Y-86801342D01*
X86468130Y-86780385D01*
X86489087Y-86801342D01*
G37*
G36*
X61801628Y-62344412D02*
G01*
X61798603Y-62366601D01*
X61773685Y-62372354D01*
X61768669Y-62366211D01*
X61773685Y-62316469D01*
X61786292Y-62309912D01*
X61801628Y-62344412D01*
G37*
G36*
X63841452Y-51796007D02*
G01*
X63848009Y-51808614D01*
X63813509Y-51823950D01*
X63791320Y-51820925D01*
X63785566Y-51796007D01*
X63791710Y-51790990D01*
X63841452Y-51796007D01*
G37*
G36*
X65581764Y-88260664D02*
G01*
X65601165Y-88275751D01*
X65556441Y-88285987D01*
X65513929Y-88283023D01*
X65501429Y-88263973D01*
X65516257Y-88255667D01*
X65581764Y-88260664D01*
G37*
G36*
X70153031Y-63196851D02*
G01*
X70160141Y-63211405D01*
X70100638Y-63217992D01*
X70042980Y-63212149D01*
X70048245Y-63196851D01*
X70067218Y-63191315D01*
X70153031Y-63196851D01*
G37*
G36*
X72863666Y-51548015D02*
G01*
X72860702Y-51590526D01*
X72841651Y-51603027D01*
X72833346Y-51588198D01*
X72838342Y-51522691D01*
X72853429Y-51503291D01*
X72863666Y-51548015D01*
G37*
G36*
X73272145Y-55819769D02*
G01*
X73278702Y-55832376D01*
X73244202Y-55847712D01*
X73222013Y-55844687D01*
X73216259Y-55819769D01*
X73222403Y-55814753D01*
X73272145Y-55819769D01*
G37*
G36*
X73565544Y-56280825D02*
G01*
X73572102Y-56293432D01*
X73537602Y-56308768D01*
X73515412Y-56305743D01*
X73509659Y-56280825D01*
X73515802Y-56275809D01*
X73565544Y-56280825D01*
G37*
G36*
X75130341Y-53332860D02*
G01*
X75127316Y-53355050D01*
X75102398Y-53360803D01*
X75097382Y-53354660D01*
X75102398Y-53304918D01*
X75115005Y-53298360D01*
X75130341Y-53332860D01*
G37*
G36*
X75923402Y-61816991D02*
G01*
X75920438Y-61859503D01*
X75901387Y-61872004D01*
X75893082Y-61857175D01*
X75898078Y-61791668D01*
X75913165Y-61772268D01*
X75923402Y-61816991D01*
G37*
G36*
X77253993Y-57747822D02*
G01*
X77260551Y-57760429D01*
X77226050Y-57775765D01*
X77203861Y-57772740D01*
X77198108Y-57747822D01*
X77204251Y-57742806D01*
X77253993Y-57747822D01*
G37*
G36*
X78270596Y-53476067D02*
G01*
X78267633Y-53518579D01*
X78248582Y-53531080D01*
X78240276Y-53516251D01*
X78245273Y-53450744D01*
X78260360Y-53431343D01*
X78270596Y-53476067D01*
G37*
G36*
X78818790Y-52955633D02*
G01*
X78815765Y-52977822D01*
X78790847Y-52983576D01*
X78785831Y-52977432D01*
X78790847Y-52927690D01*
X78803454Y-52921133D01*
X78818790Y-52955633D01*
G37*
G36*
X79950473Y-52913719D02*
G01*
X79947448Y-52935908D01*
X79922530Y-52941661D01*
X79917514Y-52935518D01*
X79922530Y-52885776D01*
X79935137Y-52879218D01*
X79950473Y-52913719D01*
G37*
G36*
X81246504Y-54272437D02*
G01*
X81243540Y-54314949D01*
X81224490Y-54327449D01*
X81216184Y-54312621D01*
X81221181Y-54247114D01*
X81236268Y-54227713D01*
X81246504Y-54272437D01*
G37*
G36*
X84882376Y-59172904D02*
G01*
X84888933Y-59185512D01*
X84854433Y-59200847D01*
X84832244Y-59197822D01*
X84826491Y-59172904D01*
X84832634Y-59167888D01*
X84882376Y-59172904D01*
G37*
G36*
X85427261Y-85914159D02*
G01*
X85433818Y-85926766D01*
X85399318Y-85942101D01*
X85377129Y-85939077D01*
X85371375Y-85914159D01*
X85377518Y-85909142D01*
X85427261Y-85914159D01*
G37*
G36*
X85553003Y-85956073D02*
G01*
X85559561Y-85968680D01*
X85525060Y-85984016D01*
X85502871Y-85980991D01*
X85497118Y-85956073D01*
X85503261Y-85951056D01*
X85553003Y-85956073D01*
G37*
G36*
X85787024Y-85872428D02*
G01*
X85794134Y-85886982D01*
X85734631Y-85893569D01*
X85676973Y-85887727D01*
X85682239Y-85872428D01*
X85701211Y-85866892D01*
X85787024Y-85872428D01*
G37*
G36*
X85804488Y-86836271D02*
G01*
X85811046Y-86848878D01*
X85776546Y-86864214D01*
X85754356Y-86861189D01*
X85748603Y-86836271D01*
X85754746Y-86831255D01*
X85804488Y-86836271D01*
G37*
G36*
X75892963Y-50784720D02*
G01*
X75926711Y-50842459D01*
X75919693Y-50873990D01*
X75876937Y-50892232D01*
X75821765Y-50850800D01*
X75814446Y-50800527D01*
X75860346Y-50776095D01*
X75892963Y-50784720D01*
G37*
G36*
X77083548Y-57745033D02*
G01*
X77091254Y-57761599D01*
X77075874Y-57823304D01*
X77048482Y-57855025D01*
X77025397Y-57823473D01*
X77020259Y-57784494D01*
X77042113Y-57738150D01*
X77083548Y-57745033D01*
G37*
G36*
X79803351Y-59325906D02*
G01*
X79807502Y-59347882D01*
X79764333Y-59368504D01*
X79743171Y-59367684D01*
X79700840Y-59347885D01*
X79738006Y-59307423D01*
X79753119Y-59301727D01*
X79803351Y-59325906D01*
G37*
G36*
X84016149Y-59893747D02*
G01*
X84010107Y-59925660D01*
X83966900Y-59954472D01*
X83914078Y-59917781D01*
X83910956Y-59895679D01*
X83953519Y-59856225D01*
X83988335Y-59851445D01*
X84016149Y-59893747D01*
G37*
G36*
X84030060Y-64095786D02*
G01*
X84035317Y-64149618D01*
X84024342Y-64165696D01*
X83988048Y-64183850D01*
X83974235Y-64123291D01*
X83980383Y-64093380D01*
X84016833Y-64084273D01*
X84030060Y-64095786D01*
G37*
G36*
X64166647Y-51318011D02*
G01*
X64162408Y-51387948D01*
X64148820Y-51413553D01*
X64102424Y-51446722D01*
X64070590Y-51417383D01*
X64069439Y-51354536D01*
X64101062Y-51303635D01*
X64127017Y-51293706D01*
X64166647Y-51318011D01*
G37*
G36*
X65909219Y-54021971D02*
G01*
X65904089Y-54053199D01*
X65867305Y-54087316D01*
X65857360Y-54086187D01*
X65825390Y-54047875D01*
X65826989Y-54036116D01*
X65867305Y-53982530D01*
X65888899Y-53978587D01*
X65909219Y-54021971D01*
G37*
G36*
X67972300Y-64944690D02*
G01*
X68025885Y-64985006D01*
X68029829Y-65006600D01*
X67986445Y-65026920D01*
X67955217Y-65021790D01*
X67921100Y-64985006D01*
X67922229Y-64975061D01*
X67960541Y-64943092D01*
X67972300Y-64944690D01*
G37*
G36*
X69690782Y-47592215D02*
G01*
X69744367Y-47632530D01*
X69748310Y-47654125D01*
X69704927Y-47674445D01*
X69673698Y-47669315D01*
X69639582Y-47632530D01*
X69640711Y-47622586D01*
X69679022Y-47590616D01*
X69690782Y-47592215D01*
G37*
G36*
X70118272Y-46923280D02*
G01*
X70121595Y-46961903D01*
X70112992Y-46974447D01*
X70077207Y-47003818D01*
X70073024Y-47002728D01*
X70058724Y-46961903D01*
X70060429Y-46950415D01*
X70103112Y-46919989D01*
X70118272Y-46923280D01*
G37*
G36*
X72111877Y-54391194D02*
G01*
X72100816Y-54470308D01*
X72070605Y-54506458D01*
X72040392Y-54491218D01*
X72033444Y-54427333D01*
X72070605Y-54338801D01*
X72083938Y-54320232D01*
X72105619Y-54318019D01*
X72111877Y-54391194D01*
G37*
G36*
X72960434Y-50154656D02*
G01*
X72992717Y-50210253D01*
X72990565Y-50248419D01*
X72965883Y-50270319D01*
X72891600Y-50247775D01*
X72849908Y-50213381D01*
X72863052Y-50168746D01*
X72932320Y-50147382D01*
X72960434Y-50154656D01*
G37*
G36*
X73890444Y-58220348D02*
G01*
X73923246Y-58237870D01*
X73956744Y-58283219D01*
X73945419Y-58313348D01*
X73896378Y-58311818D01*
X73831001Y-58257778D01*
X73801599Y-58216871D01*
X73812010Y-58196925D01*
X73890444Y-58220348D01*
G37*
G36*
X74551925Y-63006656D02*
G01*
X74561553Y-63016896D01*
X74568249Y-63048500D01*
X74501628Y-63056953D01*
X74481454Y-63056647D01*
X74430699Y-63044193D01*
X74451331Y-63006656D01*
X74494889Y-62977940D01*
X74551925Y-63006656D01*
G37*
G36*
X74652578Y-63016967D02*
G01*
X74690242Y-63056953D01*
X74696791Y-63073189D01*
X74671758Y-63098867D01*
X74659592Y-63097256D01*
X74627371Y-63056953D01*
X74627851Y-63047467D01*
X74645854Y-63015039D01*
X74652578Y-63016967D01*
G37*
G36*
X74731230Y-53676171D02*
G01*
X74753113Y-53733519D01*
X74747082Y-53763458D01*
X74711199Y-53772959D01*
X74699752Y-53764380D01*
X74669285Y-53707615D01*
X74670485Y-53698257D01*
X74711199Y-53668174D01*
X74731230Y-53676171D01*
G37*
G36*
X75197322Y-53518365D02*
G01*
X75195469Y-53580694D01*
X75184125Y-53595824D01*
X75132352Y-53626260D01*
X75087679Y-53595259D01*
X75070077Y-53529075D01*
X75093909Y-53476172D01*
X75151103Y-53473190D01*
X75197322Y-53518365D01*
G37*
G36*
X75435665Y-46548411D02*
G01*
X75444697Y-46584676D01*
X75428339Y-46601997D01*
X75355922Y-46626590D01*
X75327987Y-46620940D01*
X75318955Y-46584676D01*
X75335313Y-46567355D01*
X75407730Y-46542761D01*
X75435665Y-46548411D01*
G37*
G36*
X75486150Y-59996834D02*
G01*
X75517243Y-60032438D01*
X75525591Y-60085794D01*
X75491392Y-60119415D01*
X75444654Y-60107751D01*
X75423740Y-60033999D01*
X75424067Y-60014278D01*
X75438320Y-59970320D01*
X75486150Y-59996834D01*
G37*
G36*
X76471595Y-61294083D02*
G01*
X76469984Y-61306249D01*
X76429681Y-61338471D01*
X76420195Y-61337990D01*
X76387767Y-61319988D01*
X76389695Y-61313264D01*
X76429681Y-61275600D01*
X76445917Y-61269051D01*
X76471595Y-61294083D01*
G37*
G36*
X77033801Y-58274136D02*
G01*
X77058394Y-58346554D01*
X77052744Y-58374489D01*
X77016480Y-58383521D01*
X76999158Y-58367162D01*
X76974565Y-58294745D01*
X76980215Y-58266810D01*
X77016480Y-58257778D01*
X77033801Y-58274136D01*
G37*
G36*
X79095482Y-60963172D02*
G01*
X79133146Y-61003158D01*
X79139695Y-61019393D01*
X79114663Y-61045072D01*
X79102497Y-61043461D01*
X79070275Y-61003158D01*
X79070755Y-60993672D01*
X79088758Y-60961243D01*
X79095482Y-60963172D01*
G37*
G36*
X79835734Y-59794051D02*
G01*
X79845687Y-59829560D01*
X79837097Y-59842241D01*
X79803773Y-59871474D01*
X79797711Y-59869502D01*
X79761859Y-59829560D01*
X79758502Y-59807361D01*
X79803773Y-59787646D01*
X79835734Y-59794051D01*
G37*
G36*
X80495134Y-48179071D02*
G01*
X80467415Y-48233301D01*
X80424291Y-48256272D01*
X80359415Y-48256341D01*
X80327701Y-48224218D01*
X80343581Y-48198446D01*
X80411529Y-48165270D01*
X80453012Y-48158814D01*
X80495134Y-48179071D01*
G37*
G36*
X80543482Y-51584484D02*
G01*
X80580092Y-51641072D01*
X80551243Y-51712178D01*
X80508283Y-51738311D01*
X80441713Y-51725658D01*
X80411529Y-51656293D01*
X80425306Y-51602102D01*
X80495357Y-51572464D01*
X80543482Y-51584484D01*
G37*
G36*
X80599681Y-54003105D02*
G01*
X80630774Y-54038708D01*
X80639122Y-54092065D01*
X80604923Y-54125686D01*
X80558185Y-54114022D01*
X80537272Y-54040270D01*
X80537598Y-54020549D01*
X80551851Y-53976591D01*
X80599681Y-54003105D01*
G37*
G36*
X80716375Y-51895400D02*
G01*
X80746843Y-51952166D01*
X80745643Y-51961523D01*
X80704928Y-51991606D01*
X80684898Y-51983609D01*
X80663014Y-51926261D01*
X80669046Y-51896323D01*
X80704928Y-51886821D01*
X80716375Y-51895400D01*
G37*
G36*
X81387002Y-49757776D02*
G01*
X81417470Y-49814542D01*
X81416270Y-49823900D01*
X81375555Y-49853983D01*
X81355525Y-49845985D01*
X81333641Y-49788638D01*
X81339673Y-49758699D01*
X81375555Y-49749197D01*
X81387002Y-49757776D01*
G37*
G36*
X81641603Y-61538736D02*
G01*
X81645785Y-61593536D01*
X81636346Y-61604518D01*
X81581546Y-61608701D01*
X81570564Y-61599262D01*
X81566382Y-61544462D01*
X81575821Y-61533480D01*
X81630620Y-61529297D01*
X81641603Y-61538736D01*
G37*
G36*
X82853999Y-86306951D02*
G01*
X82884466Y-86363717D01*
X82883267Y-86373075D01*
X82842552Y-86403158D01*
X82822521Y-86395160D01*
X82800638Y-86337813D01*
X82806669Y-86307874D01*
X82842552Y-86298372D01*
X82853999Y-86306951D01*
G37*
G36*
X83513179Y-59263719D02*
G01*
X83504430Y-59293600D01*
X83450308Y-59299833D01*
X83420073Y-59286744D01*
X83387437Y-59263719D01*
X83395235Y-59254961D01*
X83450308Y-59227604D01*
X83484998Y-59222676D01*
X83513179Y-59263719D01*
G37*
G36*
X86736201Y-60203661D02*
G01*
X86763803Y-60232889D01*
X86766263Y-60314352D01*
X86738686Y-60358049D01*
X86693353Y-60343991D01*
X86671830Y-60314450D01*
X86659541Y-60247634D01*
X86684175Y-60200301D01*
X86736201Y-60203661D01*
G37*
G36*
X67919825Y-59396512D02*
G01*
X67922982Y-59424767D01*
X67946541Y-59511776D01*
X67953292Y-59547228D01*
X67928058Y-59578075D01*
X67888172Y-59568012D01*
X67853357Y-59508955D01*
X67875643Y-59421229D01*
X67902658Y-59386055D01*
X67919825Y-59396512D01*
G37*
G36*
X72706068Y-63232081D02*
G01*
X72741232Y-63290305D01*
X72722264Y-63336735D01*
X72656723Y-63341905D01*
X72560588Y-63290172D01*
X72519297Y-63247312D01*
X72529528Y-63204971D01*
X72544341Y-63197819D01*
X72627150Y-63195897D01*
X72706068Y-63232081D01*
G37*
G36*
X73808598Y-57154020D02*
G01*
X73869595Y-57184219D01*
X73890438Y-57211250D01*
X73845450Y-57236471D01*
X73768334Y-57262715D01*
X73710521Y-57259333D01*
X73677808Y-57208116D01*
X73665803Y-57142483D01*
X73706688Y-57120545D01*
X73808598Y-57154020D01*
G37*
G36*
X75415832Y-54549539D02*
G01*
X75480245Y-54641517D01*
X75507569Y-54726847D01*
X75489885Y-54782130D01*
X75417542Y-54792294D01*
X75323029Y-54753166D01*
X75266851Y-54662605D01*
X75282085Y-54545219D01*
X75324095Y-54451072D01*
X75415832Y-54549539D01*
G37*
G36*
X76698755Y-52971482D02*
G01*
X76723080Y-53039461D01*
X76721056Y-53090559D01*
X76697312Y-53120000D01*
X76624369Y-53098864D01*
X76615142Y-53094629D01*
X76581932Y-53043272D01*
X76602090Y-52984009D01*
X76664693Y-52955633D01*
X76698755Y-52971482D01*
G37*
G36*
X77334567Y-58826716D02*
G01*
X77365108Y-58857383D01*
X77393707Y-58912580D01*
X77393698Y-58913376D01*
X77362189Y-58945341D01*
X77298883Y-58942861D01*
X77247008Y-58907448D01*
X77233801Y-58846142D01*
X77270515Y-58807618D01*
X77334567Y-58826716D01*
G37*
G36*
X77508971Y-57807381D02*
G01*
X77528437Y-57817233D01*
X77561364Y-57864078D01*
X77554752Y-57880039D01*
X77500747Y-57899650D01*
X77426792Y-57893960D01*
X77374963Y-57863173D01*
X77378413Y-57824655D01*
X77432802Y-57799943D01*
X77508971Y-57807381D01*
G37*
G36*
X79980399Y-55122797D02*
G01*
X79967932Y-55192043D01*
X79954767Y-55219497D01*
X79901982Y-55259436D01*
X79848623Y-55223748D01*
X79845633Y-55203183D01*
X79876019Y-55148792D01*
X79929335Y-55104712D01*
X79973430Y-55102242D01*
X79980399Y-55122797D01*
G37*
G36*
X80082426Y-58374583D02*
G01*
X80119036Y-58431171D01*
X80090187Y-58502277D01*
X80085446Y-58506821D01*
X80023957Y-58525971D01*
X79975914Y-58463921D01*
X79956491Y-58407521D01*
X79965533Y-58369278D01*
X80034301Y-58362563D01*
X80082426Y-58374583D01*
G37*
G36*
X82072034Y-50612500D02*
G01*
X82101438Y-50642018D01*
X82130011Y-50697399D01*
X82111976Y-50723328D01*
X82051749Y-50733047D01*
X81993185Y-50709126D01*
X81984483Y-50691820D01*
X81991094Y-50624228D01*
X82018277Y-50588018D01*
X82072034Y-50612500D01*
G37*
G36*
X82135261Y-58197716D02*
G01*
X82145863Y-58203554D01*
X82193266Y-58248370D01*
X82169113Y-58303080D01*
X82156784Y-58317263D01*
X82113842Y-58338839D01*
X82065338Y-58290141D01*
X82028490Y-58210729D01*
X82054717Y-58175169D01*
X82135261Y-58197716D01*
G37*
G36*
X70911414Y-49683289D02*
G01*
X70918148Y-49727944D01*
X70900066Y-49745888D01*
X70832617Y-49767791D01*
X70762016Y-49762934D01*
X70729351Y-49730714D01*
X70731438Y-49717435D01*
X70773272Y-49664128D01*
X70787715Y-49657113D01*
X70856165Y-49654494D01*
X70911414Y-49683289D01*
G37*
G36*
X73643069Y-48555940D02*
G01*
X73692085Y-48588346D01*
X73705258Y-48680385D01*
X73694804Y-48772684D01*
X73656557Y-48802650D01*
X73587899Y-48755831D01*
X73575037Y-48741639D01*
X73538087Y-48657549D01*
X73555201Y-48585319D01*
X73621430Y-48554643D01*
X73643069Y-48555940D01*
G37*
G36*
X74346617Y-54507724D02*
G01*
X74375885Y-54568014D01*
X74374821Y-54581994D01*
X74339897Y-54626968D01*
X74280971Y-54620369D01*
X74232684Y-54563330D01*
X74221990Y-54525089D01*
X74226392Y-54474324D01*
X74228257Y-54472587D01*
X74284542Y-54467852D01*
X74346617Y-54507724D01*
G37*
G36*
X76057879Y-50321844D02*
G01*
X76117166Y-50372335D01*
X76155035Y-50442864D01*
X76148687Y-50498233D01*
X76119207Y-50499860D01*
X76056337Y-50463158D01*
X75995749Y-50404827D01*
X75968625Y-50350457D01*
X75975147Y-50334618D01*
X76030021Y-50315039D01*
X76057879Y-50321844D01*
G37*
G36*
X77836622Y-47035207D02*
G01*
X77887534Y-47080392D01*
X77888068Y-47082079D01*
X77873323Y-47119962D01*
X77789214Y-47122306D01*
X77705248Y-47098170D01*
X77654336Y-47052986D01*
X77653802Y-47051299D01*
X77668547Y-47013416D01*
X77752656Y-47011071D01*
X77836622Y-47035207D01*
G37*
G36*
X80736455Y-61632642D02*
G01*
X80763608Y-61673785D01*
X80761578Y-61694089D01*
X80753130Y-61778570D01*
X80746477Y-61812221D01*
X80717091Y-61842595D01*
X80686322Y-61813076D01*
X80676152Y-61735862D01*
X80691934Y-61666445D01*
X80726033Y-61631076D01*
X80736455Y-61632642D01*
G37*
G36*
X82004586Y-51842662D02*
G01*
X82062773Y-51914222D01*
X82088097Y-52005121D01*
X82088075Y-52009744D01*
X82075669Y-52060011D01*
X82029755Y-52037280D01*
X81995819Y-51998682D01*
X81956610Y-51923036D01*
X81940360Y-51854078D01*
X81957895Y-51823950D01*
X82004586Y-51842662D01*
G37*
G36*
X85920373Y-59381725D02*
G01*
X85993690Y-59425064D01*
X86027704Y-59465726D01*
X86027692Y-59466993D01*
X85997414Y-59493709D01*
X85931553Y-59484902D01*
X85863544Y-59451061D01*
X85826821Y-59402682D01*
X85823213Y-59370133D01*
X85845296Y-59352982D01*
X85920373Y-59381725D01*
G37*
G36*
X86104901Y-59862836D02*
G01*
X86175625Y-59914377D01*
X86214892Y-59972238D01*
X86202184Y-59997217D01*
X86186536Y-59995122D01*
X86153773Y-59958376D01*
X86142717Y-59935742D01*
X86080423Y-59905000D01*
X86041896Y-59890668D01*
X86053865Y-59861001D01*
X86104901Y-59862836D01*
G37*
G36*
X65153831Y-51511689D02*
G01*
X65146368Y-51565912D01*
X65104466Y-51647910D01*
X65072244Y-51674973D01*
X65012722Y-51697022D01*
X64988039Y-51666771D01*
X64988077Y-51666077D01*
X65013361Y-51612827D01*
X65070935Y-51530550D01*
X65124590Y-51465930D01*
X65148722Y-51458552D01*
X65153831Y-51511689D01*
G37*
G36*
X71308507Y-46295368D02*
G01*
X71386887Y-46326412D01*
X71450658Y-46371252D01*
X71467371Y-46409703D01*
X71428586Y-46431773D01*
X71340454Y-46449045D01*
X71327092Y-46449965D01*
X71252574Y-46436403D01*
X71232321Y-46374635D01*
X71240640Y-46326334D01*
X71276991Y-46291276D01*
X71308507Y-46295368D01*
G37*
G36*
X72157192Y-61507542D02*
G01*
X72224196Y-61541141D01*
X72237300Y-61597236D01*
X72185869Y-61646026D01*
X72160908Y-61655763D01*
X72097601Y-61666789D01*
X72033799Y-61635915D01*
X72018763Y-61624714D01*
X71998450Y-61571338D01*
X72042433Y-61525557D01*
X72135950Y-61506128D01*
X72157192Y-61507542D01*
G37*
G36*
X74811719Y-56740683D02*
G01*
X74898700Y-56782171D01*
X74972155Y-56827877D01*
X75003567Y-56864131D01*
X75002366Y-56872222D01*
X74961209Y-56895567D01*
X74905370Y-56879248D01*
X74819541Y-56830410D01*
X74743796Y-56771088D01*
X74711199Y-56723976D01*
X74739731Y-56717084D01*
X74811719Y-56740683D01*
G37*
G36*
X77560794Y-58118318D02*
G01*
X77571879Y-58119553D01*
X77669354Y-58145137D01*
X77718807Y-58184428D01*
X77720872Y-58194353D01*
X77693432Y-58229155D01*
X77623362Y-58235696D01*
X77540540Y-58215654D01*
X77474848Y-58170711D01*
X77448521Y-58131034D01*
X77470275Y-58113763D01*
X77560794Y-58118318D01*
G37*
G36*
X79049318Y-54171144D02*
G01*
X79054804Y-54176064D01*
X79099730Y-54258047D01*
X79111977Y-54359555D01*
X79085386Y-54435461D01*
X79082605Y-54438136D01*
X79034189Y-54447572D01*
X78999633Y-54386740D01*
X78986447Y-54268324D01*
X78989876Y-54182179D01*
X79007751Y-54148101D01*
X79049318Y-54171144D01*
G37*
G36*
X79777966Y-51668115D02*
G01*
X79787694Y-51692519D01*
X79835490Y-51771557D01*
X79853999Y-51806780D01*
X79833028Y-51824646D01*
X79777419Y-51807271D01*
X79710153Y-51757275D01*
X79694870Y-51741506D01*
X79666421Y-51691667D01*
X79702669Y-51653832D01*
X79737518Y-51639687D01*
X79777966Y-51668115D01*
G37*
G36*
X83953834Y-59468513D02*
G01*
X83997672Y-59509022D01*
X84005049Y-59562973D01*
X83970103Y-59657474D01*
X83911364Y-59791588D01*
X83817057Y-59682494D01*
X83794980Y-59656400D01*
X83734430Y-59565674D01*
X83736822Y-59505045D01*
X83800788Y-59455431D01*
X83859657Y-59436351D01*
X83953834Y-59468513D01*
G37*
G36*
X85963826Y-57673447D02*
G01*
X86002022Y-57734766D01*
X86026698Y-57807200D01*
X86009541Y-57838776D01*
X85939718Y-57859593D01*
X85879814Y-57846279D01*
X85876847Y-57793294D01*
X85887223Y-57760354D01*
X85902288Y-57659540D01*
X85903035Y-57639215D01*
X85918290Y-57622251D01*
X85963826Y-57673447D01*
G37*
G36*
X68749810Y-86740120D02*
G01*
X68823222Y-86761260D01*
X68843212Y-86815314D01*
X68839274Y-86858464D01*
X68815269Y-86920099D01*
X68777504Y-86940818D01*
X68683753Y-86948473D01*
X68588405Y-86926754D01*
X68533204Y-86881388D01*
X68522417Y-86803020D01*
X68574335Y-86753749D01*
X68698986Y-86738471D01*
X68749810Y-86740120D01*
G37*
G36*
X69305604Y-63513082D02*
G01*
X69402374Y-63540215D01*
X69428565Y-63577228D01*
X69377618Y-63616864D01*
X69353080Y-63622541D01*
X69262370Y-63621603D01*
X69162950Y-63605470D01*
X69101065Y-63580262D01*
X69093285Y-63570519D01*
X69104121Y-63532838D01*
X69173461Y-63509898D01*
X69280767Y-63509757D01*
X69305604Y-63513082D01*
G37*
G36*
X74652635Y-58491928D02*
G01*
X74741569Y-58548812D01*
X74809734Y-58653464D01*
X74836942Y-58778265D01*
X74834902Y-58827461D01*
X74819116Y-58845834D01*
X74775561Y-58812397D01*
X74690242Y-58721757D01*
X74605051Y-58623543D01*
X74553354Y-58542552D01*
X74560820Y-58500403D01*
X74624994Y-58488306D01*
X74652635Y-58491928D01*
G37*
G36*
X76929451Y-57356906D02*
G01*
X77007698Y-57429466D01*
X77063414Y-57516227D01*
X77072228Y-57590599D01*
X77066362Y-57604679D01*
X77029918Y-57644462D01*
X76971677Y-57626474D01*
X76875900Y-57547238D01*
X76786834Y-57446461D01*
X76772476Y-57375324D01*
X76831845Y-57328339D01*
X76853045Y-57325135D01*
X76929451Y-57356906D01*
G37*
G36*
X82204112Y-59352952D02*
G01*
X82304073Y-59393715D01*
X82388108Y-59446402D01*
X82423410Y-59495323D01*
X82419969Y-59509128D01*
X82367090Y-59533490D01*
X82269725Y-59526046D01*
X82152940Y-59487519D01*
X82075555Y-59440959D01*
X82050345Y-59387048D01*
X82105271Y-59343199D01*
X82121034Y-59339799D01*
X82204112Y-59352952D01*
G37*
G36*
X85688270Y-59926029D02*
G01*
X85738370Y-59944122D01*
X85830883Y-60010785D01*
X85909218Y-60097674D01*
X85943270Y-60175352D01*
X85943282Y-60179947D01*
X85918040Y-60206091D01*
X85847252Y-60165272D01*
X85733503Y-60058924D01*
X85676403Y-59999149D01*
X85629513Y-59941938D01*
X85634981Y-59922009D01*
X85688270Y-59926029D01*
G37*
G36*
X75938289Y-54776968D02*
G01*
X75994932Y-54853647D01*
X76036378Y-54971396D01*
X76052453Y-55116186D01*
X76043755Y-55220169D01*
X76010787Y-55257444D01*
X75945627Y-55228836D01*
X75916345Y-55190789D01*
X75874163Y-55093436D01*
X75838167Y-54973742D01*
X75817787Y-54864623D01*
X75822458Y-54798995D01*
X75876619Y-54755388D01*
X75938289Y-54776968D01*
G37*
G36*
X80155050Y-53213726D02*
G01*
X80217944Y-53277942D01*
X80290227Y-53396279D01*
X80346773Y-53528988D01*
X80369615Y-53640344D01*
X80363666Y-53695022D01*
X80340016Y-53697386D01*
X80289993Y-53640959D01*
X80204928Y-53519373D01*
X80157606Y-53444518D01*
X80096130Y-53321571D01*
X80073942Y-53234345D01*
X80092948Y-53194507D01*
X80155050Y-53213726D01*
G37*
G36*
X77492062Y-52794834D02*
G01*
X77542404Y-52850913D01*
X77585127Y-52910433D01*
X77640782Y-52982108D01*
X77650621Y-52995702D01*
X77667690Y-53072047D01*
X77648399Y-53200132D01*
X77642948Y-53204228D01*
X77592800Y-53197017D01*
X77557033Y-53153483D01*
X77516024Y-53058940D01*
X77480572Y-52945377D01*
X77460531Y-52844506D01*
X77465751Y-52788042D01*
X77492062Y-52794834D01*
G37*
G36*
X80217075Y-60712258D02*
G01*
X80281593Y-60754539D01*
X80363771Y-60831899D01*
X80443298Y-60921912D01*
X80499861Y-61002154D01*
X80513146Y-61050198D01*
X80497436Y-61070852D01*
X80459318Y-61081427D01*
X80398470Y-61044657D01*
X80298260Y-60953021D01*
X80246883Y-60899391D01*
X80177282Y-60802374D01*
X80161644Y-60734996D01*
X80204773Y-60709758D01*
X80217075Y-60712258D01*
G37*
G36*
X80399835Y-59605588D02*
G01*
X80514677Y-59657837D01*
X80621141Y-59728458D01*
X80695407Y-59802811D01*
X80713654Y-59866256D01*
X80676310Y-59900316D01*
X80585328Y-59910275D01*
X80470429Y-59889931D01*
X80359045Y-59844717D01*
X80278608Y-59780068D01*
X80216417Y-59685902D01*
X80212540Y-59628669D01*
X80267657Y-59592147D01*
X80300436Y-59586352D01*
X80399835Y-59605588D01*
G37*
G36*
X72319531Y-55111130D02*
G01*
X72346286Y-55151125D01*
X72343047Y-55177085D01*
X72334637Y-55189027D01*
X72363561Y-55239422D01*
X72387373Y-55282489D01*
X72390966Y-55365165D01*
X72363095Y-55411758D01*
X72304489Y-55418595D01*
X72220571Y-55348351D01*
X72186774Y-55306619D01*
X72170926Y-55244167D01*
X72206383Y-55156653D01*
X72240082Y-55098137D01*
X72276473Y-55073789D01*
X72319531Y-55111130D01*
G37*
G36*
X74333971Y-46068974D02*
G01*
X74315334Y-46120792D01*
X74254529Y-46215688D01*
X74171395Y-46321350D01*
X74086688Y-46411767D01*
X74021169Y-46460928D01*
X73900764Y-46493414D01*
X73807967Y-46479660D01*
X73767544Y-46423972D01*
X73781365Y-46340410D01*
X73851303Y-46243032D01*
X73979229Y-46145897D01*
X74095298Y-46087428D01*
X74214559Y-46047369D01*
X74300784Y-46039772D01*
X74333971Y-46068974D01*
G37*
G36*
X75310382Y-50019954D02*
G01*
X75400155Y-50063812D01*
X75525392Y-50103273D01*
X75615815Y-50136512D01*
X75666463Y-50183965D01*
X75669173Y-50192865D01*
X75660996Y-50218624D01*
X75599002Y-50193366D01*
X75512111Y-50163182D01*
X75389714Y-50147382D01*
X75319866Y-50137349D01*
X75233181Y-50097062D01*
X75182004Y-50042268D01*
X75189146Y-49990777D01*
X75231779Y-49986363D01*
X75310382Y-50019954D01*
G37*
G36*
X75444924Y-52138480D02*
G01*
X75507083Y-52218927D01*
X75567581Y-52335542D01*
X75613618Y-52462612D01*
X75632391Y-52574423D01*
X75630667Y-52634950D01*
X75610120Y-52648998D01*
X75549483Y-52599362D01*
X75494473Y-52533585D01*
X75464321Y-52456645D01*
X75450803Y-52399273D01*
X75401450Y-52308430D01*
X75350585Y-52218048D01*
X75348844Y-52145199D01*
X75404832Y-52117349D01*
X75444924Y-52138480D01*
G37*
G36*
X77321383Y-53596364D02*
G01*
X77398546Y-53663948D01*
X77476632Y-53768049D01*
X77537089Y-53882151D01*
X77561364Y-53979734D01*
X77557668Y-54051254D01*
X77546847Y-54087316D01*
X77477649Y-54064867D01*
X77376630Y-54006293D01*
X77280244Y-53934043D01*
X77222257Y-53870657D01*
X77201303Y-53808830D01*
X77200275Y-53705565D01*
X77230430Y-53620012D01*
X77284746Y-53584346D01*
X77321383Y-53596364D01*
G37*
G36*
X81244343Y-58937259D02*
G01*
X81360075Y-58970019D01*
X81523578Y-59033582D01*
X81633416Y-59100092D01*
X81668955Y-59164065D01*
X81668933Y-59165372D01*
X81635693Y-59198983D01*
X81559047Y-59197668D01*
X81468244Y-59166914D01*
X81392530Y-59112209D01*
X81318572Y-59046914D01*
X81212564Y-58985293D01*
X81145237Y-58954938D01*
X81123763Y-58931081D01*
X81161185Y-58924734D01*
X81244343Y-58937259D01*
G37*
G36*
X85934546Y-85659960D02*
G01*
X86002514Y-85673183D01*
X86017828Y-85700266D01*
X85985242Y-85741692D01*
X85902288Y-85780888D01*
X85784027Y-85800536D01*
X85643271Y-85805258D01*
X85512420Y-85794945D01*
X85415956Y-85771632D01*
X85378361Y-85737352D01*
X85381319Y-85724347D01*
X85424391Y-85695716D01*
X85527890Y-85676211D01*
X85703472Y-85663173D01*
X85801796Y-85659166D01*
X85934546Y-85659960D01*
G37*
G36*
X88652923Y-62059532D02*
G01*
X88721244Y-62141034D01*
X88773522Y-62247953D01*
X88794367Y-62360720D01*
X88794338Y-62367210D01*
X88786175Y-62468052D01*
X88767899Y-62524565D01*
X88734043Y-62540022D01*
X88669036Y-62508118D01*
X88602720Y-62417711D01*
X88547750Y-62282705D01*
X88520365Y-62177196D01*
X88513980Y-62089545D01*
X88540315Y-62037634D01*
X88583947Y-62023020D01*
X88652923Y-62059532D01*
G37*
G36*
X70434625Y-55150872D02*
G01*
X70515636Y-55208855D01*
X70597928Y-55286447D01*
X70661771Y-55366440D01*
X70687437Y-55431622D01*
X70682362Y-55477320D01*
X70658702Y-55512398D01*
X70605368Y-55485606D01*
X70530323Y-55417608D01*
X70464313Y-55338391D01*
X70435951Y-55278057D01*
X70433253Y-55260020D01*
X70387750Y-55209918D01*
X70370522Y-55199799D01*
X70356515Y-55142953D01*
X70374623Y-55129709D01*
X70434625Y-55150872D01*
G37*
G36*
X78094350Y-52897687D02*
G01*
X78152684Y-52992500D01*
X78198316Y-53074310D01*
X78265767Y-53107764D01*
X78314871Y-53115641D01*
X78335853Y-53157276D01*
X78306132Y-53210772D01*
X78231991Y-53249719D01*
X78147294Y-53253803D01*
X78098134Y-53201955D01*
X78064406Y-53150053D01*
X77982337Y-53082355D01*
X77969867Y-53075435D01*
X77920183Y-53025322D01*
X77939534Y-52953873D01*
X77951313Y-52934035D01*
X78021705Y-52877199D01*
X78094350Y-52897687D01*
G37*
G36*
X78262206Y-58215132D02*
G01*
X78356057Y-58272406D01*
X78460890Y-58348272D01*
X78549049Y-58424057D01*
X78624022Y-58490789D01*
X78716705Y-58559191D01*
X78760668Y-58589137D01*
X78755645Y-58606571D01*
X78675390Y-58611584D01*
X78574828Y-58595629D01*
X78476009Y-58544420D01*
X78414537Y-58495822D01*
X78305052Y-58428107D01*
X78296183Y-58423129D01*
X78240165Y-58366512D01*
X78199196Y-58290389D01*
X78185073Y-58223581D01*
X78209593Y-58194907D01*
X78262206Y-58215132D01*
G37*
G36*
X81130468Y-53756328D02*
G01*
X81173118Y-53769466D01*
X81319687Y-53831450D01*
X81421343Y-53901665D01*
X81459384Y-53968070D01*
X81443705Y-53988632D01*
X81375555Y-54003488D01*
X81326787Y-53994735D01*
X81291727Y-53956909D01*
X81291727Y-53956864D01*
X81254396Y-53929161D01*
X81144997Y-53937857D01*
X81055569Y-53949252D01*
X80993273Y-53928961D01*
X80949574Y-53858516D01*
X80922317Y-53785598D01*
X80930414Y-53733362D01*
X80996709Y-53725351D01*
X81130468Y-53756328D01*
G37*
G36*
X65075827Y-51885349D02*
G01*
X65067602Y-51957523D01*
X65033163Y-52074712D01*
X64975820Y-52224354D01*
X64898878Y-52393885D01*
X64856124Y-52480628D01*
X64787072Y-52617049D01*
X64737019Y-52711048D01*
X64714628Y-52746062D01*
X64712586Y-52743448D01*
X64709003Y-52689862D01*
X64712788Y-52588884D01*
X64714298Y-52574302D01*
X64745938Y-52453257D01*
X64806750Y-52295151D01*
X64883495Y-52129030D01*
X64962937Y-51983937D01*
X65031835Y-51888917D01*
X65054531Y-51870754D01*
X65075827Y-51885349D01*
G37*
G36*
X72516686Y-54110852D02*
G01*
X72531661Y-54187288D01*
X72535835Y-54234399D01*
X72560713Y-54358677D01*
X72600553Y-54500574D01*
X72604743Y-54513630D01*
X72640168Y-54643287D01*
X72643572Y-54723038D01*
X72616378Y-54777829D01*
X72572185Y-54822700D01*
X72518037Y-54838114D01*
X72480442Y-54782851D01*
X72457276Y-54652734D01*
X72446415Y-54443587D01*
X72443751Y-54302105D01*
X72444111Y-54183370D01*
X72450559Y-54119001D01*
X72465101Y-54092486D01*
X72489747Y-54087316D01*
X72516686Y-54110852D01*
G37*
G36*
X81376040Y-50246127D02*
G01*
X81490849Y-50284277D01*
X81626273Y-50287948D01*
X81687153Y-50284475D01*
X81778702Y-50325976D01*
X81818881Y-50414172D01*
X81792958Y-50527860D01*
X81752316Y-50577617D01*
X81683269Y-50590732D01*
X81641697Y-50578846D01*
X81538469Y-50566524D01*
X81489295Y-50554793D01*
X81429266Y-50494894D01*
X81428749Y-50493578D01*
X81377488Y-50416160D01*
X81294360Y-50330803D01*
X81232603Y-50266962D01*
X81217089Y-50215428D01*
X81267355Y-50205940D01*
X81376040Y-50246127D01*
G37*
G36*
X83207766Y-58776298D02*
G01*
X83325980Y-58814235D01*
X83369416Y-58832055D01*
X83481749Y-58894415D01*
X83549676Y-58956264D01*
X83576783Y-59003430D01*
X83586607Y-59033191D01*
X83584725Y-59032979D01*
X83532873Y-59020137D01*
X83437154Y-58993514D01*
X83434581Y-58992787D01*
X83311047Y-58975448D01*
X83206903Y-58987838D01*
X83126707Y-58998678D01*
X82978527Y-58956763D01*
X82842060Y-58891687D01*
X82996193Y-58820410D01*
X83025856Y-58806937D01*
X83122291Y-58773593D01*
X83207766Y-58776298D01*
G37*
G36*
X85041373Y-59295060D02*
G01*
X85125188Y-59348251D01*
X85203137Y-59415737D01*
X85249265Y-59479665D01*
X85263214Y-59502639D01*
X85329999Y-59536161D01*
X85344315Y-59537417D01*
X85411602Y-59570723D01*
X85457381Y-59627025D01*
X85454840Y-59676238D01*
X85440095Y-59691136D01*
X85417868Y-59699937D01*
X85374209Y-59684468D01*
X85281984Y-59638859D01*
X85222706Y-59603673D01*
X85118635Y-59520098D01*
X85028298Y-59425117D01*
X84969780Y-59338876D01*
X84961169Y-59281521D01*
X84977645Y-59274012D01*
X85041373Y-59295060D01*
G37*
G36*
X75228465Y-53714044D02*
G01*
X75286633Y-53765021D01*
X75350686Y-53847328D01*
X75402447Y-53936919D01*
X75423740Y-54009749D01*
X75436869Y-54061600D01*
X75507569Y-54117086D01*
X75573290Y-54154310D01*
X75587071Y-54229090D01*
X75550520Y-54357030D01*
X75536788Y-54388128D01*
X75487307Y-54451783D01*
X75442963Y-54459799D01*
X75423740Y-54404666D01*
X75409790Y-54354753D01*
X75354607Y-54275655D01*
X75328685Y-54238044D01*
X75284214Y-54136588D01*
X75241611Y-54006682D01*
X75208228Y-53874883D01*
X75191417Y-53767747D01*
X75198528Y-53711831D01*
X75228465Y-53714044D01*
G37*
G36*
X81375200Y-54501753D02*
G01*
X81515869Y-54600765D01*
X81575255Y-54648464D01*
X81745254Y-54803964D01*
X81844314Y-54933787D01*
X81877201Y-55043779D01*
X81875192Y-55070330D01*
X81838123Y-55127321D01*
X81774866Y-55132815D01*
X81712364Y-55091587D01*
X81677562Y-55008410D01*
X81677209Y-55005637D01*
X81621427Y-54896552D01*
X81483493Y-54778699D01*
X81417284Y-54728866D01*
X81342359Y-54653617D01*
X81322191Y-54601582D01*
X81326404Y-54577979D01*
X81296211Y-54548372D01*
X81282278Y-54546429D01*
X81249813Y-54506458D01*
X81250606Y-54495073D01*
X81286504Y-54466425D01*
X81375200Y-54501753D01*
G37*
G36*
X75641920Y-53676870D02*
G01*
X75714436Y-53761285D01*
X75806141Y-53912230D01*
X75873926Y-54028786D01*
X75948744Y-54148350D01*
X76001437Y-54222271D01*
X76046530Y-54302954D01*
X76077744Y-54419658D01*
X76080221Y-54444441D01*
X76074188Y-54516310D01*
X76035411Y-54523117D01*
X76033438Y-54522301D01*
X75974354Y-54476095D01*
X75892638Y-54390129D01*
X75808835Y-54289093D01*
X75743487Y-54197681D01*
X75717140Y-54140583D01*
X75711932Y-54124337D01*
X75667717Y-54054471D01*
X75593100Y-53959990D01*
X75570266Y-53932378D01*
X75488929Y-53805321D01*
X75470817Y-53710979D01*
X75518047Y-53657876D01*
X75576060Y-53647920D01*
X75641920Y-53676870D01*
G37*
G36*
X76381885Y-51250358D02*
G01*
X76415296Y-51341689D01*
X76429681Y-51399233D01*
X76429713Y-51399748D01*
X76465152Y-51435603D01*
X76554589Y-51498316D01*
X76679179Y-51574640D01*
X76717161Y-51597145D01*
X76869413Y-51706692D01*
X76947528Y-51811681D01*
X76957594Y-51925159D01*
X76905697Y-52060171D01*
X76892245Y-52084760D01*
X76846120Y-52162252D01*
X76823395Y-52189044D01*
X76821515Y-52186683D01*
X76787302Y-52136623D01*
X76721739Y-52037544D01*
X76636727Y-51907726D01*
X76544166Y-51765453D01*
X76455958Y-51629006D01*
X76384001Y-51516669D01*
X76340197Y-51446722D01*
X76308301Y-51373109D01*
X76305503Y-51237151D01*
X76334089Y-51132365D01*
X76381885Y-51250358D01*
G37*
G36*
X80921369Y-54335649D02*
G01*
X80984983Y-54422629D01*
X81036867Y-54503641D01*
X81127085Y-54600765D01*
X81175098Y-54641772D01*
X81188341Y-54669002D01*
X81139192Y-54674756D01*
X81098309Y-54681060D01*
X81107942Y-54706192D01*
X81143487Y-54746441D01*
X81185340Y-54835146D01*
X81193517Y-54863706D01*
X81192120Y-54915944D01*
X81138919Y-54918462D01*
X81080244Y-54878950D01*
X81035045Y-54778388D01*
X81032590Y-54767225D01*
X81013714Y-54703244D01*
X81003287Y-54705550D01*
X80992395Y-54740806D01*
X80946607Y-54757576D01*
X80885964Y-54719745D01*
X80832319Y-54636180D01*
X80807993Y-54562212D01*
X80796408Y-54445649D01*
X80817698Y-54360284D01*
X80862479Y-54319242D01*
X80921369Y-54335649D01*
G37*
G36*
X64600687Y-52908408D02*
G01*
X64594594Y-52995796D01*
X64573112Y-53117119D01*
X64542607Y-53243736D01*
X64509445Y-53347008D01*
X64479991Y-53398294D01*
X64455085Y-53392656D01*
X64421458Y-53333469D01*
X64419583Y-53327759D01*
X64376774Y-53258617D01*
X64335171Y-53263293D01*
X64316480Y-53340363D01*
X64316454Y-53343325D01*
X64301163Y-53448173D01*
X64266145Y-53570891D01*
X64259560Y-53588484D01*
X64219132Y-53674911D01*
X64187945Y-53710088D01*
X64179464Y-53700759D01*
X64181358Y-53634373D01*
X64206168Y-53499343D01*
X64254807Y-53289944D01*
X64269479Y-53249374D01*
X64324557Y-53152613D01*
X64401070Y-53047990D01*
X64482523Y-52955223D01*
X64552419Y-52894031D01*
X64594266Y-52884134D01*
X64600687Y-52908408D01*
G37*
G36*
X77705679Y-53367260D02*
G01*
X77730971Y-53417922D01*
X77793488Y-53474373D01*
X77825596Y-53498208D01*
X77854763Y-53575019D01*
X77868034Y-53649687D01*
X77908205Y-53726896D01*
X77957802Y-53770003D01*
X77998797Y-53756317D01*
X78031125Y-53727624D01*
X78089023Y-53755099D01*
X78139864Y-53818396D01*
X78127051Y-53892436D01*
X78032899Y-53971282D01*
X77957638Y-54013374D01*
X77908171Y-54016703D01*
X77865242Y-53972979D01*
X77835831Y-53917616D01*
X77812849Y-53808945D01*
X77802414Y-53745727D01*
X77760456Y-53680735D01*
X77706117Y-53635313D01*
X77630540Y-53555476D01*
X77592688Y-53506645D01*
X77576838Y-53446471D01*
X77616081Y-53373698D01*
X77655556Y-53320283D01*
X77683024Y-53310705D01*
X77705679Y-53367260D01*
G37*
G36*
X72096179Y-54606430D02*
G01*
X72112519Y-54713384D01*
X72111601Y-54734520D01*
X72087887Y-54859765D01*
X72042121Y-54993831D01*
X72027792Y-55028875D01*
X71991290Y-55145184D01*
X71981436Y-55226833D01*
X71969652Y-55279522D01*
X71906696Y-55342736D01*
X71859291Y-55381905D01*
X71846327Y-55450700D01*
X71851055Y-55494271D01*
X71818291Y-55576268D01*
X71802867Y-55593961D01*
X71760453Y-55614739D01*
X71712389Y-55565521D01*
X71684630Y-55514152D01*
X71702978Y-55464551D01*
X71712619Y-55457167D01*
X71764424Y-55375410D01*
X71812424Y-55240134D01*
X71849119Y-55076685D01*
X71867007Y-54910405D01*
X71868819Y-54880983D01*
X71895428Y-54748886D01*
X71942954Y-54646165D01*
X71999911Y-54582037D01*
X72054814Y-54565720D01*
X72096179Y-54606430D01*
G37*
G36*
X80076510Y-51878594D02*
G01*
X80140141Y-51930374D01*
X80205963Y-52041372D01*
X80232127Y-52090606D01*
X80299571Y-52203065D01*
X80353515Y-52274893D01*
X80383933Y-52314263D01*
X80411529Y-52392785D01*
X80426277Y-52427062D01*
X80492884Y-52452662D01*
X80548178Y-52461368D01*
X80606522Y-52508919D01*
X80600143Y-52578405D01*
X80593738Y-52588445D01*
X80568200Y-52612794D01*
X80528717Y-52607820D01*
X80457189Y-52567072D01*
X80335513Y-52484098D01*
X80252885Y-52429366D01*
X80137152Y-52361377D01*
X80058198Y-52325663D01*
X79999920Y-52287509D01*
X79949476Y-52199920D01*
X79939133Y-52160794D01*
X79900448Y-52011017D01*
X79884246Y-51922986D01*
X79892547Y-51880351D01*
X79927371Y-51866760D01*
X79990737Y-51865864D01*
X80076510Y-51878594D01*
G37*
G36*
X68810620Y-54095982D02*
G01*
X68846427Y-54162108D01*
X68884027Y-54272003D01*
X68910736Y-54423661D01*
X68907510Y-54607771D01*
X68869007Y-54767064D01*
X68799057Y-54874373D01*
X68754190Y-54924927D01*
X68742512Y-54974124D01*
X68745163Y-55014334D01*
X68716485Y-55095097D01*
X68708966Y-55108664D01*
X68663748Y-55156049D01*
X68609761Y-55132745D01*
X68596819Y-55118703D01*
X68569850Y-55047491D01*
X68555827Y-54919465D01*
X68552921Y-54721375D01*
X68556030Y-54359758D01*
X68633641Y-54527415D01*
X68653060Y-54568879D01*
X68691865Y-54641610D01*
X68710794Y-54646427D01*
X68719327Y-54590286D01*
X68722512Y-54513445D01*
X68719042Y-54426332D01*
X68717777Y-54414828D01*
X68721656Y-54319501D01*
X68741226Y-54211825D01*
X68769065Y-54123772D01*
X68797750Y-54087316D01*
X68810620Y-54095982D01*
G37*
G36*
X78296826Y-60909154D02*
G01*
X78391458Y-60952882D01*
X78491447Y-61015646D01*
X78588262Y-61070847D01*
X78598842Y-61077081D01*
X78675369Y-61151255D01*
X78745649Y-61257782D01*
X78771996Y-61304999D01*
X78842145Y-61380604D01*
X78934263Y-61401342D01*
X78945262Y-61401471D01*
X79029997Y-61423593D01*
X79062736Y-61495837D01*
X79059508Y-61556832D01*
X79010343Y-61615585D01*
X78978581Y-61636069D01*
X78941876Y-61709705D01*
X78941302Y-61720712D01*
X78930847Y-61746144D01*
X78902846Y-61694742D01*
X78899009Y-61686905D01*
X78847159Y-61613110D01*
X78757636Y-61506548D01*
X78645798Y-61383300D01*
X78527001Y-61259447D01*
X78416604Y-61151070D01*
X78329961Y-61074252D01*
X78282432Y-61045072D01*
X78255548Y-61037101D01*
X78194139Y-60987095D01*
X78188591Y-60980032D01*
X78174556Y-60926342D01*
X78217580Y-60901512D01*
X78296826Y-60909154D01*
G37*
G36*
X79684388Y-53926205D02*
G01*
X79722855Y-53947772D01*
X79800174Y-54031019D01*
X79852793Y-54171473D01*
X79869653Y-54233236D01*
X79894111Y-54309090D01*
X79905186Y-54322607D01*
X79907722Y-54317582D01*
X79946771Y-54333133D01*
X80017056Y-54393953D01*
X80046472Y-54425587D01*
X80096315Y-54513897D01*
X80071050Y-54570392D01*
X79971781Y-54590286D01*
X79906433Y-54603898D01*
X79844685Y-54677273D01*
X79818776Y-54735085D01*
X79791938Y-54731574D01*
X79771648Y-54650608D01*
X79759523Y-54495637D01*
X79755333Y-54391146D01*
X79748434Y-54285359D01*
X79735965Y-54232804D01*
X79712108Y-54214898D01*
X79671045Y-54213059D01*
X79637566Y-54208826D01*
X79627758Y-54186489D01*
X79629298Y-54184555D01*
X79620691Y-54133612D01*
X79570670Y-54053565D01*
X79529727Y-53989906D01*
X79520311Y-53917936D01*
X79574659Y-53893573D01*
X79684388Y-53926205D01*
G37*
G36*
X75060135Y-52697378D02*
G01*
X75088529Y-52861419D01*
X75102235Y-52953712D01*
X75102846Y-53117487D01*
X75057289Y-53230827D01*
X74960920Y-53310063D01*
X74886917Y-53349778D01*
X74844592Y-53370665D01*
X74842299Y-53368696D01*
X74838047Y-53317377D01*
X74841450Y-53217596D01*
X74847080Y-53106274D01*
X74844590Y-52906890D01*
X74820763Y-52786452D01*
X74775753Y-52746062D01*
X74743307Y-52734629D01*
X74691940Y-52663630D01*
X74672167Y-52598520D01*
X74845897Y-52598520D01*
X74850913Y-52648262D01*
X74863520Y-52654819D01*
X74878856Y-52620319D01*
X74875831Y-52598130D01*
X74850913Y-52592376D01*
X74845897Y-52598520D01*
X74672167Y-52598520D01*
X74657723Y-52550958D01*
X74647393Y-52423824D01*
X74667683Y-52309436D01*
X74668992Y-52306014D01*
X74703283Y-52226781D01*
X74731309Y-52218598D01*
X74775382Y-52274159D01*
X74825641Y-52324183D01*
X74917771Y-52339849D01*
X74965006Y-52336528D01*
X75000734Y-52375609D01*
X75024358Y-52479912D01*
X75033472Y-52537082D01*
X75047317Y-52620319D01*
X75060135Y-52697378D01*
G37*
G36*
X79922565Y-49937778D02*
G01*
X79942895Y-49946070D01*
X80056278Y-50013754D01*
X80166796Y-50105772D01*
X80197654Y-50135478D01*
X80280206Y-50203886D01*
X80332622Y-50231210D01*
X80383218Y-50252452D01*
X80483230Y-50321996D01*
X80614768Y-50427677D01*
X80764005Y-50556818D01*
X80917113Y-50696738D01*
X81060267Y-50834761D01*
X81179638Y-50958206D01*
X81261400Y-51054397D01*
X81291727Y-51110655D01*
X81263992Y-51144862D01*
X81193572Y-51137248D01*
X81103183Y-51096911D01*
X81015552Y-51034050D01*
X80953406Y-50958860D01*
X80902205Y-50893711D01*
X80805109Y-50823537D01*
X80739068Y-50780083D01*
X80704928Y-50724354D01*
X80671643Y-50671885D01*
X80589664Y-50619128D01*
X80546958Y-50596370D01*
X80432338Y-50517876D01*
X80314890Y-50420282D01*
X80254344Y-50366760D01*
X80168057Y-50299439D01*
X80118622Y-50273125D01*
X80090008Y-50254060D01*
X80053320Y-50183189D01*
X80052034Y-50179353D01*
X79998770Y-50087976D01*
X79914274Y-49994238D01*
X79803773Y-49895222D01*
X79922565Y-49937778D01*
G37*
G36*
X71756248Y-62847382D02*
G01*
X71802830Y-62875362D01*
X71896107Y-62889296D01*
X71985877Y-62908882D01*
X72081837Y-62973125D01*
X72147239Y-63026673D01*
X72237851Y-63056953D01*
X72300381Y-63088287D01*
X72327176Y-63160247D01*
X72300837Y-63231891D01*
X72248386Y-63243596D01*
X72143454Y-63233566D01*
X72018063Y-63206241D01*
X71902360Y-63168319D01*
X71826495Y-63126499D01*
X71814843Y-63117190D01*
X71713102Y-63075584D01*
X71581053Y-63058049D01*
X71454925Y-63066475D01*
X71370946Y-63102750D01*
X71324004Y-63126853D01*
X71236607Y-63101161D01*
X71190013Y-63082605D01*
X71096682Y-63080584D01*
X70960169Y-63117566D01*
X70877704Y-63142800D01*
X70763047Y-63158331D01*
X70670301Y-63134896D01*
X70635657Y-63115144D01*
X70591221Y-63053015D01*
X70615163Y-62999253D01*
X70702087Y-62980135D01*
X70754145Y-62978754D01*
X70878802Y-62964750D01*
X71025186Y-62940316D01*
X71113151Y-62926577D01*
X71287893Y-62913464D01*
X71433850Y-62918682D01*
X71536786Y-62928147D01*
X71594752Y-62915788D01*
X71609549Y-62873858D01*
X71635536Y-62820804D01*
X71697925Y-62807403D01*
X71756248Y-62847382D01*
G37*
G36*
X73861390Y-56194328D02*
G01*
X73955851Y-56250335D01*
X74055467Y-56335059D01*
X74134276Y-56425033D01*
X74166315Y-56496791D01*
X74181471Y-56533575D01*
X74249344Y-56560253D01*
X74312277Y-56582647D01*
X74356722Y-56675517D01*
X74412669Y-56851745D01*
X74517726Y-57058732D01*
X74648714Y-57241219D01*
X74787434Y-57369868D01*
X74816437Y-57389663D01*
X74904861Y-57459332D01*
X74935211Y-57512192D01*
X74920238Y-57567188D01*
X74909309Y-57585415D01*
X74882233Y-57607275D01*
X74836507Y-57606493D01*
X74758258Y-57578948D01*
X74633616Y-57520517D01*
X74448709Y-57427080D01*
X74292485Y-57346819D01*
X74138563Y-57266887D01*
X74025028Y-57206960D01*
X73969053Y-57176025D01*
X73966369Y-57174260D01*
X73937513Y-57116052D01*
X73962083Y-57051686D01*
X74025445Y-57021309D01*
X74033726Y-57020866D01*
X74118581Y-57001002D01*
X74230133Y-56960743D01*
X74375087Y-56900178D01*
X74281180Y-56752947D01*
X74258716Y-56719948D01*
X74186870Y-56637722D01*
X74130432Y-56603941D01*
X74102753Y-56596190D01*
X74016543Y-56548777D01*
X73910382Y-56472903D01*
X73895267Y-56460614D01*
X73799207Y-56361415D01*
X73751562Y-56272116D01*
X73757084Y-56207976D01*
X73820522Y-56184254D01*
X73861390Y-56194328D01*
G37*
G36*
X70901997Y-86761189D02*
G01*
X70901665Y-87427125D01*
X70900250Y-87659592D01*
X70894809Y-87866522D01*
X70884579Y-88007181D01*
X70868817Y-88091064D01*
X70846778Y-88127666D01*
X70840100Y-88131663D01*
X70758651Y-88158373D01*
X70679773Y-88158802D01*
X70641697Y-88132118D01*
X70641237Y-88126689D01*
X70638387Y-88057257D01*
X70634827Y-87931619D01*
X70631218Y-87772464D01*
X70625820Y-87622317D01*
X70612044Y-87502711D01*
X70586018Y-87430188D01*
X70543204Y-87384758D01*
X70480585Y-87348963D01*
X70394409Y-87325270D01*
X70368667Y-87326649D01*
X70299545Y-87355498D01*
X70255844Y-87430961D01*
X70232983Y-87565171D01*
X70226381Y-87770259D01*
X70224477Y-87909502D01*
X70212172Y-88044793D01*
X70182907Y-88118265D01*
X70130370Y-88142702D01*
X70048245Y-88130886D01*
X70026081Y-88121830D01*
X69999629Y-88088283D01*
X69984085Y-88018089D01*
X69976742Y-87895537D01*
X69974895Y-87704915D01*
X69976240Y-87524822D01*
X69983142Y-87394772D01*
X69999578Y-87310685D01*
X70029521Y-87252986D01*
X70076942Y-87202100D01*
X70116147Y-87169077D01*
X70265364Y-87091424D01*
X70420170Y-87069140D01*
X70552300Y-87107827D01*
X70578898Y-87124562D01*
X70625455Y-87144264D01*
X70637955Y-87110885D01*
X70627939Y-87009413D01*
X70622421Y-86950029D01*
X70634815Y-86807476D01*
X70692262Y-86734678D01*
X70794310Y-86732389D01*
X70901997Y-86761189D01*
G37*
G36*
X71761540Y-56764859D02*
G01*
X71855383Y-56856263D01*
X71861166Y-56862942D01*
X71974169Y-56984068D01*
X72091129Y-57097270D01*
X72091432Y-57097543D01*
X72292244Y-57283124D01*
X72428149Y-57420715D01*
X72501275Y-57512649D01*
X72513750Y-57561264D01*
X72512545Y-57563590D01*
X72535388Y-57598967D01*
X72615472Y-57629061D01*
X72714628Y-57670297D01*
X72784282Y-57735973D01*
X72793815Y-57750476D01*
X72864070Y-57827784D01*
X72984809Y-57942383D01*
X73143956Y-58083480D01*
X73329440Y-58240278D01*
X73529186Y-58401984D01*
X73555666Y-58424055D01*
X73621411Y-58493564D01*
X73637452Y-58538205D01*
X73620415Y-58557983D01*
X73560601Y-58566215D01*
X73510845Y-58509263D01*
X73489081Y-58477952D01*
X73413814Y-58446392D01*
X73359557Y-58440201D01*
X73204909Y-58377309D01*
X73026093Y-58253028D01*
X72835539Y-58075337D01*
X72815261Y-58053926D01*
X72713861Y-57942342D01*
X72642478Y-57856220D01*
X72615489Y-57812718D01*
X72612507Y-57804764D01*
X72567815Y-57747070D01*
X72480569Y-57650943D01*
X72365045Y-57530599D01*
X72235518Y-57400256D01*
X72106264Y-57274129D01*
X71991558Y-57166437D01*
X71905677Y-57091396D01*
X71862896Y-57063224D01*
X71852676Y-57060593D01*
X71797368Y-57013467D01*
X71730853Y-56930059D01*
X71674946Y-56840228D01*
X71651463Y-56773832D01*
X71653817Y-56753333D01*
X71690302Y-56728912D01*
X71761540Y-56764859D01*
G37*
G36*
X72771660Y-55502569D02*
G01*
X72803171Y-55632623D01*
X72809638Y-55661079D01*
X72862721Y-55791135D01*
X72949295Y-55942863D01*
X73052659Y-56091615D01*
X73156107Y-56212742D01*
X73242939Y-56281595D01*
X73302792Y-56326687D01*
X73371245Y-56415983D01*
X73433722Y-56483314D01*
X73548563Y-56566594D01*
X73690403Y-56647116D01*
X73779809Y-56693130D01*
X73888279Y-56760019D01*
X73942170Y-56817698D01*
X73956744Y-56879477D01*
X73939985Y-56959518D01*
X73900129Y-56974478D01*
X73856760Y-56913924D01*
X73841774Y-56882262D01*
X73808071Y-56871793D01*
X73738164Y-56913924D01*
X73640118Y-56959888D01*
X73497533Y-56976706D01*
X73376330Y-56942314D01*
X73338115Y-56892504D01*
X73313459Y-56796286D01*
X73302124Y-56740476D01*
X73263509Y-56691344D01*
X73221805Y-56697692D01*
X73202288Y-56766331D01*
X73193927Y-56813092D01*
X73151375Y-56863638D01*
X73133497Y-56865295D01*
X73064488Y-56828046D01*
X72991047Y-56745976D01*
X72932679Y-56644416D01*
X72908889Y-56548699D01*
X72874355Y-56445656D01*
X72759353Y-56330404D01*
X72725998Y-56303360D01*
X72649379Y-56219925D01*
X72632223Y-56157962D01*
X72637584Y-56116927D01*
X72632032Y-56008033D01*
X72612232Y-55870237D01*
X72606067Y-55835916D01*
X72589860Y-55703233D01*
X72600051Y-55613420D01*
X72639162Y-55535094D01*
X72678849Y-55482216D01*
X72731832Y-55453392D01*
X72771660Y-55502569D01*
G37*
G36*
X79102376Y-58586781D02*
G01*
X79120741Y-58590027D01*
X79222331Y-58618332D01*
X79276851Y-58651117D01*
X79332068Y-58696520D01*
X79394174Y-58700426D01*
X79424640Y-58659456D01*
X79426969Y-58639441D01*
X79461048Y-58588979D01*
X79507785Y-58590984D01*
X79531331Y-58648977D01*
X79522170Y-58699469D01*
X79478938Y-58751567D01*
X79472418Y-58761242D01*
X79515399Y-58788723D01*
X79613684Y-58821971D01*
X79658336Y-58835620D01*
X79797288Y-58892010D01*
X79902257Y-58953402D01*
X79995432Y-59008148D01*
X80092347Y-59034357D01*
X80127346Y-59040697D01*
X80230487Y-59085921D01*
X80345646Y-59160099D01*
X80401205Y-59199377D01*
X80507655Y-59260561D01*
X80581520Y-59284676D01*
X80622775Y-59292313D01*
X80701794Y-59343771D01*
X80709318Y-59353378D01*
X80721794Y-59407040D01*
X80664205Y-59463547D01*
X80551379Y-59502498D01*
X80409932Y-59491845D01*
X80285786Y-59431202D01*
X80277092Y-59424565D01*
X80187366Y-59375824D01*
X80069090Y-59329745D01*
X80048359Y-59322706D01*
X79936848Y-59272268D01*
X79865104Y-59219948D01*
X79790652Y-59179890D01*
X79659295Y-59184397D01*
X79636887Y-59187577D01*
X79529653Y-59187159D01*
X79412972Y-59153209D01*
X79257573Y-59077974D01*
X79105806Y-58986518D01*
X78963809Y-58864767D01*
X78897089Y-58748951D01*
X78909253Y-58643565D01*
X78931583Y-58610292D01*
X78992780Y-58579507D01*
X79102376Y-58586781D01*
G37*
G36*
X72243648Y-52121265D02*
G01*
X72271272Y-52208239D01*
X72280176Y-52370845D01*
X72284678Y-52478160D01*
X72301644Y-52589630D01*
X72326925Y-52644265D01*
X72333020Y-52649009D01*
X72354260Y-52721562D01*
X72340288Y-52866788D01*
X72332796Y-52920133D01*
X72318734Y-53078213D01*
X72308222Y-53274926D01*
X72303108Y-53479769D01*
X72298644Y-53670911D01*
X72286008Y-53825709D01*
X72262816Y-53930488D01*
X72226444Y-54003159D01*
X72211753Y-54024009D01*
X72178476Y-54064108D01*
X72161942Y-54055271D01*
X72157253Y-53985875D01*
X72159515Y-53844298D01*
X72159532Y-53718810D01*
X72153254Y-53608960D01*
X72141777Y-53557718D01*
X72131663Y-53549404D01*
X72082463Y-53556451D01*
X72038192Y-53634850D01*
X72005343Y-53774291D01*
X71995957Y-53820690D01*
X71938586Y-53982466D01*
X71857278Y-54127764D01*
X71817850Y-54186738D01*
X71774784Y-54272358D01*
X71773631Y-54315635D01*
X71786559Y-54327443D01*
X71818297Y-54409214D01*
X71829578Y-54528994D01*
X71819381Y-54653004D01*
X71786686Y-54747464D01*
X71740494Y-54810782D01*
X71705641Y-54841771D01*
X71698805Y-54822514D01*
X71695408Y-54740404D01*
X71699983Y-54615692D01*
X71702991Y-54494556D01*
X71685429Y-54383431D01*
X71638105Y-54305332D01*
X71593515Y-54243383D01*
X71583990Y-54170946D01*
X71610867Y-54057529D01*
X71614863Y-54044828D01*
X71674664Y-53924032D01*
X71749888Y-53854441D01*
X71811991Y-53798778D01*
X71879709Y-53676363D01*
X71955824Y-53479560D01*
X72004910Y-53332951D01*
X72045629Y-53192864D01*
X72075529Y-53055764D01*
X72098442Y-52899978D01*
X72118201Y-52703833D01*
X72138638Y-52445654D01*
X72152454Y-52288232D01*
X72170416Y-52169201D01*
X72192919Y-52111899D01*
X72222920Y-52104347D01*
X72243648Y-52121265D01*
G37*
G36*
X67988270Y-87068150D02*
G01*
X68074021Y-87086697D01*
X68193542Y-87094369D01*
X68361199Y-87094742D01*
X68372941Y-87604874D01*
X68375002Y-87700682D01*
X68377011Y-87886862D01*
X68373205Y-88009147D01*
X68361902Y-88081717D01*
X68341418Y-88118748D01*
X68310070Y-88134418D01*
X68268963Y-88145587D01*
X68228406Y-88158691D01*
X68215740Y-88157648D01*
X68155056Y-88138112D01*
X68130501Y-88121569D01*
X68105241Y-88066252D01*
X68092361Y-87960197D01*
X68088757Y-87786974D01*
X68087613Y-87677966D01*
X68076276Y-87532658D01*
X68045956Y-87442070D01*
X67988370Y-87387513D01*
X67895238Y-87350301D01*
X67858245Y-87340387D01*
X67827211Y-87347730D01*
X67826245Y-87399679D01*
X67850320Y-87514634D01*
X67852703Y-87525159D01*
X67872779Y-87655212D01*
X67858580Y-87761447D01*
X67804362Y-87890890D01*
X67739534Y-88004712D01*
X67661184Y-88077188D01*
X67545402Y-88121227D01*
X67509118Y-88129856D01*
X67302731Y-88138986D01*
X67112927Y-88085264D01*
X66965018Y-87975065D01*
X66922746Y-87922120D01*
X66897733Y-87855058D01*
X66924955Y-87786216D01*
X66998754Y-87728656D01*
X67103663Y-87743588D01*
X67232217Y-87833057D01*
X67326797Y-87896406D01*
X67429873Y-87898942D01*
X67520538Y-87818914D01*
X67577295Y-87681743D01*
X67571814Y-87533194D01*
X67501958Y-87409098D01*
X67491996Y-87399355D01*
X67393808Y-87335076D01*
X67300384Y-87346324D01*
X67194474Y-87434523D01*
X67112923Y-87498108D01*
X67016838Y-87520579D01*
X66944276Y-87485488D01*
X66916492Y-87395795D01*
X66923776Y-87336550D01*
X66988833Y-87214931D01*
X67106077Y-87128815D01*
X67256961Y-87082233D01*
X67422937Y-87079212D01*
X67585460Y-87123781D01*
X67725982Y-87219968D01*
X67747678Y-87241024D01*
X67786445Y-87264824D01*
X67795357Y-87226472D01*
X67800379Y-87193467D01*
X67845313Y-87116068D01*
X67913665Y-87063830D01*
X67976872Y-87062548D01*
X67988270Y-87068150D01*
G37*
G36*
X65730159Y-86858525D02*
G01*
X65776723Y-86922974D01*
X65802388Y-86989778D01*
X65866280Y-87082341D01*
X65897278Y-87113987D01*
X65939211Y-87136214D01*
X65965450Y-87096930D01*
X66011989Y-87044495D01*
X66097128Y-87039981D01*
X66190026Y-87097119D01*
X66206621Y-87116458D01*
X66237166Y-87203526D01*
X66230588Y-87342480D01*
X66219873Y-87448758D01*
X66226573Y-87650799D01*
X66272989Y-87798591D01*
X66356534Y-87881069D01*
X66429644Y-87903910D01*
X66487327Y-87886667D01*
X66524173Y-87814948D01*
X66544829Y-87679063D01*
X66553939Y-87469323D01*
X66558550Y-87342580D01*
X66578348Y-87170976D01*
X66616287Y-87069631D01*
X66676411Y-87030326D01*
X66762763Y-87044841D01*
X66789176Y-87063306D01*
X66810515Y-87110173D01*
X66823366Y-87197895D01*
X66829662Y-87340782D01*
X66831331Y-87553144D01*
X66831331Y-88035134D01*
X66716067Y-88096651D01*
X66650057Y-88122119D01*
X66492933Y-88145709D01*
X66265489Y-88147811D01*
X65930176Y-88137455D01*
X65909219Y-87711758D01*
X65903848Y-87610595D01*
X65891921Y-87451414D01*
X65877283Y-87358327D01*
X65857483Y-87319275D01*
X65830073Y-87322199D01*
X65816012Y-87334232D01*
X65792514Y-87391636D01*
X65785161Y-87500213D01*
X65792258Y-87675804D01*
X65795333Y-87725499D01*
X65800708Y-87873301D01*
X65792520Y-87966574D01*
X65766607Y-88028287D01*
X65718812Y-88081410D01*
X65629937Y-88139724D01*
X65484185Y-88156073D01*
X65420921Y-88146916D01*
X65354935Y-88111252D01*
X65330643Y-88032811D01*
X65330267Y-88029460D01*
X65340604Y-87940976D01*
X65407263Y-87899658D01*
X65425550Y-87894230D01*
X65470251Y-87863513D01*
X65487586Y-87797351D01*
X65485770Y-87671910D01*
X65483941Y-87604929D01*
X65489767Y-87486479D01*
X65505979Y-87417278D01*
X65503593Y-87373352D01*
X65429728Y-87326229D01*
X65361434Y-87279462D01*
X65321241Y-87194902D01*
X65334332Y-87109599D01*
X65403593Y-87053670D01*
X65454189Y-87020406D01*
X65497900Y-86935582D01*
X65503131Y-86915080D01*
X65559364Y-86856115D01*
X65646374Y-86836751D01*
X65730159Y-86858525D01*
G37*
G36*
X69829123Y-87428661D02*
G01*
X69757937Y-87482714D01*
X69666720Y-87506567D01*
X69758277Y-87540436D01*
X69814960Y-87570944D01*
X69894766Y-87672576D01*
X69921642Y-87805864D01*
X69919756Y-87815237D01*
X69893332Y-87946559D01*
X69807579Y-88070412D01*
X69717124Y-88117663D01*
X69571590Y-88140881D01*
X69413180Y-88131101D01*
X69276380Y-88087231D01*
X69266042Y-88081815D01*
X69198046Y-88061315D01*
X69164475Y-88097799D01*
X69163449Y-88100251D01*
X69121420Y-88132377D01*
X69023604Y-88148009D01*
X68856407Y-88149424D01*
X68570770Y-88142596D01*
X68570770Y-87618669D01*
X68570770Y-87094742D01*
X68696513Y-87094742D01*
X68822255Y-87094742D01*
X68845330Y-87576755D01*
X68845407Y-87578353D01*
X68855007Y-87759098D01*
X68864117Y-87896077D01*
X68871712Y-87975959D01*
X68876766Y-87985418D01*
X68887438Y-87946910D01*
X68927041Y-87912068D01*
X68930555Y-87911092D01*
X68950540Y-87860475D01*
X68964014Y-87744634D01*
X68964021Y-87744403D01*
X69247283Y-87744403D01*
X69308677Y-87823352D01*
X69358813Y-87861846D01*
X69468394Y-87905483D01*
X69566170Y-87901348D01*
X69625118Y-87847389D01*
X69635280Y-87815237D01*
X69627821Y-87767820D01*
X69569328Y-87734002D01*
X69443847Y-87700891D01*
X69344121Y-87685304D01*
X69260591Y-87697034D01*
X69247283Y-87744403D01*
X68964021Y-87744403D01*
X68968955Y-87579609D01*
X68969590Y-87456021D01*
X68971994Y-87409401D01*
X69270456Y-87409401D01*
X69310456Y-87440529D01*
X69430011Y-87451012D01*
X69495975Y-87447898D01*
X69577043Y-87422489D01*
X69579267Y-87374494D01*
X69500866Y-87307521D01*
X69428599Y-87288880D01*
X69333937Y-87321063D01*
X69271834Y-87401614D01*
X69270456Y-87409401D01*
X68971994Y-87409401D01*
X68975889Y-87333860D01*
X68994454Y-87258127D01*
X69031863Y-87206739D01*
X69094697Y-87157613D01*
X69117508Y-87141790D01*
X69190862Y-87098177D01*
X69220440Y-87093362D01*
X69236676Y-87100084D01*
X69298286Y-87076986D01*
X69388804Y-87059664D01*
X69524560Y-87076261D01*
X69665073Y-87122157D01*
X69775803Y-87189232D01*
X69815554Y-87235862D01*
X69848928Y-87336537D01*
X69840768Y-87374494D01*
X69829123Y-87428661D01*
G37*
G36*
X76835751Y-56333326D02*
G01*
X76885134Y-56415951D01*
X76885751Y-56416734D01*
X76954736Y-56480449D01*
X77006648Y-56469491D01*
X77019973Y-56457724D01*
X77079834Y-56445303D01*
X77119418Y-56498955D01*
X77125731Y-56604003D01*
X77125580Y-56605316D01*
X77125316Y-56685996D01*
X77125297Y-56691944D01*
X77144292Y-56727910D01*
X77165022Y-56730342D01*
X77240147Y-56752034D01*
X77261498Y-56756958D01*
X77284916Y-56736487D01*
X77291085Y-56664619D01*
X77283001Y-56525517D01*
X77278307Y-56447551D01*
X77283301Y-56308726D01*
X77311012Y-56245196D01*
X77363978Y-56254032D01*
X77448183Y-56309602D01*
X77541290Y-56393042D01*
X77621742Y-56484977D01*
X77667983Y-56566031D01*
X77694081Y-56610509D01*
X77773079Y-56665719D01*
X77832405Y-56710326D01*
X77854763Y-56817387D01*
X77851663Y-56883215D01*
X77826712Y-56924247D01*
X77760456Y-56914984D01*
X77685082Y-56886273D01*
X77573317Y-56828331D01*
X77461031Y-56780899D01*
X77356425Y-56773333D01*
X77291239Y-56807990D01*
X77292720Y-56823824D01*
X77334107Y-56892549D01*
X77417114Y-56997470D01*
X77529986Y-57123073D01*
X77547243Y-57141280D01*
X77667681Y-57265663D01*
X77753036Y-57341527D01*
X77823115Y-57380298D01*
X77897726Y-57393401D01*
X77996677Y-57392261D01*
X78201033Y-57384531D01*
X78090769Y-57304210D01*
X78078400Y-57295013D01*
X77998942Y-57218722D01*
X77987048Y-57166447D01*
X78045282Y-57147052D01*
X78047005Y-57147084D01*
X78120812Y-57177950D01*
X78209683Y-57248299D01*
X78284419Y-57330962D01*
X78315819Y-57398771D01*
X78313661Y-57407527D01*
X78263950Y-57455438D01*
X78169120Y-57506024D01*
X78082177Y-57549531D01*
X78033400Y-57610678D01*
X78022420Y-57713456D01*
X78033009Y-57797062D01*
X78075162Y-57857524D01*
X78132978Y-57846430D01*
X78188529Y-57758879D01*
X78238733Y-57668286D01*
X78311454Y-57628540D01*
X78386277Y-57668208D01*
X78453070Y-57786243D01*
X78483655Y-57827600D01*
X78565989Y-57859593D01*
X78615971Y-57867629D01*
X78651133Y-57901507D01*
X78666852Y-57925869D01*
X78734961Y-57943422D01*
X78795685Y-57932395D01*
X78813370Y-57887664D01*
X78755918Y-57817679D01*
X78723489Y-57779413D01*
X78693047Y-57686804D01*
X78681765Y-57642683D01*
X78627608Y-57608108D01*
X78590939Y-57596257D01*
X78577479Y-57542991D01*
X78589124Y-57428355D01*
X78592915Y-57398763D01*
X78587958Y-57215819D01*
X78533137Y-56998734D01*
X78498158Y-56885805D01*
X78451050Y-56709943D01*
X78420341Y-56565427D01*
X78413044Y-56515960D01*
X78408600Y-56425157D01*
X78428443Y-56405125D01*
X78473652Y-56457391D01*
X78545306Y-56583479D01*
X78644482Y-56784915D01*
X78772260Y-57063224D01*
X78774441Y-57068134D01*
X78826848Y-57207988D01*
X78883008Y-57390204D01*
X78931130Y-57576672D01*
X78972889Y-57737369D01*
X79020377Y-57860075D01*
X79063511Y-57901507D01*
X79066937Y-57901599D01*
X79104116Y-57933660D01*
X79102721Y-58030847D01*
X79097355Y-58081952D01*
X79114301Y-58155451D01*
X79184606Y-58198536D01*
X79200351Y-58204855D01*
X79261373Y-58252538D01*
X79257471Y-58331160D01*
X79229399Y-58395302D01*
X79166754Y-58474949D01*
X79149783Y-58487089D01*
X79072930Y-58505739D01*
X78988565Y-58459065D01*
X78884130Y-58341118D01*
X78863533Y-58316259D01*
X78773272Y-58226728D01*
X78657227Y-58127920D01*
X78537032Y-58036594D01*
X78434322Y-57969508D01*
X78370732Y-57943422D01*
X78349585Y-57953926D01*
X78298774Y-58008031D01*
X78275259Y-58036358D01*
X78233662Y-58046485D01*
X78168411Y-57997274D01*
X78121812Y-57959023D01*
X78011003Y-57877987D01*
X77882322Y-57791453D01*
X77799796Y-57733105D01*
X77692307Y-57639496D01*
X77629784Y-57561576D01*
X77578207Y-57493901D01*
X77497440Y-57447050D01*
X77492789Y-57445981D01*
X77416788Y-57407374D01*
X77303975Y-57329071D01*
X77176967Y-57226629D01*
X77161071Y-57213019D01*
X77038658Y-57115918D01*
X76936549Y-57047313D01*
X76875459Y-57021309D01*
X76873787Y-57021271D01*
X76809119Y-56986214D01*
X76743080Y-56905233D01*
X76737102Y-56895479D01*
X76675361Y-56821283D01*
X76576577Y-56742441D01*
X76432246Y-56652576D01*
X76941270Y-56652576D01*
X76946806Y-56738389D01*
X76961360Y-56745498D01*
X76967947Y-56685996D01*
X76962105Y-56628338D01*
X76946806Y-56633603D01*
X76941270Y-56652576D01*
X76432246Y-56652576D01*
X76427389Y-56649552D01*
X76214438Y-56533213D01*
X76122800Y-56456718D01*
X76050845Y-56346799D01*
X75998072Y-56259031D01*
X75930774Y-56237576D01*
X75833105Y-56262495D01*
X75743492Y-56268911D01*
X75673899Y-56239225D01*
X75612188Y-56162757D01*
X75546219Y-56028827D01*
X75489842Y-55890513D01*
X76299272Y-55890513D01*
X76303286Y-56037373D01*
X76383122Y-56175679D01*
X76396236Y-56190040D01*
X76478574Y-56286219D01*
X76534466Y-56360907D01*
X76584029Y-56403546D01*
X76670687Y-56390449D01*
X76731104Y-56361952D01*
X76764994Y-56333048D01*
X76754108Y-56288826D01*
X76716777Y-56207323D01*
X76671287Y-56132190D01*
X76637189Y-56099197D01*
X76632837Y-56097872D01*
X76604972Y-56049465D01*
X76579241Y-55953007D01*
X76551645Y-55865867D01*
X76490776Y-55779411D01*
X76419575Y-55744471D01*
X76355878Y-55775243D01*
X76299272Y-55890513D01*
X75489842Y-55890513D01*
X75463854Y-55826755D01*
X75433098Y-55749502D01*
X75372995Y-55606826D01*
X75330330Y-55524706D01*
X75297423Y-55490020D01*
X75266598Y-55489649D01*
X75182590Y-55499209D01*
X75129242Y-55443787D01*
X75122526Y-55322584D01*
X75128122Y-55242085D01*
X75110357Y-55189417D01*
X75053628Y-55177085D01*
X75012519Y-55183102D01*
X74972910Y-55227723D01*
X74954736Y-55334263D01*
X74941727Y-55491441D01*
X74799083Y-55198042D01*
X74790872Y-55180968D01*
X74721668Y-55021246D01*
X74670858Y-54876620D01*
X74648934Y-54776542D01*
X74643443Y-54739025D01*
X74600037Y-54612493D01*
X74529614Y-54483892D01*
X74496851Y-54432780D01*
X74440209Y-54325953D01*
X74417800Y-54253626D01*
X74414088Y-54223304D01*
X74374719Y-54144829D01*
X74348233Y-54093149D01*
X74317614Y-53983135D01*
X74291233Y-53845377D01*
X74273336Y-53707086D01*
X74268168Y-53595472D01*
X74279978Y-53537745D01*
X74293837Y-53528099D01*
X74355279Y-53533698D01*
X74360411Y-53538393D01*
X74403244Y-53600658D01*
X74466037Y-53710278D01*
X74536413Y-53843264D01*
X74601998Y-53975625D01*
X74650419Y-54083368D01*
X74669301Y-54142505D01*
X74671063Y-54151380D01*
X74704565Y-54216846D01*
X74767180Y-54310162D01*
X74797288Y-54355200D01*
X74874642Y-54496765D01*
X74940191Y-54647621D01*
X74992380Y-54761115D01*
X75089118Y-54924913D01*
X75198566Y-55076650D01*
X75201322Y-55080036D01*
X75292457Y-55196342D01*
X75357501Y-55287370D01*
X75382531Y-55333671D01*
X75397469Y-55361191D01*
X75458410Y-55434608D01*
X75550188Y-55530244D01*
X75617060Y-55600826D01*
X75689143Y-55692027D01*
X75717140Y-55750293D01*
X75738969Y-55785368D01*
X75813542Y-55805798D01*
X75879519Y-55814647D01*
X75955136Y-55850989D01*
X76018040Y-55877998D01*
X76120697Y-55882424D01*
X76150658Y-55878195D01*
X76218227Y-55848678D01*
X76226599Y-55784841D01*
X76209294Y-55734018D01*
X76153249Y-55667494D01*
X76145966Y-55661993D01*
X76114604Y-55597221D01*
X76097187Y-55494871D01*
X76094757Y-55384799D01*
X76108359Y-55296861D01*
X76139037Y-55260913D01*
X76192862Y-55271705D01*
X76315617Y-55337968D01*
X76459772Y-55455373D01*
X76484872Y-55478521D01*
X76644556Y-55605803D01*
X76762751Y-55662611D01*
X76838094Y-55651785D01*
X76869224Y-55576162D01*
X76854776Y-55438582D01*
X76793389Y-55241884D01*
X76683699Y-54988906D01*
X76660933Y-54940788D01*
X76581648Y-54764045D01*
X76514972Y-54602297D01*
X76473418Y-54485501D01*
X76468280Y-54468633D01*
X76409685Y-54310508D01*
X76340366Y-54160666D01*
X76318581Y-54117804D01*
X76284715Y-54035974D01*
X76284025Y-54003488D01*
X76287413Y-53999644D01*
X76264151Y-53954379D01*
X76202866Y-53874515D01*
X76188876Y-53857239D01*
X76112731Y-53740304D01*
X76067619Y-53633508D01*
X76042769Y-53549652D01*
X76011266Y-53479560D01*
X76010141Y-53477958D01*
X75966398Y-53394918D01*
X75948813Y-53322153D01*
X75965052Y-53290946D01*
X75990066Y-53306839D01*
X76022684Y-53374775D01*
X76048875Y-53422512D01*
X76127272Y-53458603D01*
X76195622Y-53486715D01*
X76260421Y-53594824D01*
X76297322Y-53686367D01*
X76361329Y-53833176D01*
X76433163Y-53989422D01*
X76493225Y-54125484D01*
X76538222Y-54245914D01*
X76555423Y-54318125D01*
X76578394Y-54396228D01*
X76636589Y-54491636D01*
X76687594Y-54577151D01*
X76751032Y-54716814D01*
X76809825Y-54875474D01*
X76811198Y-54879653D01*
X76861019Y-55025029D01*
X76903896Y-55139297D01*
X76930680Y-55198042D01*
X76941130Y-55217990D01*
X76974486Y-55306650D01*
X77011770Y-55428570D01*
X77023985Y-55472332D01*
X77066819Y-55622567D01*
X77103148Y-55745902D01*
X77124506Y-55828491D01*
X77141267Y-55966460D01*
X77127371Y-56062907D01*
X77083835Y-56099197D01*
X77050109Y-56089263D01*
X76998633Y-56029317D01*
X76994165Y-56018678D01*
X76956524Y-55988437D01*
X76910114Y-56041324D01*
X76855120Y-56177147D01*
X76834882Y-56247777D01*
X76835748Y-56333048D01*
X76835751Y-56333326D01*
G37*
G36*
X64355382Y-50691177D02*
G01*
X64264342Y-50776095D01*
X64257390Y-50782580D01*
X64127716Y-50859991D01*
X64085771Y-50880243D01*
X64066692Y-50889455D01*
X63987202Y-50935132D01*
X63900896Y-50995785D01*
X63819230Y-51062218D01*
X63797172Y-51080162D01*
X63665427Y-51197011D01*
X63495057Y-51355079D01*
X63275460Y-51563115D01*
X63153216Y-51677712D01*
X63041338Y-51774393D01*
X62961520Y-51827856D01*
X62899112Y-51847495D01*
X62839462Y-51842706D01*
X62821445Y-51839006D01*
X62745219Y-51838262D01*
X62723740Y-51881408D01*
X62718796Y-51911003D01*
X62669049Y-51979045D01*
X62656038Y-51988986D01*
X62593596Y-52059724D01*
X62523442Y-52162442D01*
X62513152Y-52179069D01*
X62421789Y-52310494D01*
X62328697Y-52424354D01*
X62306063Y-52449412D01*
X62195911Y-52585688D01*
X62088533Y-52737516D01*
X62001511Y-52878776D01*
X61952426Y-52983347D01*
X61946193Y-52999095D01*
X61883944Y-53088030D01*
X61789506Y-53177114D01*
X61709267Y-53250492D01*
X61595791Y-53376041D01*
X61487272Y-53515245D01*
X61393527Y-53632995D01*
X61306557Y-53718305D01*
X61246265Y-53751099D01*
X61191111Y-53738793D01*
X61178231Y-53697210D01*
X61235786Y-53653017D01*
X61268193Y-53629672D01*
X61298658Y-53553154D01*
X61326200Y-53488734D01*
X61400366Y-53389262D01*
X61504814Y-53277431D01*
X61550718Y-53231091D01*
X61668242Y-53091509D01*
X61747026Y-52964690D01*
X61779280Y-52865146D01*
X61757211Y-52807386D01*
X61743150Y-52801600D01*
X61717800Y-52826922D01*
X61706358Y-52849432D01*
X61644450Y-52864669D01*
X61569615Y-52859794D01*
X61452760Y-52866981D01*
X61363003Y-52908010D01*
X61278060Y-52996203D01*
X61175645Y-53144877D01*
X61093761Y-53280128D01*
X61004766Y-53451087D01*
X60943950Y-53597611D01*
X60921430Y-53697700D01*
X60946411Y-53727315D01*
X61009743Y-53789099D01*
X61049332Y-53831489D01*
X61076896Y-53892224D01*
X61081606Y-53983460D01*
X61067893Y-54131272D01*
X61063827Y-54165940D01*
X61044548Y-54295423D01*
X61016340Y-54370589D01*
X60964798Y-54415667D01*
X60875519Y-54454886D01*
X60779577Y-54498955D01*
X60734381Y-54546757D01*
X60736938Y-54612744D01*
X60741749Y-54677311D01*
X60715255Y-54734887D01*
X60685090Y-54781982D01*
X60678607Y-54820814D01*
X60669447Y-54875681D01*
X60664338Y-54935158D01*
X60639960Y-55069376D01*
X60619653Y-55150159D01*
X60602348Y-55218999D01*
X60594569Y-55247031D01*
X60555092Y-55413671D01*
X60514351Y-55617329D01*
X60480035Y-55820214D01*
X60468962Y-55888059D01*
X60433577Y-56057021D01*
X60394780Y-56189888D01*
X60359019Y-56263064D01*
X60357112Y-56265217D01*
X60303586Y-56358391D01*
X60265078Y-56479175D01*
X60231483Y-56594154D01*
X60175955Y-56734113D01*
X60110802Y-56872647D01*
X60048242Y-56983780D01*
X60000497Y-57041538D01*
X59971024Y-57041687D01*
X59922122Y-56992735D01*
X59916021Y-56982165D01*
X59873933Y-56943653D01*
X59814760Y-56976029D01*
X59777714Y-57017900D01*
X59746410Y-57099791D01*
X59743654Y-57121291D01*
X59714462Y-57217092D01*
X59664004Y-57335666D01*
X59647185Y-57372885D01*
X59600887Y-57506833D01*
X59581598Y-57616523D01*
X59577207Y-57682977D01*
X59557296Y-57821793D01*
X59527317Y-57971656D01*
X59493870Y-58101130D01*
X59463555Y-58178779D01*
X59422107Y-58215211D01*
X59332829Y-58256966D01*
X59292048Y-58268473D01*
X59251535Y-58264114D01*
X59264066Y-58210222D01*
X59279264Y-58166466D01*
X59304728Y-58040175D01*
X59314323Y-57902576D01*
X59309414Y-57772597D01*
X59291366Y-57669168D01*
X59261546Y-57611220D01*
X59221319Y-57617680D01*
X59220731Y-57618383D01*
X59211102Y-57672713D01*
X59205102Y-57792762D01*
X59203218Y-57961363D01*
X59205935Y-58161351D01*
X59210414Y-58359199D01*
X59214465Y-58575555D01*
X59217053Y-58759960D01*
X59217755Y-58886491D01*
X59215324Y-58962254D01*
X59206286Y-59115565D01*
X59192236Y-59310281D01*
X59174940Y-59525562D01*
X59156163Y-59740565D01*
X59137669Y-59934450D01*
X59121224Y-60086375D01*
X59108593Y-60175498D01*
X59109132Y-60196619D01*
X59150555Y-60217266D01*
X59162852Y-60217278D01*
X59195920Y-60255947D01*
X59201783Y-60326226D01*
X59174839Y-60388582D01*
X59164451Y-60438355D01*
X59154436Y-60562098D01*
X59145110Y-60749550D01*
X59136641Y-60990585D01*
X59129201Y-61275077D01*
X59122960Y-61592898D01*
X59118088Y-61933923D01*
X59114756Y-62288025D01*
X59113134Y-62645078D01*
X59113393Y-62994954D01*
X59115703Y-63327529D01*
X59120235Y-63632675D01*
X59116929Y-63789049D01*
X59100901Y-64002219D01*
X59075588Y-64202856D01*
X59062565Y-64288137D01*
X59047193Y-64436709D01*
X59052424Y-64536453D01*
X59078413Y-64610035D01*
X59085028Y-64625694D01*
X59100074Y-64697114D01*
X59111474Y-64817115D01*
X59119482Y-64992740D01*
X59124351Y-65231032D01*
X59126335Y-65539033D01*
X59125687Y-65923786D01*
X59125312Y-66013223D01*
X59124484Y-66350949D01*
X59125313Y-66616804D01*
X59128289Y-66820495D01*
X59133904Y-66971727D01*
X59142647Y-67080205D01*
X59155011Y-67155633D01*
X59171485Y-67207719D01*
X59192561Y-67246166D01*
X59252172Y-67338874D01*
X59309730Y-67436986D01*
X59355751Y-67488911D01*
X59467416Y-67512923D01*
X59484066Y-67512025D01*
X59559543Y-67526412D01*
X59580176Y-67586273D01*
X59586323Y-67632458D01*
X59614610Y-67667514D01*
X59627986Y-67646863D01*
X59639205Y-67563129D01*
X59639794Y-67436986D01*
X59639158Y-67353158D01*
X59664004Y-67353158D01*
X59684961Y-67374115D01*
X59705918Y-67353158D01*
X59684961Y-67332200D01*
X59664004Y-67353158D01*
X59639158Y-67353158D01*
X59639072Y-67341890D01*
X59647700Y-67244288D01*
X59665079Y-67206458D01*
X59671252Y-67203693D01*
X59685951Y-67149956D01*
X59684042Y-67049280D01*
X59679313Y-66970957D01*
X59701114Y-66758144D01*
X59771498Y-66587205D01*
X59883650Y-66470505D01*
X60030753Y-66420407D01*
X60048068Y-66419387D01*
X60138960Y-66430648D01*
X60168394Y-66466171D01*
X60125196Y-66514790D01*
X60102562Y-66536123D01*
X60043952Y-66630135D01*
X59978440Y-66771454D01*
X59915237Y-66936992D01*
X59863550Y-67103660D01*
X59832589Y-67248372D01*
X59822227Y-67353158D01*
X59818766Y-67388159D01*
X59811861Y-67666803D01*
X59823827Y-67969664D01*
X59852839Y-68261182D01*
X59897074Y-68505798D01*
X59945800Y-68705434D01*
X60013281Y-68984971D01*
X60063920Y-69199711D01*
X60100136Y-69359987D01*
X60124352Y-69476135D01*
X60131366Y-69506554D01*
X60170615Y-69627693D01*
X60228715Y-69772745D01*
X60296021Y-69921224D01*
X60362892Y-70052645D01*
X60419686Y-70146521D01*
X60456759Y-70182365D01*
X60467987Y-70179287D01*
X60505422Y-70122113D01*
X60532703Y-70009971D01*
X60543630Y-69865478D01*
X60556813Y-69771371D01*
X60595276Y-69625376D01*
X60650079Y-69467293D01*
X60701830Y-69324646D01*
X60752320Y-69161728D01*
X60781607Y-69037528D01*
X60785350Y-69017525D01*
X60833829Y-68869664D01*
X60906258Y-68731789D01*
X60928138Y-68698301D01*
X60983261Y-68599579D01*
X61005415Y-68535372D01*
X61007446Y-68527558D01*
X61035948Y-68546000D01*
X61087332Y-68618932D01*
X61150857Y-68696005D01*
X61298655Y-68788199D01*
X61471517Y-68825243D01*
X61638757Y-68797215D01*
X61744357Y-68769043D01*
X61843251Y-68769351D01*
X61871250Y-68775047D01*
X61916265Y-68758052D01*
X61927371Y-68677913D01*
X61915961Y-68592460D01*
X61880602Y-68517709D01*
X61845319Y-68475911D01*
X61786295Y-68387275D01*
X61758535Y-68341732D01*
X61687911Y-68233832D01*
X61602967Y-68109843D01*
X61550051Y-68029732D01*
X61480316Y-67907665D01*
X61442858Y-67819176D01*
X61439348Y-67808400D01*
X61390628Y-67723124D01*
X61302531Y-67604538D01*
X61191280Y-67474845D01*
X61163136Y-67443803D01*
X61061748Y-67324484D01*
X60990612Y-67228762D01*
X60963683Y-67175022D01*
X60960606Y-67155756D01*
X60921430Y-67122629D01*
X60894258Y-67098204D01*
X60879516Y-67020917D01*
X60866289Y-66954633D01*
X60806166Y-66900037D01*
X60795530Y-66897132D01*
X60772099Y-66883288D01*
X60829585Y-66876006D01*
X60841935Y-66876267D01*
X60941220Y-66914011D01*
X61060130Y-66999667D01*
X61177392Y-67113077D01*
X61271734Y-67234084D01*
X61321883Y-67342529D01*
X61351201Y-67412897D01*
X61444301Y-67542459D01*
X61586155Y-67690302D01*
X61646659Y-67749331D01*
X61814574Y-67940108D01*
X61956069Y-68139720D01*
X62057935Y-68328015D01*
X62106962Y-68484841D01*
X62109369Y-68500269D01*
X62142721Y-68630227D01*
X62193341Y-68766415D01*
X62193630Y-68767065D01*
X62242528Y-68880216D01*
X62254331Y-68939140D01*
X62224231Y-68966883D01*
X62147420Y-68986487D01*
X62095581Y-69002692D01*
X61941848Y-69097847D01*
X61807372Y-69242980D01*
X61712078Y-69412912D01*
X61675885Y-69582462D01*
X61673874Y-69602536D01*
X61630684Y-69703245D01*
X61547215Y-69808000D01*
X61499531Y-69860366D01*
X61420879Y-69996478D01*
X61367210Y-70185439D01*
X61338641Y-70301100D01*
X61306765Y-70384571D01*
X61281522Y-70404038D01*
X61273367Y-70401242D01*
X61263526Y-70443042D01*
X61270692Y-70538636D01*
X61275623Y-70574068D01*
X61297850Y-70737899D01*
X61319449Y-70901958D01*
X61329200Y-70959961D01*
X61363785Y-71078064D01*
X61405497Y-71148097D01*
X61446271Y-71213093D01*
X61466315Y-71318579D01*
X61493621Y-71543367D01*
X61584630Y-71788038D01*
X61727888Y-71990064D01*
X61734017Y-71996352D01*
X61855629Y-72102130D01*
X61964977Y-72143507D01*
X62086693Y-72123012D01*
X62245412Y-72043171D01*
X62328057Y-71999250D01*
X62473135Y-71958212D01*
X62601810Y-71986614D01*
X62737568Y-72086525D01*
X62775354Y-72118157D01*
X62905374Y-72203128D01*
X63058524Y-72281707D01*
X63204599Y-72339447D01*
X63313393Y-72361903D01*
X63355722Y-72367313D01*
X63412892Y-72399883D01*
X63419528Y-72407715D01*
X63483847Y-72421057D01*
X63571485Y-72395889D01*
X63645380Y-72341515D01*
X63665758Y-72297934D01*
X63655942Y-72225142D01*
X75198089Y-72225142D01*
X75204383Y-72256867D01*
X75260111Y-72326976D01*
X75350913Y-72419652D01*
X75460451Y-72519986D01*
X75572386Y-72613073D01*
X75670381Y-72684003D01*
X75738097Y-72717868D01*
X75780968Y-72725251D01*
X75926114Y-72738964D01*
X76110999Y-72747544D01*
X76304948Y-72750344D01*
X76477286Y-72746716D01*
X76597338Y-72736012D01*
X76692296Y-72717823D01*
X76836002Y-72675742D01*
X76919461Y-72621106D01*
X76958611Y-72545509D01*
X76971760Y-72506284D01*
X77022128Y-72458052D01*
X77125809Y-72445732D01*
X77141163Y-72445976D01*
X77231202Y-72459593D01*
X77267965Y-72487646D01*
X77266747Y-72497665D01*
X77226050Y-72529560D01*
X77213463Y-72531711D01*
X77184136Y-72575959D01*
X77195961Y-72597725D01*
X77255590Y-72594938D01*
X77262599Y-72592746D01*
X77350938Y-72597799D01*
X77458844Y-72638497D01*
X77572044Y-72678211D01*
X77688857Y-72683108D01*
X77777609Y-72653125D01*
X77812849Y-72591633D01*
X77818929Y-72563226D01*
X77867338Y-72529560D01*
X77899839Y-72523131D01*
X77974219Y-72477167D01*
X78004298Y-72450606D01*
X78055951Y-72421640D01*
X78192679Y-72402753D01*
X78342874Y-72372360D01*
X78457085Y-72338934D01*
X78511618Y-72308365D01*
X78505413Y-72258187D01*
X78448231Y-72191219D01*
X78444824Y-72188432D01*
X78371577Y-72095902D01*
X78371182Y-71989995D01*
X78443433Y-71856306D01*
X78448596Y-71849039D01*
X78499718Y-71766143D01*
X78501443Y-71721271D01*
X80188647Y-71721271D01*
X80240584Y-71773345D01*
X80283132Y-71793698D01*
X80336691Y-71807039D01*
X80412239Y-71808410D01*
X80530116Y-71797912D01*
X80710665Y-71775644D01*
X80797018Y-71761906D01*
X81027940Y-71696536D01*
X81218868Y-71600135D01*
X81358854Y-71481172D01*
X81436954Y-71348122D01*
X81442220Y-71209454D01*
X81413618Y-71152152D01*
X81320075Y-71100964D01*
X81175666Y-71101032D01*
X80988665Y-71150717D01*
X80767345Y-71248377D01*
X80519978Y-71392370D01*
X80443173Y-71443255D01*
X80286646Y-71560721D01*
X80202903Y-71651895D01*
X80188647Y-71721271D01*
X78501443Y-71721271D01*
X78502034Y-71705914D01*
X78458166Y-71627643D01*
X78386351Y-71542559D01*
X78259569Y-71457942D01*
X78078489Y-71391992D01*
X77828425Y-71337954D01*
X77779238Y-71329672D01*
X77592099Y-71306884D01*
X77437443Y-71308553D01*
X77276222Y-71334431D01*
X77272681Y-71335189D01*
X76988497Y-71412454D01*
X76767458Y-71506663D01*
X76613694Y-71613920D01*
X76531334Y-71730329D01*
X76524505Y-71851994D01*
X76597338Y-71975020D01*
X76654355Y-72052914D01*
X76681166Y-72127149D01*
X76684813Y-72154686D01*
X76723080Y-72215204D01*
X76744663Y-72239582D01*
X76764994Y-72317919D01*
X76758212Y-72352164D01*
X76712470Y-72397077D01*
X76614556Y-72429581D01*
X76453944Y-72452596D01*
X76220110Y-72469040D01*
X76172170Y-72471137D01*
X75976792Y-72467800D01*
X75799443Y-72438173D01*
X75610932Y-72375417D01*
X75382068Y-72272693D01*
X75354938Y-72260272D01*
X75256671Y-72226888D01*
X75198089Y-72225142D01*
X63655942Y-72225142D01*
X63650652Y-72185913D01*
X63639091Y-72160429D01*
X63563726Y-72045981D01*
X63447920Y-71905862D01*
X63310966Y-71760864D01*
X63172157Y-71631782D01*
X63050785Y-71539408D01*
X62984768Y-71490117D01*
X62883238Y-71357907D01*
X62825969Y-71174994D01*
X62807802Y-70928405D01*
X62814909Y-70787074D01*
X62836278Y-70615867D01*
X62867125Y-70451844D01*
X62902583Y-70320500D01*
X62937787Y-70247332D01*
X62962434Y-70192769D01*
X62975225Y-70093582D01*
X62983104Y-69983603D01*
X63025180Y-69880519D01*
X63105452Y-69847052D01*
X63154748Y-69833775D01*
X63184796Y-69763224D01*
X63191486Y-69714553D01*
X63220560Y-69679395D01*
X63237959Y-69663133D01*
X63260512Y-69579141D01*
X63276652Y-69437916D01*
X63285716Y-69255603D01*
X63287043Y-69048347D01*
X63279971Y-68832294D01*
X63263838Y-68623589D01*
X63257640Y-68552469D01*
X63246331Y-68364229D01*
X63235534Y-68113643D01*
X63225682Y-67814637D01*
X63217207Y-67481138D01*
X63210543Y-67127070D01*
X63206122Y-66766359D01*
X63203608Y-66470257D01*
X63201373Y-66143944D01*
X63200784Y-65885945D01*
X63202258Y-65687413D01*
X63206216Y-65539501D01*
X63213075Y-65433360D01*
X63223255Y-65360144D01*
X63237173Y-65311004D01*
X63255249Y-65277093D01*
X63277901Y-65249564D01*
X63336966Y-65148206D01*
X63357890Y-65051440D01*
X67299321Y-65051440D01*
X67328056Y-65106765D01*
X67409564Y-65149114D01*
X67469453Y-65170601D01*
X67561054Y-65175410D01*
X67669229Y-65131905D01*
X67792994Y-65092399D01*
X67976551Y-65080951D01*
X68160211Y-65107487D01*
X68305481Y-65169721D01*
X68369776Y-65211731D01*
X68432972Y-65234222D01*
X68476701Y-65211803D01*
X68479565Y-65210033D01*
X68540381Y-65197812D01*
X68661241Y-65184044D01*
X68821807Y-65170304D01*
X69001741Y-65158169D01*
X69180706Y-65149215D01*
X69338364Y-65145019D01*
X69403792Y-65129216D01*
X69472184Y-65047195D01*
X69518766Y-64975512D01*
X69627755Y-64915216D01*
X69758258Y-64919892D01*
X69770132Y-64923353D01*
X69871748Y-64944488D01*
X69999264Y-64962826D01*
X70099018Y-64977405D01*
X70264444Y-65007866D01*
X70435951Y-65044600D01*
X70611054Y-65075647D01*
X70819343Y-65097029D01*
X71033601Y-65107132D01*
X71231632Y-65105519D01*
X71391243Y-65091751D01*
X71490238Y-65065392D01*
X71566615Y-65033051D01*
X71686575Y-64999984D01*
X71707755Y-64995243D01*
X71850372Y-64920576D01*
X71992041Y-64782520D01*
X72122260Y-64598163D01*
X72230528Y-64384592D01*
X72306342Y-64158894D01*
X72339200Y-63938155D01*
X72361777Y-63858924D01*
X72451567Y-63796214D01*
X72521139Y-63784573D01*
X72664327Y-63816107D01*
X72813327Y-63905327D01*
X72950072Y-64039946D01*
X73056496Y-64207674D01*
X73094969Y-64299581D01*
X73142009Y-64452662D01*
X73160374Y-64575255D01*
X73160579Y-64588544D01*
X73177343Y-64698096D01*
X73212767Y-64766597D01*
X73257508Y-64781254D01*
X73373367Y-64796323D01*
X73538598Y-64806675D01*
X73734231Y-64810706D01*
X73884290Y-64812281D01*
X74093183Y-64818496D01*
X74272903Y-64828274D01*
X74396125Y-64840389D01*
X74478031Y-64851687D01*
X74559257Y-64851157D01*
X74603344Y-64817368D01*
X74638305Y-64738541D01*
X74642392Y-64728166D01*
X74709459Y-64632413D01*
X74792880Y-64611943D01*
X74878856Y-64670649D01*
X74916333Y-64703454D01*
X74999252Y-64732796D01*
X75058339Y-64713660D01*
X75148728Y-64643750D01*
X75224377Y-64550954D01*
X75256083Y-64465649D01*
X75265760Y-64412810D01*
X75308804Y-64408119D01*
X75393156Y-64471332D01*
X75410318Y-64486607D01*
X75460735Y-64517658D01*
X75506221Y-64497770D01*
X75574470Y-64418939D01*
X75646713Y-64320148D01*
X75763170Y-64095119D01*
X75808759Y-63881645D01*
X75820009Y-63790248D01*
X75863575Y-63736194D01*
X75964720Y-63701931D01*
X75974370Y-63699474D01*
X76085308Y-63650703D01*
X76127992Y-63575939D01*
X76128333Y-63573396D01*
X76116793Y-63511182D01*
X76055453Y-63450566D01*
X75929671Y-63376847D01*
X75842641Y-63336112D01*
X75700370Y-63286067D01*
X75590219Y-63266524D01*
X75563430Y-63265708D01*
X75465204Y-63234151D01*
X75390355Y-63141001D01*
X75371578Y-63112343D01*
X75279339Y-63028651D01*
X75168892Y-62982221D01*
X75066119Y-62980335D01*
X74996903Y-63030278D01*
X74960428Y-63068673D01*
X74871641Y-63098867D01*
X74852354Y-63098554D01*
X74809568Y-63084207D01*
X74837782Y-63034983D01*
X74862850Y-62992997D01*
X74861457Y-62941754D01*
X74820116Y-62927467D01*
X74718730Y-62914553D01*
X74582828Y-62906339D01*
X74436023Y-62903254D01*
X74301927Y-62905728D01*
X74204153Y-62914194D01*
X74166315Y-62929080D01*
X74138266Y-62967694D01*
X74055994Y-62989164D01*
X73948596Y-62984798D01*
X73845746Y-62952436D01*
X73739017Y-62916070D01*
X73647617Y-62915284D01*
X73604814Y-62922569D01*
X73592458Y-62902264D01*
X73599219Y-62877736D01*
X73596689Y-62868339D01*
X74040572Y-62868339D01*
X74061529Y-62889296D01*
X74082486Y-62868339D01*
X74061529Y-62847382D01*
X74040572Y-62868339D01*
X73596689Y-62868339D01*
X73579945Y-62806162D01*
X73551825Y-62780145D01*
X74051924Y-62780145D01*
X74052573Y-62794453D01*
X74106936Y-62802159D01*
X74148136Y-62795447D01*
X74132259Y-62776836D01*
X74108021Y-62770139D01*
X74051924Y-62780145D01*
X73551825Y-62780145D01*
X73541375Y-62770476D01*
X73482969Y-62798630D01*
X73456730Y-62816162D01*
X73391215Y-62820765D01*
X73291426Y-62774978D01*
X73275622Y-62765618D01*
X73194022Y-62702887D01*
X73160639Y-62650894D01*
X73144438Y-62622898D01*
X73076546Y-62607421D01*
X73028018Y-62616712D01*
X72992717Y-62644060D01*
X72957018Y-62656585D01*
X72865413Y-62658601D01*
X72745338Y-62651440D01*
X72624243Y-62636753D01*
X72529577Y-62616193D01*
X72458500Y-62600655D01*
X72313813Y-62579581D01*
X72127180Y-62558242D01*
X71921588Y-62538777D01*
X71720025Y-62523325D01*
X71545478Y-62514027D01*
X71420935Y-62513020D01*
X71279736Y-62518401D01*
X71088218Y-62524885D01*
X70897008Y-62530703D01*
X70889089Y-62530941D01*
X70717308Y-62542428D01*
X70565126Y-62563119D01*
X70464659Y-62588704D01*
X70358330Y-62620791D01*
X70227127Y-62637811D01*
X70182543Y-62641641D01*
X70052470Y-62671624D01*
X69912024Y-62721639D01*
X69845973Y-62747872D01*
X69715076Y-62789180D01*
X69620282Y-62805468D01*
X69553773Y-62817537D01*
X69471925Y-62868339D01*
X69405505Y-62910538D01*
X69299136Y-62931210D01*
X69215933Y-62944085D01*
X69178526Y-62992607D01*
X69142252Y-63061475D01*
X69053881Y-63117619D01*
X68944962Y-63140781D01*
X68901483Y-63153973D01*
X68806056Y-63211055D01*
X68695778Y-63297959D01*
X68529272Y-63443457D01*
X68400941Y-63549831D01*
X68299807Y-63624160D01*
X68208504Y-63679173D01*
X68109667Y-63727601D01*
X67971981Y-63811991D01*
X67905469Y-63909896D01*
X67860737Y-63995887D01*
X67774415Y-64079987D01*
X67754705Y-64093507D01*
X67693175Y-64163210D01*
X67694638Y-64252786D01*
X67700634Y-64279419D01*
X67695951Y-64340903D01*
X67638195Y-64356293D01*
X67635787Y-64356361D01*
X67567663Y-64396167D01*
X67489241Y-64495185D01*
X67412193Y-64632709D01*
X67348190Y-64788033D01*
X67308905Y-64940453D01*
X67307389Y-64950038D01*
X67299321Y-65051440D01*
X63357890Y-65051440D01*
X63366029Y-65013803D01*
X63374998Y-64919408D01*
X63411043Y-64879531D01*
X63497382Y-64874987D01*
X63624895Y-64880220D01*
X63610335Y-64560381D01*
X63607512Y-64402944D01*
X63617638Y-64270965D01*
X63641771Y-64212116D01*
X63673877Y-64156165D01*
X63687767Y-64057269D01*
X63709389Y-63956503D01*
X63768799Y-63811294D01*
X63855423Y-63648641D01*
X63871616Y-63621078D01*
X63948524Y-63480723D01*
X64002631Y-63366281D01*
X64023080Y-63300313D01*
X64041248Y-63219018D01*
X64085693Y-63114137D01*
X64129484Y-63008544D01*
X64148565Y-62917917D01*
X64153764Y-62892376D01*
X64202704Y-62805275D01*
X64286444Y-62708346D01*
X64369696Y-62611108D01*
X64432973Y-62482995D01*
X64480943Y-62302497D01*
X64514086Y-62165448D01*
X64553956Y-62039364D01*
X64588436Y-61967184D01*
X64615217Y-61929131D01*
X64664793Y-61831669D01*
X64688560Y-61794291D01*
X64754992Y-61783761D01*
X64793039Y-61788885D01*
X64819450Y-61743869D01*
X64832753Y-61667615D01*
X64868392Y-61561249D01*
X64901707Y-61457442D01*
X64920785Y-61342045D01*
X64935123Y-61277846D01*
X64972577Y-61227690D01*
X65011232Y-61221552D01*
X65029021Y-61273422D01*
X65029756Y-61287254D01*
X65068999Y-61352399D01*
X65153209Y-61364654D01*
X65261783Y-61319904D01*
X65370079Y-61276079D01*
X65487684Y-61293497D01*
X65575424Y-61383224D01*
X65610036Y-61431454D01*
X65663217Y-61464214D01*
X65668440Y-61464673D01*
X65736140Y-61492726D01*
X65829399Y-61550896D01*
X65885287Y-61597879D01*
X65941770Y-61696286D01*
X65936547Y-61821947D01*
X65871169Y-61991202D01*
X65858339Y-62019963D01*
X65812108Y-62172510D01*
X65795724Y-62316128D01*
X65803886Y-62416551D01*
X65829729Y-62456683D01*
X65886166Y-62451566D01*
X66029447Y-62412978D01*
X66113802Y-62395648D01*
X66151837Y-62398931D01*
X66160704Y-62420912D01*
X66129177Y-62454475D01*
X66045440Y-62477849D01*
X66043901Y-62478035D01*
X65953452Y-62517594D01*
X65872484Y-62597702D01*
X65814889Y-62695002D01*
X65794560Y-62786140D01*
X65825390Y-62847762D01*
X65839272Y-62857031D01*
X65856138Y-62881998D01*
X65796428Y-62888654D01*
X65716138Y-62907526D01*
X65665062Y-62952220D01*
X65671497Y-63000859D01*
X65671983Y-63001339D01*
X65742061Y-63017177D01*
X65842949Y-62981280D01*
X65951618Y-62905844D01*
X66045042Y-62803060D01*
X66068867Y-62770123D01*
X66167613Y-62669246D01*
X66262617Y-62637811D01*
X66333044Y-62629315D01*
X66388295Y-62600648D01*
X66391822Y-62596282D01*
X66454276Y-62563862D01*
X66558426Y-62535878D01*
X66578763Y-62531697D01*
X66668953Y-62502124D01*
X66705588Y-62470154D01*
X66713892Y-62457014D01*
X66778223Y-62425852D01*
X66880309Y-62397472D01*
X66988875Y-62379569D01*
X67072649Y-62379837D01*
X67117968Y-62360169D01*
X67164533Y-62287093D01*
X67183013Y-62245710D01*
X67216288Y-62211431D01*
X67277840Y-62192810D01*
X67386184Y-62184974D01*
X67559835Y-62183050D01*
X67706963Y-62179614D01*
X67898890Y-62159351D01*
X68012835Y-62120649D01*
X68116678Y-62070719D01*
X68245935Y-62030839D01*
X68257122Y-62028380D01*
X68345792Y-61997868D01*
X68382156Y-61964652D01*
X68408473Y-61933072D01*
X68477899Y-61904313D01*
X69052783Y-61904313D01*
X69073740Y-61925270D01*
X69094697Y-61904313D01*
X69073740Y-61883356D01*
X69052783Y-61904313D01*
X68477899Y-61904313D01*
X68486942Y-61900567D01*
X68556205Y-61873796D01*
X68591727Y-61836898D01*
X68618811Y-61812101D01*
X68698594Y-61799527D01*
X68801884Y-61783463D01*
X68922873Y-61738811D01*
X68963170Y-61719326D01*
X69046126Y-61700415D01*
X69119884Y-61731670D01*
X69124776Y-61734796D01*
X69224899Y-61771410D01*
X69350376Y-61788059D01*
X69494047Y-61809476D01*
X69630641Y-61857775D01*
X69675415Y-61878805D01*
X69794250Y-61903262D01*
X69866620Y-61858726D01*
X69891067Y-61745822D01*
X69891067Y-61617258D01*
X69996709Y-61716503D01*
X70067012Y-61774642D01*
X70138871Y-61793314D01*
X70240691Y-61765723D01*
X70406411Y-61721761D01*
X70529109Y-61731765D01*
X70623671Y-61798539D01*
X70683590Y-61848383D01*
X70734953Y-61858936D01*
X70746140Y-61853969D01*
X70771265Y-61876338D01*
X70795001Y-61904313D01*
X70802620Y-61913293D01*
X70880592Y-61942695D01*
X70965820Y-61952691D01*
X71018774Y-61934064D01*
X71043091Y-61915605D01*
X71133711Y-61885848D01*
X71256138Y-61864712D01*
X71376951Y-61857160D01*
X71462729Y-61868152D01*
X71519354Y-61913512D01*
X71574101Y-62004336D01*
X71616060Y-62113884D01*
X71699578Y-62011296D01*
X71781895Y-61942035D01*
X71902793Y-61900422D01*
X72008718Y-61885486D01*
X72082834Y-61844874D01*
X72085247Y-61777228D01*
X72081327Y-61741645D01*
X72128992Y-61715699D01*
X72162455Y-61724062D01*
X72196348Y-61778570D01*
X72196616Y-61785690D01*
X72231508Y-61834245D01*
X72314468Y-61829672D01*
X72430455Y-61772370D01*
X72497457Y-61710062D01*
X72512186Y-61641576D01*
X72512045Y-61599149D01*
X72572911Y-61601927D01*
X72626958Y-61606939D01*
X72683044Y-61582379D01*
X72699506Y-61576279D01*
X72762859Y-61605700D01*
X72850742Y-61678364D01*
X72898884Y-61723349D01*
X72966267Y-61778502D01*
X72992717Y-61787830D01*
X73022277Y-61779685D01*
X73099550Y-61800306D01*
X73139135Y-61812869D01*
X73226454Y-61810100D01*
X73327653Y-61751265D01*
X73386786Y-61711385D01*
X73471293Y-61684320D01*
X73566612Y-61706183D01*
X73663349Y-61736639D01*
X73747173Y-61751456D01*
X73769827Y-61753398D01*
X73868072Y-61771852D01*
X73993853Y-61803334D01*
X74022950Y-61811103D01*
X74160389Y-61832332D01*
X74248075Y-61810546D01*
X74292088Y-61791365D01*
X74393572Y-61808592D01*
X74401967Y-61812518D01*
X74490753Y-61832833D01*
X74632086Y-61848537D01*
X74799483Y-61856505D01*
X74827980Y-61857093D01*
X75001034Y-61866413D01*
X75099271Y-61885197D01*
X75130326Y-61914791D01*
X75143840Y-61944050D01*
X75209037Y-61967184D01*
X75254794Y-61974753D01*
X75333984Y-62022913D01*
X75350611Y-62036981D01*
X75426537Y-62059371D01*
X75518978Y-62058081D01*
X75594913Y-62036140D01*
X75621321Y-61996574D01*
X75628079Y-61969653D01*
X75685704Y-61935164D01*
X75726022Y-61933803D01*
X75759054Y-61964111D01*
X75756877Y-61977701D01*
X75712655Y-62009098D01*
X75692437Y-62017622D01*
X75689868Y-62070627D01*
X75696543Y-62102222D01*
X75676062Y-62155281D01*
X75656154Y-62182838D01*
X75644968Y-62262342D01*
X75647495Y-62284026D01*
X75664445Y-62316918D01*
X75711543Y-62331631D01*
X75806527Y-62331285D01*
X75967136Y-62318998D01*
X76036629Y-62311239D01*
X76198983Y-62282601D01*
X76362138Y-62242471D01*
X76509486Y-62196386D01*
X76624415Y-62149885D01*
X76690315Y-62108505D01*
X76690577Y-62077786D01*
X76669474Y-62046609D01*
X76669032Y-61967142D01*
X76672959Y-61916526D01*
X76644140Y-61883356D01*
X76612971Y-61855866D01*
X76597338Y-61775815D01*
X76588425Y-61694058D01*
X76561328Y-61610071D01*
X77109263Y-61610071D01*
X77114279Y-61659813D01*
X77126886Y-61666371D01*
X77142222Y-61631870D01*
X77139197Y-61609681D01*
X77114279Y-61603928D01*
X77109263Y-61610071D01*
X76561328Y-61610071D01*
X76553949Y-61587201D01*
X76531969Y-61531785D01*
X76553949Y-61506128D01*
X76581830Y-61482622D01*
X76597338Y-61406231D01*
X76610770Y-61340423D01*
X76681339Y-61284367D01*
X76740293Y-61246902D01*
X76743188Y-61192394D01*
X76696411Y-61148218D01*
X76612370Y-61140291D01*
X76543607Y-61141751D01*
X76513509Y-61097646D01*
X76522307Y-61066667D01*
X76576381Y-61060229D01*
X76597198Y-61065092D01*
X76634915Y-61041761D01*
X76632328Y-60986485D01*
X76586791Y-60931890D01*
X76533886Y-60876472D01*
X76474923Y-60783108D01*
X76416960Y-60706658D01*
X76326196Y-60667844D01*
X76261613Y-60658867D01*
X76169605Y-60592182D01*
X76136281Y-60470847D01*
X76154218Y-60398553D01*
X76216037Y-60378121D01*
X76316779Y-60423701D01*
X76451069Y-60534211D01*
X76514904Y-60590399D01*
X76647998Y-60687162D01*
X76764994Y-60749814D01*
X76896185Y-60807175D01*
X77044800Y-60894233D01*
X77146204Y-60981507D01*
X77183850Y-61056866D01*
X77192795Y-61098221D01*
X77247008Y-61155657D01*
X77277600Y-61176448D01*
X77309879Y-61250936D01*
X77319091Y-61285774D01*
X77372017Y-61376871D01*
X77456293Y-61481936D01*
X77593627Y-61631870D01*
X77602707Y-61641783D01*
X77955523Y-61635773D01*
X78095357Y-61634279D01*
X78222184Y-61639198D01*
X78307196Y-61657292D01*
X78374184Y-61694398D01*
X78446936Y-61756353D01*
X78503142Y-61806941D01*
X78564281Y-61851583D01*
X78599534Y-61846798D01*
X78631218Y-61797579D01*
X78659236Y-61749622D01*
X78692722Y-61737500D01*
X78747938Y-61790709D01*
X78786992Y-61850277D01*
X78787772Y-61900402D01*
X78790748Y-61910924D01*
X78850804Y-61920157D01*
X78961412Y-61917957D01*
X79166252Y-61904313D01*
X79226100Y-62081121D01*
X79226255Y-62081581D01*
X79274601Y-62196675D01*
X79334580Y-62255840D01*
X79432941Y-62285506D01*
X79546590Y-62292919D01*
X79678548Y-62260306D01*
X79757432Y-62231588D01*
X79837752Y-62230781D01*
X79897330Y-62233234D01*
X79949452Y-62192468D01*
X80327701Y-62192468D01*
X80343409Y-62230474D01*
X80411529Y-62272728D01*
X80461725Y-62280261D01*
X80495357Y-62266742D01*
X80476733Y-62237622D01*
X80411529Y-62186482D01*
X80392001Y-62174648D01*
X80340290Y-62156064D01*
X80327701Y-62192468D01*
X79949452Y-62192468D01*
X79964524Y-62180680D01*
X79992387Y-62084544D01*
X79999068Y-62043804D01*
X80034301Y-62009098D01*
X80053583Y-62016191D01*
X80076215Y-62071969D01*
X80080127Y-62090051D01*
X80129994Y-62127665D01*
X80204409Y-62132499D01*
X80261367Y-62098528D01*
X80254793Y-62054497D01*
X80200970Y-61987247D01*
X80147565Y-61920584D01*
X80118130Y-61834945D01*
X80102821Y-61784622D01*
X80026524Y-61757613D01*
X79951662Y-61736928D01*
X79855040Y-61678518D01*
X79774553Y-61605351D01*
X79740902Y-61540736D01*
X79769688Y-61511247D01*
X79841116Y-61507070D01*
X79918439Y-61526976D01*
X79964743Y-61566687D01*
X79968157Y-61573462D01*
X80030702Y-61620747D01*
X80135123Y-61654849D01*
X80177011Y-61666279D01*
X80315513Y-61729619D01*
X80483644Y-61831144D01*
X80659254Y-61956712D01*
X80820192Y-62092183D01*
X80884444Y-62180956D01*
X80908581Y-62266742D01*
X80914499Y-62287776D01*
X80911730Y-62338303D01*
X80882303Y-62380123D01*
X80799235Y-62376054D01*
X80709320Y-62356622D01*
X80620656Y-62328749D01*
X80610784Y-62325731D01*
X80529099Y-62346470D01*
X80418977Y-62427606D01*
X80379561Y-62462362D01*
X80295235Y-62527953D01*
X80245386Y-62553983D01*
X80243867Y-62554093D01*
X80206530Y-62592685D01*
X80166324Y-62679725D01*
X80164521Y-62684807D01*
X80122634Y-62770197D01*
X80094218Y-62795447D01*
X80082940Y-62805468D01*
X80050916Y-62830296D01*
X80034585Y-62868339D01*
X80017791Y-62907460D01*
X79982932Y-62977563D01*
X79908461Y-63036027D01*
X79864080Y-63059907D01*
X79832973Y-63123748D01*
X79824730Y-63246328D01*
X79824913Y-63264752D01*
X79837910Y-63438285D01*
X79857833Y-63573396D01*
X79867004Y-63635591D01*
X79905957Y-63820817D01*
X79948533Y-63958108D01*
X80004605Y-64101331D01*
X80062335Y-64268092D01*
X80104660Y-64411412D01*
X80122992Y-64504394D01*
X80124251Y-64523731D01*
X80131512Y-64558797D01*
X80147022Y-64513471D01*
X80161634Y-64474580D01*
X80194553Y-64441454D01*
X80210127Y-64444293D01*
X80278927Y-64484206D01*
X80340092Y-64546623D01*
X80360706Y-64600110D01*
X80373075Y-64643987D01*
X80432486Y-64708272D01*
X80449675Y-64721865D01*
X80485897Y-64763308D01*
X80453443Y-64778280D01*
X80439638Y-64790827D01*
X80495357Y-64813789D01*
X80573231Y-64822295D01*
X80704928Y-64771617D01*
X80795904Y-64724727D01*
X80936950Y-64675543D01*
X81089986Y-64637379D01*
X81225298Y-64617487D01*
X81313171Y-64623122D01*
X81348461Y-64651698D01*
X81375555Y-64732205D01*
X81383591Y-64782187D01*
X81417470Y-64817349D01*
X81441831Y-64833068D01*
X81459384Y-64901177D01*
X81464477Y-64939914D01*
X81505832Y-64975831D01*
X81607558Y-64985006D01*
X81609843Y-64985013D01*
X81743211Y-65004831D01*
X81856982Y-65051347D01*
X81891457Y-65071217D01*
X81995899Y-65101662D01*
X82076654Y-65086219D01*
X82109054Y-65027248D01*
X82103341Y-65008191D01*
X82032133Y-64962066D01*
X81878526Y-64922134D01*
X81761338Y-64897752D01*
X81684933Y-64869024D01*
X81653872Y-64825878D01*
X81647998Y-64753575D01*
X81647998Y-64628735D01*
X82115189Y-64628735D01*
X82289942Y-64629891D01*
X82446907Y-64635936D01*
X82551152Y-64649412D01*
X82619945Y-64672799D01*
X82670552Y-64708581D01*
X82730248Y-64757796D01*
X82779185Y-64762249D01*
X82845872Y-64709559D01*
X82884728Y-64676082D01*
X82934182Y-64653770D01*
X82996012Y-64670018D01*
X83100118Y-64726861D01*
X83192550Y-64775282D01*
X83271807Y-64795880D01*
X83327117Y-64773317D01*
X83339546Y-64763859D01*
X83403033Y-64749021D01*
X83491284Y-64791923D01*
X83597753Y-64836144D01*
X83753458Y-64833212D01*
X83757301Y-64832559D01*
X83910494Y-64812036D01*
X84058064Y-64799979D01*
X84070005Y-64799397D01*
X84178979Y-64787197D01*
X84246678Y-64768113D01*
X84254421Y-64764831D01*
X84330845Y-64750820D01*
X84462121Y-64737547D01*
X84625030Y-64727507D01*
X84697945Y-64724835D01*
X84878672Y-64727150D01*
X85015402Y-64748239D01*
X85137337Y-64791764D01*
X85191806Y-64818410D01*
X85270989Y-64868885D01*
X85293265Y-64903228D01*
X85299412Y-64921651D01*
X85359477Y-64969764D01*
X85464049Y-65027820D01*
X85527639Y-65057885D01*
X85618674Y-65092120D01*
X85675973Y-65090315D01*
X85726441Y-65055289D01*
X85756505Y-65035647D01*
X85865367Y-64998116D01*
X86001325Y-64977239D01*
X86204541Y-64964049D01*
X86218299Y-64776900D01*
X86247182Y-64626502D01*
X86308132Y-64534123D01*
X86333206Y-64511385D01*
X86370473Y-64428468D01*
X86376880Y-64289145D01*
X86376026Y-64254269D01*
X86388315Y-64130621D01*
X86429319Y-64076860D01*
X86466336Y-64041494D01*
X86489087Y-63956097D01*
X86498577Y-63890180D01*
X86533858Y-63830599D01*
X86551438Y-63812086D01*
X86556131Y-63744297D01*
X86547545Y-63717052D01*
X86549845Y-63685666D01*
X86566315Y-63682390D01*
X86632358Y-63660224D01*
X86680403Y-63658519D01*
X86698658Y-63720622D01*
X86706413Y-63773688D01*
X86743157Y-63833963D01*
X86780360Y-63874747D01*
X86825948Y-63962180D01*
X86867002Y-64025942D01*
X86945613Y-64062893D01*
X86993500Y-64071666D01*
X87044619Y-64115286D01*
X87045110Y-64116717D01*
X87074788Y-64143474D01*
X87136476Y-64106390D01*
X87163760Y-64085199D01*
X87216516Y-64070937D01*
X87269035Y-64124879D01*
X87304374Y-64183440D01*
X87327371Y-64254386D01*
X87358788Y-64335330D01*
X87441971Y-64371978D01*
X87553207Y-64350804D01*
X87654359Y-64325099D01*
X87760414Y-64340629D01*
X87831015Y-64395645D01*
X87843055Y-64479858D01*
X87839530Y-64539385D01*
X87873281Y-64629971D01*
X87898901Y-64671005D01*
X87900660Y-64719087D01*
X87894153Y-64751093D01*
X87918567Y-64825566D01*
X87924805Y-64836874D01*
X87968508Y-64881551D01*
X88024641Y-64854544D01*
X88109635Y-64751541D01*
X88179415Y-64607321D01*
X88207569Y-64471543D01*
X88220546Y-64396063D01*
X88271217Y-64308850D01*
X88339998Y-64272464D01*
X88344066Y-64273108D01*
X88396787Y-64308244D01*
X88472039Y-64380532D01*
X88473382Y-64381979D01*
X88543569Y-64449903D01*
X88589834Y-64460156D01*
X88641392Y-64419452D01*
X88682596Y-64364716D01*
X88710539Y-64282045D01*
X88717268Y-64245251D01*
X88752056Y-64255301D01*
X88752904Y-64257350D01*
X88757707Y-64318349D01*
X88762131Y-64462625D01*
X88766174Y-64689705D01*
X88769836Y-64999118D01*
X88773114Y-65390391D01*
X88776008Y-65863054D01*
X88778516Y-66416634D01*
X88780637Y-67050659D01*
X88782369Y-67764657D01*
X88783710Y-68558158D01*
X88784661Y-69430689D01*
X88785218Y-70381778D01*
X88785349Y-71209454D01*
X88785381Y-71410953D01*
X88785193Y-72308365D01*
X88785149Y-72517743D01*
X88784519Y-73701677D01*
X88784022Y-74310913D01*
X88783491Y-74962281D01*
X88782801Y-75678145D01*
X88782125Y-76337587D01*
X88781701Y-76751236D01*
X88780580Y-77745318D01*
X88779419Y-78663352D01*
X88778197Y-79508298D01*
X88776892Y-80283116D01*
X88775484Y-80990766D01*
X88773953Y-81634209D01*
X88772278Y-82216405D01*
X88770438Y-82740314D01*
X88768412Y-83208897D01*
X88766180Y-83625112D01*
X88763721Y-83991922D01*
X88761013Y-84312286D01*
X88758038Y-84589163D01*
X88754773Y-84825516D01*
X88751198Y-85024303D01*
X88747293Y-85188484D01*
X88743037Y-85321021D01*
X88738408Y-85424874D01*
X88733387Y-85503001D01*
X88727952Y-85558365D01*
X88722083Y-85593925D01*
X88715759Y-85612640D01*
X88708960Y-85617473D01*
X88700016Y-85616575D01*
X88682993Y-85627745D01*
X88656360Y-85645221D01*
X88640599Y-85743215D01*
X88640071Y-85772736D01*
X88643962Y-85818979D01*
X88655571Y-85784923D01*
X88663558Y-85753181D01*
X88700142Y-85695845D01*
X88738128Y-85714551D01*
X88760417Y-85805880D01*
X88761090Y-85823214D01*
X88762663Y-85919824D01*
X88764218Y-86088496D01*
X88765716Y-86321003D01*
X88767121Y-86609118D01*
X88768396Y-86944610D01*
X88769502Y-87319253D01*
X88770403Y-87724817D01*
X88770987Y-88104272D01*
X88771062Y-88153075D01*
X88771200Y-88268339D01*
X88771558Y-88566596D01*
X88771938Y-88883103D01*
X88772014Y-88946177D01*
X88772401Y-89268038D01*
X88773742Y-90385006D01*
X73799731Y-90385006D01*
X58825720Y-90385006D01*
X58825720Y-89864310D01*
X58825720Y-89343614D01*
X69964417Y-89346978D01*
X70843848Y-89347162D01*
X72041911Y-89347129D01*
X73177151Y-89346754D01*
X74248168Y-89346042D01*
X75253561Y-89344998D01*
X76191930Y-89343625D01*
X77061874Y-89341930D01*
X77861995Y-89339915D01*
X78590890Y-89337587D01*
X79247159Y-89334950D01*
X79829404Y-89332007D01*
X80336222Y-89328765D01*
X80766214Y-89325227D01*
X81117979Y-89321398D01*
X81390117Y-89317283D01*
X81581228Y-89312887D01*
X81689912Y-89308213D01*
X81795082Y-89300647D01*
X81990283Y-89286218D01*
X82108028Y-89276228D01*
X82121204Y-89274280D01*
X85231661Y-89274280D01*
X85252618Y-89295237D01*
X85273575Y-89274280D01*
X85272409Y-89273114D01*
X85368369Y-89273114D01*
X85374040Y-89274280D01*
X85404703Y-89280585D01*
X85504103Y-89283249D01*
X85581619Y-89281363D01*
X85626920Y-89274763D01*
X85625457Y-89274280D01*
X85776546Y-89274280D01*
X85777029Y-89274763D01*
X85797503Y-89295237D01*
X85809306Y-89283434D01*
X85881331Y-89283434D01*
X86132816Y-89289797D01*
X86240581Y-89294098D01*
X86405370Y-89305695D01*
X86531001Y-89320340D01*
X86652860Y-89327168D01*
X86719010Y-89301545D01*
X86716002Y-89247476D01*
X86693184Y-89228752D01*
X86616840Y-89211408D01*
X86573213Y-89202418D01*
X86516731Y-89150850D01*
X86510564Y-89140316D01*
X86497108Y-89131463D01*
X87644127Y-89131463D01*
X87684228Y-89149757D01*
X87787365Y-89167140D01*
X87927121Y-89176540D01*
X87959085Y-89177489D01*
X88065268Y-89183148D01*
X88088484Y-89190607D01*
X88029433Y-89200027D01*
X88013807Y-89201798D01*
X87905831Y-89226573D01*
X87877390Y-89257749D01*
X87926304Y-89285088D01*
X88050390Y-89298351D01*
X88083832Y-89299194D01*
X88124877Y-89301545D01*
X88220132Y-89307001D01*
X88322833Y-89319045D01*
X88382707Y-89320673D01*
X88417140Y-89294974D01*
X88391125Y-89267581D01*
X88312354Y-89253323D01*
X88243680Y-89241073D01*
X88207569Y-89187978D01*
X88212210Y-89157736D01*
X88230556Y-89148537D01*
X88459054Y-89148537D01*
X88459341Y-89167712D01*
X88470415Y-89258366D01*
X88492427Y-89294974D01*
X88492585Y-89295237D01*
X88496968Y-89293980D01*
X88509830Y-89263906D01*
X88617214Y-89263906D01*
X88655725Y-89295237D01*
X88656685Y-89295230D01*
X88692734Y-89268038D01*
X88684484Y-89179973D01*
X88672791Y-89132547D01*
X88650423Y-89064237D01*
X88634533Y-89076345D01*
X88621490Y-89148537D01*
X88618055Y-89167551D01*
X88617214Y-89263906D01*
X88509830Y-89263906D01*
X88517689Y-89245529D01*
X88526116Y-89148537D01*
X88525829Y-89129362D01*
X88514755Y-89038708D01*
X88492585Y-89001837D01*
X88488202Y-89003094D01*
X88467481Y-89051545D01*
X88459054Y-89148537D01*
X88230556Y-89148537D01*
X88241005Y-89143298D01*
X88256026Y-89148230D01*
X88314044Y-89136422D01*
X88365007Y-89102682D01*
X88371816Y-89068285D01*
X88362305Y-89062346D01*
X88289305Y-89049696D01*
X88170404Y-89047683D01*
X88027224Y-89054430D01*
X87881385Y-89068058D01*
X87754508Y-89086691D01*
X87668215Y-89108452D01*
X87644127Y-89131463D01*
X86497108Y-89131463D01*
X86442879Y-89095784D01*
X86334111Y-89064731D01*
X86314967Y-89061470D01*
X86191186Y-89032477D01*
X86101949Y-88999547D01*
X86047521Y-88974959D01*
X85946277Y-88966365D01*
X85887131Y-89022794D01*
X85885721Y-89026591D01*
X85885529Y-89072534D01*
X85938636Y-89090973D01*
X86059466Y-89087306D01*
X86118649Y-89092522D01*
X86134099Y-89106623D01*
X86153773Y-89124580D01*
X86183509Y-89155006D01*
X86265544Y-89169494D01*
X86323409Y-89172507D01*
X86355226Y-89187431D01*
X86321552Y-89210077D01*
X86232657Y-89235055D01*
X86098809Y-89256979D01*
X85956583Y-89274280D01*
X85881331Y-89283434D01*
X85809306Y-89283434D01*
X85818460Y-89274280D01*
X85797503Y-89253323D01*
X85776546Y-89274280D01*
X85625457Y-89274280D01*
X85597834Y-89265160D01*
X85503251Y-89258185D01*
X85388263Y-89265732D01*
X85368369Y-89273114D01*
X85272409Y-89273114D01*
X85252618Y-89253323D01*
X85231661Y-89274280D01*
X82121204Y-89274280D01*
X82152669Y-89269628D01*
X82128557Y-89265372D01*
X82040043Y-89262413D01*
X81891478Y-89259703D01*
X81860633Y-89259073D01*
X81673228Y-89248796D01*
X81543060Y-89229961D01*
X81476778Y-89204878D01*
X81481027Y-89175861D01*
X81562455Y-89145222D01*
X81633393Y-89117861D01*
X81644271Y-89106623D01*
X85483146Y-89106623D01*
X85504103Y-89127580D01*
X85525060Y-89106623D01*
X85504103Y-89085666D01*
X85483146Y-89106623D01*
X81644271Y-89106623D01*
X81668955Y-89081122D01*
X81684645Y-89059419D01*
X81752783Y-89043752D01*
X81815729Y-89022600D01*
X81836612Y-88941960D01*
X81839643Y-88924253D01*
X87887341Y-88924253D01*
X87920173Y-88964521D01*
X87933452Y-88972673D01*
X88010802Y-88998794D01*
X88061052Y-88959627D01*
X88066312Y-88946177D01*
X88042957Y-88904671D01*
X87979933Y-88884109D01*
X87911702Y-88898577D01*
X87887341Y-88924253D01*
X81839643Y-88924253D01*
X81849249Y-88868132D01*
X81858105Y-88852064D01*
X85357404Y-88852064D01*
X85372672Y-88891383D01*
X85444725Y-88918009D01*
X85469798Y-88915695D01*
X85512757Y-88883103D01*
X85497147Y-88834673D01*
X85427280Y-88799672D01*
X85388829Y-88801705D01*
X85357404Y-88852064D01*
X81858105Y-88852064D01*
X81899109Y-88777671D01*
X81936702Y-88725405D01*
X81909587Y-88694158D01*
X81900585Y-88679135D01*
X81956762Y-88669833D01*
X81959903Y-88669542D01*
X86679566Y-88669542D01*
X86705716Y-88690647D01*
X86784960Y-88708438D01*
X86846207Y-88686307D01*
X86866315Y-88603653D01*
X86852156Y-88530077D01*
X86792965Y-88499509D01*
X86746239Y-88507388D01*
X86777546Y-88536841D01*
X86786021Y-88542469D01*
X86803866Y-88573852D01*
X86745501Y-88602088D01*
X86694042Y-88628981D01*
X86679566Y-88669542D01*
X81959903Y-88669542D01*
X81999550Y-88665869D01*
X82039394Y-88634861D01*
X82033531Y-88551260D01*
X82032576Y-88500793D01*
X82061254Y-88383329D01*
X82087683Y-88320958D01*
X86915626Y-88320958D01*
X86960621Y-88320732D01*
X86981721Y-88320929D01*
X87003506Y-88359736D01*
X87004200Y-88371843D01*
X87042852Y-88437151D01*
X87121985Y-88516914D01*
X87146197Y-88536485D01*
X87240330Y-88599288D01*
X87251849Y-88603653D01*
X87307156Y-88624610D01*
X87359110Y-88611645D01*
X87393621Y-88566596D01*
X87367963Y-88519007D01*
X87347796Y-88496799D01*
X87335157Y-88421804D01*
X87336661Y-88385326D01*
X87314727Y-88343568D01*
X87313041Y-88343052D01*
X87257682Y-88310793D01*
X87199628Y-88268339D01*
X87495027Y-88268339D01*
X87515984Y-88289296D01*
X87536942Y-88268339D01*
X87515984Y-88247382D01*
X87495027Y-88268339D01*
X87199628Y-88268339D01*
X87173540Y-88249261D01*
X87072718Y-88183807D01*
X86985961Y-88170835D01*
X86933670Y-88229853D01*
X86916152Y-88279128D01*
X86915626Y-88320958D01*
X82087683Y-88320958D01*
X82117753Y-88249995D01*
X82189339Y-88124904D01*
X82263277Y-88032167D01*
X82326833Y-87995897D01*
X82332121Y-87995854D01*
X82369181Y-87982709D01*
X82339582Y-87933026D01*
X82337578Y-87930600D01*
X82309136Y-87882034D01*
X82344928Y-87869673D01*
X82363715Y-87864528D01*
X82423442Y-87802347D01*
X82485162Y-87686380D01*
X82538987Y-87537771D01*
X82575027Y-87377662D01*
X82577709Y-87360821D01*
X82581974Y-87346227D01*
X84058064Y-87346227D01*
X84079021Y-87367184D01*
X84099978Y-87346227D01*
X84183806Y-87346227D01*
X84204763Y-87367184D01*
X84225720Y-87346227D01*
X84204763Y-87325270D01*
X84183806Y-87346227D01*
X84099978Y-87346227D01*
X84079021Y-87325270D01*
X84058064Y-87346227D01*
X82581974Y-87346227D01*
X82589544Y-87320322D01*
X84351463Y-87320322D01*
X84353028Y-87332617D01*
X84362918Y-87346227D01*
X84393377Y-87388141D01*
X84409467Y-87394856D01*
X84435291Y-87372131D01*
X84433727Y-87359837D01*
X84393377Y-87304313D01*
X84377288Y-87297598D01*
X84351463Y-87320322D01*
X82589544Y-87320322D01*
X82612917Y-87240344D01*
X82663780Y-87199527D01*
X82695619Y-87190440D01*
X82701287Y-87135705D01*
X82709961Y-87064942D01*
X82718390Y-87052827D01*
X84183806Y-87052827D01*
X84204763Y-87073785D01*
X84225720Y-87052827D01*
X84812519Y-87052827D01*
X84833476Y-87073785D01*
X84854433Y-87052827D01*
X84833476Y-87031870D01*
X84812519Y-87052827D01*
X84225720Y-87052827D01*
X84204763Y-87031870D01*
X84183806Y-87052827D01*
X82718390Y-87052827D01*
X82769922Y-86978758D01*
X82770900Y-86977776D01*
X82832454Y-86897166D01*
X82851071Y-86833484D01*
X82848902Y-86818501D01*
X82868802Y-86729017D01*
X82923932Y-86648009D01*
X82952644Y-86632843D01*
X84150847Y-86632843D01*
X84155863Y-86682585D01*
X84168471Y-86689143D01*
X84183806Y-86654643D01*
X84180781Y-86632453D01*
X84155863Y-86626700D01*
X84150847Y-86632843D01*
X82952644Y-86632843D01*
X82990726Y-86612728D01*
X83041568Y-86597472D01*
X83043041Y-86554704D01*
X82982243Y-86511053D01*
X82977567Y-86507943D01*
X83094037Y-86507943D01*
X83114994Y-86528900D01*
X83135951Y-86507943D01*
X83114994Y-86486986D01*
X83094037Y-86507943D01*
X82977567Y-86507943D01*
X82938733Y-86482113D01*
X82961286Y-86435315D01*
X82991024Y-86384660D01*
X83010209Y-86285505D01*
X83024145Y-86214167D01*
X83073080Y-86208744D01*
X83108971Y-86210147D01*
X83130238Y-86162840D01*
X83135951Y-86048045D01*
X83137563Y-85997984D01*
X83141391Y-85972160D01*
X84155519Y-85972160D01*
X84208256Y-85983939D01*
X84245256Y-85988985D01*
X84271449Y-86020057D01*
X84279474Y-86096436D01*
X84274302Y-86237180D01*
X84260012Y-86490496D01*
X84379087Y-86461986D01*
X84475756Y-86433678D01*
X84575102Y-86393964D01*
X84599194Y-86381624D01*
X84646077Y-86366749D01*
X84679799Y-86394847D01*
X84727013Y-86481225D01*
X84745499Y-86507943D01*
X84769031Y-86541954D01*
X84831146Y-86564534D01*
X84942261Y-86554079D01*
X85022925Y-86544061D01*
X85088398Y-86552030D01*
X85105918Y-86591276D01*
X85110380Y-86620616D01*
X85144917Y-86654643D01*
X85172105Y-86675248D01*
X85197310Y-86748950D01*
X85218305Y-86807578D01*
X85268774Y-86843257D01*
X85308188Y-86826658D01*
X85354810Y-86762809D01*
X85375762Y-86685573D01*
X85355560Y-86632546D01*
X85337166Y-86613508D01*
X85315489Y-86539480D01*
X85316936Y-86512945D01*
X85335651Y-86500930D01*
X85389140Y-86552432D01*
X85457967Y-86640591D01*
X85531397Y-86819182D01*
X85524841Y-87011884D01*
X85518505Y-87037461D01*
X85512856Y-87052827D01*
X85479794Y-87142759D01*
X85437542Y-87201808D01*
X85404574Y-87241780D01*
X85378880Y-87331897D01*
X85348639Y-87411240D01*
X85259859Y-87443318D01*
X85214470Y-87446720D01*
X85160131Y-87425835D01*
X85147833Y-87347536D01*
X85146062Y-87298800D01*
X85125059Y-87261159D01*
X85064004Y-87283356D01*
X85012799Y-87318645D01*
X84980176Y-87365834D01*
X84983903Y-87372131D01*
X84996285Y-87393051D01*
X85064004Y-87430055D01*
X85113240Y-87453185D01*
X85147833Y-87495751D01*
X85169024Y-87543140D01*
X85229517Y-87616525D01*
X85283530Y-87667474D01*
X85314729Y-87671810D01*
X85337127Y-87616525D01*
X85365498Y-87559450D01*
X85426617Y-87538926D01*
X85530495Y-87579663D01*
X85535042Y-87582037D01*
X85632164Y-87597273D01*
X85705075Y-87533086D01*
X85752344Y-87390695D01*
X85754568Y-87379702D01*
X85790427Y-87280253D01*
X85837306Y-87227094D01*
X85875913Y-87193160D01*
X85909516Y-87108211D01*
X85933190Y-87047010D01*
X86004416Y-86996283D01*
X86050297Y-86990260D01*
X86061901Y-87010261D01*
X86021405Y-87079684D01*
X85976799Y-87182009D01*
X85993364Y-87256133D01*
X86073119Y-87283356D01*
X86167377Y-87310860D01*
X86260751Y-87378213D01*
X86327338Y-87461491D01*
X86341774Y-87536772D01*
X86339369Y-87581926D01*
X86380551Y-87657471D01*
X86405594Y-87674710D01*
X86454240Y-87671016D01*
X86512060Y-87600517D01*
X86543414Y-87560162D01*
X86614054Y-87504773D01*
X86673605Y-87493375D01*
X86698658Y-87534278D01*
X86700856Y-87542327D01*
X86750611Y-87587493D01*
X86845357Y-87636925D01*
X86954705Y-87702738D01*
X86992057Y-87784187D01*
X86998073Y-87835224D01*
X87023493Y-87873361D01*
X87124751Y-87892492D01*
X87231573Y-87947678D01*
X87347871Y-88055405D01*
X87361679Y-88069715D01*
X87486032Y-88169575D01*
X87593570Y-88205468D01*
X87669268Y-88210066D01*
X87754743Y-88227341D01*
X87789449Y-88231432D01*
X87862956Y-88198001D01*
X87875222Y-88184049D01*
X87909713Y-88104272D01*
X87905164Y-88028154D01*
X87861777Y-87991062D01*
X87652731Y-87950926D01*
X87476824Y-87866013D01*
X87365946Y-87743817D01*
X87327371Y-87589799D01*
X87324605Y-87573225D01*
X87281131Y-87493924D01*
X87201628Y-87402793D01*
X87176059Y-87376779D01*
X87104594Y-87282462D01*
X87075885Y-87207174D01*
X87063400Y-87145241D01*
X87014347Y-87050360D01*
X86979619Y-87006240D01*
X86956151Y-86997807D01*
X86951476Y-87063306D01*
X86950469Y-87077975D01*
X86911148Y-87144557D01*
X86834797Y-87156332D01*
X86748955Y-87107316D01*
X86745655Y-87103985D01*
X86703813Y-87040965D01*
X86727656Y-86987743D01*
X86824400Y-86927085D01*
X86912617Y-86860508D01*
X86950143Y-86779309D01*
X86957857Y-86731614D01*
X86992057Y-86696557D01*
X87016419Y-86680838D01*
X87033971Y-86612728D01*
X87026112Y-86564005D01*
X86992057Y-86528900D01*
X86969087Y-86541571D01*
X86950143Y-86605857D01*
X86941710Y-86645306D01*
X86891203Y-86677150D01*
X86777440Y-86689582D01*
X86775106Y-86689672D01*
X86670808Y-86689477D01*
X86635379Y-86673730D01*
X86654606Y-86636261D01*
X86670743Y-86604900D01*
X86669555Y-86518479D01*
X86630583Y-86438403D01*
X86568110Y-86403158D01*
X86543976Y-86373969D01*
X86548926Y-86287893D01*
X86551534Y-86189424D01*
X86512112Y-86055986D01*
X86506466Y-86045054D01*
X86478510Y-85977214D01*
X86486465Y-85961438D01*
X86507631Y-85964025D01*
X86546251Y-85920904D01*
X86568677Y-85888754D01*
X86644950Y-85854493D01*
X86656921Y-85852957D01*
X86651602Y-85836948D01*
X86579782Y-85810444D01*
X86461973Y-85791112D01*
X86379676Y-85820197D01*
X86374688Y-85824248D01*
X86312491Y-85852950D01*
X86293742Y-85819771D01*
X86327357Y-85738616D01*
X86395896Y-85677011D01*
X86529353Y-85636795D01*
X86539988Y-85635157D01*
X86520161Y-85630075D01*
X86477801Y-85627745D01*
X88542882Y-85627745D01*
X88563839Y-85648702D01*
X88584796Y-85627745D01*
X88563839Y-85606788D01*
X88542882Y-85627745D01*
X86477801Y-85627745D01*
X86429424Y-85625084D01*
X86277496Y-85620500D01*
X86074094Y-85616644D01*
X85828938Y-85613834D01*
X85606644Y-85612944D01*
X85338672Y-85615466D01*
X85142223Y-85622377D01*
X85032719Y-85632466D01*
X85021366Y-85633512D01*
X84980176Y-85648702D01*
X84980560Y-85651857D01*
X85023654Y-85679807D01*
X85029598Y-85680595D01*
X85116397Y-85692102D01*
X85130637Y-85692261D01*
X85211520Y-85695788D01*
X85216486Y-85710985D01*
X85152638Y-85749005D01*
X85052658Y-85804423D01*
X85153081Y-85829628D01*
X85164831Y-85832577D01*
X85237701Y-85863755D01*
X85245066Y-85911895D01*
X85208145Y-85994855D01*
X85209896Y-86087542D01*
X85269051Y-86138345D01*
X85275398Y-86140370D01*
X85333236Y-86196777D01*
X85369067Y-86292080D01*
X85374610Y-86390143D01*
X85341582Y-86454830D01*
X85300398Y-86474506D01*
X85181328Y-86478289D01*
X85063786Y-86427064D01*
X84974017Y-86336074D01*
X84938262Y-86220562D01*
X84901980Y-86156385D01*
X84798366Y-86127454D01*
X84636337Y-86134870D01*
X84424813Y-86179350D01*
X84370115Y-86175933D01*
X84351463Y-86109252D01*
X84354988Y-86066264D01*
X84387207Y-86035654D01*
X84473692Y-86046115D01*
X84572832Y-86056353D01*
X84687792Y-86051360D01*
X84791425Y-86034461D01*
X84859565Y-86009651D01*
X84868043Y-85980925D01*
X84847858Y-85971272D01*
X84758536Y-85954857D01*
X84624820Y-85942672D01*
X84472261Y-85935651D01*
X84326408Y-85934729D01*
X84212810Y-85940840D01*
X84157017Y-85954919D01*
X84155519Y-85972160D01*
X83141391Y-85972160D01*
X83153416Y-85891042D01*
X83179854Y-85837316D01*
X83974235Y-85837316D01*
X83995192Y-85858273D01*
X84016149Y-85837316D01*
X83995192Y-85816359D01*
X83974235Y-85837316D01*
X83179854Y-85837316D01*
X83180723Y-85835550D01*
X83197186Y-85819449D01*
X83198078Y-85811473D01*
X84058064Y-85811473D01*
X84078439Y-85836318D01*
X84080951Y-85837316D01*
X84149326Y-85864483D01*
X84232684Y-85877712D01*
X84287607Y-85866244D01*
X84310429Y-85829628D01*
X84282159Y-85789359D01*
X84183806Y-85774445D01*
X84182303Y-85774447D01*
X84094506Y-85785468D01*
X84058064Y-85811473D01*
X83198078Y-85811473D01*
X83204577Y-85753369D01*
X83203917Y-85751523D01*
X83227643Y-85704925D01*
X83294311Y-85683249D01*
X83515862Y-85683249D01*
X83562144Y-85689974D01*
X83595952Y-85692400D01*
X83698365Y-85716058D01*
X83734174Y-85722264D01*
X83764664Y-85692220D01*
X83767908Y-85681565D01*
X83813350Y-85663207D01*
X83920566Y-85660290D01*
X84099978Y-85672191D01*
X84144888Y-85675932D01*
X84311628Y-85684490D01*
X84405727Y-85677363D01*
X84435291Y-85654114D01*
X84430205Y-85648702D01*
X84477206Y-85648702D01*
X84477480Y-85654114D01*
X84477686Y-85658188D01*
X84495689Y-85690616D01*
X84502412Y-85688688D01*
X84524449Y-85665293D01*
X84698128Y-85665293D01*
X84698777Y-85679601D01*
X84753141Y-85687307D01*
X84794340Y-85680595D01*
X84778464Y-85661984D01*
X84754226Y-85655287D01*
X84698128Y-85665293D01*
X84524449Y-85665293D01*
X84540077Y-85648702D01*
X84546626Y-85632466D01*
X84521593Y-85606788D01*
X84509427Y-85608399D01*
X84477206Y-85648702D01*
X84430205Y-85648702D01*
X84424355Y-85642478D01*
X84350639Y-85624715D01*
X84225194Y-85612955D01*
X84068964Y-85607327D01*
X83902894Y-85607958D01*
X83747930Y-85614979D01*
X83625015Y-85628517D01*
X83555093Y-85648702D01*
X83546477Y-85654333D01*
X83515862Y-85683249D01*
X83294311Y-85683249D01*
X83331745Y-85671078D01*
X83356157Y-85666153D01*
X83437015Y-85642661D01*
X83459099Y-85622565D01*
X83440382Y-85619701D01*
X83344594Y-85615158D01*
X83171202Y-85610739D01*
X82924057Y-85606453D01*
X82607006Y-85602308D01*
X82223898Y-85598311D01*
X81778583Y-85594471D01*
X81274908Y-85590795D01*
X80716722Y-85587293D01*
X80107875Y-85583970D01*
X79452214Y-85580837D01*
X78753590Y-85577900D01*
X78015849Y-85575167D01*
X77242842Y-85572647D01*
X76438416Y-85570348D01*
X75606422Y-85568278D01*
X74750706Y-85566444D01*
X73875119Y-85564854D01*
X72983508Y-85563518D01*
X72079723Y-85562442D01*
X71167612Y-85561634D01*
X70251024Y-85561104D01*
X69333808Y-85560857D01*
X68419812Y-85560904D01*
X67512886Y-85561251D01*
X66616877Y-85561907D01*
X65735635Y-85562880D01*
X64873009Y-85564177D01*
X64032847Y-85565807D01*
X63218997Y-85567777D01*
X62435310Y-85570096D01*
X61685632Y-85572772D01*
X60973814Y-85575813D01*
X58825702Y-85585831D01*
X58825706Y-77564496D01*
X73376103Y-77564496D01*
X73405950Y-77634965D01*
X73407688Y-77637375D01*
X73471524Y-77669370D01*
X73588700Y-77694686D01*
X73730785Y-77710140D01*
X73869347Y-77712552D01*
X73975954Y-77698742D01*
X74039278Y-77675132D01*
X74143610Y-77620643D01*
X74157637Y-77613452D01*
X74250719Y-77582185D01*
X74403229Y-77542004D01*
X74597530Y-77497319D01*
X74815984Y-77452539D01*
X74874815Y-77441023D01*
X75097439Y-77394631D01*
X75297387Y-77348839D01*
X75454716Y-77308391D01*
X75549483Y-77278032D01*
X75612132Y-77252309D01*
X75915391Y-77138153D01*
X76232823Y-77033324D01*
X76546274Y-76942768D01*
X76837590Y-76871431D01*
X77088616Y-76824259D01*
X77281199Y-76806199D01*
X77376057Y-76795140D01*
X77479866Y-76761646D01*
X77501665Y-76754995D01*
X77602014Y-76740176D01*
X77766587Y-76724453D01*
X77982268Y-76708837D01*
X78235940Y-76694339D01*
X78514487Y-76681967D01*
X78607658Y-76678211D01*
X78896702Y-76664032D01*
X79152525Y-76647708D01*
X79362481Y-76630245D01*
X79513922Y-76612652D01*
X79594202Y-76595935D01*
X79600698Y-76593408D01*
X79731715Y-76552203D01*
X79908684Y-76512982D01*
X80141047Y-76474157D01*
X80438243Y-76434138D01*
X80809714Y-76391337D01*
X80870539Y-76385512D01*
X81101383Y-76372748D01*
X81366460Y-76368781D01*
X81642199Y-76373013D01*
X81905028Y-76384849D01*
X82131375Y-76403694D01*
X82297668Y-76428950D01*
X82329613Y-76434531D01*
X82457740Y-76446033D01*
X82633362Y-76452808D01*
X82837724Y-76455131D01*
X83052074Y-76453273D01*
X83257657Y-76447508D01*
X83435720Y-76438108D01*
X83567509Y-76425347D01*
X83634271Y-76409497D01*
X83637808Y-76407186D01*
X83677902Y-76337587D01*
X83666179Y-76249425D01*
X83607486Y-76183585D01*
X83592996Y-76178974D01*
X83497584Y-76171195D01*
X83333417Y-76172626D01*
X83111429Y-76183003D01*
X82842552Y-76202063D01*
X82709599Y-76212644D01*
X82477207Y-76229209D01*
X82296154Y-76237177D01*
X82144573Y-76235999D01*
X82000597Y-76225126D01*
X81842361Y-76204011D01*
X81647998Y-76172105D01*
X81582824Y-76161306D01*
X81318016Y-76124959D01*
X81104258Y-76108474D01*
X80956414Y-76113120D01*
X80805097Y-76138436D01*
X80605725Y-76181650D01*
X80424300Y-76230814D01*
X80282489Y-76279904D01*
X80201958Y-76322896D01*
X80185261Y-76331823D01*
X80090036Y-76351876D01*
X79929820Y-76367881D01*
X79718077Y-76379549D01*
X79468273Y-76386589D01*
X79193872Y-76388711D01*
X78908338Y-76385625D01*
X78625137Y-76377040D01*
X78357734Y-76362666D01*
X77946299Y-76353466D01*
X77540407Y-76384494D01*
X77486134Y-76391854D01*
X77283843Y-76417951D01*
X77094696Y-76440567D01*
X76953608Y-76455480D01*
X76902662Y-76461619D01*
X76741840Y-76489670D01*
X76545738Y-76531838D01*
X76345852Y-76581587D01*
X76324489Y-76587319D01*
X76047161Y-76660620D01*
X75824318Y-76716818D01*
X75631612Y-76761859D01*
X75444697Y-76801690D01*
X75442970Y-76802043D01*
X75315227Y-76828188D01*
X75142865Y-76863560D01*
X74962684Y-76900605D01*
X74781754Y-76934504D01*
X74565201Y-76969004D01*
X74380294Y-76992611D01*
X74329468Y-76998280D01*
X74042943Y-77055680D01*
X73799449Y-77158523D01*
X73569037Y-77318854D01*
X73459097Y-77415100D01*
X73390879Y-77496905D01*
X73376103Y-77564496D01*
X58825706Y-77564496D01*
X58825707Y-74343061D01*
X64671961Y-74343061D01*
X64695023Y-74373785D01*
X64713686Y-74366702D01*
X64735621Y-74310913D01*
X64733801Y-74282268D01*
X64719149Y-74248042D01*
X64708300Y-74255764D01*
X64678550Y-74310913D01*
X64671961Y-74343061D01*
X58825707Y-74343061D01*
X58825711Y-65519412D01*
X58825715Y-57364609D01*
X59387672Y-57364609D01*
X59392102Y-57484824D01*
X59392192Y-57485233D01*
X59422396Y-57572028D01*
X59456965Y-57608108D01*
X59482918Y-57594483D01*
X59516093Y-57514315D01*
X59539748Y-57358774D01*
X59554701Y-57123817D01*
X59572181Y-56918698D01*
X59605708Y-56751767D01*
X59651226Y-56641797D01*
X59704881Y-56602167D01*
X59731784Y-56581478D01*
X59748451Y-56507860D01*
X59763314Y-56421144D01*
X59808809Y-56308768D01*
X59843823Y-56245802D01*
X59932764Y-56058556D01*
X59993508Y-55868305D01*
X60039908Y-55634637D01*
X60041885Y-55622616D01*
X60072065Y-55457543D01*
X60102858Y-55316713D01*
X60127891Y-55229478D01*
X60130484Y-55222836D01*
X60149042Y-55150159D01*
X60121102Y-55145544D01*
X60044807Y-55208521D01*
X59988864Y-55272977D01*
X59883959Y-55455105D01*
X59790052Y-55701012D01*
X59779214Y-55733639D01*
X59731121Y-55852207D01*
X59686036Y-55931540D01*
X59672005Y-55952925D01*
X59626411Y-56061664D01*
X59576475Y-56223766D01*
X59527107Y-56417200D01*
X59483222Y-56619939D01*
X59449730Y-56809952D01*
X59431545Y-56965211D01*
X59433578Y-57063686D01*
X59439080Y-57166063D01*
X59412519Y-57272794D01*
X59387672Y-57364609D01*
X58825715Y-57364609D01*
X58825716Y-54820814D01*
X59873575Y-54820814D01*
X59894532Y-54841771D01*
X59915489Y-54820814D01*
X59894532Y-54799857D01*
X59873575Y-54820814D01*
X58825716Y-54820814D01*
X58825717Y-52729993D01*
X61508229Y-52729993D01*
X61514316Y-52766421D01*
X61554571Y-52780911D01*
X61623493Y-52725279D01*
X61664492Y-52672597D01*
X61663193Y-52640624D01*
X61592057Y-52650089D01*
X61543345Y-52673694D01*
X61508229Y-52729993D01*
X58825717Y-52729993D01*
X58825717Y-52605946D01*
X61794442Y-52605946D01*
X61796172Y-52619661D01*
X61807469Y-52672597D01*
X61815299Y-52709284D01*
X61837649Y-52745797D01*
X61839879Y-52745436D01*
X61880451Y-52705275D01*
X61942763Y-52614134D01*
X62012851Y-52494119D01*
X62076748Y-52367336D01*
X62091396Y-52342306D01*
X62178746Y-52255647D01*
X62300539Y-52182051D01*
X62337663Y-52164290D01*
X62432595Y-52101022D01*
X62454354Y-52047327D01*
X62455326Y-52012684D01*
X62515485Y-51991606D01*
X62562935Y-51984242D01*
X62597998Y-51951388D01*
X62600557Y-51937558D01*
X62647659Y-51868455D01*
X62732479Y-51789701D01*
X62826560Y-51725038D01*
X62901447Y-51698207D01*
X62940750Y-51690106D01*
X62975318Y-51645814D01*
X62977537Y-51636887D01*
X63021249Y-51574245D01*
X63109390Y-51478362D01*
X63226803Y-51366096D01*
X63258126Y-51337176D01*
X63370126Y-51222741D01*
X63448613Y-51124887D01*
X63478196Y-51062218D01*
X63473087Y-51020540D01*
X63446760Y-50985822D01*
X63445439Y-50985847D01*
X63365832Y-51015878D01*
X63248344Y-51093234D01*
X63111649Y-51204121D01*
X62974418Y-51334747D01*
X62879019Y-51427199D01*
X62789307Y-51501218D01*
X62735547Y-51529858D01*
X62704130Y-51545234D01*
X62631939Y-51612595D01*
X62546933Y-51715234D01*
X62492832Y-51782778D01*
X62387387Y-51894236D01*
X62297048Y-51967359D01*
X62246919Y-52002399D01*
X62136822Y-52096035D01*
X62024606Y-52207044D01*
X61958683Y-52277709D01*
X61872715Y-52369028D01*
X61821292Y-52422559D01*
X61818916Y-52425179D01*
X61795101Y-52497681D01*
X61794442Y-52605946D01*
X58825717Y-52605946D01*
X58825718Y-50901837D01*
X63813509Y-50901837D01*
X63814638Y-50911782D01*
X63852950Y-50943752D01*
X63864709Y-50942153D01*
X63918295Y-50901837D01*
X63922238Y-50880243D01*
X63878854Y-50859923D01*
X63847626Y-50865053D01*
X63813509Y-50901837D01*
X58825718Y-50901837D01*
X58825718Y-50754295D01*
X63696722Y-50754295D01*
X63701738Y-50804038D01*
X63714345Y-50810595D01*
X63729681Y-50776095D01*
X63726656Y-50753906D01*
X63701738Y-50748152D01*
X63696722Y-50754295D01*
X58825718Y-50754295D01*
X58825718Y-50692266D01*
X63834466Y-50692266D01*
X63843057Y-50704947D01*
X63876381Y-50734181D01*
X63882443Y-50732208D01*
X63918295Y-50692266D01*
X63921652Y-50670067D01*
X63876381Y-50650352D01*
X63844420Y-50656757D01*
X63834466Y-50692266D01*
X58825718Y-50692266D01*
X58825720Y-45452993D01*
X73810044Y-45452993D01*
X88794367Y-45452993D01*
X88792091Y-51531234D01*
X88792028Y-51698207D01*
X88791997Y-51781352D01*
X88791843Y-52192819D01*
X88791635Y-52749555D01*
X88791535Y-53017262D01*
X88791480Y-53165204D01*
X88791424Y-53314377D01*
X88791421Y-53322382D01*
X88791392Y-53372301D01*
X88791255Y-53607275D01*
X88790995Y-54050892D01*
X88790181Y-54838271D01*
X88789027Y-55599973D01*
X88788775Y-55725462D01*
X88788612Y-55806627D01*
X88788140Y-56041047D01*
X88787556Y-56331845D01*
X88787072Y-56522752D01*
X88786605Y-56706953D01*
X88785786Y-57029732D01*
X88785415Y-57149210D01*
X88783738Y-57689483D01*
X88783692Y-57701728D01*
X88782751Y-57953900D01*
X88782146Y-58115967D01*
X88781773Y-58215864D01*
X88781433Y-58306941D01*
X88780989Y-58406642D01*
X88780030Y-58622060D01*
X88779471Y-58747650D01*
X88778890Y-58877955D01*
X88776131Y-59398370D01*
X88775366Y-59518879D01*
X88773175Y-59864033D01*
X88770043Y-60270789D01*
X88766755Y-60614486D01*
X88763332Y-60890969D01*
X88759793Y-61096085D01*
X88756160Y-61225680D01*
X88752453Y-61275600D01*
X88733378Y-61316058D01*
X88718586Y-61317971D01*
X88713485Y-61242818D01*
X88706489Y-61174601D01*
X88676417Y-61055089D01*
X88632303Y-60946299D01*
X88584580Y-60872000D01*
X88543682Y-60855963D01*
X88542599Y-60856588D01*
X88500155Y-60839316D01*
X88458110Y-60764673D01*
X88420708Y-60666551D01*
X88377627Y-60563059D01*
X88360210Y-60508152D01*
X88334869Y-60383026D01*
X88314736Y-60233816D01*
X88300682Y-60127792D01*
X88272879Y-59990315D01*
X88242861Y-59901015D01*
X88196093Y-59813628D01*
X88123632Y-59903114D01*
X88051171Y-59992599D01*
X87938835Y-59875345D01*
X87924969Y-59861225D01*
X87822381Y-59786732D01*
X87722165Y-59778035D01*
X87648580Y-59778479D01*
X87545753Y-59732749D01*
X87538447Y-59726476D01*
X87442470Y-59667761D01*
X87303972Y-59606167D01*
X87146599Y-59549474D01*
X86993992Y-59505461D01*
X86869794Y-59481908D01*
X86797649Y-59486594D01*
X86762628Y-59510947D01*
X86761099Y-59548556D01*
X86818750Y-59614339D01*
X86880735Y-59691606D01*
X86908229Y-59758306D01*
X86913823Y-59788798D01*
X86958526Y-59863092D01*
X86984380Y-59901900D01*
X86940393Y-59913389D01*
X86895248Y-59897315D01*
X86845164Y-59828952D01*
X86819772Y-59782758D01*
X86775869Y-59770778D01*
X86740920Y-59762895D01*
X86665224Y-59709835D01*
X86571956Y-59626923D01*
X86480875Y-59533332D01*
X86411738Y-59448234D01*
X86384301Y-59390802D01*
X86382173Y-59383737D01*
X86330128Y-59362686D01*
X86228654Y-59361253D01*
X86218712Y-59362064D01*
X86115010Y-59358550D01*
X86032057Y-59318144D01*
X85940686Y-59229852D01*
X87159714Y-59229852D01*
X87162789Y-59254767D01*
X87217169Y-59335599D01*
X87345739Y-59423395D01*
X87415093Y-59459585D01*
X87508832Y-59498465D01*
X87555694Y-59503437D01*
X87561034Y-59491107D01*
X87537036Y-59437081D01*
X87476223Y-59373086D01*
X87404610Y-59323194D01*
X87348215Y-59311476D01*
X87292947Y-59299548D01*
X87226934Y-59236251D01*
X87182489Y-59175493D01*
X87162662Y-59169727D01*
X87159714Y-59229852D01*
X85940686Y-59229852D01*
X85935545Y-59224884D01*
X85888784Y-59176908D01*
X85803191Y-59103868D01*
X85746476Y-59075105D01*
X85744134Y-59074987D01*
X85690002Y-59037823D01*
X85672355Y-59012233D01*
X87327371Y-59012233D01*
X87348328Y-59033191D01*
X87369285Y-59012233D01*
X87348328Y-58991276D01*
X87327371Y-59012233D01*
X85672355Y-59012233D01*
X85632385Y-58954273D01*
X85559407Y-58862217D01*
X85468948Y-58808104D01*
X85429748Y-58792408D01*
X85400248Y-58773122D01*
X85703780Y-58773122D01*
X85707714Y-58834924D01*
X85787024Y-58896565D01*
X85858853Y-58928770D01*
X85981361Y-58967292D01*
X86043393Y-58959103D01*
X86040670Y-58906223D01*
X85968912Y-58810673D01*
X85878831Y-58738080D01*
X85781084Y-58726460D01*
X85775807Y-58727900D01*
X85703780Y-58773122D01*
X85400248Y-58773122D01*
X85326803Y-58725106D01*
X85219680Y-58630069D01*
X85210642Y-58620811D01*
X85113833Y-58533124D01*
X85084350Y-58519742D01*
X86329796Y-58519742D01*
X86363072Y-58570312D01*
X86469091Y-58597924D01*
X86582745Y-58602752D01*
X86695010Y-58613117D01*
X86756358Y-58635212D01*
X86786452Y-58677957D01*
X86804953Y-58750270D01*
X86805327Y-58752010D01*
X86838222Y-58862658D01*
X86876287Y-58938884D01*
X86894553Y-58959103D01*
X86903431Y-58968930D01*
X86945584Y-58985474D01*
X87006126Y-58958557D01*
X87107723Y-58882674D01*
X87132945Y-58859286D01*
X87669137Y-58859286D01*
X87671098Y-58989396D01*
X87674044Y-59012233D01*
X87697227Y-59191933D01*
X87706225Y-59239815D01*
X87735966Y-59337519D01*
X87767470Y-59380546D01*
X87781254Y-59386299D01*
X87809870Y-59440245D01*
X87815864Y-59469505D01*
X87829362Y-59491107D01*
X87860889Y-59541560D01*
X87867009Y-59547408D01*
X87915129Y-59565503D01*
X87936978Y-59518879D01*
X87930688Y-59421672D01*
X87894392Y-59288018D01*
X87878895Y-59241234D01*
X87844191Y-59109150D01*
X87830341Y-59010392D01*
X87824279Y-58925423D01*
X87786925Y-58819890D01*
X87721071Y-58781705D01*
X87691807Y-58793621D01*
X87669137Y-58859286D01*
X87132945Y-58859286D01*
X87189401Y-58806934D01*
X87219270Y-58747650D01*
X87181890Y-58726389D01*
X87079064Y-58751421D01*
X87067656Y-58755498D01*
X86943780Y-58766485D01*
X86857062Y-58713593D01*
X86824400Y-58606443D01*
X86816130Y-58563288D01*
X86782486Y-58551177D01*
X86766203Y-58557671D01*
X86740572Y-58531895D01*
X86718476Y-58507703D01*
X86640359Y-58511861D01*
X86569370Y-58517361D01*
X86512143Y-58491702D01*
X86482798Y-58462275D01*
X86412478Y-58444138D01*
X86349547Y-58465128D01*
X86329796Y-58519742D01*
X85084350Y-58519742D01*
X85038603Y-58498978D01*
X84958382Y-58505728D01*
X84923056Y-58515941D01*
X84875143Y-58550701D01*
X84865832Y-58557456D01*
X84865252Y-58637938D01*
X84869386Y-58710883D01*
X84848812Y-58764222D01*
X84836716Y-58769148D01*
X84812519Y-58742265D01*
X84811249Y-58736432D01*
X84762774Y-58709023D01*
X84665819Y-58697877D01*
X84594749Y-58702866D01*
X84528361Y-58737484D01*
X84533149Y-58809705D01*
X84607727Y-58924960D01*
X84617155Y-58937335D01*
X84663781Y-59018134D01*
X84667171Y-59066768D01*
X84636257Y-59067963D01*
X84582114Y-59019489D01*
X84513451Y-58966814D01*
X84387129Y-58956684D01*
X84304014Y-58959138D01*
X84244418Y-58927545D01*
X84203983Y-58836130D01*
X84200873Y-58826758D01*
X84165282Y-58731726D01*
X84139163Y-58681177D01*
X84091731Y-58668151D01*
X83983689Y-58653245D01*
X83839175Y-58640005D01*
X83680579Y-58623333D01*
X83508903Y-58584472D01*
X83416857Y-58529437D01*
X83405866Y-58458822D01*
X83411901Y-58419031D01*
X83384882Y-58341606D01*
X83576050Y-58341606D01*
X83596648Y-58370602D01*
X83670357Y-58396914D01*
X83735732Y-58393486D01*
X83764664Y-58341606D01*
X83762933Y-58337129D01*
X84187395Y-58337129D01*
X84189004Y-58341606D01*
X84206004Y-58388904D01*
X84275517Y-58490003D01*
X84284038Y-58501433D01*
X84361219Y-58589353D01*
X84415414Y-58608751D01*
X84460491Y-58565269D01*
X84463647Y-58550701D01*
X84434763Y-58487500D01*
X84368960Y-58411448D01*
X84359188Y-58403491D01*
X87014544Y-58403491D01*
X87037299Y-58471358D01*
X87064129Y-58500008D01*
X87127875Y-58526077D01*
X87150034Y-58499160D01*
X87580191Y-58499160D01*
X87604297Y-58589663D01*
X87636665Y-58637422D01*
X87682242Y-58655965D01*
X87704598Y-58622060D01*
X87690852Y-58582589D01*
X87643060Y-58506796D01*
X87636040Y-58497839D01*
X87592520Y-58464816D01*
X87580191Y-58499160D01*
X87150034Y-58499160D01*
X87173693Y-58470420D01*
X87175037Y-58406642D01*
X87149911Y-58313592D01*
X87110338Y-58231070D01*
X87093201Y-58215864D01*
X87578856Y-58215864D01*
X87599813Y-58236821D01*
X87620770Y-58215864D01*
X87599813Y-58194907D01*
X87578856Y-58215864D01*
X87093201Y-58215864D01*
X87069951Y-58195234D01*
X87035483Y-58229229D01*
X87015366Y-58310712D01*
X87014544Y-58403491D01*
X84359188Y-58403491D01*
X84290434Y-58347510D01*
X84223383Y-58320649D01*
X84215442Y-58320877D01*
X84187395Y-58337129D01*
X83762933Y-58337129D01*
X83747213Y-58296460D01*
X83670357Y-58286298D01*
X83611699Y-58303784D01*
X83576050Y-58341606D01*
X83384882Y-58341606D01*
X83383028Y-58336294D01*
X83348812Y-58308848D01*
X83275035Y-58282452D01*
X83208109Y-58281380D01*
X83182829Y-58310171D01*
X83183202Y-58360853D01*
X83142541Y-58430485D01*
X83068660Y-58453523D01*
X82988187Y-58426311D01*
X82927744Y-58345193D01*
X82909952Y-58309625D01*
X82833379Y-58234923D01*
X82740618Y-58204939D01*
X82662293Y-58232657D01*
X82658899Y-58235730D01*
X82582950Y-58266204D01*
X82471402Y-58278735D01*
X82454997Y-58278715D01*
X82370882Y-58274278D01*
X82356235Y-58252457D01*
X82398337Y-58199455D01*
X82402658Y-58194665D01*
X82442400Y-58139395D01*
X82428393Y-58096398D01*
X82361782Y-58043943D01*
X83819790Y-58043943D01*
X83866982Y-58091454D01*
X83954436Y-58140061D01*
X84027895Y-58150276D01*
X84058064Y-58115967D01*
X84037073Y-58087120D01*
X83963757Y-58053668D01*
X83954814Y-58051297D01*
X83849044Y-58030566D01*
X83819790Y-58043943D01*
X82361782Y-58043943D01*
X82352440Y-58036586D01*
X82261449Y-57991351D01*
X82112885Y-57943549D01*
X81946891Y-57908295D01*
X81938779Y-57907031D01*
X81796389Y-57883280D01*
X81693280Y-57863233D01*
X81651284Y-57851115D01*
X81600869Y-57772341D01*
X81553354Y-57712893D01*
X82255753Y-57712893D01*
X82276711Y-57733851D01*
X82297668Y-57712893D01*
X82276711Y-57691936D01*
X82255753Y-57712893D01*
X81553354Y-57712893D01*
X81522248Y-57673975D01*
X81451810Y-57624835D01*
X81850146Y-57624835D01*
X81870516Y-57657760D01*
X81929603Y-57685229D01*
X81929977Y-57685182D01*
X82007983Y-57675471D01*
X82119532Y-57661616D01*
X82217352Y-57633621D01*
X82221227Y-57628664D01*
X82548908Y-57628664D01*
X82549429Y-57681020D01*
X82582608Y-57712893D01*
X82613102Y-57742187D01*
X82698969Y-57792373D01*
X82795757Y-57817679D01*
X82807075Y-57818275D01*
X82906273Y-57845686D01*
X83019674Y-57901351D01*
X83028702Y-57906724D01*
X83185205Y-57968127D01*
X83343277Y-57981968D01*
X83470051Y-57945059D01*
X83497052Y-57923197D01*
X83500421Y-57881857D01*
X83475710Y-57863517D01*
X84225720Y-57863517D01*
X84238765Y-57881857D01*
X84241415Y-57885582D01*
X84309549Y-57901507D01*
X84358105Y-57898517D01*
X84393377Y-57885439D01*
X84377263Y-57871781D01*
X84309549Y-57847449D01*
X84259100Y-57841957D01*
X84225720Y-57863517D01*
X83475710Y-57863517D01*
X83436271Y-57834247D01*
X83297668Y-57773463D01*
X83131030Y-57708289D01*
X83232930Y-57605806D01*
X83260090Y-57576989D01*
X83309450Y-57493547D01*
X83299613Y-57409016D01*
X83276879Y-57365894D01*
X83217010Y-57320000D01*
X83160822Y-57329327D01*
X83135951Y-57396063D01*
X83135512Y-57412480D01*
X83108520Y-57490071D01*
X83046269Y-57495587D01*
X82958001Y-57427403D01*
X82940295Y-57409131D01*
X82845884Y-57348201D01*
X82726032Y-57346157D01*
X82681844Y-57354074D01*
X82615248Y-57384195D01*
X82610965Y-57437113D01*
X82612618Y-57496022D01*
X82576363Y-57584495D01*
X82575252Y-57587207D01*
X82548908Y-57628664D01*
X82221227Y-57628664D01*
X82255753Y-57584495D01*
X82252704Y-57558254D01*
X82224318Y-57519685D01*
X82084410Y-57504514D01*
X81931801Y-57510261D01*
X81853269Y-57550493D01*
X81850146Y-57624835D01*
X81451810Y-57624835D01*
X81437854Y-57615099D01*
X81320152Y-57572552D01*
X81261681Y-57553435D01*
X81146437Y-57503626D01*
X81078331Y-57456800D01*
X81039690Y-57424143D01*
X80936070Y-57362442D01*
X80806734Y-57299509D01*
X80683940Y-57250576D01*
X80599947Y-57230880D01*
X80562368Y-57220196D01*
X80493635Y-57165934D01*
X80473248Y-57146043D01*
X80382099Y-57083207D01*
X80262445Y-57020223D01*
X80187546Y-56978270D01*
X80161279Y-56958438D01*
X81165984Y-56958438D01*
X81184071Y-56997564D01*
X81260912Y-57021309D01*
X81278811Y-57022444D01*
X81386577Y-57049996D01*
X81507958Y-57102840D01*
X81588083Y-57140151D01*
X81745880Y-57199446D01*
X81911572Y-57249540D01*
X82065149Y-57286369D01*
X82203902Y-57307554D01*
X82308135Y-57302641D01*
X82402453Y-57272794D01*
X82449920Y-57245339D01*
X82423410Y-57232493D01*
X82410498Y-57231368D01*
X82385720Y-57216806D01*
X82430326Y-57175139D01*
X82442910Y-57164669D01*
X82480175Y-57095149D01*
X82476237Y-57044438D01*
X82943100Y-57044438D01*
X82958711Y-57095149D01*
X82973948Y-57144645D01*
X82981095Y-57160155D01*
X83043835Y-57250494D01*
X83104323Y-57267111D01*
X83152424Y-57206495D01*
X83169108Y-57159964D01*
X83171584Y-57114463D01*
X83130094Y-57105138D01*
X83092044Y-57091252D01*
X83028735Y-57031854D01*
X82986605Y-56987613D01*
X82949610Y-56987378D01*
X82943100Y-57044438D01*
X82476237Y-57044438D01*
X82471339Y-56981373D01*
X82458937Y-56930903D01*
X82422927Y-56864087D01*
X82350876Y-56816264D01*
X82220050Y-56768144D01*
X82213158Y-56765907D01*
X82037329Y-56720057D01*
X81922050Y-56719950D01*
X81856154Y-56768447D01*
X81828470Y-56868409D01*
X81822054Y-56922564D01*
X81800110Y-56975071D01*
X81743189Y-56991568D01*
X81627041Y-56986240D01*
X81572082Y-56980542D01*
X81470928Y-56959693D01*
X81424455Y-56933848D01*
X81421447Y-56927638D01*
X81366214Y-56897999D01*
X81280101Y-56895643D01*
X81227572Y-56909779D01*
X81200795Y-56916985D01*
X81165984Y-56958438D01*
X80161279Y-56958438D01*
X80047726Y-56872704D01*
X79923971Y-56750400D01*
X79851840Y-56673971D01*
X79726437Y-56566421D01*
X79671952Y-56532643D01*
X80305447Y-56532643D01*
X80309648Y-56606867D01*
X80339881Y-56633566D01*
X80429034Y-56689712D01*
X80551187Y-56755109D01*
X80561720Y-56760292D01*
X80691712Y-56816554D01*
X80830263Y-56865900D01*
X80955862Y-56902063D01*
X81046997Y-56918779D01*
X81082156Y-56909779D01*
X81055446Y-56860127D01*
X80983778Y-56780940D01*
X80897373Y-56701821D01*
X82674895Y-56701821D01*
X82683409Y-56735886D01*
X82737767Y-56769824D01*
X82766408Y-56768076D01*
X82800638Y-56753999D01*
X82789858Y-56736219D01*
X82737767Y-56685996D01*
X82731674Y-56681002D01*
X82685919Y-56657344D01*
X82674895Y-56701821D01*
X80897373Y-56701821D01*
X80891657Y-56696587D01*
X80803718Y-56629513D01*
X80744592Y-56602167D01*
X80705267Y-56593406D01*
X80646541Y-56535868D01*
X80634757Y-56503003D01*
X80670428Y-56503003D01*
X80704928Y-56518339D01*
X80727118Y-56515314D01*
X80732871Y-56490396D01*
X80726728Y-56485380D01*
X80676986Y-56490396D01*
X80670428Y-56503003D01*
X80634757Y-56503003D01*
X80627795Y-56483587D01*
X80635773Y-56445227D01*
X80704928Y-56422366D01*
X80745732Y-56405698D01*
X80788266Y-56349542D01*
X80767257Y-56292771D01*
X80714411Y-56275823D01*
X81188324Y-56275823D01*
X81189787Y-56322027D01*
X81210120Y-56352508D01*
X81268039Y-56366888D01*
X81268577Y-56366688D01*
X81326595Y-56384156D01*
X81391279Y-56453363D01*
X81398489Y-56464132D01*
X81424354Y-56490396D01*
X81476618Y-56543467D01*
X81562752Y-56548342D01*
X81675204Y-56480506D01*
X81749841Y-56436567D01*
X81890427Y-56422521D01*
X81928872Y-56428622D01*
X81989350Y-56418760D01*
X82004268Y-56360053D01*
X81982111Y-56287944D01*
X81900052Y-56242164D01*
X81769865Y-56250615D01*
X81697449Y-56255907D01*
X81601311Y-56220979D01*
X81539679Y-56179154D01*
X81444410Y-56163163D01*
X81375631Y-56224798D01*
X81339020Y-56267505D01*
X81249738Y-56278979D01*
X81248294Y-56278604D01*
X81188324Y-56275823D01*
X80714411Y-56275823D01*
X80686445Y-56266854D01*
X80616005Y-56276323D01*
X80558229Y-56308768D01*
X80535114Y-56329784D01*
X80457697Y-56350682D01*
X80408809Y-56370024D01*
X80345454Y-56441663D01*
X80305447Y-56532643D01*
X79671952Y-56532643D01*
X79615624Y-56497722D01*
X79597812Y-56489965D01*
X79485026Y-56438517D01*
X79405588Y-56398704D01*
X79404425Y-56398050D01*
X79323115Y-56353072D01*
X79216975Y-56295185D01*
X79204483Y-56288192D01*
X79127219Y-56231679D01*
X79100793Y-56186842D01*
X79085560Y-56150938D01*
X79020383Y-56075407D01*
X78921918Y-55981527D01*
X78809380Y-55886319D01*
X78701985Y-55806804D01*
X78618946Y-55760003D01*
X78549984Y-55713495D01*
X78484525Y-55619943D01*
X78483964Y-55618492D01*
X78418490Y-55526671D01*
X78317620Y-55450458D01*
X78306958Y-55444735D01*
X78224064Y-55382651D01*
X78190077Y-55324188D01*
X78178614Y-55295830D01*
X78122166Y-55216811D01*
X78659099Y-55216811D01*
X78670068Y-55295277D01*
X78708578Y-55384278D01*
X78789141Y-55481373D01*
X78814299Y-55501759D01*
X78916436Y-55587487D01*
X79028361Y-55684407D01*
X79104005Y-55746677D01*
X79249386Y-55855047D01*
X79398768Y-55956440D01*
X79509079Y-56020034D01*
X79635302Y-56077176D01*
X79723603Y-56099197D01*
X79801655Y-56082852D01*
X79823027Y-56043238D01*
X79772338Y-56000538D01*
X79753882Y-55974023D01*
X79907659Y-55974023D01*
X79934673Y-56151874D01*
X79948052Y-56229124D01*
X79976397Y-56343299D01*
X80003559Y-56403416D01*
X80024212Y-56400144D01*
X80033027Y-56324151D01*
X80038677Y-56246460D01*
X80073062Y-56203718D01*
X80162100Y-56199262D01*
X80260966Y-56219451D01*
X80323924Y-56260743D01*
X80355504Y-56290302D01*
X80384739Y-56245983D01*
X80402068Y-56194469D01*
X80404296Y-56121165D01*
X80353142Y-56099197D01*
X80327952Y-56094495D01*
X80273326Y-56043354D01*
X80267239Y-56033464D01*
X80198047Y-55998063D01*
X80079778Y-55980767D01*
X79907659Y-55974023D01*
X79753882Y-55974023D01*
X79750760Y-55969538D01*
X79800713Y-55913649D01*
X79847316Y-55864459D01*
X79855428Y-55822524D01*
X79850587Y-55819903D01*
X79800915Y-55840546D01*
X79727938Y-55905919D01*
X79707943Y-55926569D01*
X79621756Y-55994976D01*
X79556920Y-56016036D01*
X79531331Y-55982755D01*
X79527035Y-55973396D01*
X79476805Y-55917547D01*
X79382064Y-55828548D01*
X79257838Y-55720791D01*
X79225442Y-55693205D01*
X79088395Y-55567808D01*
X78972877Y-55449248D01*
X78901094Y-55359985D01*
X78892005Y-55346249D01*
X78810803Y-55255210D01*
X78730679Y-55205735D01*
X78689356Y-55197617D01*
X78659099Y-55216811D01*
X78122166Y-55216811D01*
X78119405Y-55212946D01*
X78021140Y-55097282D01*
X77978048Y-55051342D01*
X78399648Y-55051342D01*
X78400128Y-55060828D01*
X78418131Y-55093257D01*
X78424855Y-55091328D01*
X78462519Y-55051342D01*
X78469068Y-55035106D01*
X78444036Y-55009428D01*
X78431869Y-55011039D01*
X78399648Y-55051342D01*
X77978048Y-55051342D01*
X77896678Y-54964594D01*
X77816581Y-54880061D01*
X77711953Y-54759094D01*
X78620532Y-54759094D01*
X78621022Y-54807930D01*
X78682310Y-54897160D01*
X78743276Y-54976257D01*
X78775598Y-55035106D01*
X78790271Y-55061821D01*
X78843541Y-55124039D01*
X78917520Y-55125930D01*
X78974283Y-55064497D01*
X78979518Y-55017355D01*
X78927519Y-54949233D01*
X78926037Y-54948333D01*
X78841305Y-54889166D01*
X78741905Y-54810455D01*
X78672171Y-54763264D01*
X78620532Y-54759094D01*
X77711953Y-54759094D01*
X77706718Y-54753041D01*
X77631298Y-54651194D01*
X77603278Y-54591019D01*
X77594099Y-54544865D01*
X77540407Y-54464544D01*
X77538804Y-54463168D01*
X77495477Y-54385257D01*
X77477536Y-54273403D01*
X77480705Y-54205762D01*
X77506423Y-54148693D01*
X77571843Y-54135894D01*
X77666541Y-54139978D01*
X77783696Y-54164792D01*
X77852532Y-54223317D01*
X77895164Y-54328744D01*
X77928981Y-54438657D01*
X77980419Y-54539780D01*
X78054591Y-54596927D01*
X78172290Y-54632915D01*
X78272622Y-54651647D01*
X78344167Y-54648634D01*
X78341256Y-54610738D01*
X78265737Y-54536039D01*
X78173014Y-54444426D01*
X78101022Y-54311286D01*
X78109851Y-54181623D01*
X78153091Y-54104260D01*
X78207552Y-54099600D01*
X78285137Y-54171144D01*
X78325692Y-54213957D01*
X78394109Y-54252326D01*
X78431090Y-54213287D01*
X78434688Y-54097794D01*
X78432930Y-54071382D01*
X78438732Y-53970973D01*
X78462519Y-53919659D01*
X78470186Y-53918963D01*
X78521316Y-53956811D01*
X78597967Y-54045422D01*
X78688061Y-54166974D01*
X78779520Y-54303647D01*
X78860266Y-54437618D01*
X78918223Y-54551066D01*
X78941313Y-54626169D01*
X78948633Y-54664570D01*
X78996740Y-54772297D01*
X79074235Y-54888686D01*
X79176143Y-55017355D01*
X79203938Y-55052449D01*
X79108606Y-55129644D01*
X79013274Y-55206839D01*
X79160173Y-55234398D01*
X79163211Y-55234982D01*
X79291791Y-55279087D01*
X79396492Y-55345263D01*
X79469721Y-55402361D01*
X79529578Y-55428570D01*
X79559718Y-55460179D01*
X79573887Y-55543834D01*
X79583240Y-55632819D01*
X79611571Y-55717598D01*
X79617654Y-55725956D01*
X79682289Y-55754128D01*
X79750904Y-55729371D01*
X79782816Y-55664338D01*
X79796219Y-55629810D01*
X79865146Y-55625604D01*
X79911589Y-55646461D01*
X79938496Y-55690602D01*
X79938701Y-55697242D01*
X79981376Y-55736790D01*
X80074045Y-55773285D01*
X80084751Y-55776331D01*
X80194110Y-55822524D01*
X80194879Y-55822849D01*
X80266629Y-55878218D01*
X80286649Y-55903266D01*
X80316607Y-55910418D01*
X80341494Y-55843431D01*
X80348638Y-55776132D01*
X80313971Y-55701012D01*
X80300238Y-55689691D01*
X80234403Y-55593937D01*
X80228804Y-55495147D01*
X80278423Y-55417870D01*
X80299749Y-55411201D01*
X80545449Y-55411201D01*
X80597464Y-55468261D01*
X80649083Y-55494980D01*
X80739974Y-55474160D01*
X80740537Y-55473859D01*
X80810556Y-55452906D01*
X80847438Y-55495637D01*
X80863943Y-55545049D01*
X80864406Y-55616767D01*
X80809714Y-55638141D01*
X80764659Y-55662375D01*
X80748389Y-55741311D01*
X80770757Y-55855069D01*
X80830514Y-55982920D01*
X80841514Y-56001595D01*
X80893229Y-56110569D01*
X80895927Y-56121165D01*
X80914343Y-56193504D01*
X80923007Y-56232439D01*
X80970385Y-56266854D01*
X80974192Y-56266818D01*
X81055538Y-56234199D01*
X81082156Y-56138783D01*
X81092771Y-56099556D01*
X81155506Y-56072419D01*
X81174745Y-56071612D01*
X81190668Y-56058927D01*
X82318674Y-56058927D01*
X82324979Y-56154288D01*
X82384289Y-56292923D01*
X82387407Y-56298582D01*
X82427065Y-56360053D01*
X82453883Y-56401621D01*
X82520040Y-56479099D01*
X82570796Y-56516083D01*
X82591067Y-56497639D01*
X82584869Y-56463516D01*
X82553888Y-56370817D01*
X82532860Y-56318621D01*
X82986020Y-56318621D01*
X82996868Y-56391483D01*
X83037004Y-56485779D01*
X83044619Y-56497639D01*
X83089400Y-56567383D01*
X83137028Y-56602167D01*
X83155020Y-56608384D01*
X83177866Y-56662565D01*
X83178033Y-56670327D01*
X83207245Y-56740537D01*
X83270430Y-56747572D01*
X83344116Y-56687860D01*
X83386868Y-56635862D01*
X83430060Y-56619834D01*
X83485065Y-56663869D01*
X83526717Y-56721189D01*
X83536829Y-56753999D01*
X83555093Y-56813258D01*
X83570484Y-56867876D01*
X83636166Y-56936006D01*
X83718053Y-56971350D01*
X83778328Y-56970050D01*
X83779822Y-56916524D01*
X83733441Y-56860201D01*
X83628443Y-56848689D01*
X83606401Y-56817347D01*
X83597008Y-56733042D01*
X83580641Y-56638506D01*
X83534136Y-56560253D01*
X83499921Y-56525970D01*
X83471265Y-56471772D01*
X83464028Y-56443484D01*
X83412837Y-56367682D01*
X83339298Y-56297643D01*
X83324638Y-56290577D01*
X84152093Y-56290577D01*
X84156504Y-56395517D01*
X84176246Y-56482235D01*
X84209513Y-56518339D01*
X84211423Y-56518402D01*
X84272465Y-56552983D01*
X84340018Y-56631984D01*
X84341491Y-56634226D01*
X84420490Y-56738915D01*
X84521292Y-56852815D01*
X84584752Y-56916524D01*
X84625339Y-56957271D01*
X84714076Y-57033626D01*
X84768945Y-57063224D01*
X84787915Y-57069211D01*
X84808661Y-57114463D01*
X84812519Y-57122879D01*
X84814945Y-57146915D01*
X84867874Y-57254056D01*
X84973805Y-57365980D01*
X85111189Y-57466260D01*
X85258478Y-57538473D01*
X85394125Y-57566194D01*
X85442459Y-57583236D01*
X85536359Y-57645368D01*
X85646307Y-57735235D01*
X85751096Y-57833920D01*
X85796704Y-57885439D01*
X85829520Y-57922508D01*
X85860374Y-57982085D01*
X85892181Y-58009030D01*
X85975638Y-58017329D01*
X86084426Y-58020750D01*
X86218665Y-58041446D01*
X86220850Y-58041965D01*
X86318422Y-58054467D01*
X86375843Y-58042694D01*
X86388319Y-58025418D01*
X86405259Y-57933684D01*
X86386926Y-57821607D01*
X87346970Y-57821607D01*
X87356915Y-57911986D01*
X87362575Y-57933684D01*
X87368382Y-57955949D01*
X87403805Y-58017398D01*
X87437778Y-58019322D01*
X87452471Y-57953900D01*
X87450102Y-57926227D01*
X87425606Y-57845923D01*
X87388050Y-57786037D01*
X87354308Y-57776979D01*
X87346970Y-57821607D01*
X86386926Y-57821607D01*
X86386902Y-57821462D01*
X86338105Y-57729119D01*
X86302394Y-57676491D01*
X86269340Y-57536192D01*
X86298070Y-57388720D01*
X86480539Y-57388720D01*
X86518421Y-57500366D01*
X86604012Y-57650376D01*
X86640978Y-57704043D01*
X86706756Y-57785575D01*
X86748017Y-57817679D01*
X86749891Y-57817617D01*
X86779644Y-57781964D01*
X86779975Y-57701728D01*
X86755075Y-57607803D01*
X86709136Y-57531080D01*
X86656858Y-57470399D01*
X86593872Y-57381144D01*
X86562484Y-57341348D01*
X86510044Y-57317897D01*
X86493392Y-57326139D01*
X86480539Y-57388720D01*
X86298070Y-57388720D01*
X86298199Y-57388059D01*
X86304381Y-57372654D01*
X86300348Y-57326531D01*
X86229485Y-57314709D01*
X86155124Y-57321912D01*
X86033413Y-57360560D01*
X85940063Y-57420016D01*
X85902615Y-57485858D01*
X85899859Y-57517629D01*
X85876764Y-57577747D01*
X85870864Y-57580140D01*
X85819985Y-57556383D01*
X85742211Y-57494482D01*
X85659488Y-57415080D01*
X85593760Y-57338820D01*
X85566975Y-57286345D01*
X85539223Y-57233275D01*
X85473236Y-57158451D01*
X85398428Y-57091943D01*
X85344224Y-57063224D01*
X85328809Y-57071567D01*
X85315822Y-57127505D01*
X85326316Y-57201374D01*
X85357404Y-57251837D01*
X85386783Y-57292037D01*
X85398653Y-57372127D01*
X85383325Y-57448394D01*
X85343174Y-57482365D01*
X85292884Y-57454916D01*
X85239287Y-57377580D01*
X85196726Y-57306696D01*
X85152832Y-57272794D01*
X85112751Y-57239753D01*
X85068710Y-57157530D01*
X85028794Y-57064803D01*
X84985259Y-56979395D01*
X84947649Y-56906679D01*
X84900855Y-56799355D01*
X84865455Y-56728248D01*
X84811464Y-56698563D01*
X84710944Y-56709116D01*
X84621381Y-56719862D01*
X84557037Y-56695058D01*
X84517839Y-56634648D01*
X85566975Y-56634648D01*
X85566981Y-56635555D01*
X85589653Y-56716726D01*
X85642793Y-56821621D01*
X85706476Y-56916151D01*
X85760779Y-56966230D01*
X85778819Y-56979624D01*
X85825778Y-57056675D01*
X85865932Y-57172717D01*
X85893626Y-57269436D01*
X85931218Y-57342396D01*
X85970664Y-57337374D01*
X86017770Y-57257619D01*
X86030901Y-57225469D01*
X86034197Y-57149210D01*
X85975555Y-57071290D01*
X85951789Y-57046325D01*
X85914373Y-56980979D01*
X85938243Y-56923704D01*
X85954358Y-56865789D01*
X85896993Y-56826170D01*
X85773117Y-56811738D01*
X85727636Y-56803809D01*
X85692717Y-56766830D01*
X85681377Y-56729841D01*
X85664716Y-56706953D01*
X86111859Y-56706953D01*
X86132816Y-56727910D01*
X86153773Y-56706953D01*
X86132816Y-56685996D01*
X86111859Y-56706953D01*
X85664716Y-56706953D01*
X85629846Y-56659051D01*
X85590568Y-56628260D01*
X85566975Y-56634648D01*
X84517839Y-56634648D01*
X84503654Y-56612786D01*
X84473152Y-56539296D01*
X85525060Y-56539296D01*
X85546017Y-56560253D01*
X85566975Y-56539296D01*
X85546017Y-56518339D01*
X85525060Y-56539296D01*
X84473152Y-56539296D01*
X84455839Y-56497584D01*
X84424904Y-56377442D01*
X84397433Y-56300647D01*
X84332094Y-56215982D01*
X84254595Y-56161031D01*
X84189448Y-56158581D01*
X84164819Y-56199806D01*
X84152093Y-56290577D01*
X83324638Y-56290577D01*
X83275419Y-56266854D01*
X83239264Y-56254218D01*
X83181223Y-56193504D01*
X83164222Y-56164885D01*
X83141975Y-56142507D01*
X83137226Y-56193504D01*
X83127280Y-56232431D01*
X83075554Y-56266854D01*
X83049874Y-56270124D01*
X82990013Y-56307537D01*
X82986020Y-56318621D01*
X82532860Y-56318621D01*
X82506793Y-56253915D01*
X82454798Y-56138548D01*
X82424331Y-56079796D01*
X84527771Y-56079796D01*
X84542530Y-56137041D01*
X84585255Y-56231252D01*
X84589857Y-56240250D01*
X84646523Y-56365450D01*
X84685219Y-56474474D01*
X84688702Y-56486508D01*
X84719417Y-56537725D01*
X84744488Y-56517097D01*
X84748306Y-56434511D01*
X84744896Y-56402011D01*
X84735075Y-56299922D01*
X84731949Y-56284836D01*
X84694210Y-56214337D01*
X84655426Y-56166958D01*
X85896522Y-56166958D01*
X85902887Y-56200390D01*
X85926142Y-56239204D01*
X85944202Y-56330802D01*
X85948726Y-56360662D01*
X85984773Y-56434511D01*
X85988782Y-56442725D01*
X86052833Y-56521316D01*
X86075992Y-56539296D01*
X86119489Y-56573066D01*
X86167361Y-56574608D01*
X86193483Y-56522752D01*
X86179983Y-56425309D01*
X86111859Y-56329725D01*
X86056458Y-56267688D01*
X86028031Y-56206468D01*
X86012545Y-56179018D01*
X85944801Y-56159075D01*
X85896522Y-56166958D01*
X84655426Y-56166958D01*
X84632584Y-56139053D01*
X84570043Y-56084148D01*
X84529558Y-56074788D01*
X84527771Y-56079796D01*
X82424331Y-56079796D01*
X82412657Y-56057283D01*
X85860374Y-56057283D01*
X85860854Y-56066768D01*
X85878857Y-56099197D01*
X85885581Y-56097268D01*
X85923245Y-56057283D01*
X85929794Y-56041047D01*
X85904762Y-56015369D01*
X85892596Y-56016979D01*
X85860374Y-56057283D01*
X82412657Y-56057283D01*
X82409115Y-56050453D01*
X82380958Y-56015369D01*
X82365491Y-56016608D01*
X82318674Y-56058927D01*
X81190668Y-56058927D01*
X81228148Y-56029069D01*
X81245817Y-55944359D01*
X81226561Y-55844842D01*
X81169191Y-55757875D01*
X81110690Y-55687629D01*
X81082156Y-55616517D01*
X81052723Y-55555455D01*
X80977371Y-55487587D01*
X80904616Y-55424243D01*
X80872585Y-55363352D01*
X80855201Y-55303878D01*
X80783235Y-55277008D01*
X80662034Y-55309980D01*
X80646578Y-55316913D01*
X80559549Y-55366320D01*
X80545449Y-55411201D01*
X80299749Y-55411201D01*
X80378240Y-55386656D01*
X80420276Y-55379580D01*
X80443941Y-55343631D01*
X80412513Y-55298503D01*
X80334896Y-55268477D01*
X80279949Y-55246906D01*
X80243614Y-55184648D01*
X80226699Y-55104012D01*
X80198528Y-55036007D01*
X80460857Y-55036007D01*
X80495357Y-55051342D01*
X80517547Y-55048317D01*
X80523300Y-55023400D01*
X80517157Y-55018383D01*
X80467415Y-55023400D01*
X80460857Y-55036007D01*
X80198528Y-55036007D01*
X80182974Y-54998459D01*
X80151790Y-54929002D01*
X80148924Y-54853617D01*
X80193711Y-54757717D01*
X80236449Y-54697885D01*
X80319005Y-54640668D01*
X80394207Y-54647072D01*
X80442358Y-54720079D01*
X80450718Y-54746268D01*
X80493391Y-54789330D01*
X80583508Y-54784323D01*
X80672455Y-54780069D01*
X80728500Y-54804088D01*
X80745973Y-54820783D01*
X80812806Y-54825427D01*
X80849539Y-54826848D01*
X80917023Y-54876675D01*
X80974208Y-54961106D01*
X80990684Y-55023400D01*
X80998328Y-55052302D01*
X81002072Y-55070267D01*
X81046978Y-55150374D01*
X81129045Y-55259295D01*
X81231012Y-55377686D01*
X81335617Y-55486201D01*
X81425598Y-55565496D01*
X81483693Y-55596227D01*
X81509509Y-55592053D01*
X81543212Y-55554313D01*
X81536119Y-55535031D01*
X81480341Y-55512398D01*
X81448562Y-55502909D01*
X81417470Y-55443669D01*
X81405999Y-55397521D01*
X81348195Y-55324285D01*
X81313225Y-55285252D01*
X81308754Y-55225358D01*
X81344623Y-55186413D01*
X81395147Y-55188827D01*
X81417470Y-55260913D01*
X81429523Y-55311971D01*
X81494312Y-55344742D01*
X81537490Y-55348824D01*
X81600311Y-55373898D01*
X81622960Y-55389040D01*
X81701604Y-55413401D01*
X81745877Y-55429566D01*
X81815654Y-55494908D01*
X81879812Y-55588394D01*
X81970434Y-55699546D01*
X82066320Y-55803696D01*
X82148966Y-55880811D01*
X82199868Y-55910859D01*
X82260252Y-55897269D01*
X82275085Y-55844585D01*
X82218054Y-55758751D01*
X82156405Y-55678607D01*
X82130011Y-55615694D01*
X82106170Y-55554373D01*
X82046182Y-55470484D01*
X81986205Y-55395106D01*
X81959147Y-55348807D01*
X81955664Y-55326487D01*
X81941899Y-55250435D01*
X81939019Y-55230593D01*
X81954219Y-55182184D01*
X82008591Y-55198713D01*
X82092989Y-55278485D01*
X82181264Y-55355168D01*
X82281325Y-55405026D01*
X82346684Y-55435608D01*
X82386735Y-55492240D01*
X82397983Y-55576666D01*
X82427592Y-55636878D01*
X82496760Y-55711491D01*
X82497451Y-55712183D01*
X82563782Y-55793840D01*
X82591709Y-55858191D01*
X82595030Y-55884216D01*
X82619019Y-55944359D01*
X82627948Y-55966746D01*
X82646784Y-55987194D01*
X82693556Y-55981711D01*
X82771488Y-55914966D01*
X82785968Y-55900427D01*
X82826264Y-55854698D01*
X83974235Y-55854698D01*
X83974992Y-55861504D01*
X84013676Y-55889626D01*
X84048667Y-55879621D01*
X84082211Y-55834094D01*
X84064594Y-55788876D01*
X84058335Y-55785520D01*
X84001577Y-55793955D01*
X83974235Y-55854698D01*
X82826264Y-55854698D01*
X82844993Y-55833444D01*
X82848747Y-55793151D01*
X82802279Y-55752985D01*
X82780469Y-55734661D01*
X82705290Y-55646946D01*
X82629688Y-55532323D01*
X82562958Y-55430183D01*
X82456438Y-55304349D01*
X82351342Y-55214173D01*
X82267084Y-55178592D01*
X82252099Y-55173531D01*
X82194866Y-55117545D01*
X82132010Y-55019907D01*
X82081111Y-54939021D01*
X81976627Y-54803806D01*
X81858716Y-54674674D01*
X81769865Y-54580129D01*
X81696945Y-54487814D01*
X81668955Y-54431194D01*
X81665106Y-54409133D01*
X81631625Y-54398839D01*
X81622451Y-54400941D01*
X81573496Y-54370535D01*
X81517206Y-54303866D01*
X81476323Y-54231719D01*
X81473588Y-54184883D01*
X81507285Y-54180389D01*
X81588365Y-54207862D01*
X81683144Y-54258688D01*
X81761846Y-54316260D01*
X81794697Y-54363971D01*
X81796761Y-54374449D01*
X81846361Y-54429298D01*
X81941397Y-54482800D01*
X81965993Y-54493867D01*
X82052951Y-54549103D01*
X82088097Y-54599982D01*
X82089050Y-54608627D01*
X82130242Y-54683095D01*
X82217943Y-54783610D01*
X82332358Y-54892461D01*
X82453693Y-54991937D01*
X82562152Y-55064328D01*
X82637939Y-55091924D01*
X82692057Y-55090016D01*
X82710874Y-55075000D01*
X82656460Y-55029092D01*
X82631844Y-55006482D01*
X82591492Y-54954319D01*
X83687611Y-54954319D01*
X83709651Y-55055033D01*
X83762869Y-55218999D01*
X83806476Y-55337729D01*
X83849861Y-55414382D01*
X83905309Y-55449179D01*
X83992029Y-55462536D01*
X84012827Y-55464030D01*
X84112907Y-55455281D01*
X84139475Y-55416764D01*
X84088726Y-55352796D01*
X84059569Y-55318525D01*
X83998513Y-55222284D01*
X83931548Y-55096831D01*
X83898562Y-55034259D01*
X83836588Y-54946557D01*
X84393999Y-54946557D01*
X84406574Y-55218999D01*
X84407968Y-55245427D01*
X84432413Y-55416764D01*
X84443617Y-55495292D01*
X84515992Y-55674831D01*
X84623905Y-55780974D01*
X84678580Y-55817150D01*
X84695708Y-55834094D01*
X84741252Y-55879148D01*
X84759401Y-55900117D01*
X84831075Y-55931540D01*
X84852810Y-55929193D01*
X84904491Y-55885229D01*
X84905695Y-55806627D01*
X84853483Y-55721019D01*
X84797172Y-55657369D01*
X84770605Y-55610750D01*
X84767460Y-55593609D01*
X84734556Y-55509891D01*
X84676241Y-55388957D01*
X84605490Y-55255655D01*
X84535273Y-55134835D01*
X84478562Y-55051342D01*
X84393999Y-54946557D01*
X83836588Y-54946557D01*
X83820500Y-54923791D01*
X83754186Y-54884337D01*
X83735570Y-54885004D01*
X83696375Y-54902446D01*
X83687611Y-54954319D01*
X82591492Y-54954319D01*
X82558017Y-54911047D01*
X82487493Y-54789418D01*
X82460925Y-54736722D01*
X82334210Y-54513473D01*
X82202673Y-54320520D01*
X82082591Y-54182271D01*
X81882554Y-53994639D01*
X81846517Y-53961573D01*
X82507239Y-53961573D01*
X82508944Y-53973062D01*
X82551626Y-54003488D01*
X82566787Y-54000197D01*
X82570110Y-53961573D01*
X82561507Y-53949030D01*
X82525722Y-53919659D01*
X82521539Y-53920749D01*
X82507239Y-53961573D01*
X81846517Y-53961573D01*
X81724362Y-53849490D01*
X81605982Y-53745989D01*
X81517146Y-53675529D01*
X81447586Y-53629506D01*
X81387036Y-53599316D01*
X81385428Y-53598630D01*
X81273274Y-53524417D01*
X81192235Y-53426925D01*
X81130603Y-53330980D01*
X81040898Y-53228669D01*
X81009169Y-53196996D01*
X80920035Y-53091845D01*
X80830165Y-52969340D01*
X80764093Y-52861934D01*
X80742029Y-52791799D01*
X80764246Y-52749011D01*
X80803820Y-52738265D01*
X80866517Y-52778258D01*
X80958658Y-52882697D01*
X81015872Y-52952751D01*
X81088604Y-53035559D01*
X81128987Y-53073053D01*
X81134999Y-53076329D01*
X81192465Y-53119199D01*
X81277239Y-53190717D01*
X81289893Y-53201840D01*
X81465847Y-53351707D01*
X81598315Y-53454893D01*
X81681817Y-53507421D01*
X81710869Y-53505314D01*
X81708021Y-53485714D01*
X81669651Y-53391534D01*
X81596590Y-53260730D01*
X81501756Y-53115137D01*
X81398065Y-52976590D01*
X81352812Y-52917854D01*
X81303401Y-52843798D01*
X81669601Y-52843798D01*
X81683205Y-52927774D01*
X81731826Y-52982390D01*
X81761042Y-52999427D01*
X81794697Y-53057061D01*
X81797749Y-53071043D01*
X81841438Y-53141091D01*
X81920440Y-53228075D01*
X81972787Y-53275459D01*
X82029149Y-53309360D01*
X82046182Y-53282622D01*
X82046176Y-53281539D01*
X82024641Y-53194847D01*
X81970674Y-53081513D01*
X81897960Y-52962005D01*
X81820187Y-52856793D01*
X81751039Y-52786348D01*
X81704203Y-52771138D01*
X81697027Y-52776451D01*
X81669601Y-52843798D01*
X81303401Y-52843798D01*
X81275714Y-52802301D01*
X81232113Y-52714874D01*
X81204163Y-52650184D01*
X81141413Y-52559821D01*
X81116928Y-52523476D01*
X81081051Y-52435783D01*
X81050405Y-52329275D01*
X81030588Y-52228443D01*
X81027199Y-52157776D01*
X81045837Y-52141764D01*
X81049753Y-52143970D01*
X81078708Y-52133592D01*
X81080538Y-52077910D01*
X81059359Y-52006688D01*
X81019285Y-51949692D01*
X80992677Y-51920208D01*
X80960905Y-51842757D01*
X80963116Y-51771429D01*
X81002092Y-51740121D01*
X81028373Y-51748588D01*
X81103489Y-51799480D01*
X81190243Y-51875420D01*
X81261900Y-51951984D01*
X81291727Y-52004745D01*
X81293686Y-52014086D01*
X81328277Y-52079635D01*
X81392391Y-52172538D01*
X81398919Y-52181333D01*
X81486017Y-52319078D01*
X81557909Y-52463141D01*
X81572890Y-52496549D01*
X81627064Y-52582466D01*
X81675151Y-52620413D01*
X81702728Y-52603794D01*
X81695373Y-52526012D01*
X81680343Y-52460173D01*
X81669527Y-52379313D01*
X81665146Y-52359150D01*
X81615234Y-52326920D01*
X81593260Y-52314677D01*
X81547569Y-52242753D01*
X81505060Y-52127827D01*
X81484389Y-52063234D01*
X81434699Y-51947426D01*
X81387764Y-51879743D01*
X81353605Y-51829502D01*
X81340944Y-51733043D01*
X81345822Y-51705912D01*
X81362356Y-51682852D01*
X81393829Y-51720691D01*
X81449445Y-51827436D01*
X81478483Y-51880627D01*
X81580412Y-52025942D01*
X81690266Y-52141558D01*
X81769813Y-52215971D01*
X81823141Y-52306476D01*
X81836612Y-52423444D01*
X81836615Y-52425165D01*
X81844601Y-52499638D01*
X81872660Y-52577575D01*
X81927824Y-52667751D01*
X82017126Y-52778943D01*
X82147601Y-52919927D01*
X82326279Y-53099479D01*
X82515088Y-53282622D01*
X82560196Y-53326376D01*
X82627497Y-53400927D01*
X82728171Y-53531772D01*
X82825685Y-53675521D01*
X82906183Y-53794576D01*
X82982254Y-53890518D01*
X83032798Y-53935443D01*
X83051337Y-53947531D01*
X83063264Y-53961573D01*
X83111965Y-54018912D01*
X83176383Y-54126324D01*
X83197668Y-54163905D01*
X83288948Y-54280857D01*
X83386406Y-54359225D01*
X83469900Y-54420568D01*
X83487552Y-54482556D01*
X83484239Y-54540142D01*
X83514043Y-54633815D01*
X83538502Y-54676076D01*
X83576290Y-54700689D01*
X83630174Y-54658911D01*
X83667452Y-54613566D01*
X83663911Y-54565510D01*
X83603915Y-54492854D01*
X83582808Y-54468870D01*
X83502577Y-54357029D01*
X83425805Y-54225274D01*
X83368213Y-54102516D01*
X83345522Y-54017665D01*
X83339519Y-53991112D01*
X83288105Y-53932220D01*
X83267679Y-53914961D01*
X83206533Y-53834839D01*
X83141268Y-53721968D01*
X83122639Y-53688221D01*
X83479611Y-53688221D01*
X83485462Y-53760955D01*
X83524652Y-53871015D01*
X83588042Y-54001640D01*
X83666497Y-54136068D01*
X83750880Y-54257538D01*
X83832055Y-54349288D01*
X83900885Y-54394555D01*
X83905299Y-54395878D01*
X83958065Y-54446676D01*
X83974235Y-54561173D01*
X83974343Y-54576216D01*
X83987280Y-54668092D01*
X84036560Y-54731515D01*
X84143183Y-54795625D01*
X84194896Y-54822439D01*
X84300028Y-54872237D01*
X84345439Y-54876338D01*
X84341623Y-54830305D01*
X84299070Y-54729702D01*
X84276991Y-54689752D01*
X84194272Y-54580021D01*
X84089499Y-54471367D01*
X84036944Y-54419128D01*
X83961829Y-54322110D01*
X83932321Y-54248621D01*
X83932316Y-54247759D01*
X83906907Y-54158574D01*
X83842459Y-54038293D01*
X83774947Y-53938292D01*
X84538098Y-53938292D01*
X84559559Y-54000732D01*
X84583068Y-54057842D01*
X84602948Y-54163904D01*
X84614084Y-54213297D01*
X84670168Y-54271799D01*
X84702126Y-54294065D01*
X84713398Y-54360111D01*
X84706878Y-54391933D01*
X84730006Y-54422629D01*
X84748018Y-54428979D01*
X84770605Y-54483418D01*
X84775849Y-54512306D01*
X84826098Y-54577725D01*
X84837017Y-54585440D01*
X84903371Y-54651393D01*
X84980680Y-54747464D01*
X85001657Y-54774947D01*
X85074590Y-54852516D01*
X85115161Y-54876338D01*
X85127675Y-54883686D01*
X85144490Y-54887113D01*
X85192119Y-54933007D01*
X85248236Y-55040296D01*
X85318541Y-55218999D01*
X85322300Y-55229017D01*
X85381665Y-55349550D01*
X85448514Y-55440681D01*
X85495792Y-55508064D01*
X85525060Y-55613685D01*
X85535751Y-55681282D01*
X85577453Y-55753038D01*
X85584091Y-55758032D01*
X85669524Y-55791153D01*
X85744262Y-55778796D01*
X85775914Y-55725462D01*
X85771406Y-55670836D01*
X85723669Y-55509017D01*
X85638756Y-55358255D01*
X85535276Y-55254935D01*
X85535048Y-55254791D01*
X85443329Y-55174820D01*
X85428333Y-55096142D01*
X85423995Y-54987788D01*
X85359000Y-54874988D01*
X85249160Y-54798542D01*
X85178400Y-54751636D01*
X85120197Y-54630244D01*
X85106253Y-54579462D01*
X85048612Y-54498565D01*
X84932765Y-54436497D01*
X84892321Y-54418737D01*
X84814525Y-54370842D01*
X84794702Y-54333720D01*
X84796601Y-54319162D01*
X84772590Y-54247134D01*
X84720168Y-54145013D01*
X84655000Y-54039110D01*
X84592749Y-53955732D01*
X84549081Y-53921190D01*
X84538098Y-53938292D01*
X83774947Y-53938292D01*
X83754506Y-53908014D01*
X83658582Y-53788835D01*
X83570221Y-53701856D01*
X83504957Y-53668174D01*
X83479611Y-53688221D01*
X83122639Y-53688221D01*
X83113580Y-53671811D01*
X83037867Y-53564329D01*
X82969473Y-53501148D01*
X82935623Y-53475598D01*
X82907030Y-53443489D01*
X84481406Y-53443489D01*
X84520594Y-53545187D01*
X84521803Y-53547406D01*
X84570880Y-53605394D01*
X84621544Y-53630169D01*
X84644862Y-53607275D01*
X84634772Y-53564638D01*
X84596730Y-53482927D01*
X84549165Y-53407755D01*
X84538517Y-53398205D01*
X84770605Y-53398205D01*
X84771695Y-53402388D01*
X84812519Y-53416689D01*
X84824007Y-53414983D01*
X84854433Y-53372301D01*
X84851142Y-53357141D01*
X84812519Y-53353818D01*
X84799976Y-53362420D01*
X84770605Y-53398205D01*
X84538517Y-53398205D01*
X84512392Y-53374775D01*
X84489376Y-53383588D01*
X84481406Y-53443489D01*
X82907030Y-53443489D01*
X82856531Y-53386779D01*
X82790037Y-53288473D01*
X83010209Y-53288473D01*
X83011808Y-53300232D01*
X83052123Y-53353818D01*
X83073718Y-53357761D01*
X83094037Y-53314377D01*
X83088908Y-53283149D01*
X83052123Y-53249032D01*
X83042179Y-53250161D01*
X83010209Y-53288473D01*
X82790037Y-53288473D01*
X82777013Y-53269218D01*
X82733549Y-53199676D01*
X82669938Y-53114594D01*
X82657511Y-53104511D01*
X82890942Y-53104511D01*
X82906176Y-53145091D01*
X82961819Y-53197993D01*
X82994642Y-53197383D01*
X83003514Y-53143404D01*
X84318504Y-53143404D01*
X84323520Y-53193147D01*
X84336127Y-53199704D01*
X84351463Y-53165204D01*
X84348438Y-53143014D01*
X84323520Y-53137261D01*
X84319594Y-53142069D01*
X84318504Y-53143404D01*
X83003514Y-53143404D01*
X83003733Y-53142069D01*
X82988499Y-53101488D01*
X82932856Y-53048586D01*
X82900033Y-53049196D01*
X82890942Y-53104511D01*
X82657511Y-53104511D01*
X82628998Y-53081375D01*
X82604060Y-53055380D01*
X82597840Y-53017662D01*
X83773619Y-53017662D01*
X83778636Y-53067404D01*
X83791243Y-53073961D01*
X83806579Y-53039461D01*
X85168790Y-53039461D01*
X85177380Y-53052142D01*
X85210704Y-53081375D01*
X85216767Y-53079403D01*
X85252618Y-53039461D01*
X85255975Y-53017262D01*
X85210704Y-52997547D01*
X85178743Y-53003952D01*
X85168790Y-53039461D01*
X83806579Y-53039461D01*
X83803554Y-53017272D01*
X83778636Y-53011518D01*
X83773619Y-53017662D01*
X82597840Y-53017662D01*
X82591067Y-52976590D01*
X82592707Y-52952151D01*
X82626532Y-52884428D01*
X82682501Y-52875763D01*
X82731967Y-52934676D01*
X82750343Y-52963637D01*
X82820280Y-52997547D01*
X82832165Y-52996277D01*
X82875445Y-52951461D01*
X82880874Y-52862328D01*
X82845612Y-52755972D01*
X82834024Y-52732110D01*
X85029495Y-52732110D01*
X85036883Y-52758613D01*
X85079011Y-52812588D01*
X85125749Y-52811006D01*
X85147833Y-52749555D01*
X85136302Y-52697491D01*
X85081888Y-52662233D01*
X85051262Y-52671203D01*
X85047551Y-52672290D01*
X85029495Y-52732110D01*
X82834024Y-52732110D01*
X82823813Y-52711083D01*
X82796441Y-52641276D01*
X83429351Y-52641276D01*
X83450308Y-52662233D01*
X83471265Y-52641276D01*
X83450308Y-52620319D01*
X83429351Y-52641276D01*
X82796441Y-52641276D01*
X82781366Y-52602832D01*
X82751596Y-52550458D01*
X82707053Y-52571396D01*
X82703892Y-52574497D01*
X82615114Y-52617352D01*
X82511522Y-52584328D01*
X82399772Y-52484804D01*
X83907976Y-52484804D01*
X83936325Y-52571875D01*
X83963938Y-52640688D01*
X83964299Y-52641276D01*
X84009382Y-52714703D01*
X84044181Y-52727668D01*
X84058064Y-52671203D01*
X84037895Y-52601204D01*
X83974112Y-52515422D01*
X83963362Y-52505709D01*
X83914645Y-52466249D01*
X83907976Y-52484804D01*
X82399772Y-52484804D01*
X82387214Y-52473620D01*
X82343816Y-52428151D01*
X82263085Y-52355557D01*
X82212823Y-52326920D01*
X82198774Y-52324876D01*
X82172425Y-52285349D01*
X82188553Y-52221229D01*
X82241135Y-52166611D01*
X82263887Y-52148956D01*
X82264629Y-52146835D01*
X84410522Y-52146835D01*
X84451504Y-52197240D01*
X84492045Y-52222004D01*
X84539002Y-52202917D01*
X84542785Y-52192819D01*
X84519632Y-52148502D01*
X84462722Y-52118798D01*
X84411514Y-52127155D01*
X84410522Y-52146835D01*
X82264629Y-52146835D01*
X82292586Y-52066943D01*
X82270575Y-51932788D01*
X82196829Y-51742441D01*
X82070322Y-51491847D01*
X82025010Y-51405951D01*
X81949784Y-51250365D01*
X81897879Y-51125030D01*
X81878526Y-51051157D01*
X81876746Y-51031262D01*
X81829891Y-50958586D01*
X81710869Y-50890892D01*
X81666212Y-50870022D01*
X81578194Y-50817000D01*
X81543212Y-50776219D01*
X81543407Y-50772124D01*
X81576390Y-50737905D01*
X81635836Y-50742276D01*
X81678256Y-50783041D01*
X81683055Y-50793488D01*
X81727744Y-50810880D01*
X81826202Y-50786004D01*
X81893252Y-50765401D01*
X81949981Y-50768890D01*
X81999739Y-50817620D01*
X82066524Y-50925524D01*
X82105091Y-50984558D01*
X82202802Y-51099700D01*
X82296327Y-51173587D01*
X82296740Y-51173800D01*
X82389090Y-51239664D01*
X82441448Y-51310041D01*
X82445176Y-51319271D01*
X82491079Y-51389306D01*
X82573042Y-51489814D01*
X82678064Y-51607398D01*
X82793145Y-51728661D01*
X82905284Y-51840204D01*
X83001480Y-51928630D01*
X83068731Y-51980542D01*
X83094037Y-51982542D01*
X83072037Y-51926722D01*
X83006254Y-51828212D01*
X82987608Y-51805466D01*
X84309549Y-51805466D01*
X84317412Y-51814230D01*
X84374894Y-51823950D01*
X84404805Y-51817802D01*
X84413912Y-51781352D01*
X84395527Y-51765471D01*
X84340262Y-51766343D01*
X84336721Y-51770853D01*
X84309549Y-51805466D01*
X82987608Y-51805466D01*
X82911991Y-51713219D01*
X82887188Y-51682768D01*
X83307152Y-51682768D01*
X83322842Y-51737333D01*
X83333610Y-51751189D01*
X83395042Y-51782035D01*
X83413626Y-51770853D01*
X83386596Y-51718151D01*
X83363121Y-51698207D01*
X84225720Y-51698207D01*
X84226938Y-51708226D01*
X84267635Y-51740121D01*
X84277653Y-51738903D01*
X84309549Y-51698207D01*
X84308331Y-51688188D01*
X84267635Y-51656293D01*
X84257616Y-51657511D01*
X84225720Y-51698207D01*
X83363121Y-51698207D01*
X83339679Y-51678291D01*
X83307152Y-51682768D01*
X82887188Y-51682768D01*
X82826753Y-51608573D01*
X82743997Y-51484811D01*
X82704712Y-51399477D01*
X83957764Y-51399477D01*
X83957925Y-51464673D01*
X83959390Y-51468002D01*
X84006600Y-51509608D01*
X84082393Y-51540691D01*
X84152789Y-51551238D01*
X84183806Y-51531234D01*
X84163650Y-51493522D01*
X84102619Y-51428155D01*
X84083972Y-51412827D01*
X84007658Y-51380207D01*
X83957764Y-51399477D01*
X82704712Y-51399477D01*
X82700758Y-51390889D01*
X82699782Y-51387098D01*
X82645279Y-51275878D01*
X82557969Y-51173755D01*
X82508184Y-51127206D01*
X82473726Y-51069613D01*
X82496760Y-51022113D01*
X82501903Y-51016754D01*
X82544161Y-50938366D01*
X82525996Y-50844329D01*
X82444367Y-50716949D01*
X82429597Y-50697279D01*
X82356637Y-50578673D01*
X82347248Y-50501726D01*
X82399807Y-50456954D01*
X82426004Y-50438113D01*
X82436637Y-50372880D01*
X82435905Y-50320746D01*
X82478087Y-50240128D01*
X82487151Y-50229713D01*
X82509041Y-50188277D01*
X82495922Y-50140509D01*
X82438894Y-50069607D01*
X82329056Y-49958768D01*
X82309288Y-49939536D01*
X82215985Y-49853361D01*
X82157812Y-49807682D01*
X82146662Y-49812068D01*
X82150990Y-49833989D01*
X82115041Y-49797516D01*
X82080511Y-49737405D01*
X82073246Y-49664570D01*
X82075268Y-49607754D01*
X82044348Y-49515242D01*
X82020274Y-49473102D01*
X81988261Y-49448684D01*
X81954716Y-49491891D01*
X81924812Y-49527460D01*
X81873914Y-49536776D01*
X81857734Y-49511605D01*
X81886969Y-49445250D01*
X81919681Y-49389408D01*
X81889004Y-49361660D01*
X81869421Y-49350960D01*
X81836612Y-49287642D01*
X81832832Y-49262398D01*
X81787990Y-49185435D01*
X81716992Y-49126151D01*
X81650842Y-49113593D01*
X81645940Y-49114806D01*
X81596094Y-49085783D01*
X81544947Y-49004440D01*
X81541745Y-48997789D01*
X81484437Y-48914333D01*
X81381511Y-48790661D01*
X81246523Y-48642354D01*
X81093028Y-48484993D01*
X80967847Y-48362763D01*
X80825978Y-48232196D01*
X80721261Y-48149501D01*
X80642476Y-48106143D01*
X80578398Y-48093587D01*
X80538888Y-48092055D01*
X80471214Y-48063789D01*
X80445749Y-47981092D01*
X80411658Y-47889773D01*
X80317252Y-47838025D01*
X80307087Y-47834883D01*
X80211278Y-47787503D01*
X80080524Y-47704359D01*
X79940025Y-47601264D01*
X79917667Y-47583679D01*
X79771214Y-47469798D01*
X79670786Y-47396575D01*
X79599200Y-47353480D01*
X79539274Y-47329982D01*
X79473826Y-47315552D01*
X79443727Y-47307204D01*
X79336856Y-47265068D01*
X79189428Y-47197858D01*
X79023940Y-47115573D01*
X78989587Y-47098080D01*
X78769216Y-46995139D01*
X78529239Y-46894973D01*
X78315819Y-46817042D01*
X78260367Y-46798827D01*
X78079966Y-46738229D01*
X77921071Y-46683028D01*
X77812849Y-46643300D01*
X77652104Y-46589118D01*
X77371518Y-46526040D01*
X77108705Y-46501872D01*
X77079903Y-46500912D01*
X76926147Y-46476857D01*
X76794349Y-46430850D01*
X76765513Y-46417184D01*
X76692437Y-46393924D01*
X76593464Y-46378693D01*
X76454130Y-46370391D01*
X76259971Y-46367919D01*
X75996526Y-46370177D01*
X75792036Y-46372032D01*
X75570907Y-46369927D01*
X75416410Y-46361783D01*
X75318603Y-46346983D01*
X75267545Y-46324911D01*
X75257941Y-46318430D01*
X75171641Y-46286737D01*
X75032656Y-46254715D01*
X74866109Y-46228405D01*
X74847383Y-46226051D01*
X74683771Y-46202217D01*
X74585513Y-46177892D01*
X74535880Y-46147087D01*
X74518139Y-46103811D01*
X74493522Y-46035405D01*
X74392427Y-45945357D01*
X74221402Y-45888866D01*
X74169009Y-45881987D01*
X74083235Y-45891232D01*
X73984139Y-45935676D01*
X73846184Y-46024554D01*
X73726583Y-46112316D01*
X73633054Y-46191474D01*
X73589370Y-46242391D01*
X73586545Y-46249114D01*
X73514795Y-46317820D01*
X73402032Y-46339439D01*
X73278547Y-46307615D01*
X73271677Y-46304170D01*
X73202553Y-46279066D01*
X73118692Y-46271998D01*
X72997777Y-46283224D01*
X72817491Y-46313007D01*
X72694083Y-46335315D01*
X72478331Y-46373610D01*
X72322916Y-46396934D01*
X72212483Y-46404281D01*
X72131681Y-46394645D01*
X72065157Y-46367020D01*
X71997558Y-46320399D01*
X71913531Y-46253778D01*
X71802544Y-46169075D01*
X71712000Y-46105865D01*
X71666475Y-46081705D01*
X71627559Y-46063861D01*
X71556563Y-46008815D01*
X71514064Y-45979327D01*
X71402794Y-45947121D01*
X71230672Y-45939257D01*
X71199114Y-45939863D01*
X71050616Y-45952806D01*
X70940810Y-45990384D01*
X70831657Y-46064541D01*
X70800494Y-46088965D01*
X70663564Y-46191674D01*
X70538040Y-46280126D01*
X70508155Y-46302333D01*
X70414857Y-46409977D01*
X70362638Y-46533656D01*
X70358406Y-46649146D01*
X70409071Y-46732227D01*
X70461661Y-46779247D01*
X70472681Y-46830881D01*
X70404373Y-46859841D01*
X70257816Y-46865179D01*
X70115116Y-46867618D01*
X70012625Y-46895457D01*
X69922503Y-46958983D01*
X69874483Y-47004353D01*
X69816326Y-47080600D01*
X69823308Y-47119999D01*
X69896514Y-47115991D01*
X69911026Y-47112333D01*
X69950603Y-47109293D01*
X69937373Y-47139625D01*
X69867715Y-47215888D01*
X69844625Y-47238474D01*
X69746671Y-47310213D01*
X69664002Y-47339131D01*
X69589197Y-47359167D01*
X69469108Y-47413955D01*
X69331818Y-47491308D01*
X69256034Y-47536701D01*
X69082216Y-47625396D01*
X68901523Y-47689584D01*
X68675555Y-47744054D01*
X68564148Y-47776365D01*
X68438693Y-47824966D01*
X68430181Y-47828726D01*
X68326637Y-47867900D01*
X68255770Y-47884016D01*
X68252031Y-47884429D01*
X68191061Y-47916034D01*
X68090016Y-47988048D01*
X67968706Y-48086497D01*
X67958118Y-48095537D01*
X67833152Y-48197302D01*
X67726547Y-48275994D01*
X67660385Y-48315230D01*
X67610688Y-48352411D01*
X67563624Y-48439737D01*
X67537845Y-48482876D01*
X67448537Y-48566560D01*
X67314813Y-48662930D01*
X67155557Y-48758786D01*
X66989648Y-48840932D01*
X66955425Y-48834921D01*
X66890090Y-48787046D01*
X66888261Y-48785222D01*
X66836591Y-48745682D01*
X66781300Y-48749278D01*
X66689378Y-48797774D01*
X66617836Y-48837671D01*
X66453110Y-48902221D01*
X66312772Y-48905550D01*
X66175292Y-48849838D01*
X66146591Y-48833389D01*
X66047889Y-48784066D01*
X65986116Y-48764214D01*
X65969145Y-48769604D01*
X65893198Y-48815573D01*
X65777947Y-48897933D01*
X65639889Y-49003837D01*
X65495525Y-49120439D01*
X65361354Y-49234892D01*
X65253877Y-49334349D01*
X65223836Y-49365533D01*
X65141596Y-49467067D01*
X65095609Y-49548871D01*
X65063665Y-49613987D01*
X64990583Y-49704137D01*
X64945694Y-49765556D01*
X64932430Y-49851620D01*
X64934249Y-49862075D01*
X64907532Y-49953259D01*
X64819244Y-50069288D01*
X64772619Y-50115544D01*
X64719469Y-50154480D01*
X64709495Y-50136903D01*
X64717254Y-50092904D01*
X64685412Y-50065286D01*
X64592350Y-50088995D01*
X64580106Y-50094517D01*
X64532768Y-50146721D01*
X64535420Y-50204154D01*
X64588922Y-50231210D01*
X64601499Y-50231604D01*
X64646463Y-50254345D01*
X64627944Y-50316398D01*
X64544555Y-50423783D01*
X64537659Y-50431705D01*
X64447349Y-50548391D01*
X64376199Y-50660102D01*
X64369523Y-50670067D01*
X64355382Y-50691177D01*
G37*
%TD*%
M02*
