%TF.GenerationSoftware,KiCad,Pcbnew,9.0.6*%
%TF.CreationDate,2026-03-31T11:46:01+01:00*%
%TF.ProjectId,Cro_,43726fed-2e6b-4696-9361-645f70636258,rev?*%
%TF.SameCoordinates,Original*%
%TF.FileFunction,Paste,Top*%
%TF.FilePolarity,Positive*%
%FSLAX46Y46*%
G04 Gerber Fmt 4.6, Leading zero omitted, Abs format (unit mm)*
G04 Created by KiCad (PCBNEW 9.0.6) date 2026-03-31 11:46:01*
%MOMM*%
%LPD*%
G01*
G04 APERTURE LIST*
G04 Aperture macros list*
%AMRoundRect*
0 Rectangle with rounded corners*
0 $1 Rounding radius*
0 $2 $3 $4 $5 $6 $7 $8 $9 X,Y pos of 4 corners*
0 Add a 4 corners polygon primitive as box body*
4,1,4,$2,$3,$4,$5,$6,$7,$8,$9,$2,$3,0*
0 Add four circle primitives for the rounded corners*
1,1,$1+$1,$2,$3*
1,1,$1+$1,$4,$5*
1,1,$1+$1,$6,$7*
1,1,$1+$1,$8,$9*
0 Add four rect primitives between the rounded corners*
20,1,$1+$1,$2,$3,$4,$5,0*
20,1,$1+$1,$4,$5,$6,$7,0*
20,1,$1+$1,$6,$7,$8,$9,0*
20,1,$1+$1,$8,$9,$2,$3,0*%
G04 Aperture macros list end*
%ADD10C,0.000000*%
%ADD11RoundRect,0.225000X-0.250000X0.225000X-0.250000X-0.225000X0.250000X-0.225000X0.250000X0.225000X0*%
%ADD12RoundRect,0.225000X-0.225000X-0.250000X0.225000X-0.250000X0.225000X0.250000X-0.225000X0.250000X0*%
%ADD13R,0.600000X1.700000*%
%ADD14R,1.000000X2.700000*%
%ADD15RoundRect,0.140000X-0.140000X-0.170000X0.140000X-0.170000X0.140000X0.170000X-0.140000X0.170000X0*%
%ADD16R,0.449200X1.117800*%
%ADD17R,0.813000X0.500000*%
%ADD18RoundRect,0.140000X0.170000X-0.140000X0.170000X0.140000X-0.170000X0.140000X-0.170000X-0.140000X0*%
%ADD19R,2.006600X0.889000*%
%ADD20R,6.045200X5.562600*%
%ADD21RoundRect,0.135000X0.185000X-0.135000X0.185000X0.135000X-0.185000X0.135000X-0.185000X-0.135000X0*%
%ADD22RoundRect,0.225000X-0.225000X-0.375000X0.225000X-0.375000X0.225000X0.375000X-0.225000X0.375000X0*%
%ADD23R,1.800000X1.000000*%
%ADD24R,2.387600X1.295400*%
%ADD25RoundRect,0.140000X0.140000X0.170000X-0.140000X0.170000X-0.140000X-0.170000X0.140000X-0.170000X0*%
%ADD26RoundRect,0.135000X-0.185000X0.135000X-0.185000X-0.135000X0.185000X-0.135000X0.185000X0.135000X0*%
%ADD27RoundRect,0.150000X-0.825000X-0.150000X0.825000X-0.150000X0.825000X0.150000X-0.825000X0.150000X0*%
%ADD28RoundRect,0.135000X-0.135000X-0.185000X0.135000X-0.185000X0.135000X0.185000X-0.135000X0.185000X0*%
%ADD29RoundRect,0.162500X-0.650000X-0.162500X0.650000X-0.162500X0.650000X0.162500X-0.650000X0.162500X0*%
%ADD30RoundRect,0.039750X-0.225250X0.615250X-0.225250X-0.615250X0.225250X-0.615250X0.225250X0.615250X0*%
%ADD31RoundRect,0.042400X-0.222600X0.612600X-0.222600X-0.612600X0.222600X-0.612600X0.222600X0.612600X0*%
%ADD32RoundRect,0.140000X-0.170000X0.140000X-0.170000X-0.140000X0.170000X-0.140000X0.170000X0.140000X0*%
%ADD33RoundRect,0.075000X-0.662500X-0.075000X0.662500X-0.075000X0.662500X0.075000X-0.662500X0.075000X0*%
%ADD34RoundRect,0.075000X-0.075000X-0.662500X0.075000X-0.662500X0.075000X0.662500X-0.075000X0.662500X0*%
%ADD35RoundRect,0.225000X0.225000X0.250000X-0.225000X0.250000X-0.225000X-0.250000X0.225000X-0.250000X0*%
%ADD36R,0.127000X0.127000*%
%ADD37R,1.295400X0.203200*%
%ADD38R,0.254000X2.057400*%
%ADD39RoundRect,0.135000X0.135000X0.185000X-0.135000X0.185000X-0.135000X-0.185000X0.135000X-0.185000X0*%
%ADD40R,0.351536X0.576580*%
%ADD41R,0.576580X0.351536*%
%ADD42RoundRect,0.150000X-0.587500X-0.150000X0.587500X-0.150000X0.587500X0.150000X-0.587500X0.150000X0*%
%ADD43R,0.431800X0.431800*%
%ADD44RoundRect,0.225000X0.250000X-0.225000X0.250000X0.225000X-0.250000X0.225000X-0.250000X-0.225000X0*%
%ADD45RoundRect,0.150000X-0.150000X0.587500X-0.150000X-0.587500X0.150000X-0.587500X0.150000X0.587500X0*%
%ADD46RoundRect,0.160000X0.245000X0.160000X-0.245000X0.160000X-0.245000X-0.160000X0.245000X-0.160000X0*%
%ADD47RoundRect,0.093750X0.093750X0.106250X-0.093750X0.106250X-0.093750X-0.106250X0.093750X-0.106250X0*%
%ADD48RoundRect,0.150000X0.587500X0.150000X-0.587500X0.150000X-0.587500X-0.150000X0.587500X-0.150000X0*%
G04 APERTURE END LIST*
D10*
%TO.C,U6*%
G36*
X89777001Y-58591612D02*
G01*
X90322701Y-58583612D01*
X90322701Y-58733612D01*
X90822701Y-58733612D01*
X90822700Y-58935211D01*
X89527300Y-58935211D01*
X89523001Y-58083612D01*
X89777001Y-58083612D01*
X89777001Y-58591612D01*
G37*
G36*
X87522702Y-58658011D02*
G01*
X87272702Y-58935211D01*
X86227302Y-58935211D01*
X86227302Y-58732011D01*
X86727302Y-58732011D01*
X86727302Y-58584011D01*
X87273001Y-58591612D01*
X87273001Y-58083612D01*
X87527001Y-58083612D01*
X87522702Y-58658011D01*
G37*
G36*
X90822700Y-61785213D02*
G01*
X90322700Y-61785213D01*
X90322700Y-62332012D01*
X90822700Y-62332012D01*
X90822700Y-62535212D01*
X86227302Y-62535212D01*
X86227302Y-62332012D01*
X86727302Y-62332012D01*
X86727302Y-61785213D01*
X86227302Y-61785213D01*
X86227302Y-61582013D01*
X90822700Y-61582013D01*
X90822700Y-61785213D01*
G37*
G36*
X90822700Y-63635213D02*
G01*
X90322700Y-63635213D01*
X90322700Y-64175213D01*
X89777001Y-64175612D01*
X89777001Y-64683612D01*
X89523001Y-64683612D01*
X89523001Y-64175612D01*
X87527001Y-64175612D01*
X87527001Y-64683612D01*
X87273001Y-64683612D01*
X87273001Y-64175612D01*
X86727302Y-64175213D01*
X86727302Y-63635213D01*
X86227302Y-63635213D01*
X86227302Y-63432013D01*
X90822700Y-63432013D01*
X90822700Y-63635213D01*
G37*
%TD*%
D11*
%TO.C,C12*%
X66230402Y-79471219D03*
X66230402Y-81021219D03*
%TD*%
D12*
%TO.C,C23*%
X87684062Y-55434609D03*
X89234062Y-55434609D03*
%TD*%
D13*
%TO.C,J1*%
X72295492Y-93258388D03*
X73545492Y-93258388D03*
X74795492Y-93258388D03*
X76045492Y-93258388D03*
X77295492Y-93258388D03*
D14*
X70445492Y-96458388D03*
X79145492Y-96458388D03*
%TD*%
D15*
%TO.C,C15*%
X76601000Y-72419000D03*
X77561000Y-72419000D03*
%TD*%
D16*
%TO.C,U2*%
X71530999Y-68910802D03*
X72331000Y-68910802D03*
X73131001Y-68910802D03*
X73930999Y-68910802D03*
X74731000Y-68910802D03*
X75530999Y-68910802D03*
D17*
X75249498Y-67539901D03*
D16*
X75531001Y-66169000D03*
X74731000Y-66169000D03*
X73930999Y-66169000D03*
X73131001Y-66169000D03*
X72331000Y-66169000D03*
X71531001Y-66169000D03*
D17*
X71812502Y-67539901D03*
%TD*%
D18*
%TO.C,C14*%
X91708556Y-62641541D03*
X91708556Y-61681541D03*
%TD*%
%TO.C,C30*%
X92708556Y-58641541D03*
X92708556Y-57681541D03*
%TD*%
D15*
%TO.C,C6*%
X69351000Y-71419000D03*
X70311000Y-71419000D03*
%TD*%
%TO.C,C17*%
X76601000Y-73419000D03*
X77561000Y-73419000D03*
%TD*%
D19*
%TO.C,Q1*%
X89750000Y-51284999D03*
D20*
X82599900Y-49000000D03*
D19*
X89750000Y-46715001D03*
%TD*%
D21*
%TO.C,R4*%
X91708556Y-58681541D03*
X91708556Y-57661541D03*
%TD*%
D22*
%TO.C,D3*%
X59850000Y-84000000D03*
X63150000Y-84000000D03*
%TD*%
D23*
%TO.C,3V3*%
X87228925Y-97250000D03*
%TD*%
D24*
%TO.C,XTAL1*%
X64581000Y-75679814D03*
X64581000Y-77584814D03*
%TD*%
D15*
%TO.C,C5*%
X64770000Y-68750000D03*
X65730000Y-68750000D03*
%TD*%
%TO.C,C3*%
X71831000Y-70335936D03*
X72791000Y-70335936D03*
%TD*%
D23*
%TO.C,5VL*%
X90500000Y-97250000D03*
%TD*%
D25*
%TO.C,C8*%
X75138876Y-82864652D03*
X74178876Y-82864652D03*
%TD*%
D26*
%TO.C,R2*%
X92706163Y-59651541D03*
X92706163Y-60671541D03*
%TD*%
D12*
%TO.C,C26*%
X88342384Y-76108448D03*
X89892384Y-76108448D03*
%TD*%
D27*
%TO.C,U8*%
X81356000Y-74264000D03*
X81356000Y-75534000D03*
X81356000Y-76804000D03*
X81356000Y-78074000D03*
X86306000Y-78074000D03*
X86306000Y-76804000D03*
X86306000Y-75534000D03*
X86306000Y-74264000D03*
%TD*%
D25*
%TO.C,C36*%
X91004686Y-69537102D03*
X90044686Y-69537102D03*
%TD*%
D28*
%TO.C,C48*%
X75572227Y-59626237D03*
X76592227Y-59626237D03*
%TD*%
D18*
%TO.C,C9*%
X70454786Y-61756426D03*
X70454786Y-60796426D03*
%TD*%
D29*
%TO.C,U1*%
X55993500Y-68764000D03*
X55993500Y-70034000D03*
X55993500Y-71304000D03*
X55993500Y-72574000D03*
X63168500Y-72574000D03*
X63168500Y-71304000D03*
X63168500Y-70034000D03*
X63168500Y-68764000D03*
%TD*%
D30*
%TO.C,U12*%
X76750000Y-61100000D03*
D31*
X75500000Y-61100000D03*
X74250000Y-61100000D03*
X73000000Y-61100000D03*
X73000000Y-63500000D03*
X74250000Y-63500000D03*
X75500000Y-63500000D03*
X76750000Y-63500000D03*
%TD*%
D25*
%TO.C,C22*%
X84561000Y-79419000D03*
X83601000Y-79419000D03*
%TD*%
D12*
%TO.C,C21*%
X87710546Y-56970703D03*
X89260546Y-56970703D03*
%TD*%
D21*
%TO.C,R5*%
X69925000Y-86060000D03*
X69925000Y-85040000D03*
%TD*%
D32*
%TO.C,C13*%
X64954608Y-79153825D03*
X64954608Y-80113825D03*
%TD*%
D18*
%TO.C,C25*%
X78129902Y-76648816D03*
X78129902Y-75688816D03*
%TD*%
%TO.C,C11*%
X71454786Y-61756426D03*
X71454786Y-60796426D03*
%TD*%
D25*
%TO.C,C28*%
X64000917Y-79175033D03*
X63040917Y-79175033D03*
%TD*%
D23*
%TO.C,CAN-1*%
X91689635Y-78711132D03*
%TD*%
D25*
%TO.C,C7*%
X75133353Y-83868454D03*
X74173353Y-83868454D03*
%TD*%
D33*
%TO.C,U3*%
X68006000Y-74419000D03*
X68006000Y-74919000D03*
X68006000Y-75419000D03*
X68006000Y-75919000D03*
X68006000Y-76419000D03*
X68006000Y-76919000D03*
X68006000Y-77419000D03*
X68006000Y-77919000D03*
X68006000Y-78419000D03*
X68006000Y-78919000D03*
X68006000Y-79419000D03*
X68006000Y-79919000D03*
D34*
X69418500Y-81331500D03*
X69918500Y-81331500D03*
X70418500Y-81331500D03*
X70918500Y-81331500D03*
X71418500Y-81331500D03*
X71918500Y-81331500D03*
X72418500Y-81331500D03*
X72918500Y-81331500D03*
X73418500Y-81331500D03*
X73918500Y-81331500D03*
X74418500Y-81331500D03*
X74918500Y-81331500D03*
D33*
X76331000Y-79919000D03*
X76331000Y-79419000D03*
X76331000Y-78919000D03*
X76331000Y-78419000D03*
X76331000Y-77919000D03*
X76331000Y-77419000D03*
X76331000Y-76919000D03*
X76331000Y-76419000D03*
X76331000Y-75919000D03*
X76331000Y-75419000D03*
X76331000Y-74919000D03*
X76331000Y-74419000D03*
D34*
X74918500Y-73006500D03*
X74418500Y-73006500D03*
X73918500Y-73006500D03*
X73418500Y-73006500D03*
X72918500Y-73006500D03*
X72418500Y-73006500D03*
X71918500Y-73006500D03*
X71418500Y-73006500D03*
X70918500Y-73006500D03*
X70418500Y-73006500D03*
X69918500Y-73006500D03*
X69418500Y-73006500D03*
%TD*%
D35*
%TO.C,C33*%
X88234191Y-70275552D03*
X86684191Y-70275552D03*
%TD*%
D32*
%TO.C,C10*%
X65000000Y-81780844D03*
X65000000Y-82740844D03*
%TD*%
D28*
%TO.C,R7*%
X89071619Y-77396417D03*
X90091619Y-77396417D03*
%TD*%
D36*
%TO.C,U6*%
X86875002Y-58833611D03*
D37*
X86875002Y-59283612D03*
X86875002Y-59733611D03*
X86875002Y-60183613D03*
X86875002Y-60633612D03*
X86875002Y-61083611D03*
D36*
X86875002Y-61683613D03*
X86875002Y-62433612D03*
X86875002Y-63533613D03*
X87400001Y-64429612D03*
X89650001Y-64429612D03*
X90175000Y-63533613D03*
X90175000Y-62433612D03*
X90175000Y-61683613D03*
D37*
X90175000Y-61083611D03*
X90175000Y-60633612D03*
X90175000Y-60183613D03*
X90175000Y-59733611D03*
X90175000Y-59283612D03*
D36*
X90175000Y-58833611D03*
X89650001Y-58337612D03*
D38*
X88800002Y-59112612D03*
X88250000Y-59112612D03*
D36*
X87400001Y-58337612D03*
%TD*%
D35*
%TO.C,C32*%
X88275000Y-68750000D03*
X86725000Y-68750000D03*
%TD*%
%TO.C,C31*%
X88207867Y-67239515D03*
X86657867Y-67239515D03*
%TD*%
D39*
%TO.C,R6*%
X90100607Y-74827325D03*
X89080607Y-74827325D03*
%TD*%
D40*
%TO.C,U9*%
X67537299Y-63379301D03*
X68037300Y-63379301D03*
X68537300Y-63379301D03*
X69037301Y-63379301D03*
D41*
X69243600Y-62669000D03*
X69243600Y-62169001D03*
X69243600Y-61669002D03*
D40*
X69037301Y-60958701D03*
X68537300Y-60958701D03*
X68037300Y-60958701D03*
X67537299Y-60958701D03*
D41*
X67331000Y-61669002D03*
X67331000Y-62169001D03*
X67331000Y-62669000D03*
%TD*%
D15*
%TO.C,C27*%
X63397025Y-74154849D03*
X64357025Y-74154849D03*
%TD*%
D25*
%TO.C,C1*%
X75649907Y-70322285D03*
X74689907Y-70322285D03*
%TD*%
%TO.C,C4*%
X67061000Y-73419000D03*
X66101000Y-73419000D03*
%TD*%
D28*
%TO.C,R1*%
X71331000Y-71419000D03*
X72351000Y-71419000D03*
%TD*%
D42*
%TO.C,D2*%
X91581000Y-75219000D03*
X91581000Y-77119000D03*
X93456000Y-76169000D03*
%TD*%
D25*
%TO.C,C35*%
X90222660Y-65911541D03*
X89262660Y-65911541D03*
%TD*%
%TO.C,C2*%
X67041000Y-72419000D03*
X66081000Y-72419000D03*
%TD*%
D43*
%TO.C,U4*%
X69787300Y-69129301D03*
X68988201Y-69128399D03*
X68188203Y-69128399D03*
X67389104Y-69129301D03*
X67389104Y-66729301D03*
X68188203Y-66730203D03*
X68988201Y-66730203D03*
X69787300Y-66729301D03*
%TD*%
D23*
%TO.C,GND*%
X83750000Y-97250000D03*
%TD*%
D44*
%TO.C,C24*%
X79376545Y-76937323D03*
X79376545Y-75387323D03*
%TD*%
D25*
%TO.C,C16*%
X91511312Y-56250000D03*
X90551312Y-56250000D03*
%TD*%
D15*
%TO.C,C34*%
X89452814Y-70560430D03*
X90412814Y-70560430D03*
%TD*%
%TO.C,C19*%
X68117008Y-65520667D03*
X69077008Y-65520667D03*
%TD*%
D45*
%TO.C,D1*%
X91450000Y-52875000D03*
X89550000Y-52875000D03*
X90500000Y-54750000D03*
%TD*%
D26*
%TO.C,R3*%
X92708556Y-61651541D03*
X92708556Y-62671541D03*
%TD*%
D35*
%TO.C,C29*%
X88258216Y-65712248D03*
X86708216Y-65712248D03*
%TD*%
D26*
%TO.C,R8*%
X69925000Y-87040000D03*
X69925000Y-88060000D03*
%TD*%
D46*
%TO.C,U7*%
X90238680Y-68050000D03*
X90238680Y-67250000D03*
D47*
X91126180Y-68300000D03*
X91126180Y-67650000D03*
X91126180Y-67000000D03*
X89351180Y-67000000D03*
X89351180Y-67650000D03*
X89351180Y-68300000D03*
%TD*%
D23*
%TO.C,CAN+*%
X91750000Y-73643986D03*
%TD*%
D48*
%TO.C,Q5*%
X68437500Y-86450000D03*
X68437500Y-84550000D03*
X66562500Y-85500000D03*
%TD*%
M02*
