%TF.GenerationSoftware,KiCad,Pcbnew,9.0.6*%
%TF.CreationDate,2026-03-31T11:46:01+01:00*%
%TF.ProjectId,Cro_,43726fed-2e6b-4696-9361-645f70636258,rev?*%
%TF.SameCoordinates,Original*%
%TF.FileFunction,Copper,L3,Inr*%
%TF.FilePolarity,Positive*%
%FSLAX46Y46*%
G04 Gerber Fmt 4.6, Leading zero omitted, Abs format (unit mm)*
G04 Created by KiCad (PCBNEW 9.0.6) date 2026-03-31 11:46:01*
%MOMM*%
%LPD*%
G01*
G04 APERTURE LIST*
%TA.AperFunction,ComponentPad*%
%ADD10C,1.408000*%
%TD*%
%TA.AperFunction,ComponentPad*%
%ADD11R,1.524000X1.524000*%
%TD*%
%TA.AperFunction,ComponentPad*%
%ADD12C,1.524000*%
%TD*%
%TA.AperFunction,ComponentPad*%
%ADD13R,2.300000X2.300000*%
%TD*%
%TA.AperFunction,ComponentPad*%
%ADD14C,2.300000*%
%TD*%
%TA.AperFunction,ViaPad*%
%ADD15C,0.600000*%
%TD*%
%TA.AperFunction,Conductor*%
%ADD16C,0.200000*%
%TD*%
G04 APERTURE END LIST*
D10*
%TO.N,Net-(D3-A)*%
%TO.C,LS1*%
X64750000Y-91500000D03*
%TO.N,VBAT*%
X58250000Y-91500000D03*
%TD*%
D11*
%TO.N,GND*%
%TO.C,J3*%
X98607247Y-57559000D03*
D12*
X96067247Y-57559000D03*
%TO.N,unconnected-(J3-Pad03)*%
X98607247Y-60099000D03*
X96067247Y-60099000D03*
X98607247Y-62639000D03*
X96067247Y-62639000D03*
X98607247Y-65179000D03*
X96067247Y-65179000D03*
%TO.N,GND*%
X98607247Y-67719000D03*
X96067247Y-67719000D03*
%TO.N,5VLOGIC*%
X98607247Y-70259000D03*
X96067247Y-70259000D03*
%TO.N,GND*%
X98607247Y-72799000D03*
X96067247Y-72799000D03*
X98607247Y-75339000D03*
%TO.N,CAN_out+*%
X96067247Y-75339000D03*
%TO.N,GND*%
X98607247Y-77879000D03*
%TO.N,CAN_out-*%
X96067247Y-77879000D03*
%TO.N,GND*%
X98607247Y-80419000D03*
X96067247Y-80419000D03*
%TD*%
D13*
%TO.N,Net-(Q1-D)*%
%TO.C,J2*%
X72724334Y-45923644D03*
D14*
X76924334Y-45923644D03*
%TO.N,GND*%
X72724334Y-51423644D03*
X76924334Y-51423644D03*
%TD*%
D15*
%TO.N,3.3V*%
X69857008Y-65422429D03*
X64831000Y-67669000D03*
X76058299Y-71396299D03*
X68354996Y-72510086D03*
X70880960Y-70410763D03*
X75081000Y-84919000D03*
X77937500Y-61437500D03*
X68000000Y-67500000D03*
X69981000Y-78669000D03*
X92266493Y-68397175D03*
X69081000Y-59919000D03*
X85540500Y-79209500D03*
%TO.N,GND*%
X81750000Y-59750000D03*
X81750000Y-68750000D03*
X54223792Y-50340039D03*
X69581000Y-77919000D03*
X78581000Y-78419000D03*
X65743208Y-69613290D03*
X84869422Y-62136182D03*
X70501635Y-74730254D03*
X78500000Y-73500000D03*
X50853836Y-83487525D03*
X78750000Y-57750000D03*
X79750000Y-68750000D03*
X80750000Y-64750000D03*
X54145899Y-87786822D03*
X93831000Y-69669000D03*
X52614363Y-54487862D03*
X54251179Y-72582340D03*
X80750000Y-59750000D03*
X79750000Y-60750000D03*
X78750000Y-67750000D03*
X81750000Y-62750000D03*
X73723983Y-70339663D03*
X80750000Y-70750000D03*
X66000000Y-59500000D03*
X71000000Y-59648351D03*
X81750000Y-64750000D03*
X59433338Y-72317560D03*
X93208556Y-54661541D03*
X52517522Y-83435535D03*
X80750000Y-67750000D03*
X78750000Y-63750000D03*
X71250000Y-85250000D03*
X89750000Y-50250000D03*
X62331000Y-75169000D03*
X78250000Y-93250000D03*
X73081000Y-83419000D03*
X95535487Y-50203333D03*
X80750000Y-69750000D03*
X66726289Y-84364132D03*
X95457594Y-53650116D03*
X54864363Y-52072045D03*
X79750000Y-61750000D03*
X78750000Y-58750000D03*
X79750000Y-67750000D03*
X70831000Y-62669000D03*
X52507535Y-49572045D03*
X85948556Y-66411541D03*
X79750000Y-65750000D03*
X88250000Y-78750000D03*
X92016493Y-67147175D03*
X61500000Y-90000000D03*
X80750000Y-68750000D03*
X50952270Y-88448916D03*
X97173851Y-88418110D03*
X80750000Y-61750000D03*
X64831000Y-73169000D03*
X78750000Y-64750000D03*
X79750000Y-66750000D03*
X50864363Y-49572045D03*
X97067023Y-49502293D03*
X81750000Y-65750000D03*
X68917473Y-67757595D03*
X93581000Y-78669000D03*
X84869422Y-60636182D03*
X85948556Y-65411541D03*
X74171951Y-67399764D03*
X79750000Y-62750000D03*
X85909922Y-67447851D03*
X80750000Y-60750000D03*
X77000000Y-66000000D03*
X81750000Y-69750000D03*
X84869422Y-59136182D03*
X80750000Y-65750000D03*
X98729116Y-83541239D03*
X93831000Y-74169000D03*
X66365213Y-77519000D03*
X80750000Y-56750000D03*
X79750000Y-64750000D03*
X83000000Y-78000000D03*
X79750000Y-55750000D03*
X78750000Y-56750000D03*
X79750000Y-70750000D03*
X71234656Y-78305442D03*
X59000000Y-51750000D03*
X91266493Y-65897175D03*
X79750000Y-56750000D03*
X82035679Y-97254627D03*
X86615803Y-54295449D03*
X97173851Y-54418110D03*
X81750000Y-57750000D03*
X71787937Y-63814074D03*
X79750000Y-58750000D03*
X74750729Y-59733094D03*
X78750000Y-69750000D03*
X81750000Y-60750000D03*
X95535487Y-84203333D03*
X66787300Y-65379301D03*
X80750000Y-63750000D03*
X79750000Y-63750000D03*
X64809268Y-80826797D03*
X54223792Y-84340039D03*
X80250000Y-96250000D03*
X80750000Y-62750000D03*
X85948556Y-68411541D03*
X90831000Y-76169000D03*
X90750000Y-72000000D03*
X80750000Y-58750000D03*
X95457594Y-87650116D03*
X80750000Y-55750000D03*
X62831000Y-65419000D03*
X97067023Y-83502293D03*
X85948556Y-69411541D03*
X66028590Y-82513549D03*
X67331000Y-71500000D03*
X74931000Y-76919000D03*
X88000000Y-51500000D03*
X80750000Y-66750000D03*
X81750000Y-58750000D03*
X52614363Y-88487862D03*
X86787995Y-56220765D03*
X78750000Y-55750000D03*
X81750000Y-55750000D03*
X81750000Y-63750000D03*
X50952270Y-54448916D03*
X63331000Y-80169000D03*
X62331000Y-77669000D03*
X79750000Y-59750000D03*
X84869422Y-57636182D03*
X80750000Y-57750000D03*
X78750000Y-61750000D03*
X78750000Y-66750000D03*
X94817023Y-51918110D03*
X88250000Y-73850000D03*
X98817023Y-88418110D03*
X78750000Y-70750000D03*
X71250000Y-88750000D03*
X81750000Y-56750000D03*
X69250000Y-96500000D03*
X78750000Y-60750000D03*
X83000000Y-75250000D03*
X54145899Y-53786822D03*
X90782868Y-57102580D03*
X86680375Y-57404589D03*
X81750000Y-61750000D03*
X81750000Y-66750000D03*
X68287300Y-62169001D03*
X79750000Y-57750000D03*
X79750000Y-69750000D03*
X72208745Y-74500000D03*
X98817023Y-54418110D03*
X70081000Y-70419000D03*
X78750000Y-59750000D03*
X98729116Y-49541239D03*
X78750000Y-65750000D03*
X78750000Y-62750000D03*
X67831000Y-80919000D03*
X78750000Y-68750000D03*
X76230656Y-58649667D03*
X84500000Y-76000000D03*
X81750000Y-70750000D03*
X91750000Y-55000000D03*
X54864363Y-86072045D03*
X94817023Y-85918110D03*
X73901485Y-59763547D03*
X81750000Y-67750000D03*
%TO.N,5VLOGIC*%
X90500000Y-96000000D03*
X83831000Y-75250000D03*
X88625000Y-52875000D03*
%TO.N,VBAT*%
X88500000Y-47549606D03*
%TO.N,Flash_CS*%
X57581000Y-68669000D03*
X74831000Y-79719003D03*
%TO.N,SPI_MISO*%
X70831000Y-79419000D03*
X74246754Y-64709100D03*
X64831000Y-72169000D03*
X70831000Y-64419000D03*
%TO.N,SPI_MOSI*%
X57581000Y-70654000D03*
X70831000Y-82919000D03*
X68331000Y-70991140D03*
X71831000Y-79875703D03*
X72449439Y-64738501D03*
%TO.N,NRST*%
X74795492Y-91500000D03*
X64081000Y-81169000D03*
%TO.N,BME680_CS*%
X74831000Y-78919000D03*
X69081000Y-70419000D03*
%TO.N,SWDIO*%
X74750000Y-76000000D03*
X73525981Y-91624511D03*
%TO.N,ACCELEROMETER_CS*%
X76331000Y-67539901D03*
X74581000Y-77919000D03*
%TO.N,SPI_CS_MS5*%
X74079111Y-74237842D03*
X72990421Y-59846709D03*
%TO.N,SPICLK*%
X76750000Y-64750000D03*
X72931000Y-67250000D03*
X66081000Y-61919000D03*
X69831000Y-79669000D03*
X65027000Y-71000000D03*
%TO.N,IMU_CS*%
X73919621Y-79929467D03*
X64831000Y-61669000D03*
%TO.N,SWCLK*%
X74500000Y-75000000D03*
X72250000Y-91500000D03*
%TO.N,/power/vin*%
X91369422Y-60786183D03*
X89541879Y-56339455D03*
%TO.N,Net-(U6-VCC)*%
X92266663Y-56981930D03*
X85869422Y-61136182D03*
%TD*%
D16*
%TO.N,SPI_MISO*%
X70831000Y-79419000D02*
X70831000Y-79580995D01*
X71751501Y-65339501D02*
X70831000Y-64419000D01*
X74246754Y-64753246D02*
X73660499Y-65339501D01*
X73660499Y-65339501D02*
X71751501Y-65339501D01*
%TO.N,SPI_MOSI*%
X68331000Y-70991140D02*
X68451339Y-70991140D01*
%TO.N,NRST*%
X64081000Y-84180943D02*
X64081000Y-81169000D01*
X74795492Y-91500000D02*
X74069981Y-92225511D01*
X72125568Y-92225511D02*
X64081000Y-84180943D01*
X74069981Y-92225511D02*
X72125568Y-92225511D01*
%TO.N,BME680_CS*%
X74831000Y-78919000D02*
X74731057Y-78919000D01*
%TO.N,SWDIO*%
X75682000Y-76820057D02*
X74861943Y-76000000D01*
X73525981Y-91624511D02*
X73585742Y-91564750D01*
X73585742Y-91564750D02*
X73585742Y-91414258D01*
X73585742Y-91414258D02*
X75682000Y-89318000D01*
X74861943Y-76000000D02*
X74750000Y-76000000D01*
X75682000Y-89318000D02*
X75682000Y-76820057D01*
%TO.N,SWCLK*%
X72432000Y-90818000D02*
X72432000Y-77068000D01*
X72432000Y-77068000D02*
X74500000Y-75000000D01*
X72250000Y-91500000D02*
X72291607Y-91458393D01*
X72291607Y-90958393D02*
X72432000Y-90818000D01*
X72291607Y-91458393D02*
X72291607Y-90958393D01*
%TD*%
%TA.AperFunction,Conductor*%
%TO.N,GND*%
G36*
X73237703Y-80357719D02*
G01*
X73259602Y-80382541D01*
X73297831Y-80439756D01*
X73409328Y-80551253D01*
X73409332Y-80551256D01*
X73540435Y-80638857D01*
X73540448Y-80638864D01*
X73630594Y-80676203D01*
X73686124Y-80699204D01*
X73840774Y-80729966D01*
X73840777Y-80729967D01*
X73840779Y-80729967D01*
X73998465Y-80729967D01*
X73998466Y-80729966D01*
X74153118Y-80699204D01*
X74298800Y-80638861D01*
X74429910Y-80551256D01*
X74464615Y-80516550D01*
X74525936Y-80483065D01*
X74591440Y-80487749D01*
X74591676Y-80486972D01*
X74595102Y-80488011D01*
X74595628Y-80488049D01*
X74596983Y-80488582D01*
X74597493Y-80488735D01*
X74597503Y-80488740D01*
X74746216Y-80518321D01*
X74752153Y-80519502D01*
X74752156Y-80519503D01*
X74752158Y-80519503D01*
X74909842Y-80519503D01*
X74933308Y-80514835D01*
X75002897Y-80521061D01*
X75058076Y-80563923D01*
X75081322Y-80629812D01*
X75081500Y-80636452D01*
X75081500Y-84000953D01*
X75061815Y-84067992D01*
X75009011Y-84113747D01*
X74981692Y-84122570D01*
X74847508Y-84149261D01*
X74847498Y-84149264D01*
X74701827Y-84209602D01*
X74701814Y-84209609D01*
X74570711Y-84297210D01*
X74570707Y-84297213D01*
X74459213Y-84408707D01*
X74459210Y-84408711D01*
X74371609Y-84539814D01*
X74371602Y-84539827D01*
X74311264Y-84685498D01*
X74311261Y-84685510D01*
X74280500Y-84840153D01*
X74280500Y-84997846D01*
X74311261Y-85152489D01*
X74311264Y-85152501D01*
X74371602Y-85298172D01*
X74371609Y-85298185D01*
X74459210Y-85429288D01*
X74459213Y-85429292D01*
X74570707Y-85540786D01*
X74570711Y-85540789D01*
X74701814Y-85628390D01*
X74701827Y-85628397D01*
X74847498Y-85688735D01*
X74847503Y-85688737D01*
X74941645Y-85707463D01*
X74981691Y-85715429D01*
X75043602Y-85747814D01*
X75078176Y-85808529D01*
X75081500Y-85837046D01*
X75081500Y-89017902D01*
X75061815Y-89084941D01*
X75045181Y-89105583D01*
X73315910Y-90834853D01*
X73307790Y-90839286D01*
X73302223Y-90846675D01*
X73275682Y-90861733D01*
X73203954Y-90891444D01*
X73134485Y-90898913D01*
X73072005Y-90867638D01*
X73036353Y-90807549D01*
X73032501Y-90776883D01*
X73032501Y-90731347D01*
X73032500Y-90731329D01*
X73032500Y-80451432D01*
X73052185Y-80384393D01*
X73104989Y-80338638D01*
X73174147Y-80328694D01*
X73237703Y-80357719D01*
G37*
%TD.AperFunction*%
%TA.AperFunction,Conductor*%
G36*
X74036521Y-76415225D02*
G01*
X74092455Y-76457097D01*
X74096290Y-76462517D01*
X74128207Y-76510284D01*
X74128213Y-76510292D01*
X74239707Y-76621786D01*
X74239711Y-76621789D01*
X74370814Y-76709390D01*
X74370827Y-76709397D01*
X74516498Y-76769735D01*
X74516503Y-76769737D01*
X74664688Y-76799213D01*
X74671153Y-76800499D01*
X74671156Y-76800500D01*
X74671158Y-76800500D01*
X74761846Y-76800500D01*
X74791286Y-76809144D01*
X74821273Y-76815668D01*
X74826288Y-76819422D01*
X74828885Y-76820185D01*
X74849527Y-76836819D01*
X74966869Y-76954161D01*
X75000354Y-77015484D01*
X74995370Y-77085176D01*
X74953498Y-77141109D01*
X74888034Y-77165526D01*
X74831737Y-77156404D01*
X74814497Y-77149263D01*
X74814493Y-77149262D01*
X74814489Y-77149261D01*
X74659845Y-77118500D01*
X74659842Y-77118500D01*
X74502158Y-77118500D01*
X74502155Y-77118500D01*
X74347510Y-77149261D01*
X74347498Y-77149264D01*
X74201827Y-77209602D01*
X74201814Y-77209609D01*
X74070711Y-77297210D01*
X74070707Y-77297213D01*
X73959213Y-77408707D01*
X73959210Y-77408711D01*
X73871609Y-77539814D01*
X73871602Y-77539827D01*
X73811264Y-77685498D01*
X73811261Y-77685510D01*
X73780500Y-77840153D01*
X73780500Y-77997846D01*
X73811261Y-78152489D01*
X73811264Y-78152501D01*
X73871602Y-78298172D01*
X73871609Y-78298185D01*
X73959210Y-78429288D01*
X73959213Y-78429292D01*
X74047829Y-78517908D01*
X74081314Y-78579231D01*
X74076330Y-78648923D01*
X74074709Y-78653041D01*
X74061263Y-78685501D01*
X74061260Y-78685511D01*
X74030500Y-78840153D01*
X74030500Y-79003934D01*
X74027890Y-79003934D01*
X74017000Y-79061432D01*
X73968948Y-79112154D01*
X73906602Y-79128967D01*
X73840776Y-79128967D01*
X73686131Y-79159728D01*
X73686119Y-79159731D01*
X73540448Y-79220069D01*
X73540435Y-79220076D01*
X73409332Y-79307677D01*
X73409328Y-79307680D01*
X73297834Y-79419174D01*
X73297831Y-79419178D01*
X73259602Y-79476392D01*
X73205989Y-79521197D01*
X73136664Y-79529904D01*
X73073637Y-79499749D01*
X73036918Y-79440306D01*
X73032500Y-79407501D01*
X73032500Y-77368096D01*
X73052185Y-77301057D01*
X73068815Y-77280419D01*
X73905509Y-76443724D01*
X73966830Y-76410241D01*
X74036521Y-76415225D01*
G37*
%TD.AperFunction*%
%TA.AperFunction,Conductor*%
G36*
X98133866Y-78075081D02*
G01*
X98200745Y-78190920D01*
X98295327Y-78285502D01*
X98411166Y-78352381D01*
X98471304Y-78368494D01*
X97908530Y-78931268D01*
X97908530Y-78931269D01*
X97945814Y-78958358D01*
X98103129Y-79038515D01*
X98153925Y-79086490D01*
X98170720Y-79154311D01*
X98148182Y-79220446D01*
X98103129Y-79259485D01*
X97945811Y-79339643D01*
X97908530Y-79366729D01*
X97908529Y-79366730D01*
X98471305Y-79929504D01*
X98411166Y-79945619D01*
X98295327Y-80012498D01*
X98200745Y-80107080D01*
X98133866Y-80222919D01*
X98117751Y-80283057D01*
X97554977Y-79720282D01*
X97554976Y-79720283D01*
X97527890Y-79757564D01*
X97447732Y-79914882D01*
X97399757Y-79965678D01*
X97331936Y-79982473D01*
X97265801Y-79959935D01*
X97226762Y-79914882D01*
X97146605Y-79757567D01*
X97119515Y-79720283D01*
X96556741Y-80283057D01*
X96540628Y-80222919D01*
X96473749Y-80107080D01*
X96379167Y-80012498D01*
X96263328Y-79945619D01*
X96203189Y-79929504D01*
X96765963Y-79366731D01*
X96765962Y-79366730D01*
X96728679Y-79339641D01*
X96571915Y-79259765D01*
X96521119Y-79211790D01*
X96504324Y-79143969D01*
X96526862Y-79077834D01*
X96571914Y-79038796D01*
X96728941Y-78958787D01*
X96889711Y-78841981D01*
X97030228Y-78701464D01*
X97147034Y-78540694D01*
X97227043Y-78383667D01*
X97275016Y-78332872D01*
X97342837Y-78316077D01*
X97408972Y-78338614D01*
X97448012Y-78383668D01*
X97527888Y-78540432D01*
X97554977Y-78577715D01*
X98117751Y-78014941D01*
X98133866Y-78075081D01*
G37*
%TD.AperFunction*%
%TA.AperFunction,Conductor*%
G36*
X98133866Y-75535081D02*
G01*
X98200745Y-75650920D01*
X98295327Y-75745502D01*
X98411166Y-75812381D01*
X98471304Y-75828494D01*
X97908530Y-76391268D01*
X97908530Y-76391269D01*
X97945814Y-76418358D01*
X98103129Y-76498515D01*
X98153925Y-76546490D01*
X98170720Y-76614311D01*
X98148182Y-76680446D01*
X98103129Y-76719485D01*
X97945811Y-76799643D01*
X97908530Y-76826729D01*
X97908529Y-76826730D01*
X98471305Y-77389504D01*
X98411166Y-77405619D01*
X98295327Y-77472498D01*
X98200745Y-77567080D01*
X98133866Y-77682919D01*
X98117751Y-77743057D01*
X97554977Y-77180282D01*
X97554976Y-77180283D01*
X97527888Y-77217566D01*
X97448011Y-77374332D01*
X97400037Y-77425127D01*
X97332216Y-77441922D01*
X97266081Y-77419384D01*
X97227043Y-77374332D01*
X97147034Y-77217306D01*
X97030228Y-77056536D01*
X96889711Y-76916019D01*
X96728941Y-76799213D01*
X96572465Y-76719484D01*
X96521670Y-76671510D01*
X96504875Y-76603689D01*
X96527412Y-76537554D01*
X96572465Y-76498515D01*
X96728941Y-76418787D01*
X96889711Y-76301981D01*
X97030228Y-76161464D01*
X97147034Y-76000694D01*
X97227043Y-75843667D01*
X97275016Y-75792872D01*
X97342837Y-75776077D01*
X97408972Y-75798614D01*
X97448012Y-75843668D01*
X97527888Y-76000432D01*
X97554977Y-76037715D01*
X98117751Y-75474941D01*
X98133866Y-75535081D01*
G37*
%TD.AperFunction*%
%TA.AperFunction,Conductor*%
G36*
X98133866Y-72995081D02*
G01*
X98200745Y-73110920D01*
X98295327Y-73205502D01*
X98411166Y-73272381D01*
X98471304Y-73288494D01*
X97908530Y-73851268D01*
X97908530Y-73851269D01*
X97945814Y-73878358D01*
X98103129Y-73958515D01*
X98153925Y-74006490D01*
X98170720Y-74074311D01*
X98148182Y-74140446D01*
X98103129Y-74179485D01*
X97945811Y-74259643D01*
X97908530Y-74286729D01*
X97908529Y-74286730D01*
X98471305Y-74849504D01*
X98411166Y-74865619D01*
X98295327Y-74932498D01*
X98200745Y-75027080D01*
X98133866Y-75142919D01*
X98117751Y-75203057D01*
X97554977Y-74640282D01*
X97554976Y-74640283D01*
X97527888Y-74677566D01*
X97448011Y-74834332D01*
X97400037Y-74885127D01*
X97332216Y-74901922D01*
X97266081Y-74879384D01*
X97227043Y-74834332D01*
X97147034Y-74677306D01*
X97030228Y-74516536D01*
X96889711Y-74376019D01*
X96728941Y-74259213D01*
X96571914Y-74179203D01*
X96521119Y-74131229D01*
X96504324Y-74063408D01*
X96526861Y-73997273D01*
X96571916Y-73958234D01*
X96728669Y-73878364D01*
X96765963Y-73851268D01*
X96203189Y-73288494D01*
X96263328Y-73272381D01*
X96379167Y-73205502D01*
X96473749Y-73110920D01*
X96540628Y-72995081D01*
X96556742Y-72934942D01*
X97119515Y-73497715D01*
X97146609Y-73460425D01*
X97226762Y-73303117D01*
X97274736Y-73252321D01*
X97342557Y-73235526D01*
X97408692Y-73258063D01*
X97447732Y-73303117D01*
X97527888Y-73460432D01*
X97554977Y-73497715D01*
X98117751Y-72934941D01*
X98133866Y-72995081D01*
G37*
%TD.AperFunction*%
%TA.AperFunction,Conductor*%
G36*
X97408693Y-70719165D02*
G01*
X97447731Y-70764218D01*
X97527460Y-70920694D01*
X97644266Y-71081464D01*
X97784783Y-71221981D01*
X97945553Y-71338787D01*
X98102579Y-71418796D01*
X98153374Y-71466769D01*
X98170169Y-71534590D01*
X98147632Y-71600725D01*
X98102579Y-71639764D01*
X97945813Y-71719641D01*
X97908530Y-71746729D01*
X97908529Y-71746730D01*
X98471305Y-72309504D01*
X98411166Y-72325619D01*
X98295327Y-72392498D01*
X98200745Y-72487080D01*
X98133866Y-72602919D01*
X98117751Y-72663057D01*
X97554977Y-72100282D01*
X97554976Y-72100283D01*
X97527890Y-72137564D01*
X97447732Y-72294882D01*
X97399757Y-72345678D01*
X97331936Y-72362473D01*
X97265801Y-72339935D01*
X97226762Y-72294882D01*
X97146605Y-72137567D01*
X97119515Y-72100283D01*
X96556741Y-72663057D01*
X96540628Y-72602919D01*
X96473749Y-72487080D01*
X96379167Y-72392498D01*
X96263328Y-72325619D01*
X96203189Y-72309504D01*
X96765963Y-71746731D01*
X96765962Y-71746730D01*
X96728679Y-71719641D01*
X96571915Y-71639765D01*
X96521119Y-71591790D01*
X96504324Y-71523969D01*
X96526862Y-71457834D01*
X96571914Y-71418796D01*
X96728941Y-71338787D01*
X96889711Y-71221981D01*
X97030228Y-71081464D01*
X97147034Y-70920694D01*
X97226762Y-70764218D01*
X97274737Y-70713423D01*
X97342558Y-70696628D01*
X97408693Y-70719165D01*
G37*
%TD.AperFunction*%
%TA.AperFunction,Conductor*%
G36*
X98133866Y-67915081D02*
G01*
X98200745Y-68030920D01*
X98295327Y-68125502D01*
X98411166Y-68192381D01*
X98471304Y-68208494D01*
X97908530Y-68771268D01*
X97908530Y-68771269D01*
X97945814Y-68798358D01*
X98102578Y-68878234D01*
X98153374Y-68926209D01*
X98170169Y-68994030D01*
X98147631Y-69060165D01*
X98102578Y-69099204D01*
X97945552Y-69179213D01*
X97784780Y-69296021D01*
X97644268Y-69436533D01*
X97527460Y-69597305D01*
X97447732Y-69753780D01*
X97399757Y-69804576D01*
X97331936Y-69821371D01*
X97265801Y-69798833D01*
X97226762Y-69753780D01*
X97204252Y-69709602D01*
X97147034Y-69597306D01*
X97030228Y-69436536D01*
X96889711Y-69296019D01*
X96728941Y-69179213D01*
X96571914Y-69099203D01*
X96521119Y-69051229D01*
X96504324Y-68983408D01*
X96526861Y-68917273D01*
X96571916Y-68878234D01*
X96728669Y-68798364D01*
X96765963Y-68771268D01*
X96203189Y-68208494D01*
X96263328Y-68192381D01*
X96379167Y-68125502D01*
X96473749Y-68030920D01*
X96540628Y-67915081D01*
X96556742Y-67854942D01*
X97119515Y-68417715D01*
X97146609Y-68380425D01*
X97226762Y-68223117D01*
X97274736Y-68172321D01*
X97342557Y-68155526D01*
X97408692Y-68178063D01*
X97447732Y-68223117D01*
X97527888Y-68380432D01*
X97554977Y-68417715D01*
X98117751Y-67854941D01*
X98133866Y-67915081D01*
G37*
%TD.AperFunction*%
%TA.AperFunction,Conductor*%
G36*
X97408693Y-65639165D02*
G01*
X97447731Y-65684218D01*
X97527460Y-65840694D01*
X97644266Y-66001464D01*
X97784783Y-66141981D01*
X97945553Y-66258787D01*
X98102579Y-66338796D01*
X98153374Y-66386769D01*
X98170169Y-66454590D01*
X98147632Y-66520725D01*
X98102579Y-66559764D01*
X97945813Y-66639641D01*
X97908530Y-66666729D01*
X97908529Y-66666730D01*
X98471305Y-67229504D01*
X98411166Y-67245619D01*
X98295327Y-67312498D01*
X98200745Y-67407080D01*
X98133866Y-67522919D01*
X98117751Y-67583057D01*
X97554977Y-67020282D01*
X97554976Y-67020283D01*
X97527890Y-67057564D01*
X97447732Y-67214882D01*
X97399757Y-67265678D01*
X97331936Y-67282473D01*
X97265801Y-67259935D01*
X97226762Y-67214882D01*
X97146605Y-67057567D01*
X97119515Y-67020283D01*
X96556741Y-67583057D01*
X96540628Y-67522919D01*
X96473749Y-67407080D01*
X96379167Y-67312498D01*
X96263328Y-67245619D01*
X96203189Y-67229504D01*
X96765963Y-66666731D01*
X96765962Y-66666730D01*
X96728679Y-66639641D01*
X96571915Y-66559765D01*
X96521119Y-66511790D01*
X96504324Y-66443969D01*
X96526862Y-66377834D01*
X96571914Y-66338796D01*
X96728941Y-66258787D01*
X96889711Y-66141981D01*
X97030228Y-66001464D01*
X97147034Y-65840694D01*
X97226762Y-65684218D01*
X97274737Y-65633423D01*
X97342558Y-65616628D01*
X97408693Y-65639165D01*
G37*
%TD.AperFunction*%
%TA.AperFunction,Conductor*%
G36*
X97119515Y-58257715D02*
G01*
X97120930Y-58255769D01*
X97176260Y-58213104D01*
X97245874Y-58207126D01*
X97307668Y-58239733D01*
X97342025Y-58300572D01*
X97345247Y-58328656D01*
X97345247Y-58368844D01*
X97351648Y-58428372D01*
X97351650Y-58428379D01*
X97401892Y-58563086D01*
X97401896Y-58563093D01*
X97488056Y-58678187D01*
X97488059Y-58678190D01*
X97603153Y-58764350D01*
X97603160Y-58764354D01*
X97737867Y-58814596D01*
X97737874Y-58814598D01*
X97797402Y-58820999D01*
X97797419Y-58821000D01*
X97836737Y-58821000D01*
X97903776Y-58840685D01*
X97949531Y-58893489D01*
X97959475Y-58962647D01*
X97930450Y-59026203D01*
X97909622Y-59045318D01*
X97784786Y-59136016D01*
X97784780Y-59136021D01*
X97644268Y-59276533D01*
X97527460Y-59437305D01*
X97447732Y-59593780D01*
X97399757Y-59644576D01*
X97331936Y-59661371D01*
X97265801Y-59638833D01*
X97226762Y-59593780D01*
X97147033Y-59437305D01*
X97030228Y-59276536D01*
X96889711Y-59136019D01*
X96728941Y-59019213D01*
X96571914Y-58939203D01*
X96521119Y-58891229D01*
X96504324Y-58823408D01*
X96526861Y-58757273D01*
X96571916Y-58718234D01*
X96728669Y-58638364D01*
X96765963Y-58611268D01*
X96203189Y-58048494D01*
X96263328Y-58032381D01*
X96379167Y-57965502D01*
X96473749Y-57870920D01*
X96540628Y-57755081D01*
X96556742Y-57694942D01*
X97119515Y-58257715D01*
G37*
%TD.AperFunction*%
%TA.AperFunction,Conductor*%
G36*
X104257241Y-39508295D02*
G01*
X104302996Y-39561099D01*
X104314202Y-39612610D01*
X104314202Y-49793047D01*
X104294517Y-49860086D01*
X104241713Y-49905841D01*
X104190202Y-49917047D01*
X97264382Y-49917047D01*
X97264310Y-49917050D01*
X97199356Y-49917050D01*
X96926376Y-49952983D01*
X96926351Y-49952988D01*
X96660405Y-50024242D01*
X96660387Y-50024248D01*
X96405997Y-50129616D01*
X96405993Y-50129618D01*
X96167530Y-50267291D01*
X95949081Y-50434908D01*
X95949077Y-50434912D01*
X95754381Y-50629603D01*
X95754374Y-50629612D01*
X95586754Y-50848054D01*
X95511334Y-50978683D01*
X95449075Y-51086519D01*
X95449074Y-51086522D01*
X95449072Y-51086524D01*
X95343701Y-51340909D01*
X95272433Y-51606882D01*
X95236493Y-51879866D01*
X95236493Y-52155233D01*
X95272433Y-52428217D01*
X95343701Y-52694190D01*
X95449072Y-52948575D01*
X95449075Y-52948581D01*
X95560437Y-53141463D01*
X95586754Y-53187045D01*
X95754374Y-53405487D01*
X95754379Y-53405494D01*
X95949077Y-53600187D01*
X95949081Y-53600191D01*
X96129167Y-53738372D01*
X96167535Y-53767812D01*
X96405998Y-53905484D01*
X96660391Y-54010853D01*
X96660401Y-54010855D01*
X96660405Y-54010857D01*
X96776639Y-54041999D01*
X96926361Y-54082114D01*
X97199358Y-54118050D01*
X97337033Y-54118047D01*
X104190202Y-54118047D01*
X104257241Y-54137732D01*
X104302996Y-54190536D01*
X104314202Y-54242047D01*
X104314202Y-83734173D01*
X104294517Y-83801212D01*
X104241713Y-83846967D01*
X104190202Y-83858173D01*
X97402902Y-83858173D01*
X97402891Y-83858170D01*
X97336999Y-83858173D01*
X97263597Y-83858173D01*
X97262720Y-83858229D01*
X97199332Y-83858232D01*
X96926355Y-83894183D01*
X96660394Y-83965458D01*
X96406035Y-84070828D01*
X96406018Y-84070837D01*
X96167593Y-84208500D01*
X96167584Y-84208507D01*
X95949150Y-84376127D01*
X95949146Y-84376130D01*
X95754468Y-84570816D01*
X95754465Y-84570820D01*
X95586850Y-84789269D01*
X95586844Y-84789278D01*
X95449194Y-85027706D01*
X95449191Y-85027712D01*
X95449188Y-85027718D01*
X95400148Y-85146113D01*
X95343823Y-85282097D01*
X95272564Y-85548046D01*
X95236627Y-85821031D01*
X95236627Y-86096368D01*
X95272564Y-86369353D01*
X95340067Y-86621283D01*
X95343824Y-86635304D01*
X95449188Y-86889682D01*
X95449191Y-86889687D01*
X95449194Y-86889693D01*
X95586844Y-87128121D01*
X95586850Y-87128130D01*
X95586852Y-87128133D01*
X95609902Y-87158173D01*
X95754465Y-87346579D01*
X95754468Y-87346583D01*
X95900660Y-87492781D01*
X95949149Y-87541272D01*
X96167583Y-87708892D01*
X96167586Y-87708894D01*
X96167593Y-87708899D01*
X96406018Y-87846562D01*
X96406035Y-87846571D01*
X96660394Y-87951941D01*
X96660397Y-87951941D01*
X96660400Y-87951943D01*
X96926352Y-88023216D01*
X97199331Y-88059167D01*
X97199340Y-88059167D01*
X97271120Y-88059170D01*
X97271131Y-88059173D01*
X97336999Y-88059173D01*
X97402891Y-88059176D01*
X97402895Y-88059174D01*
X97411130Y-88059175D01*
X97411175Y-88059173D01*
X104190202Y-88059173D01*
X104257241Y-88078858D01*
X104302996Y-88131662D01*
X104314202Y-88183173D01*
X104314202Y-98363610D01*
X104294517Y-98430649D01*
X104241713Y-98476404D01*
X104190202Y-98487610D01*
X45439202Y-98487610D01*
X45372163Y-98467925D01*
X45326408Y-98415121D01*
X45315202Y-98363610D01*
X45315202Y-95921153D01*
X89699500Y-95921153D01*
X89699500Y-96078846D01*
X89730261Y-96233489D01*
X89730264Y-96233501D01*
X89790602Y-96379172D01*
X89790609Y-96379185D01*
X89878210Y-96510288D01*
X89878213Y-96510292D01*
X89989707Y-96621786D01*
X89989711Y-96621789D01*
X90120814Y-96709390D01*
X90120827Y-96709397D01*
X90266498Y-96769735D01*
X90266503Y-96769737D01*
X90421153Y-96800499D01*
X90421156Y-96800500D01*
X90421158Y-96800500D01*
X90578844Y-96800500D01*
X90578845Y-96800499D01*
X90733497Y-96769737D01*
X90879179Y-96709394D01*
X91010289Y-96621789D01*
X91121789Y-96510289D01*
X91209394Y-96379179D01*
X91269737Y-96233497D01*
X91300500Y-96078842D01*
X91300500Y-95921158D01*
X91300500Y-95921155D01*
X91300499Y-95921153D01*
X91269738Y-95766510D01*
X91269737Y-95766503D01*
X91269735Y-95766498D01*
X91209397Y-95620827D01*
X91209390Y-95620814D01*
X91121789Y-95489711D01*
X91121786Y-95489707D01*
X91010292Y-95378213D01*
X91010288Y-95378210D01*
X90879185Y-95290609D01*
X90879172Y-95290602D01*
X90733501Y-95230264D01*
X90733489Y-95230261D01*
X90578845Y-95199500D01*
X90578842Y-95199500D01*
X90421158Y-95199500D01*
X90421155Y-95199500D01*
X90266510Y-95230261D01*
X90266498Y-95230264D01*
X90120827Y-95290602D01*
X90120814Y-95290609D01*
X89989711Y-95378210D01*
X89989707Y-95378213D01*
X89878213Y-95489707D01*
X89878210Y-95489711D01*
X89790609Y-95620814D01*
X89790602Y-95620827D01*
X89730264Y-95766498D01*
X89730261Y-95766510D01*
X89699500Y-95921153D01*
X45315202Y-95921153D01*
X45315202Y-91405199D01*
X57045500Y-91405199D01*
X57045500Y-91594800D01*
X57067466Y-91733489D01*
X57075158Y-91782055D01*
X57106714Y-91879172D01*
X57133747Y-91962372D01*
X57158164Y-92010292D01*
X57219819Y-92131296D01*
X57331259Y-92284679D01*
X57465321Y-92418741D01*
X57618704Y-92530181D01*
X57698515Y-92570846D01*
X57787627Y-92616252D01*
X57787629Y-92616252D01*
X57787632Y-92616254D01*
X57967945Y-92674842D01*
X58061574Y-92689671D01*
X58155200Y-92704500D01*
X58155204Y-92704500D01*
X58344800Y-92704500D01*
X58428022Y-92691318D01*
X58532055Y-92674842D01*
X58712368Y-92616254D01*
X58881296Y-92530181D01*
X59034679Y-92418741D01*
X59168741Y-92284679D01*
X59280181Y-92131296D01*
X59366254Y-91962368D01*
X59424842Y-91782055D01*
X59441318Y-91678022D01*
X59454500Y-91594800D01*
X59454500Y-91405199D01*
X63545500Y-91405199D01*
X63545500Y-91594800D01*
X63567466Y-91733489D01*
X63575158Y-91782055D01*
X63606714Y-91879172D01*
X63633747Y-91962372D01*
X63658164Y-92010292D01*
X63719819Y-92131296D01*
X63831259Y-92284679D01*
X63965321Y-92418741D01*
X64118704Y-92530181D01*
X64198515Y-92570846D01*
X64287627Y-92616252D01*
X64287629Y-92616252D01*
X64287632Y-92616254D01*
X64467945Y-92674842D01*
X64561574Y-92689671D01*
X64655200Y-92704500D01*
X64655204Y-92704500D01*
X64844800Y-92704500D01*
X64928022Y-92691318D01*
X65032055Y-92674842D01*
X65212368Y-92616254D01*
X65381296Y-92530181D01*
X65534679Y-92418741D01*
X65668741Y-92284679D01*
X65780181Y-92131296D01*
X65866254Y-91962368D01*
X65924842Y-91782055D01*
X65941318Y-91678022D01*
X65954500Y-91594800D01*
X65954500Y-91405199D01*
X65938023Y-91301171D01*
X65924842Y-91217945D01*
X65866254Y-91037632D01*
X65866252Y-91037629D01*
X65866252Y-91037627D01*
X65813611Y-90934315D01*
X65780181Y-90868704D01*
X65668741Y-90715321D01*
X65534679Y-90581259D01*
X65381296Y-90469819D01*
X65212372Y-90383747D01*
X65153905Y-90364750D01*
X65032055Y-90325158D01*
X65032051Y-90325157D01*
X65032050Y-90325157D01*
X64844800Y-90295500D01*
X64844796Y-90295500D01*
X64655204Y-90295500D01*
X64655200Y-90295500D01*
X64467949Y-90325157D01*
X64467946Y-90325157D01*
X64467945Y-90325158D01*
X64409482Y-90344153D01*
X64287627Y-90383747D01*
X64118703Y-90469819D01*
X63965319Y-90581260D01*
X63831260Y-90715319D01*
X63719819Y-90868703D01*
X63633747Y-91037627D01*
X63575157Y-91217949D01*
X63545500Y-91405199D01*
X59454500Y-91405199D01*
X59438023Y-91301171D01*
X59424842Y-91217945D01*
X59366254Y-91037632D01*
X59366252Y-91037629D01*
X59366252Y-91037627D01*
X59313611Y-90934315D01*
X59280181Y-90868704D01*
X59168741Y-90715321D01*
X59034679Y-90581259D01*
X58881296Y-90469819D01*
X58712372Y-90383747D01*
X58653905Y-90364750D01*
X58532055Y-90325158D01*
X58532051Y-90325157D01*
X58532050Y-90325157D01*
X58344800Y-90295500D01*
X58344796Y-90295500D01*
X58155204Y-90295500D01*
X58155200Y-90295500D01*
X57967949Y-90325157D01*
X57967946Y-90325157D01*
X57967945Y-90325158D01*
X57909482Y-90344153D01*
X57787627Y-90383747D01*
X57618703Y-90469819D01*
X57465319Y-90581260D01*
X57331260Y-90715319D01*
X57219819Y-90868703D01*
X57133747Y-91037627D01*
X57075157Y-91217949D01*
X57045500Y-91405199D01*
X45315202Y-91405199D01*
X45315202Y-88183173D01*
X45334887Y-88116134D01*
X45387691Y-88070379D01*
X45439202Y-88059173D01*
X52368262Y-88059173D01*
X52368286Y-88059170D01*
X52430034Y-88059174D01*
X52430042Y-88059173D01*
X52430043Y-88059173D01*
X52463033Y-88054831D01*
X52703037Y-88023245D01*
X52969013Y-87951988D01*
X53223413Y-87846623D01*
X53461883Y-87708953D01*
X53680343Y-87541333D01*
X53875054Y-87346632D01*
X54042685Y-87128180D01*
X54180367Y-86889717D01*
X54180370Y-86889709D01*
X54180373Y-86889704D01*
X54285743Y-86635326D01*
X54285745Y-86635322D01*
X54357014Y-86369349D01*
X54392957Y-86096349D01*
X54392957Y-85820993D01*
X54357015Y-85547992D01*
X54285745Y-85282019D01*
X54180368Y-85027624D01*
X54042686Y-84789161D01*
X54042682Y-84789156D01*
X54042680Y-84789152D01*
X53875059Y-84570713D01*
X53875057Y-84570711D01*
X53728903Y-84424565D01*
X53680344Y-84376008D01*
X53680339Y-84376004D01*
X53680337Y-84376002D01*
X53461889Y-84208392D01*
X53461884Y-84208388D01*
X53277397Y-84101882D01*
X53223420Y-84070720D01*
X53223417Y-84070718D01*
X53223414Y-84070717D01*
X52976681Y-83968527D01*
X52969006Y-83965348D01*
X52703045Y-83894097D01*
X52703038Y-83894096D01*
X52602360Y-83880846D01*
X52430039Y-83858167D01*
X52430036Y-83858167D01*
X52292358Y-83858173D01*
X45439202Y-83858173D01*
X45372163Y-83838488D01*
X45326408Y-83785684D01*
X45315202Y-83734173D01*
X45315202Y-81090153D01*
X63280500Y-81090153D01*
X63280500Y-81247846D01*
X63311261Y-81402489D01*
X63311264Y-81402501D01*
X63371602Y-81548172D01*
X63371609Y-81548185D01*
X63459602Y-81679874D01*
X63480480Y-81746551D01*
X63480500Y-81748765D01*
X63480500Y-84094273D01*
X63480499Y-84094291D01*
X63480499Y-84259997D01*
X63480498Y-84259997D01*
X63490470Y-84297211D01*
X63521423Y-84412728D01*
X63528268Y-84424584D01*
X63528270Y-84424592D01*
X63528273Y-84424591D01*
X63594796Y-84539814D01*
X63600479Y-84549657D01*
X63600481Y-84549660D01*
X63719349Y-84668528D01*
X63719355Y-84668533D01*
X71640707Y-92589885D01*
X71640717Y-92589896D01*
X71645047Y-92594226D01*
X71645048Y-92594227D01*
X71756852Y-92706031D01*
X71843663Y-92756150D01*
X71843665Y-92756152D01*
X71881719Y-92778122D01*
X71893783Y-92785088D01*
X72046511Y-92826011D01*
X73983312Y-92826011D01*
X73983328Y-92826012D01*
X73990924Y-92826012D01*
X74149035Y-92826012D01*
X74149038Y-92826012D01*
X74301766Y-92785088D01*
X74351885Y-92756150D01*
X74438697Y-92706031D01*
X74550501Y-92594227D01*
X74550501Y-92594225D01*
X74560709Y-92584018D01*
X74560710Y-92584015D01*
X74810153Y-92334572D01*
X74871475Y-92301089D01*
X74873642Y-92300638D01*
X74931577Y-92289113D01*
X75028989Y-92269737D01*
X75174671Y-92209394D01*
X75305781Y-92121789D01*
X75417281Y-92010289D01*
X75504886Y-91879179D01*
X75565229Y-91733497D01*
X75595992Y-91578842D01*
X75595992Y-91421158D01*
X75595992Y-91421155D01*
X75595991Y-91421153D01*
X75565229Y-91266503D01*
X75565227Y-91266498D01*
X75504889Y-91120827D01*
X75504882Y-91120814D01*
X75417281Y-90989711D01*
X75417278Y-90989707D01*
X75305784Y-90878213D01*
X75305780Y-90878210D01*
X75230738Y-90828068D01*
X75185933Y-90774455D01*
X75177226Y-90705130D01*
X75207381Y-90642103D01*
X75211929Y-90637304D01*
X76040506Y-89808728D01*
X76040511Y-89808724D01*
X76050714Y-89798520D01*
X76050716Y-89798520D01*
X76162520Y-89686716D01*
X76241577Y-89549784D01*
X76282500Y-89397057D01*
X76282500Y-79130653D01*
X84740000Y-79130653D01*
X84740000Y-79288346D01*
X84770761Y-79442989D01*
X84770764Y-79443001D01*
X84831102Y-79588672D01*
X84831109Y-79588685D01*
X84918710Y-79719788D01*
X84918713Y-79719792D01*
X85030207Y-79831286D01*
X85030211Y-79831289D01*
X85161314Y-79918890D01*
X85161327Y-79918897D01*
X85225841Y-79945619D01*
X85307003Y-79979237D01*
X85453157Y-80008309D01*
X85461653Y-80009999D01*
X85461656Y-80010000D01*
X85461658Y-80010000D01*
X85619344Y-80010000D01*
X85619345Y-80009999D01*
X85773997Y-79979237D01*
X85919679Y-79918894D01*
X86050789Y-79831289D01*
X86162289Y-79719789D01*
X86249894Y-79588679D01*
X86310237Y-79442997D01*
X86341000Y-79288342D01*
X86341000Y-79130658D01*
X86341000Y-79130655D01*
X86340999Y-79130653D01*
X86330779Y-79079273D01*
X86310237Y-78976003D01*
X86302928Y-78958358D01*
X86249897Y-78830327D01*
X86249890Y-78830314D01*
X86162289Y-78699211D01*
X86162286Y-78699207D01*
X86050792Y-78587713D01*
X86050788Y-78587710D01*
X85919685Y-78500109D01*
X85919672Y-78500102D01*
X85774001Y-78439764D01*
X85773989Y-78439761D01*
X85619345Y-78409000D01*
X85619342Y-78409000D01*
X85461658Y-78409000D01*
X85461655Y-78409000D01*
X85307010Y-78439761D01*
X85306998Y-78439764D01*
X85161327Y-78500102D01*
X85161314Y-78500109D01*
X85030211Y-78587710D01*
X85030207Y-78587713D01*
X84918713Y-78699207D01*
X84918710Y-78699211D01*
X84831109Y-78830314D01*
X84831102Y-78830327D01*
X84770764Y-78975998D01*
X84770761Y-78976010D01*
X84740000Y-79130653D01*
X76282500Y-79130653D01*
X76282500Y-76909117D01*
X76282501Y-76909104D01*
X76282501Y-76741001D01*
X76266275Y-76680446D01*
X76241577Y-76588273D01*
X76196555Y-76510292D01*
X76162524Y-76451347D01*
X76162518Y-76451339D01*
X75556777Y-75845599D01*
X75523292Y-75784276D01*
X75522840Y-75782106D01*
X75521641Y-75776077D01*
X75519737Y-75766503D01*
X75489106Y-75692553D01*
X75459397Y-75620827D01*
X75459390Y-75620814D01*
X75371789Y-75489711D01*
X75371786Y-75489707D01*
X75283170Y-75401091D01*
X75277569Y-75390835D01*
X75268522Y-75383443D01*
X75261132Y-75360731D01*
X75249685Y-75339768D01*
X75249968Y-75326422D01*
X75246903Y-75317002D01*
X75250593Y-75296932D01*
X75250912Y-75281937D01*
X75253054Y-75273770D01*
X75269737Y-75233497D01*
X75282138Y-75171153D01*
X83030500Y-75171153D01*
X83030500Y-75328846D01*
X83061261Y-75483489D01*
X83061264Y-75483501D01*
X83121602Y-75629172D01*
X83121609Y-75629185D01*
X83209210Y-75760288D01*
X83209213Y-75760292D01*
X83320707Y-75871786D01*
X83320711Y-75871789D01*
X83451814Y-75959390D01*
X83451827Y-75959397D01*
X83597498Y-76019735D01*
X83597503Y-76019737D01*
X83752153Y-76050499D01*
X83752156Y-76050500D01*
X83752158Y-76050500D01*
X83909844Y-76050500D01*
X83909845Y-76050499D01*
X84064497Y-76019737D01*
X84210179Y-75959394D01*
X84341289Y-75871789D01*
X84452789Y-75760289D01*
X84540394Y-75629179D01*
X84543854Y-75620827D01*
X84598163Y-75489711D01*
X84600737Y-75483497D01*
X84631500Y-75328842D01*
X84631500Y-75171158D01*
X84631500Y-75171155D01*
X84631499Y-75171153D01*
X84606080Y-75043364D01*
X84600737Y-75016503D01*
X84600735Y-75016498D01*
X84540397Y-74870827D01*
X84540390Y-74870814D01*
X84452789Y-74739711D01*
X84452786Y-74739707D01*
X84341292Y-74628213D01*
X84341288Y-74628210D01*
X84210185Y-74540609D01*
X84210172Y-74540602D01*
X84064501Y-74480264D01*
X84064489Y-74480261D01*
X83909845Y-74449500D01*
X83909842Y-74449500D01*
X83752158Y-74449500D01*
X83752155Y-74449500D01*
X83597510Y-74480261D01*
X83597498Y-74480264D01*
X83451827Y-74540602D01*
X83451814Y-74540609D01*
X83320711Y-74628210D01*
X83320707Y-74628213D01*
X83209213Y-74739707D01*
X83209210Y-74739711D01*
X83121609Y-74870814D01*
X83121602Y-74870827D01*
X83061264Y-75016498D01*
X83061261Y-75016510D01*
X83030500Y-75171153D01*
X75282138Y-75171153D01*
X75300500Y-75078842D01*
X75300500Y-74921158D01*
X75300500Y-74921155D01*
X75300499Y-74921153D01*
X75293333Y-74885127D01*
X75269737Y-74766503D01*
X75262127Y-74748130D01*
X75209397Y-74620827D01*
X75209390Y-74620814D01*
X75121789Y-74489711D01*
X75121786Y-74489707D01*
X75010292Y-74378213D01*
X74934719Y-74327716D01*
X74889915Y-74274103D01*
X74879611Y-74224614D01*
X74879611Y-74158997D01*
X74879610Y-74158995D01*
X74869384Y-74107587D01*
X74848848Y-74004345D01*
X74829865Y-73958515D01*
X74788508Y-73858669D01*
X74788501Y-73858656D01*
X74700900Y-73727553D01*
X74700897Y-73727549D01*
X74589403Y-73616055D01*
X74589399Y-73616052D01*
X74458296Y-73528451D01*
X74458283Y-73528444D01*
X74312612Y-73468106D01*
X74312600Y-73468103D01*
X74157956Y-73437342D01*
X74157953Y-73437342D01*
X74000269Y-73437342D01*
X74000266Y-73437342D01*
X73845621Y-73468103D01*
X73845609Y-73468106D01*
X73699938Y-73528444D01*
X73699925Y-73528451D01*
X73568822Y-73616052D01*
X73568818Y-73616055D01*
X73457324Y-73727549D01*
X73457321Y-73727553D01*
X73369720Y-73858656D01*
X73369713Y-73858669D01*
X73309375Y-74004340D01*
X73309372Y-74004352D01*
X73278611Y-74158995D01*
X73278611Y-74316688D01*
X73309372Y-74471331D01*
X73309375Y-74471343D01*
X73369713Y-74617014D01*
X73369720Y-74617027D01*
X73457321Y-74748130D01*
X73457324Y-74748134D01*
X73568818Y-74859628D01*
X73568822Y-74859631D01*
X73576457Y-74864733D01*
X73621262Y-74918346D01*
X73629969Y-74987671D01*
X73599814Y-75050698D01*
X73595247Y-75055516D01*
X72063286Y-76587478D01*
X71951481Y-76699282D01*
X71951480Y-76699284D01*
X71910806Y-76769735D01*
X71901361Y-76786094D01*
X71901359Y-76786096D01*
X71872425Y-76836209D01*
X71872424Y-76836210D01*
X71872423Y-76836215D01*
X71831499Y-76988943D01*
X71831499Y-76988945D01*
X71831499Y-77157046D01*
X71831500Y-77157059D01*
X71831500Y-78957656D01*
X71822555Y-78988117D01*
X71815254Y-79019016D01*
X71812782Y-79021401D01*
X71811815Y-79024695D01*
X71787826Y-79045480D01*
X71764975Y-79067531D01*
X71760597Y-79069075D01*
X71759011Y-79070450D01*
X71731691Y-79079273D01*
X71667367Y-79092068D01*
X71597776Y-79085841D01*
X71542599Y-79042978D01*
X71540074Y-79039342D01*
X71452789Y-78908710D01*
X71341292Y-78797213D01*
X71341288Y-78797210D01*
X71210185Y-78709609D01*
X71210172Y-78709602D01*
X71064501Y-78649264D01*
X71064489Y-78649261D01*
X70909845Y-78618500D01*
X70909842Y-78618500D01*
X70888902Y-78618500D01*
X70821863Y-78598815D01*
X70776108Y-78546011D01*
X70767285Y-78518692D01*
X70750738Y-78435508D01*
X70750737Y-78435507D01*
X70750737Y-78435503D01*
X70729267Y-78383669D01*
X70690397Y-78289827D01*
X70690390Y-78289814D01*
X70602789Y-78158711D01*
X70602786Y-78158707D01*
X70491292Y-78047213D01*
X70491288Y-78047210D01*
X70360185Y-77959609D01*
X70360172Y-77959602D01*
X70214501Y-77899264D01*
X70214489Y-77899261D01*
X70059845Y-77868500D01*
X70059842Y-77868500D01*
X69902158Y-77868500D01*
X69902155Y-77868500D01*
X69747510Y-77899261D01*
X69747498Y-77899264D01*
X69601827Y-77959602D01*
X69601814Y-77959609D01*
X69470711Y-78047210D01*
X69470707Y-78047213D01*
X69359213Y-78158707D01*
X69359210Y-78158711D01*
X69271609Y-78289814D01*
X69271602Y-78289827D01*
X69211264Y-78435498D01*
X69211261Y-78435510D01*
X69180500Y-78590153D01*
X69180500Y-78747846D01*
X69211261Y-78902489D01*
X69211264Y-78902501D01*
X69253998Y-79005670D01*
X69261467Y-79075139D01*
X69230192Y-79137618D01*
X69227120Y-79140801D01*
X69209212Y-79158708D01*
X69209208Y-79158714D01*
X69121609Y-79289814D01*
X69121602Y-79289827D01*
X69061264Y-79435498D01*
X69061261Y-79435510D01*
X69030500Y-79590153D01*
X69030500Y-79747846D01*
X69061261Y-79902489D01*
X69061264Y-79902501D01*
X69121602Y-80048172D01*
X69121609Y-80048185D01*
X69209210Y-80179288D01*
X69209213Y-80179292D01*
X69320707Y-80290786D01*
X69320711Y-80290789D01*
X69451814Y-80378390D01*
X69451827Y-80378397D01*
X69549853Y-80419000D01*
X69597503Y-80438737D01*
X69752153Y-80469499D01*
X69752156Y-80469500D01*
X69752158Y-80469500D01*
X69909844Y-80469500D01*
X69909845Y-80469499D01*
X70064497Y-80438737D01*
X70177166Y-80392067D01*
X70210172Y-80378397D01*
X70210172Y-80378396D01*
X70210179Y-80378394D01*
X70341289Y-80290789D01*
X70429908Y-80202169D01*
X70491229Y-80168685D01*
X70560920Y-80173669D01*
X70565042Y-80175291D01*
X70597497Y-80188735D01*
X70597499Y-80188735D01*
X70597503Y-80188737D01*
X70752153Y-80219499D01*
X70752156Y-80219500D01*
X70752158Y-80219500D01*
X70909843Y-80219500D01*
X70943289Y-80212846D01*
X70994632Y-80202634D01*
X71064222Y-80208861D01*
X71119400Y-80251723D01*
X71121925Y-80255360D01*
X71209210Y-80385991D01*
X71209213Y-80385995D01*
X71320707Y-80497489D01*
X71320711Y-80497492D01*
X71451814Y-80585093D01*
X71451827Y-80585100D01*
X71581627Y-80638864D01*
X71597503Y-80645440D01*
X71691645Y-80664166D01*
X71731691Y-80672132D01*
X71793602Y-80704517D01*
X71828176Y-80765232D01*
X71831500Y-80793749D01*
X71831500Y-82619224D01*
X71811815Y-82686263D01*
X71759011Y-82732018D01*
X71689853Y-82741962D01*
X71626297Y-82712937D01*
X71592939Y-82666676D01*
X71540397Y-82539827D01*
X71540390Y-82539814D01*
X71452789Y-82408711D01*
X71452786Y-82408707D01*
X71341292Y-82297213D01*
X71341288Y-82297210D01*
X71210185Y-82209609D01*
X71210172Y-82209602D01*
X71064501Y-82149264D01*
X71064489Y-82149261D01*
X70909845Y-82118500D01*
X70909842Y-82118500D01*
X70752158Y-82118500D01*
X70752155Y-82118500D01*
X70597510Y-82149261D01*
X70597498Y-82149264D01*
X70451827Y-82209602D01*
X70451814Y-82209609D01*
X70320711Y-82297210D01*
X70320707Y-82297213D01*
X70209213Y-82408707D01*
X70209210Y-82408711D01*
X70121609Y-82539814D01*
X70121602Y-82539827D01*
X70061264Y-82685498D01*
X70061261Y-82685510D01*
X70030500Y-82840153D01*
X70030500Y-82997846D01*
X70061261Y-83152489D01*
X70061264Y-83152501D01*
X70121602Y-83298172D01*
X70121609Y-83298185D01*
X70209210Y-83429288D01*
X70209213Y-83429292D01*
X70320707Y-83540786D01*
X70320711Y-83540789D01*
X70451814Y-83628390D01*
X70451827Y-83628397D01*
X70597498Y-83688735D01*
X70597503Y-83688737D01*
X70752153Y-83719499D01*
X70752156Y-83719500D01*
X70752158Y-83719500D01*
X70909844Y-83719500D01*
X70909845Y-83719499D01*
X71064497Y-83688737D01*
X71210179Y-83628394D01*
X71341289Y-83540789D01*
X71452789Y-83429289D01*
X71540394Y-83298179D01*
X71592939Y-83171322D01*
X71636779Y-83116919D01*
X71703073Y-83094854D01*
X71770773Y-83112133D01*
X71818384Y-83163270D01*
X71831500Y-83218775D01*
X71831500Y-90521094D01*
X71827350Y-90536581D01*
X71828005Y-90550327D01*
X71814888Y-90583093D01*
X71811087Y-90589677D01*
X71771827Y-90657678D01*
X71757259Y-90682908D01*
X71732029Y-90726608D01*
X71728922Y-90734112D01*
X71726267Y-90733012D01*
X71697110Y-90780831D01*
X71634257Y-90811349D01*
X71564883Y-90803042D01*
X71526035Y-90776743D01*
X64717819Y-83968527D01*
X64684334Y-83907204D01*
X64681500Y-83880846D01*
X64681500Y-81748765D01*
X64701185Y-81681726D01*
X64702398Y-81679874D01*
X64790390Y-81548185D01*
X64790390Y-81548184D01*
X64790394Y-81548179D01*
X64850737Y-81402497D01*
X64881500Y-81247842D01*
X64881500Y-81090158D01*
X64881500Y-81090155D01*
X64881499Y-81090153D01*
X64850738Y-80935510D01*
X64850737Y-80935503D01*
X64837455Y-80903437D01*
X64790397Y-80789827D01*
X64790390Y-80789814D01*
X64702789Y-80658711D01*
X64702786Y-80658707D01*
X64591292Y-80547213D01*
X64591288Y-80547210D01*
X64460185Y-80459609D01*
X64460172Y-80459602D01*
X64314501Y-80399264D01*
X64314489Y-80399261D01*
X64159845Y-80368500D01*
X64159842Y-80368500D01*
X64002158Y-80368500D01*
X64002155Y-80368500D01*
X63847510Y-80399261D01*
X63847498Y-80399264D01*
X63701827Y-80459602D01*
X63701814Y-80459609D01*
X63570711Y-80547210D01*
X63570707Y-80547213D01*
X63459213Y-80658707D01*
X63459210Y-80658711D01*
X63371609Y-80789814D01*
X63371602Y-80789827D01*
X63311264Y-80935498D01*
X63311261Y-80935510D01*
X63280500Y-81090153D01*
X45315202Y-81090153D01*
X45315202Y-72090153D01*
X64030500Y-72090153D01*
X64030500Y-72247846D01*
X64061261Y-72402489D01*
X64061264Y-72402501D01*
X64121602Y-72548172D01*
X64121609Y-72548185D01*
X64209210Y-72679288D01*
X64209213Y-72679292D01*
X64320707Y-72790786D01*
X64320711Y-72790789D01*
X64451814Y-72878390D01*
X64451827Y-72878397D01*
X64499929Y-72898321D01*
X64597503Y-72938737D01*
X64752153Y-72969499D01*
X64752156Y-72969500D01*
X64752158Y-72969500D01*
X64909844Y-72969500D01*
X64909845Y-72969499D01*
X65064497Y-72938737D01*
X65210179Y-72878394D01*
X65341289Y-72790789D01*
X65452789Y-72679289D01*
X65540394Y-72548179D01*
X65600737Y-72402497D01*
X65631500Y-72247842D01*
X65631500Y-72090158D01*
X65631500Y-72090155D01*
X65631499Y-72090153D01*
X65600738Y-71935510D01*
X65600737Y-71935503D01*
X65581182Y-71888293D01*
X65540396Y-71789825D01*
X65540395Y-71789824D01*
X65540394Y-71789821D01*
X65528382Y-71771844D01*
X65507505Y-71705169D01*
X65525989Y-71637789D01*
X65543800Y-71615277D01*
X65648789Y-71510289D01*
X65736394Y-71379179D01*
X65796737Y-71233497D01*
X65827500Y-71078842D01*
X65827500Y-70921158D01*
X65827500Y-70921155D01*
X65827499Y-70921153D01*
X65825737Y-70912293D01*
X67530500Y-70912293D01*
X67530500Y-71069986D01*
X67561261Y-71224629D01*
X67561264Y-71224641D01*
X67621602Y-71370312D01*
X67621609Y-71370325D01*
X67709210Y-71501428D01*
X67709213Y-71501432D01*
X67820707Y-71612926D01*
X67820711Y-71612929D01*
X67884463Y-71655527D01*
X67929268Y-71709139D01*
X67937975Y-71778464D01*
X67907821Y-71841491D01*
X67884465Y-71861730D01*
X67844705Y-71888297D01*
X67733209Y-71999793D01*
X67733206Y-71999797D01*
X67645605Y-72130900D01*
X67645598Y-72130913D01*
X67585260Y-72276584D01*
X67585257Y-72276596D01*
X67554496Y-72431239D01*
X67554496Y-72588932D01*
X67585257Y-72743575D01*
X67585260Y-72743587D01*
X67645598Y-72889258D01*
X67645605Y-72889271D01*
X67733206Y-73020374D01*
X67733209Y-73020378D01*
X67844703Y-73131872D01*
X67844707Y-73131875D01*
X67975810Y-73219476D01*
X67975823Y-73219483D01*
X68068965Y-73258063D01*
X68121499Y-73279823D01*
X68258126Y-73307000D01*
X68276149Y-73310585D01*
X68276152Y-73310586D01*
X68276154Y-73310586D01*
X68433840Y-73310586D01*
X68433841Y-73310585D01*
X68588493Y-73279823D01*
X68734175Y-73219480D01*
X68865285Y-73131875D01*
X68976785Y-73020375D01*
X69064390Y-72889265D01*
X69124733Y-72743583D01*
X69128996Y-72722151D01*
X69139248Y-72670614D01*
X69139248Y-72670613D01*
X69155495Y-72588932D01*
X69155496Y-72588930D01*
X69155496Y-72431241D01*
X69155495Y-72431239D01*
X69147789Y-72392498D01*
X69124733Y-72276589D01*
X69124731Y-72276584D01*
X69064393Y-72130913D01*
X69064386Y-72130900D01*
X68976785Y-71999797D01*
X68976782Y-71999793D01*
X68865288Y-71888299D01*
X68865280Y-71888293D01*
X68801532Y-71845698D01*
X68756726Y-71792086D01*
X68748019Y-71722761D01*
X68778173Y-71659734D01*
X68801533Y-71639493D01*
X68804083Y-71637789D01*
X68841289Y-71612929D01*
X68952789Y-71501429D01*
X69040394Y-71370319D01*
X69043261Y-71363397D01*
X69062292Y-71317452D01*
X75257799Y-71317452D01*
X75257799Y-71475145D01*
X75288560Y-71629788D01*
X75288563Y-71629800D01*
X75348901Y-71775471D01*
X75348908Y-71775484D01*
X75436509Y-71906587D01*
X75436512Y-71906591D01*
X75548006Y-72018085D01*
X75548010Y-72018088D01*
X75679113Y-72105689D01*
X75679126Y-72105696D01*
X75756071Y-72137567D01*
X75824802Y-72166036D01*
X75979452Y-72196798D01*
X75979455Y-72196799D01*
X75979457Y-72196799D01*
X76137143Y-72196799D01*
X76137144Y-72196798D01*
X76291796Y-72166036D01*
X76437478Y-72105693D01*
X76568588Y-72018088D01*
X76680088Y-71906588D01*
X76767693Y-71775478D01*
X76769198Y-71771846D01*
X76796816Y-71705169D01*
X76828036Y-71629796D01*
X76858799Y-71475141D01*
X76858799Y-71317457D01*
X76858799Y-71317454D01*
X76858798Y-71317452D01*
X76850510Y-71275786D01*
X76828036Y-71162802D01*
X76810372Y-71120157D01*
X76767696Y-71017126D01*
X76767689Y-71017113D01*
X76680088Y-70886010D01*
X76680085Y-70886006D01*
X76568591Y-70774512D01*
X76568587Y-70774509D01*
X76437484Y-70686908D01*
X76437471Y-70686901D01*
X76291800Y-70626563D01*
X76291788Y-70626560D01*
X76137144Y-70595799D01*
X76137141Y-70595799D01*
X75979457Y-70595799D01*
X75979454Y-70595799D01*
X75824809Y-70626560D01*
X75824797Y-70626563D01*
X75679126Y-70686901D01*
X75679113Y-70686908D01*
X75548010Y-70774509D01*
X75548006Y-70774512D01*
X75436512Y-70886006D01*
X75436509Y-70886010D01*
X75348908Y-71017113D01*
X75348901Y-71017126D01*
X75288563Y-71162797D01*
X75288560Y-71162809D01*
X75257799Y-71317452D01*
X69062292Y-71317452D01*
X69072385Y-71293086D01*
X69116225Y-71238682D01*
X69162755Y-71218921D01*
X69227121Y-71206117D01*
X69314497Y-71188737D01*
X69460179Y-71128394D01*
X69591289Y-71040789D01*
X69702789Y-70929289D01*
X69790394Y-70798179D01*
X69850737Y-70652497D01*
X69860182Y-70605015D01*
X69892566Y-70543104D01*
X69953282Y-70508530D01*
X70023051Y-70512269D01*
X70079724Y-70553135D01*
X70103416Y-70605014D01*
X70111221Y-70644254D01*
X70111224Y-70644264D01*
X70171562Y-70789935D01*
X70171569Y-70789948D01*
X70259170Y-70921051D01*
X70259173Y-70921055D01*
X70370667Y-71032549D01*
X70370671Y-71032552D01*
X70501774Y-71120153D01*
X70501787Y-71120160D01*
X70608333Y-71164292D01*
X70647463Y-71180500D01*
X70802113Y-71211262D01*
X70802116Y-71211263D01*
X70802118Y-71211263D01*
X70959804Y-71211263D01*
X71067966Y-71189748D01*
X71067966Y-71189747D01*
X71114457Y-71180500D01*
X71260139Y-71120157D01*
X71391249Y-71032552D01*
X71502749Y-70921052D01*
X71590354Y-70789942D01*
X71650697Y-70644260D01*
X71681460Y-70489605D01*
X71681460Y-70331921D01*
X71681460Y-70331918D01*
X71651034Y-70178959D01*
X71651033Y-70178957D01*
X71650697Y-70177266D01*
X71625757Y-70117055D01*
X71590357Y-70031590D01*
X71590350Y-70031577D01*
X71502749Y-69900474D01*
X71502746Y-69900470D01*
X71391252Y-69788976D01*
X71391248Y-69788973D01*
X71260145Y-69701372D01*
X71260132Y-69701365D01*
X71114461Y-69641027D01*
X71114449Y-69641024D01*
X70959805Y-69610263D01*
X70959802Y-69610263D01*
X70802118Y-69610263D01*
X70802115Y-69610263D01*
X70647470Y-69641024D01*
X70647458Y-69641027D01*
X70501787Y-69701365D01*
X70501774Y-69701372D01*
X70370671Y-69788973D01*
X70370667Y-69788976D01*
X70259173Y-69900470D01*
X70259170Y-69900474D01*
X70171569Y-70031577D01*
X70171562Y-70031590D01*
X70111224Y-70177261D01*
X70111221Y-70177270D01*
X70101777Y-70224749D01*
X70069391Y-70286660D01*
X70008675Y-70321233D01*
X69938905Y-70317492D01*
X69882234Y-70276625D01*
X69858543Y-70224749D01*
X69850737Y-70185503D01*
X69847323Y-70177261D01*
X69790397Y-70039827D01*
X69790390Y-70039814D01*
X69702789Y-69908711D01*
X69702786Y-69908707D01*
X69591292Y-69797213D01*
X69591288Y-69797210D01*
X69460185Y-69709609D01*
X69460172Y-69709602D01*
X69314501Y-69649264D01*
X69314489Y-69649261D01*
X69159845Y-69618500D01*
X69159842Y-69618500D01*
X69002158Y-69618500D01*
X69002155Y-69618500D01*
X68847510Y-69649261D01*
X68847498Y-69649264D01*
X68701827Y-69709602D01*
X68701814Y-69709609D01*
X68570711Y-69797210D01*
X68570707Y-69797213D01*
X68459213Y-69908707D01*
X68459210Y-69908711D01*
X68371609Y-70039814D01*
X68371606Y-70039821D01*
X68339614Y-70117055D01*
X68295772Y-70171458D01*
X68249245Y-70191218D01*
X68097508Y-70221401D01*
X68097498Y-70221404D01*
X67951827Y-70281742D01*
X67951814Y-70281749D01*
X67820711Y-70369350D01*
X67820707Y-70369353D01*
X67709213Y-70480847D01*
X67709210Y-70480851D01*
X67621609Y-70611954D01*
X67621602Y-70611967D01*
X67561264Y-70757638D01*
X67561261Y-70757650D01*
X67530500Y-70912293D01*
X65825737Y-70912293D01*
X65820803Y-70887489D01*
X65796737Y-70766503D01*
X65763765Y-70686901D01*
X65736397Y-70620827D01*
X65736390Y-70620814D01*
X65648789Y-70489711D01*
X65648786Y-70489707D01*
X65537292Y-70378213D01*
X65537288Y-70378210D01*
X65406185Y-70290609D01*
X65406172Y-70290602D01*
X65260501Y-70230264D01*
X65260489Y-70230261D01*
X65105845Y-70199500D01*
X65105842Y-70199500D01*
X64948158Y-70199500D01*
X64948155Y-70199500D01*
X64793510Y-70230261D01*
X64793498Y-70230264D01*
X64647827Y-70290602D01*
X64647814Y-70290609D01*
X64516711Y-70378210D01*
X64516707Y-70378213D01*
X64405213Y-70489707D01*
X64405210Y-70489711D01*
X64317609Y-70620814D01*
X64317602Y-70620827D01*
X64257264Y-70766498D01*
X64257261Y-70766510D01*
X64226500Y-70921153D01*
X64226500Y-71078846D01*
X64257261Y-71233489D01*
X64257264Y-71233501D01*
X64317602Y-71379172D01*
X64317607Y-71379181D01*
X64329615Y-71397151D01*
X64350494Y-71463828D01*
X64332011Y-71531208D01*
X64314196Y-71553725D01*
X64209210Y-71658711D01*
X64121609Y-71789814D01*
X64121602Y-71789827D01*
X64061264Y-71935498D01*
X64061261Y-71935510D01*
X64030500Y-72090153D01*
X45315202Y-72090153D01*
X45315202Y-70575153D01*
X56780500Y-70575153D01*
X56780500Y-70732846D01*
X56811261Y-70887489D01*
X56811264Y-70887501D01*
X56871602Y-71033172D01*
X56871609Y-71033185D01*
X56959210Y-71164288D01*
X56959213Y-71164292D01*
X57070707Y-71275786D01*
X57070711Y-71275789D01*
X57201814Y-71363390D01*
X57201827Y-71363397D01*
X57283318Y-71397151D01*
X57347503Y-71423737D01*
X57502153Y-71454499D01*
X57502156Y-71454500D01*
X57502158Y-71454500D01*
X57659844Y-71454500D01*
X57659845Y-71454499D01*
X57814497Y-71423737D01*
X57943446Y-71370325D01*
X57960172Y-71363397D01*
X57960172Y-71363396D01*
X57960179Y-71363394D01*
X58091289Y-71275789D01*
X58202789Y-71164289D01*
X58290394Y-71033179D01*
X58350737Y-70887497D01*
X58381500Y-70732842D01*
X58381500Y-70575158D01*
X58381500Y-70575155D01*
X58381499Y-70575153D01*
X58375124Y-70543104D01*
X58350737Y-70420503D01*
X58329550Y-70369353D01*
X58290397Y-70274827D01*
X58290390Y-70274814D01*
X58202789Y-70143711D01*
X58202786Y-70143707D01*
X58091292Y-70032213D01*
X58091288Y-70032210D01*
X57960185Y-69944609D01*
X57960172Y-69944602D01*
X57814501Y-69884264D01*
X57814489Y-69884261D01*
X57659845Y-69853500D01*
X57659842Y-69853500D01*
X57502158Y-69853500D01*
X57502155Y-69853500D01*
X57347510Y-69884261D01*
X57347498Y-69884264D01*
X57201827Y-69944602D01*
X57201814Y-69944609D01*
X57070711Y-70032210D01*
X57070707Y-70032213D01*
X56959213Y-70143707D01*
X56959210Y-70143711D01*
X56871609Y-70274814D01*
X56871602Y-70274827D01*
X56811264Y-70420498D01*
X56811261Y-70420510D01*
X56780500Y-70575153D01*
X45315202Y-70575153D01*
X45315202Y-68590153D01*
X56780500Y-68590153D01*
X56780500Y-68747846D01*
X56811261Y-68902489D01*
X56811264Y-68902501D01*
X56871602Y-69048172D01*
X56871609Y-69048185D01*
X56959210Y-69179288D01*
X56959213Y-69179292D01*
X57070707Y-69290786D01*
X57070711Y-69290789D01*
X57201814Y-69378390D01*
X57201827Y-69378397D01*
X57342182Y-69436533D01*
X57347503Y-69438737D01*
X57502153Y-69469499D01*
X57502156Y-69469500D01*
X57502158Y-69469500D01*
X57659844Y-69469500D01*
X57659845Y-69469499D01*
X57814497Y-69438737D01*
X57960179Y-69378394D01*
X58091289Y-69290789D01*
X58202789Y-69179289D01*
X58290394Y-69048179D01*
X58350737Y-68902497D01*
X58381500Y-68747842D01*
X58381500Y-68590158D01*
X58381500Y-68590155D01*
X58381499Y-68590153D01*
X58350737Y-68435503D01*
X58311345Y-68340401D01*
X58290397Y-68289827D01*
X58290390Y-68289814D01*
X58202789Y-68158711D01*
X58202786Y-68158707D01*
X58091292Y-68047213D01*
X58091288Y-68047210D01*
X57960185Y-67959609D01*
X57960172Y-67959602D01*
X57814501Y-67899264D01*
X57814489Y-67899261D01*
X57659845Y-67868500D01*
X57659842Y-67868500D01*
X57502158Y-67868500D01*
X57502155Y-67868500D01*
X57347510Y-67899261D01*
X57347498Y-67899264D01*
X57201827Y-67959602D01*
X57201814Y-67959609D01*
X57070711Y-68047210D01*
X57070707Y-68047213D01*
X56959213Y-68158707D01*
X56959210Y-68158711D01*
X56871609Y-68289814D01*
X56871602Y-68289827D01*
X56811264Y-68435498D01*
X56811261Y-68435510D01*
X56780500Y-68590153D01*
X45315202Y-68590153D01*
X45315202Y-67590153D01*
X64030500Y-67590153D01*
X64030500Y-67747846D01*
X64061261Y-67902489D01*
X64061264Y-67902501D01*
X64121602Y-68048172D01*
X64121609Y-68048185D01*
X64209210Y-68179288D01*
X64209213Y-68179292D01*
X64320707Y-68290786D01*
X64320711Y-68290789D01*
X64451814Y-68378390D01*
X64451827Y-68378397D01*
X64589683Y-68435498D01*
X64597503Y-68438737D01*
X64752153Y-68469499D01*
X64752156Y-68469500D01*
X64752158Y-68469500D01*
X64909844Y-68469500D01*
X64909845Y-68469499D01*
X65064497Y-68438737D01*
X65210179Y-68378394D01*
X65341289Y-68290789D01*
X65452789Y-68179289D01*
X65540394Y-68048179D01*
X65600737Y-67902497D01*
X65631500Y-67747842D01*
X65631500Y-67590158D01*
X65631500Y-67590155D01*
X65601484Y-67439258D01*
X65601483Y-67439255D01*
X65600737Y-67435503D01*
X65594793Y-67421153D01*
X67199500Y-67421153D01*
X67199500Y-67578846D01*
X67230261Y-67733489D01*
X67230264Y-67733501D01*
X67290602Y-67879172D01*
X67290609Y-67879185D01*
X67378210Y-68010288D01*
X67378213Y-68010292D01*
X67489707Y-68121786D01*
X67489711Y-68121789D01*
X67620814Y-68209390D01*
X67620827Y-68209397D01*
X67766498Y-68269735D01*
X67766503Y-68269737D01*
X67867502Y-68289827D01*
X67921153Y-68300499D01*
X67921156Y-68300500D01*
X67921158Y-68300500D01*
X68078844Y-68300500D01*
X68078845Y-68300499D01*
X68233497Y-68269737D01*
X68379179Y-68209394D01*
X68510289Y-68121789D01*
X68621789Y-68010289D01*
X68709394Y-67879179D01*
X68769737Y-67733497D01*
X68800500Y-67578842D01*
X68800500Y-67421158D01*
X68800500Y-67421155D01*
X68800499Y-67421153D01*
X68774374Y-67289814D01*
X68769737Y-67266503D01*
X68730242Y-67171153D01*
X72130500Y-67171153D01*
X72130500Y-67328846D01*
X72161261Y-67483489D01*
X72161264Y-67483501D01*
X72221602Y-67629172D01*
X72221609Y-67629185D01*
X72309210Y-67760288D01*
X72309213Y-67760292D01*
X72420707Y-67871786D01*
X72420711Y-67871789D01*
X72551814Y-67959390D01*
X72551827Y-67959397D01*
X72684908Y-68014520D01*
X72697503Y-68019737D01*
X72840490Y-68048179D01*
X72852153Y-68050499D01*
X72852156Y-68050500D01*
X72852158Y-68050500D01*
X73009844Y-68050500D01*
X73009845Y-68050499D01*
X73164497Y-68019737D01*
X73310179Y-67959394D01*
X73441289Y-67871789D01*
X73552789Y-67760289D01*
X73640394Y-67629179D01*
X73700737Y-67483497D01*
X73705201Y-67461054D01*
X75530500Y-67461054D01*
X75530500Y-67618747D01*
X75561261Y-67773390D01*
X75561264Y-67773402D01*
X75621602Y-67919073D01*
X75621609Y-67919086D01*
X75709210Y-68050189D01*
X75709213Y-68050193D01*
X75820707Y-68161687D01*
X75820711Y-68161690D01*
X75951814Y-68249291D01*
X75951827Y-68249298D01*
X76097498Y-68309636D01*
X76097503Y-68309638D01*
X76252153Y-68340400D01*
X76252156Y-68340401D01*
X76252158Y-68340401D01*
X76409844Y-68340401D01*
X76409845Y-68340400D01*
X76520809Y-68318328D01*
X91465993Y-68318328D01*
X91465993Y-68476021D01*
X91496754Y-68630664D01*
X91496757Y-68630676D01*
X91557095Y-68776347D01*
X91557102Y-68776360D01*
X91644703Y-68907463D01*
X91644706Y-68907467D01*
X91756200Y-69018961D01*
X91756204Y-69018964D01*
X91887307Y-69106565D01*
X91887320Y-69106572D01*
X92032991Y-69166910D01*
X92032996Y-69166912D01*
X92187646Y-69197674D01*
X92187649Y-69197675D01*
X92187651Y-69197675D01*
X92345337Y-69197675D01*
X92345338Y-69197674D01*
X92499990Y-69166912D01*
X92645672Y-69106569D01*
X92776782Y-69018964D01*
X92888282Y-68907464D01*
X92975887Y-68776354D01*
X93036230Y-68630672D01*
X93066993Y-68476017D01*
X93066993Y-68318333D01*
X93066993Y-68318330D01*
X93066992Y-68318328D01*
X93061514Y-68290789D01*
X93036230Y-68163678D01*
X92998485Y-68072553D01*
X92975890Y-68018002D01*
X92975883Y-68017989D01*
X92888282Y-67886886D01*
X92888279Y-67886882D01*
X92776785Y-67775388D01*
X92776781Y-67775385D01*
X92690761Y-67717908D01*
X92645678Y-67687784D01*
X92645665Y-67687777D01*
X92499994Y-67627439D01*
X92499982Y-67627436D01*
X92345338Y-67596675D01*
X92345335Y-67596675D01*
X92187651Y-67596675D01*
X92187648Y-67596675D01*
X92033003Y-67627436D01*
X92032991Y-67627439D01*
X91887320Y-67687777D01*
X91887307Y-67687784D01*
X91756204Y-67775385D01*
X91756200Y-67775388D01*
X91644706Y-67886882D01*
X91644703Y-67886886D01*
X91557102Y-68017989D01*
X91557095Y-68018002D01*
X91496757Y-68163673D01*
X91496754Y-68163685D01*
X91465993Y-68318328D01*
X76520809Y-68318328D01*
X76564497Y-68309638D01*
X76710179Y-68249295D01*
X76841289Y-68161690D01*
X76952789Y-68050190D01*
X77040394Y-67919080D01*
X77042051Y-67915081D01*
X77095567Y-67785880D01*
X77100737Y-67773398D01*
X77131500Y-67618743D01*
X77131500Y-67461059D01*
X77131500Y-67461056D01*
X77131499Y-67461054D01*
X77126418Y-67435510D01*
X77100737Y-67306404D01*
X77090825Y-67282473D01*
X77040397Y-67160728D01*
X77040390Y-67160715D01*
X76952789Y-67029612D01*
X76952786Y-67029608D01*
X76841292Y-66918114D01*
X76841288Y-66918111D01*
X76710185Y-66830510D01*
X76710172Y-66830503D01*
X76564501Y-66770165D01*
X76564489Y-66770162D01*
X76409845Y-66739401D01*
X76409842Y-66739401D01*
X76252158Y-66739401D01*
X76252155Y-66739401D01*
X76097510Y-66770162D01*
X76097498Y-66770165D01*
X75951827Y-66830503D01*
X75951814Y-66830510D01*
X75820711Y-66918111D01*
X75820707Y-66918114D01*
X75709213Y-67029608D01*
X75709210Y-67029612D01*
X75621609Y-67160715D01*
X75621602Y-67160728D01*
X75561264Y-67306399D01*
X75561261Y-67306411D01*
X75530500Y-67461054D01*
X73705201Y-67461054D01*
X73709537Y-67439258D01*
X73711225Y-67430775D01*
X73711225Y-67430774D01*
X73731499Y-67328846D01*
X73731500Y-67328844D01*
X73731500Y-67171155D01*
X73731499Y-67171153D01*
X73708905Y-67057567D01*
X73700737Y-67016503D01*
X73700735Y-67016498D01*
X73640397Y-66870827D01*
X73640390Y-66870814D01*
X73552789Y-66739711D01*
X73552786Y-66739707D01*
X73441292Y-66628213D01*
X73441288Y-66628210D01*
X73310185Y-66540609D01*
X73310172Y-66540602D01*
X73164501Y-66480264D01*
X73164489Y-66480261D01*
X73009845Y-66449500D01*
X73009842Y-66449500D01*
X72852158Y-66449500D01*
X72852155Y-66449500D01*
X72697510Y-66480261D01*
X72697498Y-66480264D01*
X72551827Y-66540602D01*
X72551814Y-66540609D01*
X72420711Y-66628210D01*
X72420707Y-66628213D01*
X72309213Y-66739707D01*
X72309210Y-66739711D01*
X72221609Y-66870814D01*
X72221602Y-66870827D01*
X72161264Y-67016498D01*
X72161261Y-67016510D01*
X72130500Y-67171153D01*
X68730242Y-67171153D01*
X68725924Y-67160728D01*
X68709397Y-67120827D01*
X68709390Y-67120814D01*
X68621789Y-66989711D01*
X68621786Y-66989707D01*
X68510292Y-66878213D01*
X68510288Y-66878210D01*
X68379185Y-66790609D01*
X68379172Y-66790602D01*
X68233501Y-66730264D01*
X68233489Y-66730261D01*
X68078845Y-66699500D01*
X68078842Y-66699500D01*
X67921158Y-66699500D01*
X67921155Y-66699500D01*
X67766510Y-66730261D01*
X67766498Y-66730264D01*
X67620827Y-66790602D01*
X67620814Y-66790609D01*
X67489711Y-66878210D01*
X67489707Y-66878213D01*
X67378213Y-66989707D01*
X67378210Y-66989711D01*
X67290609Y-67120814D01*
X67290602Y-67120827D01*
X67230264Y-67266498D01*
X67230261Y-67266510D01*
X67199500Y-67421153D01*
X65594793Y-67421153D01*
X65547261Y-67306399D01*
X65540397Y-67289827D01*
X65540390Y-67289814D01*
X65452789Y-67158711D01*
X65452786Y-67158707D01*
X65341292Y-67047213D01*
X65341288Y-67047210D01*
X65210185Y-66959609D01*
X65210172Y-66959602D01*
X65064501Y-66899264D01*
X65064489Y-66899261D01*
X64909845Y-66868500D01*
X64909842Y-66868500D01*
X64752158Y-66868500D01*
X64752155Y-66868500D01*
X64597510Y-66899261D01*
X64597498Y-66899264D01*
X64451827Y-66959602D01*
X64451814Y-66959609D01*
X64320711Y-67047210D01*
X64320707Y-67047213D01*
X64209213Y-67158707D01*
X64209210Y-67158711D01*
X64121609Y-67289814D01*
X64121602Y-67289827D01*
X64061264Y-67435498D01*
X64061261Y-67435510D01*
X64030500Y-67590153D01*
X45315202Y-67590153D01*
X45315202Y-65343582D01*
X69056508Y-65343582D01*
X69056508Y-65501275D01*
X69087269Y-65655918D01*
X69087272Y-65655930D01*
X69147610Y-65801601D01*
X69147617Y-65801614D01*
X69235218Y-65932717D01*
X69235221Y-65932721D01*
X69346715Y-66044215D01*
X69346719Y-66044218D01*
X69477822Y-66131819D01*
X69477835Y-66131826D01*
X69623506Y-66192164D01*
X69623511Y-66192166D01*
X69778161Y-66222928D01*
X69778164Y-66222929D01*
X69778166Y-66222929D01*
X69935852Y-66222929D01*
X69935853Y-66222928D01*
X70090505Y-66192166D01*
X70211663Y-66141981D01*
X70236180Y-66131826D01*
X70236180Y-66131825D01*
X70236187Y-66131823D01*
X70367297Y-66044218D01*
X70478797Y-65932718D01*
X70566402Y-65801608D01*
X70626745Y-65655926D01*
X70657508Y-65501271D01*
X70657508Y-65394105D01*
X70677193Y-65327066D01*
X70729997Y-65281311D01*
X70799155Y-65271367D01*
X70862711Y-65300392D01*
X70869189Y-65306424D01*
X71266640Y-65703875D01*
X71266650Y-65703886D01*
X71270980Y-65708216D01*
X71270981Y-65708217D01*
X71382785Y-65820021D01*
X71418593Y-65840694D01*
X71469596Y-65870140D01*
X71469598Y-65870142D01*
X71507652Y-65892112D01*
X71519716Y-65899078D01*
X71672444Y-65940002D01*
X71672447Y-65940002D01*
X71838154Y-65940002D01*
X71838170Y-65940001D01*
X73573830Y-65940001D01*
X73573846Y-65940002D01*
X73581442Y-65940002D01*
X73739553Y-65940002D01*
X73739556Y-65940002D01*
X73892284Y-65899078D01*
X73942403Y-65870140D01*
X74029215Y-65820021D01*
X74141019Y-65708217D01*
X74141020Y-65708215D01*
X74316525Y-65532708D01*
X74377845Y-65499226D01*
X74379913Y-65498794D01*
X74480251Y-65478837D01*
X74625933Y-65418494D01*
X74757043Y-65330889D01*
X74868543Y-65219389D01*
X74956148Y-65088279D01*
X75016491Y-64942597D01*
X75047254Y-64787942D01*
X75047254Y-64671153D01*
X75949500Y-64671153D01*
X75949500Y-64828846D01*
X75980261Y-64983489D01*
X75980264Y-64983501D01*
X76040602Y-65129172D01*
X76040609Y-65129185D01*
X76128210Y-65260288D01*
X76128213Y-65260292D01*
X76239707Y-65371786D01*
X76239711Y-65371789D01*
X76370814Y-65459390D01*
X76370827Y-65459397D01*
X76516498Y-65519735D01*
X76516503Y-65519737D01*
X76671153Y-65550499D01*
X76671156Y-65550500D01*
X76671158Y-65550500D01*
X76828844Y-65550500D01*
X76828845Y-65550499D01*
X76983497Y-65519737D01*
X77129179Y-65459394D01*
X77260289Y-65371789D01*
X77371789Y-65260289D01*
X77459394Y-65129179D01*
X77519737Y-64983497D01*
X77550500Y-64828842D01*
X77550500Y-64671158D01*
X77550500Y-64671155D01*
X77550499Y-64671153D01*
X77540708Y-64621929D01*
X77519737Y-64516503D01*
X77514972Y-64504999D01*
X77459397Y-64370827D01*
X77459390Y-64370814D01*
X77371789Y-64239711D01*
X77371786Y-64239707D01*
X77260292Y-64128213D01*
X77260288Y-64128210D01*
X77129185Y-64040609D01*
X77129172Y-64040602D01*
X76983501Y-63980264D01*
X76983489Y-63980261D01*
X76828845Y-63949500D01*
X76828842Y-63949500D01*
X76671158Y-63949500D01*
X76671155Y-63949500D01*
X76516510Y-63980261D01*
X76516498Y-63980264D01*
X76370827Y-64040602D01*
X76370814Y-64040609D01*
X76239711Y-64128210D01*
X76239707Y-64128213D01*
X76128213Y-64239707D01*
X76128210Y-64239711D01*
X76040609Y-64370814D01*
X76040602Y-64370827D01*
X75980264Y-64516498D01*
X75980261Y-64516510D01*
X75949500Y-64671153D01*
X75047254Y-64671153D01*
X75047254Y-64630258D01*
X75047254Y-64630255D01*
X75047253Y-64630253D01*
X75024628Y-64516510D01*
X75016491Y-64475603D01*
X74973092Y-64370827D01*
X74956151Y-64329927D01*
X74956144Y-64329914D01*
X74868543Y-64198811D01*
X74868540Y-64198807D01*
X74757046Y-64087313D01*
X74757042Y-64087310D01*
X74625939Y-63999709D01*
X74625926Y-63999702D01*
X74480255Y-63939364D01*
X74480243Y-63939361D01*
X74325599Y-63908600D01*
X74325596Y-63908600D01*
X74167912Y-63908600D01*
X74167909Y-63908600D01*
X74013264Y-63939361D01*
X74013252Y-63939364D01*
X73867581Y-63999702D01*
X73867568Y-63999709D01*
X73736465Y-64087310D01*
X73736461Y-64087313D01*
X73624967Y-64198807D01*
X73624964Y-64198811D01*
X73537363Y-64329914D01*
X73537356Y-64329927D01*
X73477018Y-64475598D01*
X73477015Y-64475608D01*
X73466789Y-64527018D01*
X73434403Y-64588929D01*
X73373687Y-64623503D01*
X73303918Y-64619762D01*
X73247246Y-64578895D01*
X73223555Y-64527019D01*
X73219176Y-64505004D01*
X73219174Y-64504999D01*
X73158836Y-64359328D01*
X73158829Y-64359315D01*
X73071228Y-64228212D01*
X73071225Y-64228208D01*
X72959731Y-64116714D01*
X72959727Y-64116711D01*
X72828624Y-64029110D01*
X72828611Y-64029103D01*
X72682940Y-63968765D01*
X72682928Y-63968762D01*
X72528284Y-63938001D01*
X72528281Y-63938001D01*
X72370597Y-63938001D01*
X72370594Y-63938001D01*
X72215949Y-63968762D01*
X72215937Y-63968765D01*
X72070266Y-64029103D01*
X72070253Y-64029110D01*
X71939150Y-64116711D01*
X71939146Y-64116714D01*
X71827652Y-64228208D01*
X71827646Y-64228216D01*
X71825651Y-64231202D01*
X71824202Y-64232412D01*
X71823786Y-64232920D01*
X71823689Y-64232840D01*
X71772037Y-64276005D01*
X71702712Y-64284709D01*
X71639686Y-64254552D01*
X71602969Y-64195108D01*
X71600936Y-64186505D01*
X71600737Y-64185503D01*
X71560065Y-64087311D01*
X71540397Y-64039827D01*
X71540390Y-64039814D01*
X71452789Y-63908711D01*
X71452786Y-63908707D01*
X71341292Y-63797213D01*
X71341288Y-63797210D01*
X71210185Y-63709609D01*
X71210172Y-63709602D01*
X71064501Y-63649264D01*
X71064489Y-63649261D01*
X70909845Y-63618500D01*
X70909842Y-63618500D01*
X70752158Y-63618500D01*
X70752155Y-63618500D01*
X70597510Y-63649261D01*
X70597498Y-63649264D01*
X70451827Y-63709602D01*
X70451814Y-63709609D01*
X70320711Y-63797210D01*
X70320707Y-63797213D01*
X70209213Y-63908707D01*
X70209210Y-63908711D01*
X70121609Y-64039814D01*
X70121602Y-64039827D01*
X70061264Y-64185498D01*
X70061261Y-64185510D01*
X70030500Y-64340153D01*
X70030500Y-64497929D01*
X70010815Y-64564968D01*
X69958011Y-64610723D01*
X69906500Y-64621929D01*
X69778163Y-64621929D01*
X69623518Y-64652690D01*
X69623506Y-64652693D01*
X69477835Y-64713031D01*
X69477822Y-64713038D01*
X69346719Y-64800639D01*
X69346715Y-64800642D01*
X69235221Y-64912136D01*
X69235218Y-64912140D01*
X69147617Y-65043243D01*
X69147610Y-65043256D01*
X69087272Y-65188927D01*
X69087269Y-65188939D01*
X69056508Y-65343582D01*
X45315202Y-65343582D01*
X45315202Y-61590153D01*
X64030500Y-61590153D01*
X64030500Y-61747846D01*
X64061261Y-61902489D01*
X64061264Y-61902501D01*
X64121602Y-62048172D01*
X64121609Y-62048185D01*
X64209210Y-62179288D01*
X64209213Y-62179292D01*
X64320707Y-62290786D01*
X64320711Y-62290789D01*
X64451814Y-62378390D01*
X64451827Y-62378397D01*
X64597498Y-62438735D01*
X64597503Y-62438737D01*
X64752153Y-62469499D01*
X64752156Y-62469500D01*
X64752158Y-62469500D01*
X64909844Y-62469500D01*
X64909845Y-62469499D01*
X65064497Y-62438737D01*
X65210179Y-62378394D01*
X65255731Y-62347956D01*
X65322408Y-62327078D01*
X65389788Y-62345562D01*
X65427725Y-62382168D01*
X65459207Y-62429284D01*
X65459213Y-62429292D01*
X65570707Y-62540786D01*
X65570711Y-62540789D01*
X65701814Y-62628390D01*
X65701827Y-62628397D01*
X65847498Y-62688735D01*
X65847503Y-62688737D01*
X66002153Y-62719499D01*
X66002156Y-62719500D01*
X66002158Y-62719500D01*
X66159844Y-62719500D01*
X66159845Y-62719499D01*
X66314497Y-62688737D01*
X66460179Y-62628394D01*
X66591289Y-62540789D01*
X66702789Y-62429289D01*
X66790394Y-62298179D01*
X66850737Y-62152497D01*
X66881500Y-61997842D01*
X66881500Y-61840158D01*
X66881500Y-61840155D01*
X66881499Y-61840153D01*
X66850738Y-61685510D01*
X66850737Y-61685503D01*
X66850735Y-61685498D01*
X66790397Y-61539827D01*
X66790390Y-61539814D01*
X66711306Y-61421457D01*
X66702789Y-61408711D01*
X66702786Y-61408707D01*
X66652732Y-61358653D01*
X77137000Y-61358653D01*
X77137000Y-61516346D01*
X77167761Y-61670989D01*
X77167764Y-61671001D01*
X77228102Y-61816672D01*
X77228109Y-61816685D01*
X77315710Y-61947788D01*
X77315713Y-61947792D01*
X77427207Y-62059286D01*
X77427211Y-62059289D01*
X77558314Y-62146890D01*
X77558327Y-62146897D01*
X77636537Y-62179292D01*
X77704003Y-62207237D01*
X77858653Y-62237999D01*
X77858656Y-62238000D01*
X77858658Y-62238000D01*
X78016344Y-62238000D01*
X78016345Y-62237999D01*
X78170997Y-62207237D01*
X78298635Y-62154368D01*
X78316672Y-62146897D01*
X78316672Y-62146896D01*
X78316679Y-62146894D01*
X78447789Y-62059289D01*
X78559289Y-61947789D01*
X78646894Y-61816679D01*
X78646955Y-61816533D01*
X78675407Y-61747842D01*
X78707237Y-61670997D01*
X78738000Y-61516342D01*
X78738000Y-61358658D01*
X78738000Y-61358655D01*
X78737999Y-61358653D01*
X78727623Y-61306490D01*
X78707237Y-61204003D01*
X78691234Y-61165368D01*
X78663620Y-61098700D01*
X78646897Y-61058327D01*
X78646890Y-61058314D01*
X78646236Y-61057335D01*
X85068922Y-61057335D01*
X85068922Y-61215028D01*
X85099683Y-61369671D01*
X85099686Y-61369683D01*
X85160024Y-61515354D01*
X85160031Y-61515367D01*
X85247632Y-61646470D01*
X85247635Y-61646474D01*
X85359129Y-61757968D01*
X85359133Y-61757971D01*
X85490236Y-61845572D01*
X85490249Y-61845579D01*
X85627644Y-61902489D01*
X85635925Y-61905919D01*
X85790575Y-61936681D01*
X85790578Y-61936682D01*
X85790580Y-61936682D01*
X85948266Y-61936682D01*
X85948267Y-61936681D01*
X86102919Y-61905919D01*
X86248601Y-61845576D01*
X86379711Y-61757971D01*
X86491211Y-61646471D01*
X86578816Y-61515361D01*
X86587010Y-61495580D01*
X86598021Y-61468995D01*
X86639159Y-61369679D01*
X86669922Y-61215024D01*
X86669922Y-61057340D01*
X86669922Y-61057337D01*
X86669921Y-61057335D01*
X86650481Y-60959606D01*
X86639159Y-60902685D01*
X86624999Y-60868500D01*
X86578816Y-60757002D01*
X86545630Y-60707336D01*
X90568922Y-60707336D01*
X90568922Y-60865029D01*
X90599683Y-61019672D01*
X90599686Y-61019684D01*
X90660024Y-61165355D01*
X90660031Y-61165368D01*
X90747632Y-61296471D01*
X90747635Y-61296475D01*
X90859129Y-61407969D01*
X90859133Y-61407972D01*
X90990236Y-61495573D01*
X90990249Y-61495580D01*
X91135920Y-61555918D01*
X91135925Y-61555920D01*
X91290575Y-61586682D01*
X91290578Y-61586683D01*
X91290580Y-61586683D01*
X91448266Y-61586683D01*
X91448267Y-61586682D01*
X91602919Y-61555920D01*
X91748601Y-61495577D01*
X91879711Y-61407972D01*
X91991211Y-61296472D01*
X92078816Y-61165362D01*
X92139159Y-61019680D01*
X92169922Y-60865025D01*
X92169922Y-60707341D01*
X92169922Y-60707338D01*
X92169921Y-60707336D01*
X92166221Y-60688735D01*
X92139159Y-60552686D01*
X92132508Y-60536628D01*
X92078819Y-60407010D01*
X92078812Y-60406997D01*
X91991211Y-60275894D01*
X91991208Y-60275890D01*
X91879714Y-60164396D01*
X91879710Y-60164393D01*
X91780150Y-60097869D01*
X91748606Y-60076792D01*
X91748594Y-60076785D01*
X91602923Y-60016447D01*
X91602911Y-60016444D01*
X91518428Y-59999639D01*
X94804747Y-59999639D01*
X94804747Y-60198360D01*
X94835834Y-60394637D01*
X94897240Y-60583629D01*
X94897241Y-60583632D01*
X94970857Y-60728109D01*
X94987460Y-60760694D01*
X95104266Y-60921464D01*
X95244783Y-61061981D01*
X95405553Y-61178787D01*
X95476672Y-61215024D01*
X95562027Y-61258515D01*
X95612823Y-61306490D01*
X95629618Y-61374311D01*
X95607080Y-61440446D01*
X95562027Y-61479485D01*
X95405552Y-61559213D01*
X95244780Y-61676021D01*
X95104268Y-61816533D01*
X94987460Y-61977305D01*
X94897241Y-62154367D01*
X94897240Y-62154370D01*
X94835834Y-62343362D01*
X94804747Y-62539639D01*
X94804747Y-62738360D01*
X94835834Y-62934637D01*
X94897240Y-63123629D01*
X94897241Y-63123632D01*
X94987460Y-63300694D01*
X95104266Y-63461464D01*
X95244783Y-63601981D01*
X95405553Y-63718787D01*
X95524079Y-63779179D01*
X95562027Y-63798515D01*
X95612823Y-63846490D01*
X95629618Y-63914311D01*
X95607080Y-63980446D01*
X95562027Y-64019485D01*
X95405552Y-64099213D01*
X95244780Y-64216021D01*
X95104268Y-64356533D01*
X94987460Y-64517305D01*
X94897241Y-64694367D01*
X94897240Y-64694370D01*
X94835834Y-64883362D01*
X94804747Y-65079639D01*
X94804747Y-65278361D01*
X94809192Y-65306424D01*
X94835834Y-65474637D01*
X94897240Y-65663629D01*
X94897241Y-65663632D01*
X94987460Y-65840694D01*
X95104266Y-66001464D01*
X95244783Y-66141981D01*
X95405553Y-66258787D01*
X95562579Y-66338796D01*
X95613374Y-66386769D01*
X95630169Y-66454590D01*
X95607632Y-66520725D01*
X95562579Y-66559764D01*
X95405813Y-66639641D01*
X95368530Y-66666729D01*
X95368529Y-66666730D01*
X95931305Y-67229504D01*
X95871166Y-67245619D01*
X95755327Y-67312498D01*
X95660745Y-67407080D01*
X95593866Y-67522919D01*
X95577751Y-67583057D01*
X95014977Y-67020282D01*
X95014976Y-67020283D01*
X94987890Y-67057564D01*
X94897704Y-67234562D01*
X94836322Y-67423476D01*
X94836322Y-67423479D01*
X94805247Y-67619678D01*
X94805247Y-67818321D01*
X94836322Y-68014520D01*
X94836322Y-68014523D01*
X94897704Y-68203437D01*
X94987888Y-68380432D01*
X95014977Y-68417715D01*
X95577751Y-67854941D01*
X95593866Y-67915081D01*
X95660745Y-68030920D01*
X95755327Y-68125502D01*
X95871166Y-68192381D01*
X95931304Y-68208494D01*
X95368530Y-68771268D01*
X95368530Y-68771269D01*
X95405814Y-68798358D01*
X95562578Y-68878234D01*
X95613374Y-68926209D01*
X95630169Y-68994030D01*
X95607631Y-69060165D01*
X95562578Y-69099204D01*
X95405552Y-69179213D01*
X95244780Y-69296021D01*
X95104268Y-69436533D01*
X94987460Y-69597305D01*
X94897241Y-69774367D01*
X94897240Y-69774370D01*
X94835834Y-69963362D01*
X94824929Y-70032213D01*
X94804747Y-70159639D01*
X94804747Y-70358361D01*
X94820290Y-70456498D01*
X94835834Y-70554637D01*
X94897240Y-70743629D01*
X94897241Y-70743632D01*
X94970541Y-70887489D01*
X94987460Y-70920694D01*
X95104266Y-71081464D01*
X95244783Y-71221981D01*
X95405553Y-71338787D01*
X95562579Y-71418796D01*
X95613374Y-71466769D01*
X95630169Y-71534590D01*
X95607632Y-71600725D01*
X95562579Y-71639764D01*
X95405813Y-71719641D01*
X95368530Y-71746729D01*
X95368529Y-71746730D01*
X95931305Y-72309504D01*
X95871166Y-72325619D01*
X95755327Y-72392498D01*
X95660745Y-72487080D01*
X95593866Y-72602919D01*
X95577751Y-72663057D01*
X95014977Y-72100282D01*
X95014976Y-72100283D01*
X94987890Y-72137564D01*
X94897704Y-72314562D01*
X94836322Y-72503476D01*
X94836322Y-72503479D01*
X94805247Y-72699678D01*
X94805247Y-72898321D01*
X94836322Y-73094520D01*
X94836322Y-73094523D01*
X94897704Y-73283437D01*
X94987888Y-73460432D01*
X95014977Y-73497715D01*
X95577751Y-72934941D01*
X95593866Y-72995081D01*
X95660745Y-73110920D01*
X95755327Y-73205502D01*
X95871166Y-73272381D01*
X95931304Y-73288494D01*
X95368530Y-73851268D01*
X95368530Y-73851269D01*
X95405814Y-73878358D01*
X95562578Y-73958234D01*
X95613374Y-74006209D01*
X95630169Y-74074030D01*
X95607631Y-74140165D01*
X95562578Y-74179204D01*
X95405552Y-74259213D01*
X95244780Y-74376021D01*
X95104268Y-74516533D01*
X94987460Y-74677305D01*
X94897241Y-74854367D01*
X94897240Y-74854370D01*
X94835834Y-75043362D01*
X94820970Y-75137210D01*
X94804747Y-75239639D01*
X94804747Y-75438361D01*
X94812880Y-75489711D01*
X94835834Y-75634637D01*
X94897240Y-75823629D01*
X94897241Y-75823632D01*
X94966418Y-75959397D01*
X94987460Y-76000694D01*
X95104266Y-76161464D01*
X95244783Y-76301981D01*
X95405553Y-76418787D01*
X95491378Y-76462517D01*
X95562027Y-76498515D01*
X95612823Y-76546490D01*
X95629618Y-76614311D01*
X95607080Y-76680446D01*
X95562027Y-76719485D01*
X95405552Y-76799213D01*
X95244780Y-76916021D01*
X95104268Y-77056533D01*
X94987460Y-77217305D01*
X94897241Y-77394367D01*
X94897240Y-77394370D01*
X94835834Y-77583362D01*
X94804747Y-77779639D01*
X94804747Y-77978361D01*
X94807833Y-77997846D01*
X94835834Y-78174637D01*
X94897240Y-78363629D01*
X94897241Y-78363632D01*
X94936033Y-78439764D01*
X94987460Y-78540694D01*
X95104266Y-78701464D01*
X95244783Y-78841981D01*
X95405553Y-78958787D01*
X95562579Y-79038796D01*
X95613374Y-79086769D01*
X95630169Y-79154590D01*
X95607632Y-79220725D01*
X95562579Y-79259764D01*
X95405813Y-79339641D01*
X95368530Y-79366729D01*
X95368529Y-79366730D01*
X95931305Y-79929504D01*
X95871166Y-79945619D01*
X95755327Y-80012498D01*
X95660745Y-80107080D01*
X95593866Y-80222919D01*
X95577751Y-80283057D01*
X95014977Y-79720282D01*
X95014976Y-79720283D01*
X94987890Y-79757564D01*
X94897704Y-79934562D01*
X94836322Y-80123476D01*
X94836322Y-80123479D01*
X94805247Y-80319678D01*
X94805247Y-80518321D01*
X94836322Y-80714520D01*
X94836322Y-80714523D01*
X94897704Y-80903437D01*
X94987888Y-81080432D01*
X95014977Y-81117715D01*
X95577751Y-80554941D01*
X95593866Y-80615081D01*
X95660745Y-80730920D01*
X95755327Y-80825502D01*
X95871166Y-80892381D01*
X95931304Y-80908494D01*
X95368530Y-81471268D01*
X95368530Y-81471269D01*
X95405814Y-81498358D01*
X95582809Y-81588542D01*
X95771724Y-81649924D01*
X95967926Y-81681000D01*
X96166568Y-81681000D01*
X96362767Y-81649924D01*
X96362770Y-81649924D01*
X96551684Y-81588542D01*
X96728672Y-81498362D01*
X96765963Y-81471268D01*
X96203189Y-80908494D01*
X96263328Y-80892381D01*
X96379167Y-80825502D01*
X96473749Y-80730920D01*
X96540628Y-80615081D01*
X96556742Y-80554942D01*
X97119515Y-81117715D01*
X97146609Y-81080425D01*
X97226762Y-80923117D01*
X97274736Y-80872321D01*
X97342557Y-80855526D01*
X97408692Y-80878063D01*
X97447732Y-80923117D01*
X97527888Y-81080432D01*
X97554977Y-81117715D01*
X98117751Y-80554941D01*
X98133866Y-80615081D01*
X98200745Y-80730920D01*
X98295327Y-80825502D01*
X98411166Y-80892381D01*
X98471304Y-80908494D01*
X97908530Y-81471268D01*
X97908530Y-81471269D01*
X97945814Y-81498358D01*
X98122809Y-81588542D01*
X98311724Y-81649924D01*
X98507926Y-81681000D01*
X98706568Y-81681000D01*
X98902767Y-81649924D01*
X98902770Y-81649924D01*
X99091684Y-81588542D01*
X99268672Y-81498362D01*
X99305963Y-81471268D01*
X98743189Y-80908494D01*
X98803328Y-80892381D01*
X98919167Y-80825502D01*
X99013749Y-80730920D01*
X99080628Y-80615081D01*
X99096742Y-80554942D01*
X99659515Y-81117715D01*
X99686609Y-81080425D01*
X99776789Y-80903437D01*
X99838171Y-80714523D01*
X99838171Y-80714520D01*
X99869247Y-80518321D01*
X99869247Y-80319678D01*
X99838171Y-80123479D01*
X99838171Y-80123476D01*
X99776789Y-79934562D01*
X99686605Y-79757567D01*
X99659515Y-79720283D01*
X99096741Y-80283057D01*
X99080628Y-80222919D01*
X99013749Y-80107080D01*
X98919167Y-80012498D01*
X98803328Y-79945619D01*
X98743189Y-79929504D01*
X99305963Y-79366731D01*
X99305962Y-79366730D01*
X99268679Y-79339641D01*
X99111364Y-79259485D01*
X99060568Y-79211510D01*
X99043773Y-79143689D01*
X99066310Y-79077554D01*
X99111364Y-79038515D01*
X99268672Y-78958362D01*
X99305963Y-78931268D01*
X98743189Y-78368494D01*
X98803328Y-78352381D01*
X98919167Y-78285502D01*
X99013749Y-78190920D01*
X99080628Y-78075081D01*
X99096742Y-78014942D01*
X99659515Y-78577715D01*
X99686609Y-78540425D01*
X99776789Y-78363437D01*
X99838171Y-78174523D01*
X99838171Y-78174520D01*
X99869247Y-77978321D01*
X99869247Y-77779678D01*
X99838171Y-77583479D01*
X99838171Y-77583476D01*
X99776789Y-77394562D01*
X99686605Y-77217567D01*
X99659515Y-77180283D01*
X99096741Y-77743057D01*
X99080628Y-77682919D01*
X99013749Y-77567080D01*
X98919167Y-77472498D01*
X98803328Y-77405619D01*
X98743189Y-77389504D01*
X99305963Y-76826731D01*
X99305962Y-76826730D01*
X99268679Y-76799641D01*
X99111364Y-76719485D01*
X99060568Y-76671510D01*
X99043773Y-76603689D01*
X99066310Y-76537554D01*
X99111364Y-76498515D01*
X99268672Y-76418362D01*
X99305963Y-76391268D01*
X98743189Y-75828494D01*
X98803328Y-75812381D01*
X98919167Y-75745502D01*
X99013749Y-75650920D01*
X99080628Y-75535081D01*
X99096742Y-75474942D01*
X99659515Y-76037715D01*
X99686609Y-76000425D01*
X99776789Y-75823437D01*
X99838171Y-75634523D01*
X99838171Y-75634520D01*
X99869247Y-75438321D01*
X99869247Y-75239678D01*
X99838171Y-75043479D01*
X99838171Y-75043476D01*
X99776789Y-74854562D01*
X99686605Y-74677567D01*
X99659515Y-74640283D01*
X99096741Y-75203057D01*
X99080628Y-75142919D01*
X99013749Y-75027080D01*
X98919167Y-74932498D01*
X98803328Y-74865619D01*
X98743189Y-74849504D01*
X99305963Y-74286731D01*
X99305962Y-74286730D01*
X99268679Y-74259641D01*
X99111364Y-74179485D01*
X99060568Y-74131510D01*
X99043773Y-74063689D01*
X99066310Y-73997554D01*
X99111364Y-73958515D01*
X99268672Y-73878362D01*
X99305963Y-73851268D01*
X98743189Y-73288494D01*
X98803328Y-73272381D01*
X98919167Y-73205502D01*
X99013749Y-73110920D01*
X99080628Y-72995081D01*
X99096742Y-72934942D01*
X99659515Y-73497715D01*
X99686609Y-73460425D01*
X99776789Y-73283437D01*
X99838171Y-73094523D01*
X99838171Y-73094520D01*
X99869247Y-72898321D01*
X99869247Y-72699678D01*
X99838171Y-72503479D01*
X99838171Y-72503476D01*
X99776789Y-72314562D01*
X99686605Y-72137567D01*
X99659515Y-72100283D01*
X99096741Y-72663057D01*
X99080628Y-72602919D01*
X99013749Y-72487080D01*
X98919167Y-72392498D01*
X98803328Y-72325619D01*
X98743189Y-72309504D01*
X99305963Y-71746731D01*
X99305962Y-71746730D01*
X99268679Y-71719641D01*
X99111915Y-71639765D01*
X99061119Y-71591790D01*
X99044324Y-71523969D01*
X99066862Y-71457834D01*
X99111914Y-71418796D01*
X99268941Y-71338787D01*
X99429711Y-71221981D01*
X99570228Y-71081464D01*
X99687034Y-70920694D01*
X99777252Y-70743632D01*
X99838660Y-70554636D01*
X99869747Y-70358361D01*
X99869747Y-70159639D01*
X99838660Y-69963364D01*
X99784674Y-69797210D01*
X99777253Y-69774370D01*
X99777252Y-69774367D01*
X99713508Y-69649264D01*
X99687034Y-69597306D01*
X99570228Y-69436536D01*
X99429711Y-69296019D01*
X99268941Y-69179213D01*
X99111914Y-69099203D01*
X99061119Y-69051229D01*
X99044324Y-68983408D01*
X99066861Y-68917273D01*
X99111916Y-68878234D01*
X99268669Y-68798364D01*
X99305963Y-68771268D01*
X98743189Y-68208494D01*
X98803328Y-68192381D01*
X98919167Y-68125502D01*
X99013749Y-68030920D01*
X99080628Y-67915081D01*
X99096742Y-67854942D01*
X99659515Y-68417715D01*
X99686609Y-68380425D01*
X99776789Y-68203437D01*
X99838171Y-68014523D01*
X99838171Y-68014520D01*
X99869247Y-67818321D01*
X99869247Y-67619678D01*
X99838171Y-67423479D01*
X99838171Y-67423476D01*
X99776789Y-67234562D01*
X99686605Y-67057567D01*
X99659515Y-67020283D01*
X99096741Y-67583057D01*
X99080628Y-67522919D01*
X99013749Y-67407080D01*
X98919167Y-67312498D01*
X98803328Y-67245619D01*
X98743189Y-67229504D01*
X99305963Y-66666731D01*
X99305962Y-66666730D01*
X99268679Y-66639641D01*
X99111915Y-66559765D01*
X99061119Y-66511790D01*
X99044324Y-66443969D01*
X99066862Y-66377834D01*
X99111914Y-66338796D01*
X99268941Y-66258787D01*
X99429711Y-66141981D01*
X99570228Y-66001464D01*
X99687034Y-65840694D01*
X99777252Y-65663632D01*
X99838660Y-65474636D01*
X99869747Y-65278361D01*
X99869747Y-65079639D01*
X99838660Y-64883364D01*
X99783318Y-64713038D01*
X99777253Y-64694370D01*
X99777252Y-64694367D01*
X99711319Y-64564968D01*
X99687034Y-64517306D01*
X99570228Y-64356536D01*
X99429711Y-64216019D01*
X99268941Y-64099213D01*
X99112465Y-64019484D01*
X99061670Y-63971510D01*
X99044875Y-63903689D01*
X99067412Y-63837554D01*
X99112465Y-63798515D01*
X99268941Y-63718787D01*
X99429711Y-63601981D01*
X99570228Y-63461464D01*
X99687034Y-63300694D01*
X99777252Y-63123632D01*
X99838660Y-62934636D01*
X99869747Y-62738361D01*
X99869747Y-62539639D01*
X99838660Y-62343364D01*
X99804425Y-62237999D01*
X99777253Y-62154370D01*
X99777252Y-62154367D01*
X99723142Y-62048172D01*
X99687034Y-61977306D01*
X99570228Y-61816536D01*
X99429711Y-61676019D01*
X99268941Y-61559213D01*
X99112465Y-61479484D01*
X99061670Y-61431510D01*
X99044875Y-61363689D01*
X99067412Y-61297554D01*
X99112465Y-61258515D01*
X99268941Y-61178787D01*
X99429711Y-61061981D01*
X99570228Y-60921464D01*
X99687034Y-60760694D01*
X99777252Y-60583632D01*
X99838660Y-60394636D01*
X99869747Y-60198361D01*
X99869747Y-59999639D01*
X99838660Y-59803364D01*
X99777252Y-59614368D01*
X99777252Y-59614367D01*
X99687033Y-59437305D01*
X99570228Y-59276536D01*
X99429711Y-59136019D01*
X99304872Y-59045318D01*
X99262206Y-58989988D01*
X99256227Y-58920375D01*
X99288833Y-58858580D01*
X99349671Y-58824223D01*
X99377757Y-58821000D01*
X99417075Y-58821000D01*
X99417091Y-58820999D01*
X99476619Y-58814598D01*
X99476626Y-58814596D01*
X99611333Y-58764354D01*
X99611340Y-58764350D01*
X99726434Y-58678190D01*
X99726437Y-58678187D01*
X99812597Y-58563093D01*
X99812601Y-58563086D01*
X99862843Y-58428379D01*
X99862845Y-58428372D01*
X99869246Y-58368844D01*
X99869247Y-58368827D01*
X99869247Y-57809000D01*
X99049498Y-57809000D01*
X99080628Y-57755081D01*
X99115247Y-57625880D01*
X99115247Y-57492120D01*
X99080628Y-57362919D01*
X99049498Y-57309000D01*
X99869247Y-57309000D01*
X99869247Y-56749172D01*
X99869246Y-56749155D01*
X99862845Y-56689627D01*
X99862843Y-56689620D01*
X99812601Y-56554913D01*
X99812597Y-56554906D01*
X99726437Y-56439812D01*
X99726434Y-56439809D01*
X99611340Y-56353649D01*
X99611333Y-56353645D01*
X99476626Y-56303403D01*
X99476619Y-56303401D01*
X99417091Y-56297000D01*
X98857247Y-56297000D01*
X98857247Y-57116748D01*
X98803328Y-57085619D01*
X98674127Y-57051000D01*
X98540367Y-57051000D01*
X98411166Y-57085619D01*
X98357247Y-57116748D01*
X98357247Y-56297000D01*
X97797402Y-56297000D01*
X97737874Y-56303401D01*
X97737867Y-56303403D01*
X97603160Y-56353645D01*
X97603153Y-56353649D01*
X97488059Y-56439809D01*
X97488056Y-56439812D01*
X97401896Y-56554906D01*
X97401892Y-56554913D01*
X97351650Y-56689620D01*
X97351648Y-56689627D01*
X97345247Y-56749155D01*
X97345247Y-56789342D01*
X97325562Y-56856381D01*
X97272758Y-56902136D01*
X97203600Y-56912080D01*
X97140044Y-56883055D01*
X97120930Y-56862229D01*
X97119516Y-56860283D01*
X97119515Y-56860283D01*
X96556741Y-57423057D01*
X96540628Y-57362919D01*
X96473749Y-57247080D01*
X96379167Y-57152498D01*
X96263328Y-57085619D01*
X96203189Y-57069504D01*
X96765963Y-56506731D01*
X96765962Y-56506730D01*
X96728679Y-56479641D01*
X96551684Y-56389457D01*
X96362769Y-56328075D01*
X96166568Y-56297000D01*
X95967926Y-56297000D01*
X95771726Y-56328075D01*
X95771723Y-56328075D01*
X95582809Y-56389457D01*
X95405811Y-56479643D01*
X95368530Y-56506729D01*
X95368529Y-56506730D01*
X95931305Y-57069504D01*
X95871166Y-57085619D01*
X95755327Y-57152498D01*
X95660745Y-57247080D01*
X95593866Y-57362919D01*
X95577751Y-57423057D01*
X95014977Y-56860282D01*
X95014976Y-56860283D01*
X94987890Y-56897564D01*
X94897704Y-57074562D01*
X94836322Y-57263476D01*
X94836322Y-57263479D01*
X94805247Y-57459678D01*
X94805247Y-57658321D01*
X94836322Y-57854520D01*
X94836322Y-57854523D01*
X94897704Y-58043437D01*
X94987888Y-58220432D01*
X95014977Y-58257715D01*
X95577751Y-57694941D01*
X95593866Y-57755081D01*
X95660745Y-57870920D01*
X95755327Y-57965502D01*
X95871166Y-58032381D01*
X95931304Y-58048494D01*
X95368530Y-58611268D01*
X95368530Y-58611269D01*
X95405814Y-58638358D01*
X95562578Y-58718234D01*
X95613374Y-58766209D01*
X95630169Y-58834030D01*
X95607631Y-58900165D01*
X95562578Y-58939204D01*
X95405552Y-59019213D01*
X95244780Y-59136021D01*
X95104268Y-59276533D01*
X94987460Y-59437305D01*
X94897241Y-59614367D01*
X94897240Y-59614370D01*
X94835834Y-59803362D01*
X94804747Y-59999639D01*
X91518428Y-59999639D01*
X91448267Y-59985683D01*
X91448264Y-59985683D01*
X91290580Y-59985683D01*
X91290577Y-59985683D01*
X91135932Y-60016444D01*
X91135920Y-60016447D01*
X90990249Y-60076785D01*
X90990236Y-60076792D01*
X90859133Y-60164393D01*
X90859129Y-60164396D01*
X90747635Y-60275890D01*
X90747632Y-60275894D01*
X90660031Y-60406997D01*
X90660024Y-60407010D01*
X90599686Y-60552681D01*
X90599683Y-60552693D01*
X90568922Y-60707336D01*
X86545630Y-60707336D01*
X86491211Y-60625893D01*
X86491208Y-60625889D01*
X86379714Y-60514395D01*
X86379710Y-60514392D01*
X86248607Y-60426791D01*
X86248594Y-60426784D01*
X86102923Y-60366446D01*
X86102911Y-60366443D01*
X85948267Y-60335682D01*
X85948264Y-60335682D01*
X85790580Y-60335682D01*
X85790577Y-60335682D01*
X85635932Y-60366443D01*
X85635920Y-60366446D01*
X85490249Y-60426784D01*
X85490236Y-60426791D01*
X85359133Y-60514392D01*
X85359129Y-60514395D01*
X85247635Y-60625889D01*
X85247632Y-60625893D01*
X85160031Y-60756996D01*
X85160024Y-60757009D01*
X85099686Y-60902680D01*
X85099683Y-60902692D01*
X85068922Y-61057335D01*
X78646236Y-61057335D01*
X78559289Y-60927211D01*
X78559286Y-60927207D01*
X78447792Y-60815713D01*
X78447788Y-60815710D01*
X78316685Y-60728109D01*
X78316672Y-60728102D01*
X78171001Y-60667764D01*
X78170989Y-60667761D01*
X78016345Y-60637000D01*
X78016342Y-60637000D01*
X77858658Y-60637000D01*
X77858655Y-60637000D01*
X77704010Y-60667761D01*
X77703998Y-60667764D01*
X77558327Y-60728102D01*
X77558314Y-60728109D01*
X77427211Y-60815710D01*
X77427207Y-60815713D01*
X77315713Y-60927207D01*
X77315710Y-60927211D01*
X77228109Y-61058314D01*
X77228102Y-61058327D01*
X77167764Y-61203998D01*
X77167761Y-61204010D01*
X77137000Y-61358653D01*
X66652732Y-61358653D01*
X66591292Y-61297213D01*
X66591288Y-61297210D01*
X66460185Y-61209609D01*
X66460172Y-61209602D01*
X66314501Y-61149264D01*
X66314489Y-61149261D01*
X66159845Y-61118500D01*
X66159842Y-61118500D01*
X66002158Y-61118500D01*
X66002155Y-61118500D01*
X65847510Y-61149261D01*
X65847498Y-61149264D01*
X65701827Y-61209602D01*
X65701816Y-61209608D01*
X65656266Y-61240044D01*
X65589588Y-61260921D01*
X65522208Y-61242436D01*
X65484274Y-61205832D01*
X65452789Y-61158711D01*
X65452787Y-61158708D01*
X65341292Y-61047213D01*
X65341288Y-61047210D01*
X65210185Y-60959609D01*
X65210172Y-60959602D01*
X65064501Y-60899264D01*
X65064489Y-60899261D01*
X64909845Y-60868500D01*
X64909842Y-60868500D01*
X64752158Y-60868500D01*
X64752155Y-60868500D01*
X64597510Y-60899261D01*
X64597498Y-60899264D01*
X64451827Y-60959602D01*
X64451814Y-60959609D01*
X64320711Y-61047210D01*
X64320707Y-61047213D01*
X64209213Y-61158707D01*
X64209210Y-61158711D01*
X64121609Y-61289814D01*
X64121602Y-61289827D01*
X64061264Y-61435498D01*
X64061261Y-61435510D01*
X64030500Y-61590153D01*
X45315202Y-61590153D01*
X45315202Y-59840153D01*
X68280500Y-59840153D01*
X68280500Y-59997846D01*
X68311261Y-60152489D01*
X68311264Y-60152501D01*
X68371602Y-60298172D01*
X68371609Y-60298185D01*
X68459210Y-60429288D01*
X68459213Y-60429292D01*
X68570707Y-60540786D01*
X68570711Y-60540789D01*
X68701814Y-60628390D01*
X68701827Y-60628397D01*
X68796869Y-60667764D01*
X68847503Y-60688737D01*
X69002153Y-60719499D01*
X69002156Y-60719500D01*
X69002158Y-60719500D01*
X69159844Y-60719500D01*
X69159845Y-60719499D01*
X69314497Y-60688737D01*
X69460179Y-60628394D01*
X69591289Y-60540789D01*
X69702789Y-60429289D01*
X69790394Y-60298179D01*
X69850737Y-60152497D01*
X69881500Y-59997842D01*
X69881500Y-59840158D01*
X69881500Y-59840155D01*
X69870721Y-59785967D01*
X69870721Y-59785966D01*
X69867120Y-59767862D01*
X72189921Y-59767862D01*
X72189921Y-59925555D01*
X72220682Y-60080198D01*
X72220685Y-60080210D01*
X72281023Y-60225881D01*
X72281030Y-60225894D01*
X72368631Y-60356997D01*
X72368634Y-60357001D01*
X72480128Y-60468495D01*
X72480132Y-60468498D01*
X72611235Y-60556099D01*
X72611248Y-60556106D01*
X72677703Y-60583632D01*
X72756924Y-60616446D01*
X72911574Y-60647208D01*
X72911577Y-60647209D01*
X72911579Y-60647209D01*
X73069265Y-60647209D01*
X73069266Y-60647208D01*
X73223918Y-60616446D01*
X73369600Y-60556103D01*
X73500710Y-60468498D01*
X73612210Y-60356998D01*
X73699815Y-60225888D01*
X73760158Y-60080206D01*
X73790921Y-59925551D01*
X73790921Y-59767867D01*
X73790921Y-59767864D01*
X73790920Y-59767862D01*
X73774539Y-59685510D01*
X73760158Y-59613212D01*
X73729756Y-59539814D01*
X73699818Y-59467536D01*
X73699811Y-59467523D01*
X73612210Y-59336420D01*
X73612207Y-59336416D01*
X73500713Y-59224922D01*
X73500709Y-59224919D01*
X73369606Y-59137318D01*
X73369593Y-59137311D01*
X73223922Y-59076973D01*
X73223910Y-59076970D01*
X73069266Y-59046209D01*
X73069263Y-59046209D01*
X72911579Y-59046209D01*
X72911576Y-59046209D01*
X72756931Y-59076970D01*
X72756919Y-59076973D01*
X72611248Y-59137311D01*
X72611235Y-59137318D01*
X72480132Y-59224919D01*
X72480128Y-59224922D01*
X72368634Y-59336416D01*
X72368631Y-59336420D01*
X72281030Y-59467523D01*
X72281023Y-59467536D01*
X72220685Y-59613207D01*
X72220682Y-59613219D01*
X72189921Y-59767862D01*
X69867120Y-59767862D01*
X69850738Y-59685510D01*
X69850737Y-59685503D01*
X69821272Y-59614367D01*
X69790397Y-59539827D01*
X69790390Y-59539814D01*
X69702789Y-59408711D01*
X69702786Y-59408707D01*
X69591292Y-59297213D01*
X69591288Y-59297210D01*
X69460185Y-59209609D01*
X69460172Y-59209602D01*
X69314501Y-59149264D01*
X69314489Y-59149261D01*
X69159845Y-59118500D01*
X69159842Y-59118500D01*
X69002158Y-59118500D01*
X69002155Y-59118500D01*
X68847510Y-59149261D01*
X68847498Y-59149264D01*
X68701827Y-59209602D01*
X68701814Y-59209609D01*
X68570711Y-59297210D01*
X68570707Y-59297213D01*
X68459213Y-59408707D01*
X68459210Y-59408711D01*
X68371609Y-59539814D01*
X68371602Y-59539827D01*
X68311264Y-59685498D01*
X68311261Y-59685510D01*
X68280500Y-59840153D01*
X45315202Y-59840153D01*
X45315202Y-56260608D01*
X88741379Y-56260608D01*
X88741379Y-56418301D01*
X88772140Y-56572944D01*
X88772143Y-56572956D01*
X88832481Y-56718627D01*
X88832488Y-56718640D01*
X88920089Y-56849743D01*
X88920092Y-56849747D01*
X89031586Y-56961241D01*
X89031590Y-56961244D01*
X89162693Y-57048845D01*
X89162706Y-57048852D01*
X89251471Y-57085619D01*
X89308382Y-57109192D01*
X89463032Y-57139954D01*
X89463035Y-57139955D01*
X89463037Y-57139955D01*
X89620723Y-57139955D01*
X89620724Y-57139954D01*
X89775376Y-57109192D01*
X89921058Y-57048849D01*
X90052168Y-56961244D01*
X90110329Y-56903083D01*
X91466163Y-56903083D01*
X91466163Y-57060776D01*
X91496924Y-57215419D01*
X91496927Y-57215431D01*
X91557265Y-57361102D01*
X91557272Y-57361115D01*
X91644873Y-57492218D01*
X91644876Y-57492222D01*
X91756370Y-57603716D01*
X91756374Y-57603719D01*
X91887477Y-57691320D01*
X91887490Y-57691327D01*
X92033161Y-57751665D01*
X92033166Y-57751667D01*
X92187816Y-57782429D01*
X92187819Y-57782430D01*
X92187821Y-57782430D01*
X92345507Y-57782430D01*
X92345508Y-57782429D01*
X92500160Y-57751667D01*
X92645842Y-57691324D01*
X92776952Y-57603719D01*
X92888452Y-57492219D01*
X92926685Y-57435000D01*
X92959483Y-57385915D01*
X92959484Y-57385913D01*
X92976050Y-57361120D01*
X92976053Y-57361115D01*
X92976057Y-57361109D01*
X93036400Y-57215427D01*
X93067163Y-57060772D01*
X93067163Y-56903088D01*
X93067163Y-56903085D01*
X93067162Y-56903083D01*
X93063178Y-56883055D01*
X93036400Y-56748433D01*
X92976057Y-56602751D01*
X92976055Y-56602748D01*
X92976053Y-56602744D01*
X92888452Y-56471641D01*
X92888449Y-56471637D01*
X92776955Y-56360143D01*
X92776951Y-56360140D01*
X92645848Y-56272539D01*
X92645835Y-56272532D01*
X92500164Y-56212194D01*
X92500152Y-56212191D01*
X92345508Y-56181430D01*
X92345505Y-56181430D01*
X92187821Y-56181430D01*
X92187818Y-56181430D01*
X92033173Y-56212191D01*
X92033161Y-56212194D01*
X91887490Y-56272532D01*
X91887477Y-56272539D01*
X91756374Y-56360140D01*
X91756370Y-56360143D01*
X91644876Y-56471637D01*
X91644873Y-56471641D01*
X91557272Y-56602744D01*
X91557265Y-56602757D01*
X91496927Y-56748428D01*
X91496924Y-56748440D01*
X91466163Y-56903083D01*
X90110329Y-56903083D01*
X90163668Y-56849744D01*
X90204028Y-56789342D01*
X90251269Y-56718640D01*
X90251269Y-56718639D01*
X90251273Y-56718634D01*
X90311616Y-56572952D01*
X90342379Y-56418297D01*
X90342379Y-56260613D01*
X90342379Y-56260610D01*
X90342378Y-56260608D01*
X90332748Y-56212194D01*
X90311616Y-56105958D01*
X90311614Y-56105953D01*
X90251276Y-55960282D01*
X90251269Y-55960269D01*
X90163668Y-55829166D01*
X90163665Y-55829162D01*
X90052171Y-55717668D01*
X90052167Y-55717665D01*
X89921064Y-55630064D01*
X89921051Y-55630057D01*
X89775380Y-55569719D01*
X89775368Y-55569716D01*
X89620724Y-55538955D01*
X89620721Y-55538955D01*
X89463037Y-55538955D01*
X89463034Y-55538955D01*
X89308389Y-55569716D01*
X89308377Y-55569719D01*
X89162706Y-55630057D01*
X89162693Y-55630064D01*
X89031590Y-55717665D01*
X89031586Y-55717668D01*
X88920092Y-55829162D01*
X88920089Y-55829166D01*
X88832488Y-55960269D01*
X88832481Y-55960282D01*
X88772143Y-56105953D01*
X88772140Y-56105965D01*
X88741379Y-56260608D01*
X45315202Y-56260608D01*
X45315202Y-54242047D01*
X45334887Y-54175008D01*
X45387691Y-54129253D01*
X45439202Y-54118047D01*
X52287542Y-54118047D01*
X52424911Y-54118383D01*
X52424911Y-54118382D01*
X52424916Y-54118383D01*
X52698211Y-54083069D01*
X52964551Y-54012357D01*
X53219371Y-53907459D01*
X53458306Y-53770172D01*
X53677259Y-53602850D01*
X53872479Y-53408361D01*
X54040620Y-53190036D01*
X54178801Y-52951618D01*
X54284654Y-52697192D01*
X54288831Y-52681695D01*
X54290862Y-52674161D01*
X54335739Y-52507644D01*
X54356363Y-52431119D01*
X54392702Y-52157958D01*
X54393046Y-51882392D01*
X54357391Y-51609141D01*
X54331547Y-51512286D01*
X54286347Y-51342892D01*
X54283608Y-51336263D01*
X54266060Y-51293786D01*
X71074334Y-51293786D01*
X71074334Y-51553501D01*
X71114963Y-51810021D01*
X71195217Y-52057021D01*
X71313130Y-52288435D01*
X71394285Y-52400136D01*
X71394286Y-52400137D01*
X71933855Y-51860567D01*
X72025258Y-51997361D01*
X72150617Y-52122720D01*
X72287409Y-52214121D01*
X71747839Y-52753690D01*
X71747840Y-52753692D01*
X71859542Y-52834847D01*
X72090956Y-52952760D01*
X72337956Y-53033014D01*
X72594477Y-53073644D01*
X72854191Y-53073644D01*
X73110711Y-53033014D01*
X73357711Y-52952760D01*
X73589122Y-52834849D01*
X73700826Y-52753690D01*
X73700827Y-52753690D01*
X73161258Y-52214121D01*
X73298051Y-52122720D01*
X73423410Y-51997361D01*
X73514811Y-51860568D01*
X74054380Y-52400137D01*
X74054380Y-52400136D01*
X74135539Y-52288432D01*
X74253450Y-52057021D01*
X74333704Y-51810021D01*
X74374334Y-51553501D01*
X74374334Y-51293786D01*
X75274334Y-51293786D01*
X75274334Y-51553501D01*
X75314963Y-51810021D01*
X75395217Y-52057021D01*
X75513130Y-52288435D01*
X75594285Y-52400136D01*
X75594286Y-52400137D01*
X76133855Y-51860567D01*
X76225258Y-51997361D01*
X76350617Y-52122720D01*
X76487409Y-52214121D01*
X75947839Y-52753690D01*
X75947840Y-52753692D01*
X76059542Y-52834847D01*
X76290956Y-52952760D01*
X76537956Y-53033014D01*
X76794477Y-53073644D01*
X77054191Y-53073644D01*
X77310711Y-53033014D01*
X77557711Y-52952760D01*
X77789122Y-52834849D01*
X77842382Y-52796153D01*
X87824500Y-52796153D01*
X87824500Y-52953846D01*
X87855261Y-53108489D01*
X87855264Y-53108501D01*
X87915602Y-53254172D01*
X87915609Y-53254185D01*
X88003210Y-53385288D01*
X88003213Y-53385292D01*
X88114707Y-53496786D01*
X88114711Y-53496789D01*
X88245814Y-53584390D01*
X88245827Y-53584397D01*
X88391498Y-53644735D01*
X88391503Y-53644737D01*
X88546153Y-53675499D01*
X88546156Y-53675500D01*
X88546158Y-53675500D01*
X88703844Y-53675500D01*
X88703845Y-53675499D01*
X88858497Y-53644737D01*
X89004179Y-53584394D01*
X89135289Y-53496789D01*
X89246789Y-53385289D01*
X89334394Y-53254179D01*
X89394737Y-53108497D01*
X89425500Y-52953842D01*
X89425500Y-52796158D01*
X89425500Y-52796155D01*
X89425499Y-52796153D01*
X89417053Y-52753692D01*
X89394737Y-52641503D01*
X89339949Y-52509231D01*
X89334397Y-52495827D01*
X89334390Y-52495814D01*
X89246789Y-52364711D01*
X89246786Y-52364707D01*
X89135292Y-52253213D01*
X89135288Y-52253210D01*
X89004185Y-52165609D01*
X89004172Y-52165602D01*
X88858501Y-52105264D01*
X88858489Y-52105261D01*
X88703845Y-52074500D01*
X88703842Y-52074500D01*
X88546158Y-52074500D01*
X88546155Y-52074500D01*
X88391510Y-52105261D01*
X88391498Y-52105264D01*
X88245827Y-52165602D01*
X88245814Y-52165609D01*
X88114711Y-52253210D01*
X88114707Y-52253213D01*
X88003213Y-52364707D01*
X88003210Y-52364711D01*
X87915609Y-52495814D01*
X87915602Y-52495827D01*
X87855264Y-52641498D01*
X87855261Y-52641510D01*
X87824500Y-52796153D01*
X77842382Y-52796153D01*
X77900827Y-52753690D01*
X77361258Y-52214121D01*
X77498051Y-52122720D01*
X77623410Y-51997361D01*
X77714811Y-51860568D01*
X78254380Y-52400137D01*
X78254380Y-52400136D01*
X78335539Y-52288432D01*
X78453450Y-52057021D01*
X78533704Y-51810021D01*
X78574334Y-51553501D01*
X78574334Y-51293786D01*
X78533704Y-51037266D01*
X78453450Y-50790266D01*
X78335537Y-50558852D01*
X78254382Y-50447150D01*
X78254380Y-50447149D01*
X77714811Y-50986718D01*
X77623410Y-50849927D01*
X77498051Y-50724568D01*
X77361258Y-50633166D01*
X77900827Y-50093596D01*
X77900826Y-50093595D01*
X77789125Y-50012440D01*
X77557711Y-49894527D01*
X77310711Y-49814273D01*
X77054191Y-49773644D01*
X76794477Y-49773644D01*
X76537956Y-49814273D01*
X76290956Y-49894527D01*
X76059549Y-50012436D01*
X75947840Y-50093596D01*
X76487410Y-50633166D01*
X76350617Y-50724568D01*
X76225258Y-50849927D01*
X76133856Y-50986720D01*
X75594286Y-50447150D01*
X75513126Y-50558859D01*
X75395217Y-50790266D01*
X75314963Y-51037266D01*
X75274334Y-51293786D01*
X74374334Y-51293786D01*
X74333704Y-51037266D01*
X74253450Y-50790266D01*
X74135537Y-50558852D01*
X74054382Y-50447150D01*
X74054380Y-50447149D01*
X73514811Y-50986718D01*
X73423410Y-50849927D01*
X73298051Y-50724568D01*
X73161258Y-50633166D01*
X73700827Y-50093596D01*
X73700826Y-50093595D01*
X73589125Y-50012440D01*
X73357711Y-49894527D01*
X73110711Y-49814273D01*
X72854191Y-49773644D01*
X72594477Y-49773644D01*
X72337956Y-49814273D01*
X72090956Y-49894527D01*
X71859549Y-50012436D01*
X71747840Y-50093596D01*
X72287410Y-50633166D01*
X72150617Y-50724568D01*
X72025258Y-50849927D01*
X71933856Y-50986720D01*
X71394286Y-50447150D01*
X71313126Y-50558859D01*
X71195217Y-50790266D01*
X71114963Y-51037266D01*
X71074334Y-51293786D01*
X54266060Y-51293786D01*
X54181130Y-51088200D01*
X54043545Y-50849437D01*
X53875950Y-50630693D01*
X53681217Y-50435716D01*
X53462682Y-50267847D01*
X53224092Y-50129964D01*
X52969534Y-50024430D01*
X52969535Y-50024430D01*
X52969532Y-50024429D01*
X52703370Y-49953051D01*
X52703358Y-49953049D01*
X52430177Y-49917054D01*
X52430159Y-49917053D01*
X52365898Y-49917050D01*
X52365844Y-49917047D01*
X52358274Y-49917047D01*
X45439202Y-49917047D01*
X45372163Y-49897362D01*
X45326408Y-49844558D01*
X45315202Y-49793047D01*
X45315202Y-44725779D01*
X71073834Y-44725779D01*
X71073834Y-47121514D01*
X71073835Y-47121520D01*
X71080242Y-47181127D01*
X71130536Y-47315972D01*
X71130540Y-47315979D01*
X71216786Y-47431188D01*
X71216789Y-47431191D01*
X71331998Y-47517437D01*
X71332005Y-47517441D01*
X71466851Y-47567735D01*
X71466850Y-47567735D01*
X71473778Y-47568479D01*
X71526461Y-47574144D01*
X73922206Y-47574143D01*
X73981817Y-47567735D01*
X74116665Y-47517440D01*
X74231880Y-47431190D01*
X74318130Y-47315975D01*
X74368425Y-47181127D01*
X74374834Y-47121517D01*
X74374833Y-45793741D01*
X75273834Y-45793741D01*
X75273834Y-46053546D01*
X75314474Y-46310137D01*
X75394756Y-46557220D01*
X75475868Y-46716408D01*
X75512700Y-46788695D01*
X75665403Y-46998873D01*
X75849105Y-47182575D01*
X76059283Y-47335278D01*
X76206779Y-47410431D01*
X76290757Y-47453221D01*
X76290759Y-47453221D01*
X76290762Y-47453223D01*
X76537841Y-47533504D01*
X76670040Y-47554441D01*
X76794432Y-47574144D01*
X76794437Y-47574144D01*
X77054236Y-47574144D01*
X77167632Y-47556183D01*
X77310827Y-47533504D01*
X77503936Y-47470759D01*
X87699500Y-47470759D01*
X87699500Y-47628452D01*
X87730261Y-47783095D01*
X87730264Y-47783107D01*
X87790602Y-47928778D01*
X87790609Y-47928791D01*
X87878210Y-48059894D01*
X87878213Y-48059898D01*
X87989707Y-48171392D01*
X87989711Y-48171395D01*
X88120814Y-48258996D01*
X88120827Y-48259003D01*
X88266498Y-48319341D01*
X88266503Y-48319343D01*
X88421153Y-48350105D01*
X88421156Y-48350106D01*
X88421158Y-48350106D01*
X88578844Y-48350106D01*
X88578845Y-48350105D01*
X88733497Y-48319343D01*
X88879179Y-48259000D01*
X89010289Y-48171395D01*
X89121789Y-48059895D01*
X89209394Y-47928785D01*
X89269737Y-47783103D01*
X89300500Y-47628448D01*
X89300500Y-47470764D01*
X89300500Y-47470761D01*
X89300499Y-47470759D01*
X89269738Y-47316116D01*
X89269737Y-47316109D01*
X89269683Y-47315979D01*
X89209397Y-47170433D01*
X89209390Y-47170420D01*
X89121789Y-47039317D01*
X89121786Y-47039313D01*
X89010292Y-46927819D01*
X89010288Y-46927816D01*
X88879185Y-46840215D01*
X88879172Y-46840208D01*
X88733501Y-46779870D01*
X88733489Y-46779867D01*
X88578845Y-46749106D01*
X88578842Y-46749106D01*
X88421158Y-46749106D01*
X88421155Y-46749106D01*
X88266510Y-46779867D01*
X88266498Y-46779870D01*
X88120827Y-46840208D01*
X88120814Y-46840215D01*
X87989711Y-46927816D01*
X87989707Y-46927819D01*
X87878213Y-47039313D01*
X87878210Y-47039317D01*
X87790609Y-47170420D01*
X87790602Y-47170433D01*
X87730264Y-47316104D01*
X87730261Y-47316116D01*
X87699500Y-47470759D01*
X77503936Y-47470759D01*
X77557906Y-47453223D01*
X77789385Y-47335278D01*
X77999563Y-47182575D01*
X78183265Y-46998873D01*
X78335968Y-46788695D01*
X78453913Y-46557216D01*
X78534194Y-46310137D01*
X78556873Y-46166942D01*
X78574834Y-46053546D01*
X78574834Y-45793741D01*
X78553281Y-45657665D01*
X78534194Y-45537151D01*
X78453913Y-45290072D01*
X78453911Y-45290069D01*
X78453911Y-45290067D01*
X78411121Y-45206089D01*
X78335968Y-45058593D01*
X78183265Y-44848415D01*
X77999563Y-44664713D01*
X77815956Y-44531315D01*
X77789388Y-44512012D01*
X77789387Y-44512011D01*
X77789385Y-44512010D01*
X77717098Y-44475178D01*
X77557910Y-44394066D01*
X77310827Y-44313784D01*
X77054236Y-44273144D01*
X77054231Y-44273144D01*
X76794437Y-44273144D01*
X76794432Y-44273144D01*
X76537840Y-44313784D01*
X76290757Y-44394066D01*
X76059279Y-44512012D01*
X75849108Y-44664710D01*
X75849102Y-44664715D01*
X75665405Y-44848412D01*
X75665400Y-44848418D01*
X75512702Y-45058589D01*
X75394756Y-45290067D01*
X75314474Y-45537150D01*
X75273834Y-45793741D01*
X74374833Y-45793741D01*
X74374833Y-44725772D01*
X74368425Y-44666161D01*
X74318130Y-44531313D01*
X74318129Y-44531312D01*
X74318127Y-44531308D01*
X74231881Y-44416099D01*
X74231878Y-44416096D01*
X74116669Y-44329850D01*
X74116662Y-44329846D01*
X73981816Y-44279552D01*
X73981817Y-44279552D01*
X73922217Y-44273145D01*
X73922215Y-44273144D01*
X73922207Y-44273144D01*
X73922198Y-44273144D01*
X71526463Y-44273144D01*
X71526457Y-44273145D01*
X71466850Y-44279552D01*
X71332005Y-44329846D01*
X71331998Y-44329850D01*
X71216789Y-44416096D01*
X71216786Y-44416099D01*
X71130540Y-44531308D01*
X71130536Y-44531315D01*
X71080242Y-44666161D01*
X71073835Y-44725760D01*
X71073835Y-44725767D01*
X71073834Y-44725779D01*
X45315202Y-44725779D01*
X45315202Y-41602355D01*
X66373834Y-41602355D01*
X66373834Y-41844932D01*
X66405495Y-42085429D01*
X66468281Y-42319748D01*
X66561107Y-42543849D01*
X66561110Y-42543856D01*
X66682398Y-42753933D01*
X66682400Y-42753936D01*
X66682401Y-42753937D01*
X66830067Y-42946380D01*
X66830073Y-42946387D01*
X67001590Y-43117904D01*
X67001596Y-43117909D01*
X67194045Y-43265580D01*
X67404122Y-43386868D01*
X67628234Y-43479698D01*
X67862545Y-43542482D01*
X68042920Y-43566228D01*
X68103045Y-43574144D01*
X68103046Y-43574144D01*
X68345623Y-43574144D01*
X68393722Y-43567811D01*
X68586123Y-43542482D01*
X68820434Y-43479698D01*
X69044546Y-43386868D01*
X69254623Y-43265580D01*
X69447072Y-43117909D01*
X69618599Y-42946382D01*
X69766270Y-42753933D01*
X69887558Y-42543856D01*
X69980388Y-42319744D01*
X70043172Y-42085433D01*
X70074834Y-41844932D01*
X70074834Y-41602356D01*
X70074834Y-41602355D01*
X79573834Y-41602355D01*
X79573834Y-41844932D01*
X79605495Y-42085429D01*
X79668281Y-42319748D01*
X79761107Y-42543849D01*
X79761110Y-42543856D01*
X79882398Y-42753933D01*
X79882400Y-42753936D01*
X79882401Y-42753937D01*
X80030067Y-42946380D01*
X80030073Y-42946387D01*
X80201590Y-43117904D01*
X80201596Y-43117909D01*
X80394045Y-43265580D01*
X80604122Y-43386868D01*
X80828234Y-43479698D01*
X81062545Y-43542482D01*
X81242920Y-43566228D01*
X81303045Y-43574144D01*
X81303046Y-43574144D01*
X81545623Y-43574144D01*
X81593722Y-43567811D01*
X81786123Y-43542482D01*
X82020434Y-43479698D01*
X82244546Y-43386868D01*
X82454623Y-43265580D01*
X82647072Y-43117909D01*
X82818599Y-42946382D01*
X82966270Y-42753933D01*
X83087558Y-42543856D01*
X83180388Y-42319744D01*
X83243172Y-42085433D01*
X83274834Y-41844932D01*
X83274834Y-41602356D01*
X83243172Y-41361855D01*
X83180388Y-41127544D01*
X83087558Y-40903432D01*
X82966270Y-40693355D01*
X82818599Y-40500906D01*
X82818594Y-40500900D01*
X82647077Y-40329383D01*
X82647070Y-40329377D01*
X82454627Y-40181711D01*
X82454626Y-40181710D01*
X82454623Y-40181708D01*
X82244546Y-40060420D01*
X82244539Y-40060417D01*
X82020438Y-39967591D01*
X81786119Y-39904805D01*
X81545623Y-39873144D01*
X81545622Y-39873144D01*
X81303046Y-39873144D01*
X81303045Y-39873144D01*
X81062548Y-39904805D01*
X80828229Y-39967591D01*
X80604128Y-40060417D01*
X80604119Y-40060421D01*
X80394040Y-40181711D01*
X80201597Y-40329377D01*
X80201590Y-40329383D01*
X80030073Y-40500900D01*
X80030067Y-40500907D01*
X79882401Y-40693350D01*
X79761111Y-40903429D01*
X79761107Y-40903438D01*
X79668281Y-41127539D01*
X79605495Y-41361858D01*
X79573834Y-41602355D01*
X70074834Y-41602355D01*
X70043172Y-41361855D01*
X69980388Y-41127544D01*
X69887558Y-40903432D01*
X69766270Y-40693355D01*
X69618599Y-40500906D01*
X69618594Y-40500900D01*
X69447077Y-40329383D01*
X69447070Y-40329377D01*
X69254627Y-40181711D01*
X69254626Y-40181710D01*
X69254623Y-40181708D01*
X69044546Y-40060420D01*
X69044539Y-40060417D01*
X68820438Y-39967591D01*
X68586119Y-39904805D01*
X68345623Y-39873144D01*
X68345622Y-39873144D01*
X68103046Y-39873144D01*
X68103045Y-39873144D01*
X67862548Y-39904805D01*
X67628229Y-39967591D01*
X67404128Y-40060417D01*
X67404119Y-40060421D01*
X67194040Y-40181711D01*
X67001597Y-40329377D01*
X67001590Y-40329383D01*
X66830073Y-40500900D01*
X66830067Y-40500907D01*
X66682401Y-40693350D01*
X66561111Y-40903429D01*
X66561107Y-40903438D01*
X66468281Y-41127539D01*
X66405495Y-41361858D01*
X66373834Y-41602355D01*
X45315202Y-41602355D01*
X45315202Y-39612610D01*
X45334887Y-39545571D01*
X45387691Y-39499816D01*
X45439202Y-39488610D01*
X64948810Y-39488610D01*
X84548810Y-39488610D01*
X104190202Y-39488610D01*
X104257241Y-39508295D01*
G37*
%TD.AperFunction*%
%TD*%
M02*
