%TF.GenerationSoftware,KiCad,Pcbnew,9.0.6*%
%TF.CreationDate,2026-03-31T11:46:01+01:00*%
%TF.ProjectId,Cro_,43726fed-2e6b-4696-9361-645f70636258,rev?*%
%TF.SameCoordinates,Original*%
%TF.FileFunction,Soldermask,Bot*%
%TF.FilePolarity,Negative*%
%FSLAX46Y46*%
G04 Gerber Fmt 4.6, Leading zero omitted, Abs format (unit mm)*
G04 Created by KiCad (PCBNEW 9.0.6) date 2026-03-31 11:46:01*
%MOMM*%
%LPD*%
G01*
G04 APERTURE LIST*
G04 Aperture macros list*
%AMRoundRect*
0 Rectangle with rounded corners*
0 $1 Rounding radius*
0 $2 $3 $4 $5 $6 $7 $8 $9 X,Y pos of 4 corners*
0 Add a 4 corners polygon primitive as box body*
4,1,4,$2,$3,$4,$5,$6,$7,$8,$9,$2,$3,0*
0 Add four circle primitives for the rounded corners*
1,1,$1+$1,$2,$3*
1,1,$1+$1,$4,$5*
1,1,$1+$1,$6,$7*
1,1,$1+$1,$8,$9*
0 Add four rect primitives between the rounded corners*
20,1,$1+$1,$2,$3,$4,$5,0*
20,1,$1+$1,$4,$5,$6,$7,0*
20,1,$1+$1,$6,$7,$8,$9,0*
20,1,$1+$1,$8,$9,$2,$3,0*%
G04 Aperture macros list end*
%ADD10C,3.100000*%
%ADD11C,1.676200*%
%ADD12C,1.226200*%
%ADD13C,0.010000*%
%ADD14C,1.612000*%
%ADD15RoundRect,0.102000X0.762000X-0.762000X0.762000X0.762000X-0.762000X0.762000X-0.762000X-0.762000X0*%
%ADD16C,1.728000*%
%ADD17C,3.200000*%
G04 APERTURE END LIST*
D10*
X98887023Y-85958673D02*
G75*
G02*
X95787023Y-85958673I-1550000J0D01*
G01*
X95787023Y-85958673D02*
G75*
G02*
X98887023Y-85958673I1550000J0D01*
G01*
X53842381Y-85958673D02*
G75*
G02*
X50742381Y-85958673I-1550000J0D01*
G01*
X50742381Y-85958673D02*
G75*
G02*
X53842381Y-85958673I1550000J0D01*
G01*
X53842381Y-52017547D02*
G75*
G02*
X50742381Y-52017547I-1550000J0D01*
G01*
X50742381Y-52017547D02*
G75*
G02*
X53842381Y-52017547I1550000J0D01*
G01*
X98887023Y-52017547D02*
G75*
G02*
X95787023Y-52017547I-1550000J0D01*
G01*
X95787023Y-52017547D02*
G75*
G02*
X98887023Y-52017547I1550000J0D01*
G01*
D11*
%TO.C,J2*%
X69062434Y-41723644D02*
G75*
G02*
X67386234Y-41723644I-838100J0D01*
G01*
X67386234Y-41723644D02*
G75*
G02*
X69062434Y-41723644I838100J0D01*
G01*
D12*
X73337434Y-51423644D02*
G75*
G02*
X72111234Y-51423644I-613100J0D01*
G01*
X72111234Y-51423644D02*
G75*
G02*
X73337434Y-51423644I613100J0D01*
G01*
X77537434Y-45923644D02*
G75*
G02*
X76311234Y-45923644I-613100J0D01*
G01*
X76311234Y-45923644D02*
G75*
G02*
X77537434Y-45923644I613100J0D01*
G01*
X77537434Y-51423644D02*
G75*
G02*
X76311234Y-51423644I-613100J0D01*
G01*
X76311234Y-51423644D02*
G75*
G02*
X77537434Y-51423644I613100J0D01*
G01*
D11*
X82262434Y-41723644D02*
G75*
G02*
X80586234Y-41723644I-838100J0D01*
G01*
X80586234Y-41723644D02*
G75*
G02*
X82262434Y-41723644I838100J0D01*
G01*
D13*
X73950534Y-47149844D02*
X71498134Y-47149844D01*
X71498134Y-44697444D01*
X73950534Y-44697444D01*
X73950534Y-47149844D01*
G36*
X73950534Y-47149844D02*
G01*
X71498134Y-47149844D01*
X71498134Y-44697444D01*
X73950534Y-44697444D01*
X73950534Y-47149844D01*
G37*
%TD*%
D14*
%TO.C,LS1*%
X64750000Y-91500000D03*
X58250000Y-91500000D03*
%TD*%
D15*
%TO.C,J3*%
X98607247Y-57559000D03*
D16*
X96067247Y-57559000D03*
X98607247Y-60099000D03*
X96067247Y-60099000D03*
X98607247Y-62639000D03*
X96067247Y-62639000D03*
X98607247Y-65179000D03*
X96067247Y-65179000D03*
X98607247Y-67719000D03*
X96067247Y-67719000D03*
X98607247Y-70259000D03*
X96067247Y-70259000D03*
X98607247Y-72799000D03*
X96067247Y-72799000D03*
X98607247Y-75339000D03*
X96067247Y-75339000D03*
X98607247Y-77879000D03*
X96067247Y-77879000D03*
X98607247Y-80419000D03*
X96067247Y-80419000D03*
%TD*%
D17*
%TO.C,J2*%
X81424334Y-41723644D03*
X68224334Y-41723644D03*
%TD*%
M02*
