%TF.GenerationSoftware,KiCad,Pcbnew,9.0.6*%
%TF.CreationDate,2026-03-06T12:48:51+00:00*%
%TF.ProjectId,Cro_,43726fed-2e6b-4696-9361-645f70636258,rev?*%
%TF.SameCoordinates,Original*%
%TF.FileFunction,Profile,NP*%
%FSLAX46Y46*%
G04 Gerber Fmt 4.6, Leading zero omitted, Abs format (unit mm)*
G04 Created by KiCad (PCBNEW 9.0.6) date 2026-03-06 12:48:51*
%MOMM*%
%LPD*%
G01*
G04 APERTURE LIST*
%TA.AperFunction,Profile*%
%ADD10C,0.200000*%
%TD*%
G04 APERTURE END LIST*
D10*
X104814702Y-87558673D02*
X97337023Y-87558673D01*
X44814702Y-98988110D02*
X104814702Y-98988110D01*
X44814702Y-87558673D02*
X44814702Y-98988110D01*
X97337023Y-53617547D02*
G75*
G02*
X97337023Y-50417553I-33J1599997D01*
G01*
X97337023Y-84358673D02*
X104814702Y-84358673D01*
X65014702Y-38988110D02*
X84614702Y-38988110D01*
X97337023Y-87558673D02*
G75*
G02*
X97337023Y-84358727I77J1599973D01*
G01*
X104814702Y-84358673D02*
X104814702Y-53617547D01*
X52292382Y-50417547D02*
G75*
G02*
X52288383Y-53617548I-2J-1600003D01*
G01*
X97337023Y-50417547D02*
X104814702Y-50417547D01*
X65014702Y-38988110D02*
X44814702Y-38988110D01*
X104814702Y-53617547D02*
X97337023Y-53617547D01*
X44814702Y-38988110D02*
X44814702Y-50417547D01*
X52288383Y-53617547D02*
X44814702Y-53617547D01*
X104814702Y-50417547D02*
X104814702Y-38988110D01*
X44814702Y-53617547D02*
X44814702Y-84358673D01*
X44814702Y-84358673D02*
X52292382Y-84358673D01*
X52292381Y-87558673D02*
X44814702Y-87558673D01*
X104814702Y-38988110D02*
X84614702Y-38988110D01*
X44814702Y-50417547D02*
X52292382Y-50417547D01*
X52292382Y-84358673D02*
G75*
G02*
X52292381Y-87558667I78J-1599997D01*
G01*
X104814702Y-98988110D02*
X104814702Y-87558673D01*
M02*
