%TF.GenerationSoftware,KiCad,Pcbnew,9.0.6*%
%TF.CreationDate,2026-03-31T11:46:01+01:00*%
%TF.ProjectId,Cro_,43726fed-2e6b-4696-9361-645f70636258,rev?*%
%TF.SameCoordinates,Original*%
%TF.FileFunction,Legend,Bot*%
%TF.FilePolarity,Positive*%
%FSLAX46Y46*%
G04 Gerber Fmt 4.6, Leading zero omitted, Abs format (unit mm)*
G04 Created by KiCad (PCBNEW 9.0.6) date 2026-03-31 11:46:01*
%MOMM*%
%LPD*%
G01*
G04 APERTURE LIST*
%ADD10C,0.100000*%
G04 APERTURE END LIST*
D10*
X70885024Y-93256265D02*
X70932643Y-93399122D01*
X70932643Y-93399122D02*
X70932643Y-93637217D01*
X70932643Y-93637217D02*
X70885024Y-93732455D01*
X70885024Y-93732455D02*
X70837404Y-93780074D01*
X70837404Y-93780074D02*
X70742166Y-93827693D01*
X70742166Y-93827693D02*
X70646928Y-93827693D01*
X70646928Y-93827693D02*
X70551690Y-93780074D01*
X70551690Y-93780074D02*
X70504071Y-93732455D01*
X70504071Y-93732455D02*
X70456452Y-93637217D01*
X70456452Y-93637217D02*
X70408833Y-93446741D01*
X70408833Y-93446741D02*
X70361214Y-93351503D01*
X70361214Y-93351503D02*
X70313595Y-93303884D01*
X70313595Y-93303884D02*
X70218357Y-93256265D01*
X70218357Y-93256265D02*
X70123119Y-93256265D01*
X70123119Y-93256265D02*
X70027881Y-93303884D01*
X70027881Y-93303884D02*
X69980262Y-93351503D01*
X69980262Y-93351503D02*
X69932643Y-93446741D01*
X69932643Y-93446741D02*
X69932643Y-93684836D01*
X69932643Y-93684836D02*
X69980262Y-93827693D01*
X69932643Y-94161027D02*
X70932643Y-94399122D01*
X70932643Y-94399122D02*
X70218357Y-94589598D01*
X70218357Y-94589598D02*
X70932643Y-94780074D01*
X70932643Y-94780074D02*
X69932643Y-95018170D01*
X70837404Y-95970550D02*
X70885024Y-95922931D01*
X70885024Y-95922931D02*
X70932643Y-95780074D01*
X70932643Y-95780074D02*
X70932643Y-95684836D01*
X70932643Y-95684836D02*
X70885024Y-95541979D01*
X70885024Y-95541979D02*
X70789785Y-95446741D01*
X70789785Y-95446741D02*
X70694547Y-95399122D01*
X70694547Y-95399122D02*
X70504071Y-95351503D01*
X70504071Y-95351503D02*
X70361214Y-95351503D01*
X70361214Y-95351503D02*
X70170738Y-95399122D01*
X70170738Y-95399122D02*
X70075500Y-95446741D01*
X70075500Y-95446741D02*
X69980262Y-95541979D01*
X69980262Y-95541979D02*
X69932643Y-95684836D01*
X69932643Y-95684836D02*
X69932643Y-95780074D01*
X69932643Y-95780074D02*
X69980262Y-95922931D01*
X69980262Y-95922931D02*
X70027881Y-95970550D01*
X70932643Y-96875312D02*
X70932643Y-96399122D01*
X70932643Y-96399122D02*
X69932643Y-96399122D01*
X70932643Y-97208646D02*
X69932643Y-97208646D01*
X70932643Y-97780074D02*
X70361214Y-97351503D01*
X69932643Y-97780074D02*
X70504071Y-97208646D01*
X72494968Y-93256265D02*
X72542587Y-93399122D01*
X72542587Y-93399122D02*
X72542587Y-93637217D01*
X72542587Y-93637217D02*
X72494968Y-93732455D01*
X72494968Y-93732455D02*
X72447348Y-93780074D01*
X72447348Y-93780074D02*
X72352110Y-93827693D01*
X72352110Y-93827693D02*
X72256872Y-93827693D01*
X72256872Y-93827693D02*
X72161634Y-93780074D01*
X72161634Y-93780074D02*
X72114015Y-93732455D01*
X72114015Y-93732455D02*
X72066396Y-93637217D01*
X72066396Y-93637217D02*
X72018777Y-93446741D01*
X72018777Y-93446741D02*
X71971158Y-93351503D01*
X71971158Y-93351503D02*
X71923539Y-93303884D01*
X71923539Y-93303884D02*
X71828301Y-93256265D01*
X71828301Y-93256265D02*
X71733063Y-93256265D01*
X71733063Y-93256265D02*
X71637825Y-93303884D01*
X71637825Y-93303884D02*
X71590206Y-93351503D01*
X71590206Y-93351503D02*
X71542587Y-93446741D01*
X71542587Y-93446741D02*
X71542587Y-93684836D01*
X71542587Y-93684836D02*
X71590206Y-93827693D01*
X71542587Y-94161027D02*
X72542587Y-94399122D01*
X72542587Y-94399122D02*
X71828301Y-94589598D01*
X71828301Y-94589598D02*
X72542587Y-94780074D01*
X72542587Y-94780074D02*
X71542587Y-95018170D01*
X72542587Y-95399122D02*
X71542587Y-95399122D01*
X71542587Y-95399122D02*
X71542587Y-95637217D01*
X71542587Y-95637217D02*
X71590206Y-95780074D01*
X71590206Y-95780074D02*
X71685444Y-95875312D01*
X71685444Y-95875312D02*
X71780682Y-95922931D01*
X71780682Y-95922931D02*
X71971158Y-95970550D01*
X71971158Y-95970550D02*
X72114015Y-95970550D01*
X72114015Y-95970550D02*
X72304491Y-95922931D01*
X72304491Y-95922931D02*
X72399729Y-95875312D01*
X72399729Y-95875312D02*
X72494968Y-95780074D01*
X72494968Y-95780074D02*
X72542587Y-95637217D01*
X72542587Y-95637217D02*
X72542587Y-95399122D01*
X72542587Y-96399122D02*
X71542587Y-96399122D01*
X71542587Y-97065788D02*
X71542587Y-97256264D01*
X71542587Y-97256264D02*
X71590206Y-97351502D01*
X71590206Y-97351502D02*
X71685444Y-97446740D01*
X71685444Y-97446740D02*
X71875920Y-97494359D01*
X71875920Y-97494359D02*
X72209253Y-97494359D01*
X72209253Y-97494359D02*
X72399729Y-97446740D01*
X72399729Y-97446740D02*
X72494968Y-97351502D01*
X72494968Y-97351502D02*
X72542587Y-97256264D01*
X72542587Y-97256264D02*
X72542587Y-97065788D01*
X72542587Y-97065788D02*
X72494968Y-96970550D01*
X72494968Y-96970550D02*
X72399729Y-96875312D01*
X72399729Y-96875312D02*
X72209253Y-96827693D01*
X72209253Y-96827693D02*
X71875920Y-96827693D01*
X71875920Y-96827693D02*
X71685444Y-96875312D01*
X71685444Y-96875312D02*
X71590206Y-96970550D01*
X71590206Y-96970550D02*
X71542587Y-97065788D01*
X74152531Y-93303884D02*
X73152531Y-93303884D01*
X73152531Y-93303884D02*
X74152531Y-93875312D01*
X74152531Y-93875312D02*
X73152531Y-93875312D01*
X74152531Y-94922931D02*
X73676340Y-94589598D01*
X74152531Y-94351503D02*
X73152531Y-94351503D01*
X73152531Y-94351503D02*
X73152531Y-94732455D01*
X73152531Y-94732455D02*
X73200150Y-94827693D01*
X73200150Y-94827693D02*
X73247769Y-94875312D01*
X73247769Y-94875312D02*
X73343007Y-94922931D01*
X73343007Y-94922931D02*
X73485864Y-94922931D01*
X73485864Y-94922931D02*
X73581102Y-94875312D01*
X73581102Y-94875312D02*
X73628721Y-94827693D01*
X73628721Y-94827693D02*
X73676340Y-94732455D01*
X73676340Y-94732455D02*
X73676340Y-94351503D01*
X74104912Y-95303884D02*
X74152531Y-95446741D01*
X74152531Y-95446741D02*
X74152531Y-95684836D01*
X74152531Y-95684836D02*
X74104912Y-95780074D01*
X74104912Y-95780074D02*
X74057292Y-95827693D01*
X74057292Y-95827693D02*
X73962054Y-95875312D01*
X73962054Y-95875312D02*
X73866816Y-95875312D01*
X73866816Y-95875312D02*
X73771578Y-95827693D01*
X73771578Y-95827693D02*
X73723959Y-95780074D01*
X73723959Y-95780074D02*
X73676340Y-95684836D01*
X73676340Y-95684836D02*
X73628721Y-95494360D01*
X73628721Y-95494360D02*
X73581102Y-95399122D01*
X73581102Y-95399122D02*
X73533483Y-95351503D01*
X73533483Y-95351503D02*
X73438245Y-95303884D01*
X73438245Y-95303884D02*
X73343007Y-95303884D01*
X73343007Y-95303884D02*
X73247769Y-95351503D01*
X73247769Y-95351503D02*
X73200150Y-95399122D01*
X73200150Y-95399122D02*
X73152531Y-95494360D01*
X73152531Y-95494360D02*
X73152531Y-95732455D01*
X73152531Y-95732455D02*
X73200150Y-95875312D01*
X73152531Y-96161027D02*
X73152531Y-96732455D01*
X74152531Y-96446741D02*
X73152531Y-96446741D01*
X74762475Y-93208646D02*
X74762475Y-93827693D01*
X74762475Y-93827693D02*
X75143427Y-93494360D01*
X75143427Y-93494360D02*
X75143427Y-93637217D01*
X75143427Y-93637217D02*
X75191046Y-93732455D01*
X75191046Y-93732455D02*
X75238665Y-93780074D01*
X75238665Y-93780074D02*
X75333903Y-93827693D01*
X75333903Y-93827693D02*
X75571998Y-93827693D01*
X75571998Y-93827693D02*
X75667236Y-93780074D01*
X75667236Y-93780074D02*
X75714856Y-93732455D01*
X75714856Y-93732455D02*
X75762475Y-93637217D01*
X75762475Y-93637217D02*
X75762475Y-93351503D01*
X75762475Y-93351503D02*
X75714856Y-93256265D01*
X75714856Y-93256265D02*
X75667236Y-93208646D01*
X75095808Y-94161027D02*
X75762475Y-94399122D01*
X75762475Y-94399122D02*
X75095808Y-94637217D01*
X74762475Y-94922932D02*
X74762475Y-95541979D01*
X74762475Y-95541979D02*
X75143427Y-95208646D01*
X75143427Y-95208646D02*
X75143427Y-95351503D01*
X75143427Y-95351503D02*
X75191046Y-95446741D01*
X75191046Y-95446741D02*
X75238665Y-95494360D01*
X75238665Y-95494360D02*
X75333903Y-95541979D01*
X75333903Y-95541979D02*
X75571998Y-95541979D01*
X75571998Y-95541979D02*
X75667236Y-95494360D01*
X75667236Y-95494360D02*
X75714856Y-95446741D01*
X75714856Y-95446741D02*
X75762475Y-95351503D01*
X75762475Y-95351503D02*
X75762475Y-95065789D01*
X75762475Y-95065789D02*
X75714856Y-94970551D01*
X75714856Y-94970551D02*
X75667236Y-94922932D01*
X76420038Y-93827693D02*
X76372419Y-93732455D01*
X76372419Y-93732455D02*
X76372419Y-93589598D01*
X76372419Y-93589598D02*
X76420038Y-93446741D01*
X76420038Y-93446741D02*
X76515276Y-93351503D01*
X76515276Y-93351503D02*
X76610514Y-93303884D01*
X76610514Y-93303884D02*
X76800990Y-93256265D01*
X76800990Y-93256265D02*
X76943847Y-93256265D01*
X76943847Y-93256265D02*
X77134323Y-93303884D01*
X77134323Y-93303884D02*
X77229561Y-93351503D01*
X77229561Y-93351503D02*
X77324800Y-93446741D01*
X77324800Y-93446741D02*
X77372419Y-93589598D01*
X77372419Y-93589598D02*
X77372419Y-93684836D01*
X77372419Y-93684836D02*
X77324800Y-93827693D01*
X77324800Y-93827693D02*
X77277180Y-93875312D01*
X77277180Y-93875312D02*
X76943847Y-93875312D01*
X76943847Y-93875312D02*
X76943847Y-93684836D01*
X77372419Y-94303884D02*
X76372419Y-94303884D01*
X76372419Y-94303884D02*
X77372419Y-94875312D01*
X77372419Y-94875312D02*
X76372419Y-94875312D01*
X77372419Y-95351503D02*
X76372419Y-95351503D01*
X76372419Y-95351503D02*
X76372419Y-95589598D01*
X76372419Y-95589598D02*
X76420038Y-95732455D01*
X76420038Y-95732455D02*
X76515276Y-95827693D01*
X76515276Y-95827693D02*
X76610514Y-95875312D01*
X76610514Y-95875312D02*
X76800990Y-95922931D01*
X76800990Y-95922931D02*
X76943847Y-95922931D01*
X76943847Y-95922931D02*
X77134323Y-95875312D01*
X77134323Y-95875312D02*
X77229561Y-95827693D01*
X77229561Y-95827693D02*
X77324800Y-95732455D01*
X77324800Y-95732455D02*
X77372419Y-95589598D01*
X77372419Y-95589598D02*
X77372419Y-95351503D01*
M02*
