%TF.GenerationSoftware,KiCad,Pcbnew,9.0.6*%
%TF.CreationDate,2026-03-06T12:48:50+00:00*%
%TF.ProjectId,Cro_,43726fed-2e6b-4696-9361-645f70636258,rev?*%
%TF.SameCoordinates,Original*%
%TF.FileFunction,Copper,L6,Bot*%
%TF.FilePolarity,Positive*%
%FSLAX46Y46*%
G04 Gerber Fmt 4.6, Leading zero omitted, Abs format (unit mm)*
G04 Created by KiCad (PCBNEW 9.0.6) date 2026-03-06 12:48:50*
%MOMM*%
%LPD*%
G01*
G04 APERTURE LIST*
%TA.AperFunction,Conductor*%
%ADD10C,0.200000*%
%TD*%
%TA.AperFunction,ComponentPad*%
%ADD11C,1.408000*%
%TD*%
%TA.AperFunction,ComponentPad*%
%ADD12R,1.524000X1.524000*%
%TD*%
%TA.AperFunction,ComponentPad*%
%ADD13C,1.524000*%
%TD*%
%TA.AperFunction,ComponentPad*%
%ADD14R,2.300000X2.300000*%
%TD*%
%TA.AperFunction,ComponentPad*%
%ADD15C,2.300000*%
%TD*%
%TA.AperFunction,ViaPad*%
%ADD16C,0.600000*%
%TD*%
G04 APERTURE END LIST*
D10*
%TO.N,SPI_MISO*%
X67081000Y-72169000D02*
X66081000Y-72169000D01*
X66581000Y-71669000D01*
X67081000Y-72169000D01*
%TA.AperFunction,Conductor*%
G36*
X67081000Y-72169000D02*
G01*
X66081000Y-72169000D01*
X66581000Y-71669000D01*
X67081000Y-72169000D01*
G37*
%TD.AperFunction*%
%TD*%
D11*
%TO.P,LS1,N*%
%TO.N,Net-(D3-A)*%
X64750000Y-91500000D03*
%TO.P,LS1,P*%
%TO.N,VBAT*%
X58250000Y-91500000D03*
%TD*%
D12*
%TO.P,J3,01,01*%
%TO.N,GND*%
X98607247Y-57559000D03*
D13*
%TO.P,J3,02,02*%
X96067247Y-57559000D03*
%TO.P,J3,03,03*%
%TO.N,unconnected-(J3-Pad03)*%
X98607247Y-60099000D03*
%TO.P,J3,04,04*%
X96067247Y-60099000D03*
%TO.P,J3,05,05*%
X98607247Y-62639000D03*
%TO.P,J3,06,06*%
X96067247Y-62639000D03*
%TO.P,J3,07,07*%
X98607247Y-65179000D03*
%TO.P,J3,08,08*%
X96067247Y-65179000D03*
%TO.P,J3,09,09*%
%TO.N,GND*%
X98607247Y-67719000D03*
%TO.P,J3,10,10*%
X96067247Y-67719000D03*
%TO.P,J3,11,11*%
%TO.N,5VLOGIC*%
X98607247Y-70259000D03*
%TO.P,J3,12,12*%
X96067247Y-70259000D03*
%TO.P,J3,13,13*%
%TO.N,GND*%
X98607247Y-72799000D03*
%TO.P,J3,14,14*%
X96067247Y-72799000D03*
%TO.P,J3,15,15*%
X98607247Y-75339000D03*
%TO.P,J3,16,16*%
%TO.N,CAN_out+*%
X96067247Y-75339000D03*
%TO.P,J3,17,17*%
%TO.N,GND*%
X98607247Y-77879000D03*
%TO.P,J3,18,18*%
%TO.N,CAN_out-*%
X96067247Y-77879000D03*
%TO.P,J3,19,19*%
%TO.N,GND*%
X98607247Y-80419000D03*
%TO.P,J3,20,20*%
X96067247Y-80419000D03*
%TD*%
D14*
%TO.P,J2,1,1*%
%TO.N,Net-(Q1-D)*%
X72724334Y-45923644D03*
D15*
%TO.P,J2,2,2*%
X76924334Y-45923644D03*
%TO.P,J2,3,3*%
%TO.N,GND*%
X72724334Y-51423644D03*
%TO.P,J2,4,4*%
X76924334Y-51423644D03*
%TD*%
D16*
%TO.N,3.3V*%
X69857008Y-65422429D03*
X64831000Y-67669000D03*
X76058299Y-71396299D03*
X68354996Y-72510086D03*
X70880960Y-70410763D03*
X75081000Y-84919000D03*
X77937500Y-61437500D03*
X68000000Y-67500000D03*
X69981000Y-78669000D03*
X92266493Y-68397175D03*
X69081000Y-59919000D03*
X86331000Y-79169000D03*
%TO.N,GND*%
X81750000Y-59750000D03*
X81750000Y-68750000D03*
X54223792Y-50340039D03*
X69581000Y-77919000D03*
X78581000Y-78419000D03*
X65743208Y-69613290D03*
X84869422Y-62136182D03*
X70501635Y-74730254D03*
X78500000Y-73500000D03*
X50853836Y-83487525D03*
X78750000Y-57750000D03*
X79750000Y-68750000D03*
X80750000Y-64750000D03*
X54145899Y-87786822D03*
X93831000Y-69669000D03*
X52614363Y-54487862D03*
X54251179Y-72582340D03*
X80750000Y-59750000D03*
X79750000Y-60750000D03*
X78750000Y-67750000D03*
X81750000Y-62750000D03*
X73723983Y-70339663D03*
X80750000Y-70750000D03*
X66000000Y-59500000D03*
X71000000Y-59648351D03*
X81750000Y-64750000D03*
X59433338Y-72317560D03*
X93208556Y-54661541D03*
X52517522Y-83435535D03*
X80750000Y-67750000D03*
X78750000Y-63750000D03*
X71250000Y-85250000D03*
X89750000Y-50250000D03*
X62331000Y-75169000D03*
X78250000Y-93250000D03*
X73081000Y-83419000D03*
X95535487Y-50203333D03*
X80750000Y-69750000D03*
X66726289Y-84364132D03*
X95457594Y-53650116D03*
X54864363Y-52072045D03*
X79750000Y-61750000D03*
X78750000Y-58750000D03*
X79750000Y-67750000D03*
X70831000Y-62669000D03*
X52507535Y-49572045D03*
X85948556Y-66411541D03*
X79750000Y-65750000D03*
X88250000Y-78750000D03*
X92016493Y-67147175D03*
X61500000Y-90000000D03*
X80750000Y-68750000D03*
X50952270Y-88448916D03*
X97173851Y-88418110D03*
X80750000Y-61750000D03*
X64831000Y-73169000D03*
X78750000Y-64750000D03*
X79750000Y-66750000D03*
X50864363Y-49572045D03*
X97067023Y-49502293D03*
X81750000Y-65750000D03*
X68917473Y-67757595D03*
X93581000Y-78669000D03*
X84869422Y-60636182D03*
X85948556Y-65411541D03*
X74171951Y-67399764D03*
X79750000Y-62750000D03*
X85909922Y-67447851D03*
X80750000Y-60750000D03*
X77000000Y-66000000D03*
X81750000Y-69750000D03*
X84869422Y-59136182D03*
X80750000Y-65750000D03*
X98729116Y-83541239D03*
X93831000Y-74169000D03*
X66365213Y-77519000D03*
X80750000Y-56750000D03*
X79750000Y-64750000D03*
X83000000Y-78000000D03*
X79750000Y-55750000D03*
X78750000Y-56750000D03*
X79750000Y-70750000D03*
X71234656Y-78305442D03*
X59000000Y-51750000D03*
X91266493Y-65897175D03*
X79750000Y-56750000D03*
X82035679Y-97254627D03*
X86615803Y-54295449D03*
X97173851Y-54418110D03*
X81750000Y-57750000D03*
X71787937Y-63814074D03*
X79750000Y-58750000D03*
X74750729Y-59733094D03*
X78750000Y-69750000D03*
X81750000Y-60750000D03*
X95535487Y-84203333D03*
X66787300Y-65379301D03*
X80750000Y-63750000D03*
X79750000Y-63750000D03*
X64881003Y-81169000D03*
X54223792Y-84340039D03*
X80250000Y-96250000D03*
X80750000Y-62750000D03*
X85948556Y-68411541D03*
X90831000Y-76169000D03*
X89064714Y-70292404D03*
X80750000Y-58750000D03*
X95457594Y-87650116D03*
X80750000Y-55750000D03*
X62831000Y-65419000D03*
X97067023Y-83502293D03*
X85948556Y-69411541D03*
X67331000Y-71500000D03*
X74931000Y-76919000D03*
X88000000Y-51500000D03*
X80750000Y-66750000D03*
X81750000Y-58750000D03*
X52614363Y-88487862D03*
X86787995Y-56220765D03*
X78750000Y-55750000D03*
X81750000Y-55750000D03*
X81750000Y-63750000D03*
X50952270Y-54448916D03*
X63331000Y-80169000D03*
X62331000Y-77669000D03*
X79750000Y-59750000D03*
X84869422Y-57636182D03*
X80750000Y-57750000D03*
X78750000Y-61750000D03*
X78750000Y-66750000D03*
X94817023Y-51918110D03*
X87972744Y-74277541D03*
X98817023Y-88418110D03*
X78750000Y-70750000D03*
X71250000Y-88750000D03*
X81750000Y-56750000D03*
X69250000Y-96500000D03*
X78750000Y-60750000D03*
X83014935Y-75556935D03*
X54145899Y-53786822D03*
X90782868Y-57102580D03*
X86680375Y-57404589D03*
X81750000Y-61750000D03*
X81750000Y-66750000D03*
X68287300Y-62169001D03*
X79750000Y-57750000D03*
X79750000Y-69750000D03*
X72208745Y-74500000D03*
X98817023Y-54418110D03*
X70081000Y-70419000D03*
X78750000Y-59750000D03*
X98729116Y-49541239D03*
X78750000Y-65750000D03*
X78750000Y-62750000D03*
X67831000Y-80919000D03*
X78750000Y-68750000D03*
X76230656Y-58649667D03*
X84500000Y-76000000D03*
X81750000Y-70750000D03*
X54864363Y-86072045D03*
X94817023Y-85918110D03*
X73901485Y-59763547D03*
X81750000Y-67750000D03*
%TO.N,5VLOGIC*%
X90500000Y-96000000D03*
X83831000Y-75250000D03*
X88625000Y-52875000D03*
%TO.N,VBAT*%
X88500000Y-47549606D03*
%TO.N,Flash_CS*%
X57581000Y-68669000D03*
X74831000Y-79719003D03*
%TO.N,SPI_MISO*%
X70831000Y-79419000D03*
X74246754Y-64709100D03*
X64831000Y-72169000D03*
X70831000Y-64419000D03*
%TO.N,SPI_MOSI*%
X57581000Y-70654000D03*
X70831000Y-82919000D03*
X68331000Y-70991140D03*
X71831000Y-79875703D03*
X72449439Y-64738501D03*
%TO.N,NRST*%
X74795492Y-91500000D03*
X64081000Y-81169000D03*
%TO.N,BME680_CS*%
X74831000Y-78919000D03*
X69081000Y-70419000D03*
%TO.N,SWDIO*%
X74750000Y-76000000D03*
X73525981Y-91624511D03*
%TO.N,ACCELEROMETER_CS*%
X76331000Y-67539901D03*
X74581000Y-77919000D03*
%TO.N,SPI_CS_MS5*%
X74079111Y-74237842D03*
X72990421Y-59846709D03*
%TO.N,SPICLK*%
X76750000Y-64750000D03*
X72931000Y-67250000D03*
X66081000Y-61919000D03*
X69831000Y-79669000D03*
X65027000Y-71000000D03*
%TO.N,IMU_CS*%
X73919621Y-79929467D03*
X64831000Y-61669000D03*
%TO.N,SWCLK*%
X74500000Y-75000000D03*
X72250000Y-91500000D03*
%TO.N,/power/vin*%
X91369422Y-60786183D03*
X90869422Y-56136182D03*
X89541879Y-57147175D03*
X89541879Y-56339455D03*
%TO.N,Net-(U6-VCC)*%
X91732791Y-56772814D03*
X85869422Y-61136182D03*
%TD*%
D10*
%TO.N,5VLOGIC*%
X83831000Y-89331000D02*
X90500000Y-96000000D01*
X86681000Y-74319000D02*
X87750000Y-73250000D01*
X83831000Y-75250000D02*
X83831000Y-89331000D01*
X95826247Y-70500000D02*
X98366247Y-70500000D01*
X87750000Y-73250000D02*
X93000000Y-73250000D01*
X93000000Y-73250000D02*
X95673753Y-70576247D01*
X95750000Y-70576247D02*
X95826247Y-70500000D01*
X84762000Y-74319000D02*
X86681000Y-74319000D01*
X83831000Y-75250000D02*
X84762000Y-74319000D01*
X95673753Y-70576247D02*
X95750000Y-70576247D01*
%TO.N,Flash_CS*%
X65772181Y-77610181D02*
X59500000Y-71338000D01*
X71831680Y-81169000D02*
X69831000Y-81169000D01*
X74168564Y-79328467D02*
X73670678Y-79328467D01*
X73318621Y-79680524D02*
X73318621Y-79681379D01*
X66622124Y-78460124D02*
X66616443Y-78465805D01*
X73670678Y-79328467D02*
X73318621Y-79680524D01*
X72079943Y-80920737D02*
X71831680Y-81169000D01*
X66118557Y-78465805D02*
X65766500Y-78113748D01*
X74520621Y-79681937D02*
X74520621Y-79680524D01*
X72079943Y-80920057D02*
X72079943Y-80920737D01*
X74557687Y-79719003D02*
X74520621Y-79681937D01*
X66616443Y-78465805D02*
X66118557Y-78465805D01*
X59500000Y-71338000D02*
X59500000Y-70588000D01*
X69831000Y-81169000D02*
X68831000Y-80169000D01*
X68831000Y-80169000D02*
X68331000Y-80169000D01*
X59500000Y-70588000D02*
X57581000Y-68669000D01*
X68331000Y-80169000D02*
X66622124Y-78460124D01*
X65766500Y-77615862D02*
X65772181Y-77610181D01*
X74831000Y-79719003D02*
X74557687Y-79719003D01*
X73318621Y-79681379D02*
X72079943Y-80920057D01*
X74520621Y-79680524D02*
X74168564Y-79328467D01*
X65766500Y-78113748D02*
X65766500Y-77615862D01*
%TO.N,SPI_MISO*%
X70831000Y-66919000D02*
X70831000Y-64419000D01*
X66581000Y-71669000D02*
X66581000Y-71169000D01*
X64831000Y-72169000D02*
X67081000Y-72169000D01*
X70581000Y-75669000D02*
X67081000Y-72169000D01*
X70831000Y-79419000D02*
X70581000Y-79169000D01*
X67081000Y-72169000D02*
X66581000Y-71669000D01*
X66581000Y-71169000D02*
X70831000Y-66919000D01*
X70581000Y-79169000D02*
X70581000Y-75669000D01*
%TO.N,SPI_MOSI*%
X57581000Y-71669000D02*
X68831000Y-82919000D01*
X72581000Y-64802032D02*
X72517469Y-64738501D01*
X71831000Y-78559041D02*
X71831000Y-79875703D01*
X71835656Y-78554385D02*
X71831000Y-78559041D01*
X72449439Y-64738501D02*
X72449439Y-64933593D01*
X71232000Y-66151032D02*
X71232000Y-67085100D01*
X68831000Y-82919000D02*
X70831000Y-82919000D01*
X68331000Y-70991140D02*
X68331000Y-71181981D01*
X71232000Y-67085100D02*
X68331000Y-69986100D01*
X72517469Y-64738501D02*
X72449439Y-64738501D01*
X71835656Y-78056499D02*
X71835656Y-78554385D01*
X68331000Y-71500000D02*
X71831000Y-75000000D01*
X68331000Y-70870801D02*
X68451339Y-70991140D01*
X71831000Y-78051843D02*
X71835656Y-78056499D01*
X57581000Y-70654000D02*
X57581000Y-71669000D01*
X71831000Y-75000000D02*
X71831000Y-78051843D01*
X68331000Y-70991140D02*
X68331000Y-71500000D01*
X72449439Y-64933593D02*
X71232000Y-66151032D01*
X68331000Y-69986100D02*
X68331000Y-70870801D01*
%TO.N,BME680_CS*%
X73581000Y-77768943D02*
X73581000Y-74919000D01*
X73581000Y-74919000D02*
X69081000Y-70419000D01*
X74731057Y-78919000D02*
X73581000Y-77768943D01*
%TO.N,ACCELEROMETER_CS*%
X77081000Y-68289901D02*
X77081000Y-76419000D01*
X76331000Y-67539901D02*
X77081000Y-68289901D01*
X77081000Y-76419000D02*
X75581000Y-77919000D01*
X75581000Y-77919000D02*
X74581000Y-77919000D01*
%TO.N,SPI_CS_MS5*%
X74081000Y-72669000D02*
X72331000Y-70919000D01*
X72331000Y-66169000D02*
X73097538Y-65402462D01*
X72760533Y-60076597D02*
X72990421Y-59846709D01*
X74079111Y-74237842D02*
X74079111Y-74170889D01*
X73097538Y-65402462D02*
X73097538Y-63979244D01*
X74081000Y-74169000D02*
X74081000Y-72669000D01*
X73097538Y-63979244D02*
X72760533Y-63642239D01*
X72760533Y-63642239D02*
X72760533Y-60076597D01*
X74079111Y-74170889D02*
X74081000Y-74169000D01*
X72331000Y-70919000D02*
X72331000Y-66169000D01*
%TO.N,SPICLK*%
X77000000Y-60483752D02*
X75516248Y-59000000D01*
X76750000Y-64750000D02*
X75500000Y-66000000D01*
X72931000Y-67069000D02*
X72931000Y-67250000D01*
X75516248Y-59000000D02*
X72866854Y-59000000D01*
X66081000Y-61419000D02*
X66081000Y-61919000D01*
X63500000Y-73338000D02*
X69831000Y-79669000D01*
X77000000Y-64500000D02*
X77000000Y-60483752D01*
X76750000Y-64750000D02*
X77000000Y-64500000D01*
X75500000Y-66000000D02*
X74000000Y-66000000D01*
X65027000Y-71000000D02*
X64657892Y-70630892D01*
X66581000Y-60919000D02*
X66081000Y-61419000D01*
X64119108Y-70630892D02*
X63500000Y-71250000D01*
X74000000Y-66000000D02*
X72931000Y-67069000D01*
X63500000Y-71250000D02*
X63500000Y-73338000D01*
X70947854Y-60919000D02*
X66581000Y-60919000D01*
X72866854Y-59000000D02*
X70947854Y-60919000D01*
X64657892Y-70630892D02*
X64119108Y-70630892D01*
%TO.N,IMU_CS*%
X64831000Y-83669000D02*
X56081000Y-74919000D01*
X56081000Y-68919000D02*
X63331000Y-61669000D01*
X71331000Y-83669000D02*
X64831000Y-83669000D01*
X63331000Y-61669000D02*
X64831000Y-61669000D01*
X73919621Y-79929467D02*
X72081000Y-81768088D01*
X72081000Y-82919000D02*
X71331000Y-83669000D01*
X72081000Y-81768088D02*
X72081000Y-82919000D01*
X56081000Y-74919000D02*
X56081000Y-68919000D01*
%TO.N,/power/vin*%
X92869422Y-59490183D02*
X92869422Y-56340182D01*
X91369422Y-60990183D02*
X92869422Y-59490183D01*
X92369422Y-55840182D02*
X91369422Y-55840182D01*
X92869422Y-56340182D02*
X92369422Y-55840182D01*
X91369422Y-55840182D02*
X90869422Y-56340182D01*
%TO.N,Net-(U6-VCC)*%
X91732791Y-56976814D02*
X91732791Y-57205186D01*
X91732791Y-57205186D02*
X87597795Y-61340182D01*
X87597795Y-61340182D02*
X85869422Y-61340182D01*
%TD*%
%TA.AperFunction,Conductor*%
%TO.N,GND*%
G36*
X98133866Y-78075081D02*
G01*
X98200745Y-78190920D01*
X98295327Y-78285502D01*
X98411166Y-78352381D01*
X98471304Y-78368494D01*
X97908530Y-78931268D01*
X97908530Y-78931269D01*
X97945814Y-78958358D01*
X98103129Y-79038515D01*
X98153925Y-79086490D01*
X98170720Y-79154311D01*
X98148182Y-79220446D01*
X98103129Y-79259485D01*
X97945811Y-79339643D01*
X97908530Y-79366729D01*
X97908529Y-79366730D01*
X98471305Y-79929504D01*
X98411166Y-79945619D01*
X98295327Y-80012498D01*
X98200745Y-80107080D01*
X98133866Y-80222919D01*
X98117751Y-80283057D01*
X97554977Y-79720282D01*
X97554976Y-79720283D01*
X97527890Y-79757564D01*
X97447732Y-79914882D01*
X97399757Y-79965678D01*
X97331936Y-79982473D01*
X97265801Y-79959935D01*
X97226762Y-79914882D01*
X97146605Y-79757567D01*
X97119515Y-79720283D01*
X96556741Y-80283057D01*
X96540628Y-80222919D01*
X96473749Y-80107080D01*
X96379167Y-80012498D01*
X96263328Y-79945619D01*
X96203189Y-79929504D01*
X96765963Y-79366731D01*
X96765962Y-79366730D01*
X96728679Y-79339641D01*
X96571915Y-79259765D01*
X96521119Y-79211790D01*
X96504324Y-79143969D01*
X96526862Y-79077834D01*
X96571914Y-79038796D01*
X96728941Y-78958787D01*
X96889711Y-78841981D01*
X97030228Y-78701464D01*
X97147034Y-78540694D01*
X97227043Y-78383667D01*
X97275016Y-78332872D01*
X97342837Y-78316077D01*
X97408972Y-78338614D01*
X97448012Y-78383668D01*
X97527888Y-78540432D01*
X97554977Y-78577715D01*
X98117751Y-78014941D01*
X98133866Y-78075081D01*
G37*
%TD.AperFunction*%
%TA.AperFunction,Conductor*%
G36*
X98133866Y-75535081D02*
G01*
X98200745Y-75650920D01*
X98295327Y-75745502D01*
X98411166Y-75812381D01*
X98471304Y-75828494D01*
X97908530Y-76391268D01*
X97908530Y-76391269D01*
X97945814Y-76418358D01*
X98103129Y-76498515D01*
X98153925Y-76546490D01*
X98170720Y-76614311D01*
X98148182Y-76680446D01*
X98103129Y-76719485D01*
X97945811Y-76799643D01*
X97908530Y-76826729D01*
X97908529Y-76826730D01*
X98471305Y-77389504D01*
X98411166Y-77405619D01*
X98295327Y-77472498D01*
X98200745Y-77567080D01*
X98133866Y-77682919D01*
X98117751Y-77743057D01*
X97554977Y-77180282D01*
X97554976Y-77180283D01*
X97527888Y-77217566D01*
X97448011Y-77374332D01*
X97400037Y-77425127D01*
X97332216Y-77441922D01*
X97266081Y-77419384D01*
X97227043Y-77374332D01*
X97147034Y-77217306D01*
X97030228Y-77056536D01*
X96889711Y-76916019D01*
X96728941Y-76799213D01*
X96572465Y-76719484D01*
X96521670Y-76671510D01*
X96504875Y-76603689D01*
X96527412Y-76537554D01*
X96572465Y-76498515D01*
X96728941Y-76418787D01*
X96889711Y-76301981D01*
X97030228Y-76161464D01*
X97147034Y-76000694D01*
X97227043Y-75843667D01*
X97275016Y-75792872D01*
X97342837Y-75776077D01*
X97408972Y-75798614D01*
X97448012Y-75843668D01*
X97527888Y-76000432D01*
X97554977Y-76037715D01*
X98117751Y-75474941D01*
X98133866Y-75535081D01*
G37*
%TD.AperFunction*%
%TA.AperFunction,Conductor*%
G36*
X98133866Y-72995081D02*
G01*
X98200745Y-73110920D01*
X98295327Y-73205502D01*
X98411166Y-73272381D01*
X98471304Y-73288494D01*
X97908530Y-73851268D01*
X97908530Y-73851269D01*
X97945814Y-73878358D01*
X98103129Y-73958515D01*
X98153925Y-74006490D01*
X98170720Y-74074311D01*
X98148182Y-74140446D01*
X98103129Y-74179485D01*
X97945811Y-74259643D01*
X97908530Y-74286729D01*
X97908529Y-74286730D01*
X98471305Y-74849504D01*
X98411166Y-74865619D01*
X98295327Y-74932498D01*
X98200745Y-75027080D01*
X98133866Y-75142919D01*
X98117751Y-75203057D01*
X97554977Y-74640282D01*
X97554976Y-74640283D01*
X97527888Y-74677566D01*
X97448011Y-74834332D01*
X97400037Y-74885127D01*
X97332216Y-74901922D01*
X97266081Y-74879384D01*
X97227043Y-74834332D01*
X97147034Y-74677306D01*
X97030228Y-74516536D01*
X96889711Y-74376019D01*
X96728941Y-74259213D01*
X96571914Y-74179203D01*
X96521119Y-74131229D01*
X96504324Y-74063408D01*
X96526861Y-73997273D01*
X96571916Y-73958234D01*
X96728669Y-73878364D01*
X96765963Y-73851268D01*
X96203189Y-73288494D01*
X96263328Y-73272381D01*
X96379167Y-73205502D01*
X96473749Y-73110920D01*
X96540628Y-72995081D01*
X96556742Y-72934942D01*
X97119515Y-73497715D01*
X97146609Y-73460425D01*
X97226762Y-73303117D01*
X97274736Y-73252321D01*
X97342557Y-73235526D01*
X97408692Y-73258063D01*
X97447732Y-73303117D01*
X97527888Y-73460432D01*
X97554977Y-73497715D01*
X98117751Y-72934941D01*
X98133866Y-72995081D01*
G37*
%TD.AperFunction*%
%TA.AperFunction,Conductor*%
G36*
X97678979Y-71120185D02*
G01*
X97699621Y-71136819D01*
X97784783Y-71221981D01*
X97945553Y-71338787D01*
X98102579Y-71418796D01*
X98153374Y-71466769D01*
X98170169Y-71534590D01*
X98147632Y-71600725D01*
X98102579Y-71639764D01*
X97945813Y-71719641D01*
X97908530Y-71746729D01*
X97908529Y-71746730D01*
X98471305Y-72309504D01*
X98411166Y-72325619D01*
X98295327Y-72392498D01*
X98200745Y-72487080D01*
X98133866Y-72602919D01*
X98117751Y-72663057D01*
X97554977Y-72100282D01*
X97554976Y-72100283D01*
X97527890Y-72137564D01*
X97447732Y-72294882D01*
X97399757Y-72345678D01*
X97331936Y-72362473D01*
X97265801Y-72339935D01*
X97226762Y-72294882D01*
X97146605Y-72137567D01*
X97119515Y-72100283D01*
X96556741Y-72663057D01*
X96540628Y-72602919D01*
X96473749Y-72487080D01*
X96379167Y-72392498D01*
X96263328Y-72325619D01*
X96203187Y-72309504D01*
X96765962Y-71746730D01*
X96728679Y-71719641D01*
X96571915Y-71639765D01*
X96521119Y-71591790D01*
X96504324Y-71523969D01*
X96526862Y-71457834D01*
X96571914Y-71418796D01*
X96728941Y-71338787D01*
X96889711Y-71221981D01*
X96974873Y-71136819D01*
X97036196Y-71103334D01*
X97062554Y-71100500D01*
X97611940Y-71100500D01*
X97678979Y-71120185D01*
G37*
%TD.AperFunction*%
%TA.AperFunction,Conductor*%
G36*
X98133866Y-67915081D02*
G01*
X98200745Y-68030920D01*
X98295327Y-68125502D01*
X98411166Y-68192381D01*
X98471304Y-68208494D01*
X97908530Y-68771268D01*
X97908530Y-68771269D01*
X97945814Y-68798358D01*
X98102578Y-68878234D01*
X98153374Y-68926209D01*
X98170169Y-68994030D01*
X98147631Y-69060165D01*
X98102578Y-69099204D01*
X97945552Y-69179213D01*
X97784780Y-69296021D01*
X97644268Y-69436533D01*
X97527460Y-69597305D01*
X97447732Y-69753780D01*
X97399757Y-69804576D01*
X97331936Y-69821371D01*
X97265801Y-69798833D01*
X97226762Y-69753780D01*
X97200960Y-69703142D01*
X97147034Y-69597306D01*
X97030228Y-69436536D01*
X96889711Y-69296019D01*
X96728941Y-69179213D01*
X96571914Y-69099203D01*
X96521119Y-69051229D01*
X96504324Y-68983408D01*
X96526861Y-68917273D01*
X96571916Y-68878234D01*
X96728669Y-68798364D01*
X96765963Y-68771268D01*
X96203189Y-68208494D01*
X96263328Y-68192381D01*
X96379167Y-68125502D01*
X96473749Y-68030920D01*
X96540628Y-67915081D01*
X96556742Y-67854942D01*
X97119515Y-68417715D01*
X97146609Y-68380425D01*
X97226762Y-68223117D01*
X97274736Y-68172321D01*
X97342557Y-68155526D01*
X97408692Y-68178063D01*
X97447732Y-68223117D01*
X97527888Y-68380432D01*
X97554977Y-68417715D01*
X98117751Y-67854941D01*
X98133866Y-67915081D01*
G37*
%TD.AperFunction*%
%TA.AperFunction,Conductor*%
G36*
X97408693Y-65639165D02*
G01*
X97447731Y-65684218D01*
X97527460Y-65840694D01*
X97644266Y-66001464D01*
X97784783Y-66141981D01*
X97945553Y-66258787D01*
X98102579Y-66338796D01*
X98153374Y-66386769D01*
X98170169Y-66454590D01*
X98147632Y-66520725D01*
X98102579Y-66559764D01*
X97945813Y-66639641D01*
X97908530Y-66666729D01*
X97908529Y-66666730D01*
X98471305Y-67229504D01*
X98411166Y-67245619D01*
X98295327Y-67312498D01*
X98200745Y-67407080D01*
X98133866Y-67522919D01*
X98117751Y-67583057D01*
X97554977Y-67020282D01*
X97554976Y-67020283D01*
X97527890Y-67057564D01*
X97447732Y-67214882D01*
X97399757Y-67265678D01*
X97331936Y-67282473D01*
X97265801Y-67259935D01*
X97226762Y-67214882D01*
X97146605Y-67057567D01*
X97119515Y-67020283D01*
X96556741Y-67583057D01*
X96540628Y-67522919D01*
X96473749Y-67407080D01*
X96379167Y-67312498D01*
X96263328Y-67245619D01*
X96203189Y-67229504D01*
X96765963Y-66666731D01*
X96765962Y-66666730D01*
X96728679Y-66639641D01*
X96571915Y-66559765D01*
X96521119Y-66511790D01*
X96504324Y-66443969D01*
X96526862Y-66377834D01*
X96571914Y-66338796D01*
X96728941Y-66258787D01*
X96889711Y-66141981D01*
X97030228Y-66001464D01*
X97147034Y-65840694D01*
X97226762Y-65684218D01*
X97274737Y-65633423D01*
X97342558Y-65616628D01*
X97408693Y-65639165D01*
G37*
%TD.AperFunction*%
%TA.AperFunction,Conductor*%
G36*
X97119515Y-58257715D02*
G01*
X97120930Y-58255769D01*
X97176260Y-58213104D01*
X97245874Y-58207126D01*
X97307668Y-58239733D01*
X97342025Y-58300572D01*
X97345247Y-58328656D01*
X97345247Y-58368844D01*
X97351648Y-58428372D01*
X97351650Y-58428379D01*
X97401892Y-58563086D01*
X97401896Y-58563093D01*
X97488056Y-58678187D01*
X97488059Y-58678190D01*
X97603153Y-58764350D01*
X97603160Y-58764354D01*
X97737867Y-58814596D01*
X97737874Y-58814598D01*
X97797402Y-58820999D01*
X97797419Y-58821000D01*
X97836737Y-58821000D01*
X97903776Y-58840685D01*
X97949531Y-58893489D01*
X97959475Y-58962647D01*
X97930450Y-59026203D01*
X97909622Y-59045318D01*
X97784786Y-59136016D01*
X97784780Y-59136021D01*
X97644268Y-59276533D01*
X97527460Y-59437305D01*
X97447732Y-59593780D01*
X97399757Y-59644576D01*
X97331936Y-59661371D01*
X97265801Y-59638833D01*
X97226762Y-59593780D01*
X97147033Y-59437305D01*
X97030228Y-59276536D01*
X96889711Y-59136019D01*
X96728941Y-59019213D01*
X96571914Y-58939203D01*
X96521119Y-58891229D01*
X96504324Y-58823408D01*
X96526861Y-58757273D01*
X96571916Y-58718234D01*
X96728669Y-58638364D01*
X96765963Y-58611268D01*
X96203189Y-58048494D01*
X96263328Y-58032381D01*
X96379167Y-57965502D01*
X96473749Y-57870920D01*
X96540628Y-57755081D01*
X96556742Y-57694942D01*
X97119515Y-58257715D01*
G37*
%TD.AperFunction*%
%TA.AperFunction,Conductor*%
G36*
X56886703Y-71063726D02*
G01*
X56908602Y-71088548D01*
X56933349Y-71125584D01*
X56958217Y-71162802D01*
X56959602Y-71164874D01*
X56980480Y-71231551D01*
X56980500Y-71233765D01*
X56980500Y-71582330D01*
X56980499Y-71582348D01*
X56980499Y-71748054D01*
X56980498Y-71748054D01*
X57021424Y-71900789D01*
X57021425Y-71900790D01*
X57040380Y-71933620D01*
X57040381Y-71933621D01*
X57100477Y-72037712D01*
X57100481Y-72037717D01*
X57219349Y-72156585D01*
X57219355Y-72156590D01*
X67919583Y-82856819D01*
X67953068Y-82918142D01*
X67948084Y-82987834D01*
X67906212Y-83043767D01*
X67840748Y-83068184D01*
X67831902Y-83068500D01*
X65131098Y-83068500D01*
X65064059Y-83048815D01*
X65043417Y-83032181D01*
X64174491Y-82163255D01*
X64141006Y-82101932D01*
X64145990Y-82032240D01*
X64187862Y-81976307D01*
X64237976Y-81953957D01*
X64314497Y-81938737D01*
X64460179Y-81878394D01*
X64591289Y-81790789D01*
X64702789Y-81679289D01*
X64790394Y-81548179D01*
X64850737Y-81402497D01*
X64881500Y-81247842D01*
X64881500Y-81090158D01*
X64881500Y-81090155D01*
X64881499Y-81090153D01*
X64850738Y-80935510D01*
X64850738Y-80935508D01*
X64850737Y-80935503D01*
X64837455Y-80903437D01*
X64790397Y-80789827D01*
X64790390Y-80789814D01*
X64702789Y-80658711D01*
X64702786Y-80658707D01*
X64591292Y-80547213D01*
X64591288Y-80547210D01*
X64460185Y-80459609D01*
X64460172Y-80459602D01*
X64314501Y-80399264D01*
X64314489Y-80399261D01*
X64159845Y-80368500D01*
X64159842Y-80368500D01*
X64002158Y-80368500D01*
X64002155Y-80368500D01*
X63847510Y-80399261D01*
X63847498Y-80399264D01*
X63701827Y-80459602D01*
X63701814Y-80459609D01*
X63570711Y-80547210D01*
X63570707Y-80547213D01*
X63459213Y-80658707D01*
X63459210Y-80658711D01*
X63371609Y-80789814D01*
X63371602Y-80789827D01*
X63311264Y-80935498D01*
X63311261Y-80935508D01*
X63296042Y-81012019D01*
X63263657Y-81073930D01*
X63202941Y-81108504D01*
X63133171Y-81104763D01*
X63086744Y-81075508D01*
X56717819Y-74706583D01*
X56684334Y-74645260D01*
X56681500Y-74618902D01*
X56681500Y-71157439D01*
X56701185Y-71090400D01*
X56753989Y-71044645D01*
X56823147Y-71034701D01*
X56886703Y-71063726D01*
G37*
%TD.AperFunction*%
%TA.AperFunction,Conductor*%
G36*
X66394747Y-79085990D02*
G01*
X66415388Y-79102623D01*
X67962284Y-80649520D01*
X67962286Y-80649521D01*
X67962290Y-80649524D01*
X68099209Y-80728573D01*
X68099216Y-80728577D01*
X68251943Y-80769501D01*
X68251945Y-80769501D01*
X68417654Y-80769501D01*
X68417670Y-80769500D01*
X68530903Y-80769500D01*
X68597942Y-80789185D01*
X68618583Y-80805818D01*
X69462284Y-81649520D01*
X69462286Y-81649521D01*
X69462290Y-81649524D01*
X69516809Y-81681000D01*
X69599216Y-81728577D01*
X69751943Y-81769501D01*
X69751945Y-81769501D01*
X69917654Y-81769501D01*
X69917670Y-81769500D01*
X71356500Y-81769500D01*
X71423539Y-81789185D01*
X71469294Y-81841989D01*
X71480500Y-81893500D01*
X71480500Y-82158240D01*
X71460815Y-82225279D01*
X71408011Y-82271034D01*
X71338853Y-82280978D01*
X71287610Y-82261342D01*
X71210190Y-82209612D01*
X71210172Y-82209602D01*
X71064501Y-82149264D01*
X71064489Y-82149261D01*
X70909845Y-82118500D01*
X70909842Y-82118500D01*
X70752158Y-82118500D01*
X70752155Y-82118500D01*
X70597510Y-82149261D01*
X70597498Y-82149264D01*
X70451827Y-82209602D01*
X70451814Y-82209609D01*
X70320125Y-82297602D01*
X70253447Y-82318480D01*
X70251234Y-82318500D01*
X69131098Y-82318500D01*
X69064059Y-82298815D01*
X69043417Y-82282181D01*
X66039223Y-79277987D01*
X66028612Y-79258554D01*
X66014110Y-79241819D01*
X66012192Y-79228484D01*
X66005738Y-79216664D01*
X66007317Y-79194578D01*
X66004166Y-79172661D01*
X66009761Y-79160408D01*
X66010722Y-79146972D01*
X66023992Y-79129245D01*
X66033190Y-79109104D01*
X66044522Y-79101820D01*
X66052594Y-79091039D01*
X66073338Y-79083301D01*
X66091968Y-79071329D01*
X66113887Y-79068177D01*
X66118058Y-79066622D01*
X66126902Y-79066306D01*
X66197615Y-79066306D01*
X66197618Y-79066305D01*
X66205225Y-79066305D01*
X66327708Y-79066305D01*
X66394747Y-79085990D01*
G37*
%TD.AperFunction*%
%TA.AperFunction,Conductor*%
G36*
X58586703Y-70524384D02*
G01*
X58593181Y-70530416D01*
X58863181Y-70800416D01*
X58896666Y-70861739D01*
X58899500Y-70888097D01*
X58899500Y-71251330D01*
X58899499Y-71251348D01*
X58899499Y-71417054D01*
X58899498Y-71417054D01*
X58940079Y-71568500D01*
X58940423Y-71569785D01*
X58967476Y-71616641D01*
X59019479Y-71706714D01*
X59019481Y-71706717D01*
X59138349Y-71825585D01*
X59138355Y-71825590D01*
X65129681Y-77816916D01*
X65144384Y-77843843D01*
X65160977Y-77869662D01*
X65161868Y-77875862D01*
X65163166Y-77878239D01*
X65166000Y-77904597D01*
X65166000Y-78027078D01*
X65165999Y-78027096D01*
X65165999Y-78105401D01*
X65146314Y-78172440D01*
X65093510Y-78218195D01*
X65024352Y-78228139D01*
X64960796Y-78199114D01*
X64954318Y-78193082D01*
X58217819Y-71456583D01*
X58203115Y-71429655D01*
X58186523Y-71403837D01*
X58185631Y-71397636D01*
X58184334Y-71395260D01*
X58181500Y-71368902D01*
X58181500Y-71233765D01*
X58201185Y-71166726D01*
X58202398Y-71164874D01*
X58203783Y-71162802D01*
X58290394Y-71033179D01*
X58350737Y-70887497D01*
X58381500Y-70732842D01*
X58381500Y-70618097D01*
X58401185Y-70551058D01*
X58453989Y-70505303D01*
X58523147Y-70495359D01*
X58586703Y-70524384D01*
G37*
%TD.AperFunction*%
%TA.AperFunction,Conductor*%
G36*
X64228814Y-72749119D02*
G01*
X64242147Y-72747203D01*
X64262290Y-72756402D01*
X64283927Y-72761109D01*
X64301652Y-72774377D01*
X64305703Y-72776228D01*
X64312181Y-72782260D01*
X64320707Y-72790786D01*
X64320711Y-72790789D01*
X64451814Y-72878390D01*
X64451827Y-72878397D01*
X64499929Y-72898321D01*
X64597503Y-72938737D01*
X64750132Y-72969097D01*
X64752153Y-72969499D01*
X64752156Y-72969500D01*
X64752158Y-72969500D01*
X64909844Y-72969500D01*
X64909845Y-72969499D01*
X65064497Y-72938737D01*
X65210179Y-72878394D01*
X65287684Y-72826607D01*
X65341875Y-72790398D01*
X65408553Y-72769520D01*
X65410766Y-72769500D01*
X66034895Y-72769500D01*
X66051079Y-72770560D01*
X66071399Y-72773236D01*
X66080065Y-72774377D01*
X66081000Y-72774500D01*
X66785903Y-72774500D01*
X66852942Y-72794185D01*
X66873584Y-72810819D01*
X69944181Y-75881416D01*
X69977666Y-75942739D01*
X69980500Y-75969097D01*
X69980500Y-77751152D01*
X69960815Y-77818191D01*
X69908011Y-77863946D01*
X69880692Y-77872769D01*
X69747508Y-77899261D01*
X69747498Y-77899264D01*
X69601827Y-77959602D01*
X69601814Y-77959609D01*
X69470711Y-78047210D01*
X69470707Y-78047213D01*
X69354903Y-78163018D01*
X69353615Y-78161730D01*
X69302927Y-78196246D01*
X69233082Y-78198106D01*
X69177157Y-78165922D01*
X64136819Y-73125584D01*
X64103334Y-73064261D01*
X64100500Y-73037903D01*
X64100500Y-72869941D01*
X64106738Y-72848695D01*
X64108318Y-72826607D01*
X64116390Y-72815823D01*
X64120185Y-72802902D01*
X64136918Y-72788402D01*
X64150190Y-72770674D01*
X64162810Y-72765966D01*
X64172989Y-72757147D01*
X64194906Y-72753995D01*
X64215654Y-72746257D01*
X64228814Y-72749119D01*
G37*
%TD.AperFunction*%
%TA.AperFunction,Conductor*%
G36*
X66504696Y-77191980D02*
G01*
X66506808Y-77194043D01*
X67038261Y-77725496D01*
X67071746Y-77786819D01*
X67066762Y-77856511D01*
X67024890Y-77912444D01*
X66959426Y-77936861D01*
X66891153Y-77922009D01*
X66888579Y-77920564D01*
X66853909Y-77900547D01*
X66849110Y-77899261D01*
X66701181Y-77859623D01*
X66543067Y-77859623D01*
X66543064Y-77859623D01*
X66537628Y-77861080D01*
X66505536Y-77865305D01*
X66491000Y-77865305D01*
X66423961Y-77845620D01*
X66378206Y-77792816D01*
X66367000Y-77741305D01*
X66367000Y-77726765D01*
X66371225Y-77694673D01*
X66372680Y-77689240D01*
X66372681Y-77689237D01*
X66372681Y-77531126D01*
X66372681Y-77531124D01*
X66331758Y-77378396D01*
X66329412Y-77374332D01*
X66311741Y-77343725D01*
X66295267Y-77275825D01*
X66318119Y-77209798D01*
X66373039Y-77166607D01*
X66442593Y-77159965D01*
X66504696Y-77191980D01*
G37*
%TD.AperFunction*%
%TA.AperFunction,Conductor*%
G36*
X72079367Y-60739235D02*
G01*
X72135300Y-60781107D01*
X72159717Y-60846571D01*
X72160033Y-60855417D01*
X72160033Y-63555569D01*
X72160032Y-63555587D01*
X72160032Y-63563182D01*
X72160032Y-63721296D01*
X72193578Y-63846490D01*
X72197157Y-63859846D01*
X72195494Y-63929696D01*
X72156332Y-63987559D01*
X72124835Y-64006501D01*
X72070263Y-64029105D01*
X72070253Y-64029110D01*
X71939150Y-64116711D01*
X71939146Y-64116714D01*
X71827652Y-64228208D01*
X71827646Y-64228216D01*
X71825651Y-64231202D01*
X71824202Y-64232412D01*
X71823786Y-64232920D01*
X71823689Y-64232840D01*
X71772037Y-64276005D01*
X71702712Y-64284709D01*
X71639686Y-64254552D01*
X71602969Y-64195108D01*
X71600936Y-64186505D01*
X71600737Y-64185503D01*
X71597982Y-64178852D01*
X71540397Y-64039827D01*
X71540390Y-64039814D01*
X71452789Y-63908711D01*
X71452786Y-63908707D01*
X71341292Y-63797213D01*
X71341288Y-63797210D01*
X71210185Y-63709609D01*
X71210172Y-63709602D01*
X71064501Y-63649264D01*
X71064489Y-63649261D01*
X70909845Y-63618500D01*
X70909842Y-63618500D01*
X70752158Y-63618500D01*
X70752155Y-63618500D01*
X70597510Y-63649261D01*
X70597498Y-63649264D01*
X70451827Y-63709602D01*
X70451814Y-63709609D01*
X70320711Y-63797210D01*
X70320707Y-63797213D01*
X70209213Y-63908707D01*
X70209210Y-63908711D01*
X70121609Y-64039814D01*
X70121602Y-64039827D01*
X70061264Y-64185498D01*
X70061261Y-64185510D01*
X70030500Y-64340153D01*
X70030500Y-64497929D01*
X70010815Y-64564968D01*
X69958011Y-64610723D01*
X69906500Y-64621929D01*
X69778163Y-64621929D01*
X69623518Y-64652690D01*
X69623506Y-64652693D01*
X69477835Y-64713031D01*
X69477822Y-64713038D01*
X69346719Y-64800639D01*
X69346715Y-64800642D01*
X69235221Y-64912136D01*
X69235218Y-64912140D01*
X69147617Y-65043243D01*
X69147610Y-65043256D01*
X69087272Y-65188927D01*
X69087269Y-65188939D01*
X69056508Y-65343582D01*
X69056508Y-65501275D01*
X69087269Y-65655918D01*
X69087272Y-65655930D01*
X69147610Y-65801601D01*
X69147617Y-65801614D01*
X69235218Y-65932717D01*
X69235221Y-65932721D01*
X69346715Y-66044215D01*
X69346719Y-66044218D01*
X69477822Y-66131819D01*
X69477835Y-66131826D01*
X69623506Y-66192164D01*
X69623511Y-66192166D01*
X69778161Y-66222928D01*
X69778164Y-66222929D01*
X69778166Y-66222929D01*
X69935852Y-66222929D01*
X70001059Y-66209957D01*
X70082309Y-66193796D01*
X70151900Y-66200023D01*
X70207077Y-66242885D01*
X70230322Y-66308775D01*
X70230500Y-66315413D01*
X70230500Y-66618902D01*
X70210815Y-66685941D01*
X70194181Y-66706583D01*
X68929444Y-67971319D01*
X68868121Y-68004804D01*
X68798429Y-67999820D01*
X68742496Y-67957948D01*
X68718079Y-67892484D01*
X68727201Y-67836187D01*
X68769737Y-67733497D01*
X68800500Y-67578842D01*
X68800500Y-67421158D01*
X68800500Y-67421155D01*
X68800499Y-67421153D01*
X68774374Y-67289814D01*
X68769737Y-67266503D01*
X68769395Y-67265678D01*
X68709397Y-67120827D01*
X68709390Y-67120814D01*
X68621789Y-66989711D01*
X68621786Y-66989707D01*
X68510292Y-66878213D01*
X68510288Y-66878210D01*
X68379185Y-66790609D01*
X68379172Y-66790602D01*
X68233501Y-66730264D01*
X68233489Y-66730261D01*
X68078845Y-66699500D01*
X68078842Y-66699500D01*
X67921158Y-66699500D01*
X67921155Y-66699500D01*
X67766510Y-66730261D01*
X67766498Y-66730264D01*
X67620827Y-66790602D01*
X67620814Y-66790609D01*
X67489711Y-66878210D01*
X67489707Y-66878213D01*
X67378213Y-66989707D01*
X67378210Y-66989711D01*
X67290609Y-67120814D01*
X67290602Y-67120827D01*
X67230264Y-67266498D01*
X67230261Y-67266510D01*
X67199500Y-67421153D01*
X67199500Y-67578846D01*
X67230261Y-67733489D01*
X67230264Y-67733501D01*
X67290602Y-67879172D01*
X67290609Y-67879185D01*
X67378210Y-68010288D01*
X67378213Y-68010292D01*
X67489707Y-68121786D01*
X67489711Y-68121789D01*
X67620814Y-68209390D01*
X67620827Y-68209397D01*
X67766498Y-68269735D01*
X67766503Y-68269737D01*
X67867502Y-68289827D01*
X67921153Y-68300499D01*
X67921156Y-68300500D01*
X67921158Y-68300500D01*
X68078844Y-68300500D01*
X68078845Y-68300499D01*
X68233497Y-68269737D01*
X68336186Y-68227201D01*
X68405655Y-68219733D01*
X68468134Y-68251008D01*
X68503786Y-68311097D01*
X68501292Y-68380922D01*
X68471319Y-68429444D01*
X66212286Y-70688478D01*
X66100481Y-70800282D01*
X66100477Y-70800287D01*
X66064458Y-70862676D01*
X66064456Y-70862679D01*
X66044294Y-70897598D01*
X65993726Y-70945812D01*
X65925118Y-70959033D01*
X65860254Y-70933063D01*
X65819728Y-70876148D01*
X65815295Y-70859799D01*
X65796737Y-70766503D01*
X65764419Y-70688480D01*
X65736397Y-70620827D01*
X65736390Y-70620814D01*
X65648789Y-70489711D01*
X65648786Y-70489707D01*
X65537292Y-70378213D01*
X65537288Y-70378210D01*
X65406185Y-70290609D01*
X65406172Y-70290602D01*
X65260501Y-70230264D01*
X65260491Y-70230261D01*
X65105151Y-70199362D01*
X65061109Y-70181283D01*
X65050580Y-70174344D01*
X65026608Y-70150372D01*
X64929701Y-70094423D01*
X64926529Y-70092591D01*
X64926519Y-70092585D01*
X64889682Y-70071317D01*
X64889681Y-70071316D01*
X64877155Y-70067959D01*
X64736949Y-70030391D01*
X64578835Y-70030391D01*
X64571239Y-70030391D01*
X64571223Y-70030392D01*
X64205777Y-70030392D01*
X64205761Y-70030391D01*
X64198165Y-70030391D01*
X64040051Y-70030391D01*
X63932695Y-70059157D01*
X63887318Y-70071316D01*
X63887317Y-70071317D01*
X63847300Y-70094422D01*
X63847298Y-70094423D01*
X63750398Y-70150367D01*
X63750390Y-70150373D01*
X63019481Y-70881282D01*
X63019479Y-70881285D01*
X63010568Y-70896720D01*
X62979889Y-70949858D01*
X62940423Y-71018215D01*
X62899499Y-71170943D01*
X62899499Y-71170945D01*
X62899499Y-71339046D01*
X62899500Y-71339059D01*
X62899500Y-73251330D01*
X62899499Y-73251348D01*
X62899499Y-73417054D01*
X62899498Y-73417054D01*
X62940424Y-73569788D01*
X62940425Y-73569789D01*
X62940773Y-73570392D01*
X62940793Y-73570427D01*
X62960440Y-73604457D01*
X62976913Y-73672357D01*
X62954060Y-73738384D01*
X62899139Y-73781574D01*
X62829585Y-73788215D01*
X62767483Y-73756199D01*
X62765372Y-73754137D01*
X60136819Y-71125584D01*
X60103334Y-71064261D01*
X60100500Y-71037903D01*
X60100500Y-70677059D01*
X60100501Y-70677046D01*
X60100501Y-70508945D01*
X60100501Y-70508943D01*
X60059577Y-70356215D01*
X60012584Y-70274821D01*
X59996552Y-70247052D01*
X59980521Y-70219285D01*
X59864385Y-70103149D01*
X59864374Y-70103139D01*
X58415574Y-68654339D01*
X58382089Y-68593016D01*
X58381638Y-68590849D01*
X58363595Y-68500147D01*
X58350737Y-68435503D01*
X58298603Y-68309639D01*
X58290397Y-68289827D01*
X58290390Y-68289814D01*
X58202789Y-68158711D01*
X58202786Y-68158707D01*
X58091292Y-68047213D01*
X58091284Y-68047207D01*
X58043517Y-68015290D01*
X57998711Y-67961678D01*
X57990004Y-67892353D01*
X58020158Y-67829326D01*
X58024707Y-67824526D01*
X58259080Y-67590153D01*
X64030500Y-67590153D01*
X64030500Y-67747846D01*
X64061261Y-67902489D01*
X64061264Y-67902501D01*
X64121602Y-68048172D01*
X64121609Y-68048185D01*
X64209210Y-68179288D01*
X64209213Y-68179292D01*
X64320707Y-68290786D01*
X64320711Y-68290789D01*
X64451814Y-68378390D01*
X64451827Y-68378397D01*
X64597498Y-68438735D01*
X64597503Y-68438737D01*
X64752153Y-68469499D01*
X64752156Y-68469500D01*
X64752158Y-68469500D01*
X64909844Y-68469500D01*
X64909845Y-68469499D01*
X65064497Y-68438737D01*
X65210179Y-68378394D01*
X65341289Y-68290789D01*
X65452789Y-68179289D01*
X65540394Y-68048179D01*
X65600737Y-67902497D01*
X65631500Y-67747842D01*
X65631500Y-67590158D01*
X65631500Y-67590155D01*
X65631499Y-67590153D01*
X65610284Y-67483501D01*
X65600737Y-67435503D01*
X65547261Y-67306399D01*
X65540397Y-67289827D01*
X65540390Y-67289814D01*
X65452789Y-67158711D01*
X65452786Y-67158707D01*
X65341292Y-67047213D01*
X65341288Y-67047210D01*
X65210185Y-66959609D01*
X65210172Y-66959602D01*
X65064501Y-66899264D01*
X65064489Y-66899261D01*
X64909845Y-66868500D01*
X64909842Y-66868500D01*
X64752158Y-66868500D01*
X64752155Y-66868500D01*
X64597510Y-66899261D01*
X64597498Y-66899264D01*
X64451827Y-66959602D01*
X64451814Y-66959609D01*
X64320711Y-67047210D01*
X64320707Y-67047213D01*
X64209213Y-67158707D01*
X64209210Y-67158711D01*
X64121609Y-67289814D01*
X64121602Y-67289827D01*
X64061264Y-67435498D01*
X64061261Y-67435510D01*
X64030500Y-67590153D01*
X58259080Y-67590153D01*
X63543416Y-62305819D01*
X63604739Y-62272334D01*
X63631097Y-62269500D01*
X64251234Y-62269500D01*
X64318273Y-62289185D01*
X64320125Y-62290398D01*
X64451814Y-62378390D01*
X64451827Y-62378397D01*
X64597498Y-62438735D01*
X64597503Y-62438737D01*
X64752153Y-62469499D01*
X64752156Y-62469500D01*
X64752158Y-62469500D01*
X64909844Y-62469500D01*
X64909845Y-62469499D01*
X65064497Y-62438737D01*
X65210179Y-62378394D01*
X65255731Y-62347956D01*
X65322408Y-62327078D01*
X65389788Y-62345562D01*
X65427725Y-62382168D01*
X65459207Y-62429284D01*
X65459213Y-62429292D01*
X65570707Y-62540786D01*
X65570711Y-62540789D01*
X65701814Y-62628390D01*
X65701827Y-62628397D01*
X65828824Y-62681000D01*
X65847503Y-62688737D01*
X66002153Y-62719499D01*
X66002156Y-62719500D01*
X66002158Y-62719500D01*
X66159844Y-62719500D01*
X66159845Y-62719499D01*
X66314497Y-62688737D01*
X66460179Y-62628394D01*
X66591289Y-62540789D01*
X66702789Y-62429289D01*
X66790394Y-62298179D01*
X66850737Y-62152497D01*
X66881500Y-61997842D01*
X66881500Y-61840158D01*
X66881500Y-61840155D01*
X66881499Y-61840153D01*
X66865151Y-61757968D01*
X66850737Y-61685503D01*
X66850732Y-61685492D01*
X66848969Y-61679676D01*
X66851720Y-61678841D01*
X66845497Y-61621641D01*
X66876691Y-61559122D01*
X66936734Y-61523392D01*
X66967555Y-61519500D01*
X70861185Y-61519500D01*
X70861201Y-61519501D01*
X70868797Y-61519501D01*
X71026908Y-61519501D01*
X71026911Y-61519501D01*
X71179639Y-61478577D01*
X71254245Y-61435503D01*
X71316570Y-61399520D01*
X71428374Y-61287716D01*
X71428374Y-61287714D01*
X71438578Y-61277511D01*
X71438581Y-61277506D01*
X71948353Y-60767735D01*
X72009675Y-60734251D01*
X72079367Y-60739235D01*
G37*
%TD.AperFunction*%
%TA.AperFunction,Conductor*%
G36*
X67506380Y-71195367D02*
G01*
X67562313Y-71237239D01*
X67577607Y-71264096D01*
X67621604Y-71370316D01*
X67621609Y-71370325D01*
X67709601Y-71502013D01*
X67728867Y-71550854D01*
X67730499Y-71560814D01*
X67730499Y-71579057D01*
X67738192Y-71607766D01*
X67753550Y-71665084D01*
X67751887Y-71734934D01*
X67712724Y-71792796D01*
X67648496Y-71820300D01*
X67579594Y-71808713D01*
X67546094Y-71784858D01*
X67538217Y-71776981D01*
X67527521Y-71764785D01*
X67509152Y-71740845D01*
X67271451Y-71503144D01*
X67267112Y-71495198D01*
X67259865Y-71489773D01*
X67250630Y-71465013D01*
X67237966Y-71441821D01*
X67238611Y-71432791D01*
X67235448Y-71424309D01*
X67241064Y-71398488D01*
X67242950Y-71372129D01*
X67248768Y-71363075D01*
X67250300Y-71356036D01*
X67271447Y-71327786D01*
X67375368Y-71223866D01*
X67436688Y-71190383D01*
X67506380Y-71195367D01*
G37*
%TD.AperFunction*%
%TA.AperFunction,Conductor*%
G36*
X71649834Y-67619015D02*
G01*
X71705767Y-67660887D01*
X71730184Y-67726351D01*
X71730500Y-67735197D01*
X71730500Y-69832553D01*
X71710815Y-69899592D01*
X71658011Y-69945347D01*
X71588853Y-69955291D01*
X71525297Y-69926266D01*
X71506660Y-69905143D01*
X71506613Y-69905182D01*
X71505524Y-69903856D01*
X71503402Y-69901450D01*
X71502751Y-69900476D01*
X71502746Y-69900470D01*
X71391252Y-69788976D01*
X71391248Y-69788973D01*
X71260145Y-69701372D01*
X71260132Y-69701365D01*
X71114461Y-69641027D01*
X71114449Y-69641024D01*
X70959805Y-69610263D01*
X70959802Y-69610263D01*
X70802118Y-69610263D01*
X70802115Y-69610263D01*
X70647470Y-69641024D01*
X70647458Y-69641027D01*
X70501787Y-69701365D01*
X70501774Y-69701372D01*
X70370671Y-69788973D01*
X70370667Y-69788976D01*
X70259173Y-69900470D01*
X70259170Y-69900474D01*
X70171569Y-70031577D01*
X70171562Y-70031590D01*
X70111224Y-70177261D01*
X70111221Y-70177270D01*
X70101777Y-70224749D01*
X70069391Y-70286660D01*
X70008675Y-70321233D01*
X69938905Y-70317492D01*
X69882234Y-70276625D01*
X69858543Y-70224749D01*
X69850737Y-70185503D01*
X69836186Y-70150373D01*
X69790397Y-70039827D01*
X69790390Y-70039814D01*
X69702789Y-69908711D01*
X69702786Y-69908707D01*
X69591292Y-69797213D01*
X69591287Y-69797209D01*
X69583737Y-69792164D01*
X69538934Y-69738550D01*
X69530228Y-69669225D01*
X69560385Y-69606199D01*
X69564930Y-69601404D01*
X71518820Y-67647515D01*
X71580142Y-67614031D01*
X71649834Y-67619015D01*
G37*
%TD.AperFunction*%
%TA.AperFunction,Conductor*%
G36*
X75283190Y-59620185D02*
G01*
X75303832Y-59636819D01*
X75926605Y-60259592D01*
X75960090Y-60320915D01*
X75955106Y-60390607D01*
X75938720Y-60416103D01*
X75938720Y-61800375D01*
X75919035Y-61867414D01*
X75866231Y-61913169D01*
X75814720Y-61924375D01*
X75186500Y-61924375D01*
X75119461Y-61904690D01*
X75073706Y-61851886D01*
X75062500Y-61800375D01*
X75062500Y-60423010D01*
X74687301Y-60423010D01*
X74687301Y-61800375D01*
X74667616Y-61867414D01*
X74614812Y-61913169D01*
X74563301Y-61924375D01*
X73936500Y-61924375D01*
X73869461Y-61904690D01*
X73823706Y-61851886D01*
X73812500Y-61800375D01*
X73812500Y-60423220D01*
X73799950Y-60423220D01*
X73732911Y-60403535D01*
X73687156Y-60350731D01*
X73677212Y-60281573D01*
X73696849Y-60230327D01*
X73697050Y-60230025D01*
X73699815Y-60225888D01*
X73760158Y-60080206D01*
X73790921Y-59925551D01*
X73790921Y-59767867D01*
X73787107Y-59748692D01*
X73793334Y-59679101D01*
X73836196Y-59623923D01*
X73902085Y-59600678D01*
X73908724Y-59600500D01*
X75216151Y-59600500D01*
X75283190Y-59620185D01*
G37*
%TD.AperFunction*%
%TA.AperFunction,Conductor*%
G36*
X90495142Y-56847606D02*
G01*
X90580726Y-56883055D01*
X90635925Y-56905919D01*
X90728595Y-56924351D01*
X90729105Y-56924459D01*
X90729227Y-56924524D01*
X90735687Y-56926031D01*
X90790365Y-56940683D01*
X90790366Y-56940683D01*
X90848696Y-56940683D01*
X90915735Y-56960368D01*
X90961490Y-57013172D01*
X90971434Y-57082330D01*
X90942409Y-57145886D01*
X90936377Y-57152364D01*
X90472084Y-57616656D01*
X90410761Y-57650141D01*
X90341069Y-57645157D01*
X90285136Y-57603285D01*
X90260719Y-57537821D01*
X90269841Y-57481525D01*
X90311616Y-57380672D01*
X90342379Y-57226017D01*
X90342379Y-57068333D01*
X90342379Y-57068330D01*
X90326073Y-56986359D01*
X90332300Y-56916768D01*
X90375162Y-56861590D01*
X90441052Y-56838345D01*
X90495142Y-56847606D01*
G37*
%TD.AperFunction*%
%TA.AperFunction,Conductor*%
G36*
X104257241Y-39508295D02*
G01*
X104302996Y-39561099D01*
X104314202Y-39612610D01*
X104314202Y-49793047D01*
X104294517Y-49860086D01*
X104241713Y-49905841D01*
X104190202Y-49917047D01*
X97264382Y-49917047D01*
X97264310Y-49917050D01*
X97199356Y-49917050D01*
X96926376Y-49952983D01*
X96926351Y-49952988D01*
X96660405Y-50024242D01*
X96660387Y-50024248D01*
X96405997Y-50129616D01*
X96405993Y-50129618D01*
X96167530Y-50267291D01*
X95949081Y-50434908D01*
X95949077Y-50434912D01*
X95754381Y-50629603D01*
X95754374Y-50629612D01*
X95586754Y-50848054D01*
X95511334Y-50978683D01*
X95449075Y-51086519D01*
X95449074Y-51086522D01*
X95449072Y-51086524D01*
X95343701Y-51340909D01*
X95272433Y-51606882D01*
X95236493Y-51879866D01*
X95236493Y-52155233D01*
X95272433Y-52428217D01*
X95343701Y-52694190D01*
X95449072Y-52948575D01*
X95449075Y-52948581D01*
X95560437Y-53141463D01*
X95586754Y-53187045D01*
X95754374Y-53405487D01*
X95754379Y-53405494D01*
X95949077Y-53600187D01*
X95949081Y-53600191D01*
X96129167Y-53738372D01*
X96167535Y-53767812D01*
X96405998Y-53905484D01*
X96660391Y-54010853D01*
X96660401Y-54010855D01*
X96660405Y-54010857D01*
X96776639Y-54041999D01*
X96926361Y-54082114D01*
X97199358Y-54118050D01*
X97337033Y-54118047D01*
X104190202Y-54118047D01*
X104257241Y-54137732D01*
X104302996Y-54190536D01*
X104314202Y-54242047D01*
X104314202Y-83734173D01*
X104294517Y-83801212D01*
X104241713Y-83846967D01*
X104190202Y-83858173D01*
X97402902Y-83858173D01*
X97402891Y-83858170D01*
X97336999Y-83858173D01*
X97263597Y-83858173D01*
X97262720Y-83858229D01*
X97199332Y-83858232D01*
X96926355Y-83894183D01*
X96660394Y-83965458D01*
X96406035Y-84070828D01*
X96406018Y-84070837D01*
X96167593Y-84208500D01*
X96167584Y-84208507D01*
X95949150Y-84376127D01*
X95949146Y-84376130D01*
X95754468Y-84570816D01*
X95754465Y-84570820D01*
X95586850Y-84789269D01*
X95586844Y-84789278D01*
X95449194Y-85027706D01*
X95449191Y-85027712D01*
X95449188Y-85027718D01*
X95400148Y-85146113D01*
X95343823Y-85282097D01*
X95272564Y-85548046D01*
X95236627Y-85821031D01*
X95236627Y-86096368D01*
X95272564Y-86369353D01*
X95340067Y-86621283D01*
X95343824Y-86635304D01*
X95449188Y-86889682D01*
X95449191Y-86889687D01*
X95449194Y-86889693D01*
X95586844Y-87128121D01*
X95586850Y-87128130D01*
X95586852Y-87128133D01*
X95609902Y-87158173D01*
X95754465Y-87346579D01*
X95754468Y-87346583D01*
X95900660Y-87492781D01*
X95949149Y-87541272D01*
X96167583Y-87708892D01*
X96167586Y-87708894D01*
X96167593Y-87708899D01*
X96406018Y-87846562D01*
X96406035Y-87846571D01*
X96660394Y-87951941D01*
X96660397Y-87951941D01*
X96660400Y-87951943D01*
X96926352Y-88023216D01*
X97199331Y-88059167D01*
X97199340Y-88059167D01*
X97271120Y-88059170D01*
X97271131Y-88059173D01*
X97336999Y-88059173D01*
X97402891Y-88059176D01*
X97402895Y-88059174D01*
X97411130Y-88059175D01*
X97411175Y-88059173D01*
X104190202Y-88059173D01*
X104257241Y-88078858D01*
X104302996Y-88131662D01*
X104314202Y-88183173D01*
X104314202Y-98363610D01*
X104294517Y-98430649D01*
X104241713Y-98476404D01*
X104190202Y-98487610D01*
X45439202Y-98487610D01*
X45372163Y-98467925D01*
X45326408Y-98415121D01*
X45315202Y-98363610D01*
X45315202Y-91405199D01*
X57045500Y-91405199D01*
X57045500Y-91594800D01*
X57067466Y-91733489D01*
X57075158Y-91782055D01*
X57106714Y-91879172D01*
X57133747Y-91962372D01*
X57206431Y-92105020D01*
X57219819Y-92131296D01*
X57331259Y-92284679D01*
X57465321Y-92418741D01*
X57618704Y-92530181D01*
X57698515Y-92570846D01*
X57787627Y-92616252D01*
X57787629Y-92616252D01*
X57787632Y-92616254D01*
X57967945Y-92674842D01*
X58061574Y-92689671D01*
X58155200Y-92704500D01*
X58155204Y-92704500D01*
X58344800Y-92704500D01*
X58428022Y-92691318D01*
X58532055Y-92674842D01*
X58712368Y-92616254D01*
X58881296Y-92530181D01*
X59034679Y-92418741D01*
X59168741Y-92284679D01*
X59280181Y-92131296D01*
X59366254Y-91962368D01*
X59424842Y-91782055D01*
X59441318Y-91678022D01*
X59454500Y-91594800D01*
X59454500Y-91405199D01*
X63545500Y-91405199D01*
X63545500Y-91594800D01*
X63567466Y-91733489D01*
X63575158Y-91782055D01*
X63606714Y-91879172D01*
X63633747Y-91962372D01*
X63706431Y-92105020D01*
X63719819Y-92131296D01*
X63831259Y-92284679D01*
X63965321Y-92418741D01*
X64118704Y-92530181D01*
X64198515Y-92570846D01*
X64287627Y-92616252D01*
X64287629Y-92616252D01*
X64287632Y-92616254D01*
X64467945Y-92674842D01*
X64561574Y-92689671D01*
X64655200Y-92704500D01*
X64655204Y-92704500D01*
X64844800Y-92704500D01*
X64928022Y-92691318D01*
X65032055Y-92674842D01*
X65212368Y-92616254D01*
X65381296Y-92530181D01*
X65534679Y-92418741D01*
X65668741Y-92284679D01*
X65780181Y-92131296D01*
X65866254Y-91962368D01*
X65924842Y-91782055D01*
X65941318Y-91678022D01*
X65954500Y-91594800D01*
X65954500Y-91421153D01*
X71449500Y-91421153D01*
X71449500Y-91578846D01*
X71480261Y-91733489D01*
X71480264Y-91733501D01*
X71540602Y-91879172D01*
X71540609Y-91879185D01*
X71628210Y-92010288D01*
X71628213Y-92010292D01*
X71739707Y-92121786D01*
X71739711Y-92121789D01*
X71870814Y-92209390D01*
X71870827Y-92209397D01*
X72016498Y-92269735D01*
X72016503Y-92269737D01*
X72171153Y-92300499D01*
X72171156Y-92300500D01*
X72171158Y-92300500D01*
X72328844Y-92300500D01*
X72328845Y-92300499D01*
X72483497Y-92269737D01*
X72629179Y-92209394D01*
X72754141Y-92125896D01*
X72820815Y-92105020D01*
X72888195Y-92123504D01*
X72910710Y-92141319D01*
X73015688Y-92246297D01*
X73015692Y-92246300D01*
X73146795Y-92333901D01*
X73146808Y-92333908D01*
X73292479Y-92394246D01*
X73292484Y-92394248D01*
X73415608Y-92418739D01*
X73447134Y-92425010D01*
X73447137Y-92425011D01*
X73447139Y-92425011D01*
X73604825Y-92425011D01*
X73604826Y-92425010D01*
X73759478Y-92394248D01*
X73905160Y-92333905D01*
X74036270Y-92246300D01*
X74138660Y-92143909D01*
X74199981Y-92110426D01*
X74269673Y-92115410D01*
X74295231Y-92128490D01*
X74416306Y-92209390D01*
X74416319Y-92209397D01*
X74561990Y-92269735D01*
X74561995Y-92269737D01*
X74716645Y-92300499D01*
X74716648Y-92300500D01*
X74716650Y-92300500D01*
X74874336Y-92300500D01*
X74874337Y-92300499D01*
X75028989Y-92269737D01*
X75174671Y-92209394D01*
X75305781Y-92121789D01*
X75417281Y-92010289D01*
X75504886Y-91879179D01*
X75565229Y-91733497D01*
X75595992Y-91578842D01*
X75595992Y-91421158D01*
X75595992Y-91421155D01*
X75595991Y-91421153D01*
X75565229Y-91266503D01*
X75565227Y-91266498D01*
X75504889Y-91120827D01*
X75504882Y-91120814D01*
X75417281Y-90989711D01*
X75417278Y-90989707D01*
X75305784Y-90878213D01*
X75305780Y-90878210D01*
X75174677Y-90790609D01*
X75174664Y-90790602D01*
X75028993Y-90730264D01*
X75028981Y-90730261D01*
X74874337Y-90699500D01*
X74874334Y-90699500D01*
X74716650Y-90699500D01*
X74716647Y-90699500D01*
X74562002Y-90730261D01*
X74561990Y-90730264D01*
X74416319Y-90790602D01*
X74416306Y-90790609D01*
X74285203Y-90878210D01*
X74182813Y-90980600D01*
X74121490Y-91014084D01*
X74051798Y-91009100D01*
X74026241Y-90996020D01*
X73905166Y-90915120D01*
X73905153Y-90915113D01*
X73759482Y-90854775D01*
X73759470Y-90854772D01*
X73604826Y-90824011D01*
X73604823Y-90824011D01*
X73447139Y-90824011D01*
X73447136Y-90824011D01*
X73292491Y-90854772D01*
X73292479Y-90854775D01*
X73146808Y-90915113D01*
X73146795Y-90915120D01*
X73021842Y-90998612D01*
X72955164Y-91019490D01*
X72887784Y-91001005D01*
X72865270Y-90983191D01*
X72760292Y-90878213D01*
X72760288Y-90878210D01*
X72629185Y-90790609D01*
X72629172Y-90790602D01*
X72483501Y-90730264D01*
X72483489Y-90730261D01*
X72328845Y-90699500D01*
X72328842Y-90699500D01*
X72171158Y-90699500D01*
X72171155Y-90699500D01*
X72016510Y-90730261D01*
X72016498Y-90730264D01*
X71870827Y-90790602D01*
X71870814Y-90790609D01*
X71739711Y-90878210D01*
X71739707Y-90878213D01*
X71628213Y-90989707D01*
X71628210Y-90989711D01*
X71540609Y-91120814D01*
X71540602Y-91120827D01*
X71480264Y-91266498D01*
X71480261Y-91266510D01*
X71449500Y-91421153D01*
X65954500Y-91421153D01*
X65954500Y-91405199D01*
X65938023Y-91301171D01*
X65924842Y-91217945D01*
X65866254Y-91037632D01*
X65866252Y-91037629D01*
X65866252Y-91037627D01*
X65803831Y-90915120D01*
X65780181Y-90868704D01*
X65668741Y-90715321D01*
X65534679Y-90581259D01*
X65381296Y-90469819D01*
X65212372Y-90383747D01*
X65153905Y-90364750D01*
X65032055Y-90325158D01*
X65032051Y-90325157D01*
X65032050Y-90325157D01*
X64844800Y-90295500D01*
X64844796Y-90295500D01*
X64655204Y-90295500D01*
X64655200Y-90295500D01*
X64467949Y-90325157D01*
X64467946Y-90325157D01*
X64467945Y-90325158D01*
X64409482Y-90344153D01*
X64287627Y-90383747D01*
X64118703Y-90469819D01*
X63965319Y-90581260D01*
X63831260Y-90715319D01*
X63719819Y-90868703D01*
X63633747Y-91037627D01*
X63575157Y-91217949D01*
X63545500Y-91405199D01*
X59454500Y-91405199D01*
X59438023Y-91301171D01*
X59424842Y-91217945D01*
X59366254Y-91037632D01*
X59366252Y-91037629D01*
X59366252Y-91037627D01*
X59303831Y-90915120D01*
X59280181Y-90868704D01*
X59168741Y-90715321D01*
X59034679Y-90581259D01*
X58881296Y-90469819D01*
X58712372Y-90383747D01*
X58653905Y-90364750D01*
X58532055Y-90325158D01*
X58532051Y-90325157D01*
X58532050Y-90325157D01*
X58344800Y-90295500D01*
X58344796Y-90295500D01*
X58155204Y-90295500D01*
X58155200Y-90295500D01*
X57967949Y-90325157D01*
X57967946Y-90325157D01*
X57967945Y-90325158D01*
X57909482Y-90344153D01*
X57787627Y-90383747D01*
X57618703Y-90469819D01*
X57465319Y-90581260D01*
X57331260Y-90715319D01*
X57219819Y-90868703D01*
X57133747Y-91037627D01*
X57075157Y-91217949D01*
X57045500Y-91405199D01*
X45315202Y-91405199D01*
X45315202Y-88183173D01*
X45334887Y-88116134D01*
X45387691Y-88070379D01*
X45439202Y-88059173D01*
X52368262Y-88059173D01*
X52368286Y-88059170D01*
X52430034Y-88059174D01*
X52430042Y-88059173D01*
X52430043Y-88059173D01*
X52463033Y-88054831D01*
X52703037Y-88023245D01*
X52969013Y-87951988D01*
X53223413Y-87846623D01*
X53461883Y-87708953D01*
X53680343Y-87541333D01*
X53875054Y-87346632D01*
X54042685Y-87128180D01*
X54180367Y-86889717D01*
X54180370Y-86889709D01*
X54180373Y-86889704D01*
X54285743Y-86635326D01*
X54285745Y-86635322D01*
X54357014Y-86369349D01*
X54392957Y-86096349D01*
X54392957Y-85820993D01*
X54357015Y-85547992D01*
X54285745Y-85282019D01*
X54180368Y-85027624D01*
X54072127Y-84840153D01*
X74280500Y-84840153D01*
X74280500Y-84997846D01*
X74311261Y-85152489D01*
X74311264Y-85152501D01*
X74371602Y-85298172D01*
X74371609Y-85298185D01*
X74459210Y-85429288D01*
X74459213Y-85429292D01*
X74570707Y-85540786D01*
X74570711Y-85540789D01*
X74701814Y-85628390D01*
X74701827Y-85628397D01*
X74847498Y-85688735D01*
X74847503Y-85688737D01*
X75002153Y-85719499D01*
X75002156Y-85719500D01*
X75002158Y-85719500D01*
X75159844Y-85719500D01*
X75159845Y-85719499D01*
X75314497Y-85688737D01*
X75460179Y-85628394D01*
X75591289Y-85540789D01*
X75702789Y-85429289D01*
X75790394Y-85298179D01*
X75850737Y-85152497D01*
X75881500Y-84997842D01*
X75881500Y-84840158D01*
X75881500Y-84840155D01*
X75881499Y-84840153D01*
X75850738Y-84685510D01*
X75850737Y-84685503D01*
X75842653Y-84665987D01*
X75790397Y-84539827D01*
X75790390Y-84539814D01*
X75702789Y-84408711D01*
X75702786Y-84408707D01*
X75591292Y-84297213D01*
X75591288Y-84297210D01*
X75460185Y-84209609D01*
X75460172Y-84209602D01*
X75314501Y-84149264D01*
X75314489Y-84149261D01*
X75159845Y-84118500D01*
X75159842Y-84118500D01*
X75002158Y-84118500D01*
X75002155Y-84118500D01*
X74847510Y-84149261D01*
X74847498Y-84149264D01*
X74701827Y-84209602D01*
X74701814Y-84209609D01*
X74570711Y-84297210D01*
X74570707Y-84297213D01*
X74459213Y-84408707D01*
X74459210Y-84408711D01*
X74371609Y-84539814D01*
X74371602Y-84539827D01*
X74311264Y-84685498D01*
X74311261Y-84685510D01*
X74280500Y-84840153D01*
X54072127Y-84840153D01*
X54042686Y-84789161D01*
X54042682Y-84789156D01*
X54042680Y-84789152D01*
X53875059Y-84570713D01*
X53875057Y-84570711D01*
X53728903Y-84424565D01*
X53680344Y-84376008D01*
X53680339Y-84376004D01*
X53680337Y-84376002D01*
X53461889Y-84208392D01*
X53461884Y-84208388D01*
X53293549Y-84111206D01*
X53223420Y-84070720D01*
X53223417Y-84070718D01*
X53223414Y-84070717D01*
X53057034Y-84001807D01*
X52969006Y-83965348D01*
X52703045Y-83894097D01*
X52703038Y-83894096D01*
X52657646Y-83888122D01*
X52430039Y-83858167D01*
X52430036Y-83858167D01*
X52292358Y-83858173D01*
X45439202Y-83858173D01*
X45372163Y-83838488D01*
X45326408Y-83785684D01*
X45315202Y-83734173D01*
X45315202Y-74998054D01*
X55480498Y-74998054D01*
X55488276Y-75027080D01*
X55521423Y-75150785D01*
X55543916Y-75189744D01*
X55600477Y-75287712D01*
X55600481Y-75287717D01*
X55719349Y-75406585D01*
X55719354Y-75406589D01*
X64462284Y-84149520D01*
X64462286Y-84149521D01*
X64462290Y-84149524D01*
X64564247Y-84208388D01*
X64599216Y-84228577D01*
X64751943Y-84269501D01*
X64751945Y-84269501D01*
X64917654Y-84269501D01*
X64917670Y-84269500D01*
X71244331Y-84269500D01*
X71244347Y-84269501D01*
X71251943Y-84269501D01*
X71410054Y-84269501D01*
X71410057Y-84269501D01*
X71562785Y-84228577D01*
X71612904Y-84199639D01*
X71699716Y-84149520D01*
X71811520Y-84037716D01*
X71811520Y-84037714D01*
X71821728Y-84027507D01*
X71821730Y-84027504D01*
X72449713Y-83399521D01*
X72449716Y-83399520D01*
X72561520Y-83287716D01*
X72611639Y-83200904D01*
X72640577Y-83150785D01*
X72681500Y-82998057D01*
X72681500Y-82839943D01*
X72681500Y-82068185D01*
X72701185Y-82001146D01*
X72717819Y-81980504D01*
X73295834Y-81402489D01*
X73934285Y-80764038D01*
X73995606Y-80730555D01*
X73997773Y-80730104D01*
X73998462Y-80729967D01*
X73998463Y-80729967D01*
X74153118Y-80699204D01*
X74298800Y-80638861D01*
X74429910Y-80551256D01*
X74464615Y-80516550D01*
X74525936Y-80483065D01*
X74591440Y-80487749D01*
X74591676Y-80486972D01*
X74595102Y-80488011D01*
X74595628Y-80488049D01*
X74596983Y-80488582D01*
X74597493Y-80488735D01*
X74597503Y-80488740D01*
X74746216Y-80518321D01*
X74752153Y-80519502D01*
X74752156Y-80519503D01*
X74752158Y-80519503D01*
X74909844Y-80519503D01*
X74909845Y-80519502D01*
X75064497Y-80488740D01*
X75210179Y-80428397D01*
X75341289Y-80340792D01*
X75452789Y-80229292D01*
X75540394Y-80098182D01*
X75600737Y-79952500D01*
X75631500Y-79797845D01*
X75631500Y-79640161D01*
X75631500Y-79640158D01*
X75631499Y-79640156D01*
X75600737Y-79485506D01*
X75551423Y-79366452D01*
X75543955Y-79296984D01*
X75551421Y-79271554D01*
X75600737Y-79152497D01*
X75631500Y-78997842D01*
X75631500Y-78840158D01*
X75631500Y-78840155D01*
X75631499Y-78840153D01*
X75616072Y-78762596D01*
X75600737Y-78685503D01*
X75598880Y-78681021D01*
X75591412Y-78611555D01*
X75622686Y-78549075D01*
X75681344Y-78513796D01*
X75812785Y-78478577D01*
X75887391Y-78435503D01*
X75949716Y-78399520D01*
X76061520Y-78287716D01*
X76061520Y-78287714D01*
X76071724Y-78277511D01*
X76071728Y-78277506D01*
X77439506Y-76909728D01*
X77439511Y-76909724D01*
X77449714Y-76899520D01*
X77449716Y-76899520D01*
X77561520Y-76787716D01*
X77640577Y-76650784D01*
X77670534Y-76538981D01*
X77681500Y-76498058D01*
X77681500Y-76339943D01*
X77681500Y-75171153D01*
X83030500Y-75171153D01*
X83030500Y-75328846D01*
X83061261Y-75483489D01*
X83061264Y-75483501D01*
X83121602Y-75629172D01*
X83121609Y-75629185D01*
X83209602Y-75760874D01*
X83230480Y-75827551D01*
X83230500Y-75829765D01*
X83230500Y-89244330D01*
X83230499Y-89244348D01*
X83230499Y-89410054D01*
X83230498Y-89410054D01*
X83271423Y-89562785D01*
X83300358Y-89612900D01*
X83300359Y-89612904D01*
X83300360Y-89612904D01*
X83350479Y-89699714D01*
X83350481Y-89699717D01*
X83469349Y-89818585D01*
X83469355Y-89818590D01*
X89665425Y-96014660D01*
X89698910Y-96075983D01*
X89699361Y-96078149D01*
X89730261Y-96233491D01*
X89730264Y-96233501D01*
X89790602Y-96379172D01*
X89790609Y-96379185D01*
X89878210Y-96510288D01*
X89878213Y-96510292D01*
X89989707Y-96621786D01*
X89989711Y-96621789D01*
X90120814Y-96709390D01*
X90120827Y-96709397D01*
X90266498Y-96769735D01*
X90266503Y-96769737D01*
X90421153Y-96800499D01*
X90421156Y-96800500D01*
X90421158Y-96800500D01*
X90578844Y-96800500D01*
X90578845Y-96800499D01*
X90733497Y-96769737D01*
X90879179Y-96709394D01*
X91010289Y-96621789D01*
X91121789Y-96510289D01*
X91209394Y-96379179D01*
X91269737Y-96233497D01*
X91300500Y-96078842D01*
X91300500Y-95921158D01*
X91300500Y-95921155D01*
X91300499Y-95921153D01*
X91269738Y-95766510D01*
X91269737Y-95766503D01*
X91269735Y-95766498D01*
X91209397Y-95620827D01*
X91209390Y-95620814D01*
X91121789Y-95489711D01*
X91121786Y-95489707D01*
X91010292Y-95378213D01*
X91010288Y-95378210D01*
X90879185Y-95290609D01*
X90879172Y-95290602D01*
X90733501Y-95230264D01*
X90733491Y-95230261D01*
X90578149Y-95199361D01*
X90516238Y-95166976D01*
X90514660Y-95165425D01*
X84467819Y-89118584D01*
X84434334Y-89057261D01*
X84431500Y-89030903D01*
X84431500Y-79090153D01*
X85530500Y-79090153D01*
X85530500Y-79247846D01*
X85561261Y-79402489D01*
X85561264Y-79402501D01*
X85621602Y-79548172D01*
X85621609Y-79548185D01*
X85709210Y-79679288D01*
X85709213Y-79679292D01*
X85820707Y-79790786D01*
X85820711Y-79790789D01*
X85951814Y-79878390D01*
X85951827Y-79878397D01*
X86097498Y-79938735D01*
X86097503Y-79938737D01*
X86204072Y-79959935D01*
X86252153Y-79969499D01*
X86252156Y-79969500D01*
X86252158Y-79969500D01*
X86409844Y-79969500D01*
X86409845Y-79969499D01*
X86564497Y-79938737D01*
X86710179Y-79878394D01*
X86841289Y-79790789D01*
X86952789Y-79679289D01*
X87040394Y-79548179D01*
X87100737Y-79402497D01*
X87131500Y-79247842D01*
X87131500Y-79090158D01*
X87131500Y-79090155D01*
X87131499Y-79090153D01*
X87126818Y-79066622D01*
X87100737Y-78935503D01*
X87064471Y-78847948D01*
X87040397Y-78789827D01*
X87040390Y-78789814D01*
X86952789Y-78658711D01*
X86952786Y-78658707D01*
X86841292Y-78547213D01*
X86841288Y-78547210D01*
X86710185Y-78459609D01*
X86710172Y-78459602D01*
X86564501Y-78399264D01*
X86564489Y-78399261D01*
X86409845Y-78368500D01*
X86409842Y-78368500D01*
X86252158Y-78368500D01*
X86252155Y-78368500D01*
X86097510Y-78399261D01*
X86097498Y-78399264D01*
X85951827Y-78459602D01*
X85951814Y-78459609D01*
X85820711Y-78547210D01*
X85820707Y-78547213D01*
X85709213Y-78658707D01*
X85709210Y-78658711D01*
X85621609Y-78789814D01*
X85621602Y-78789827D01*
X85561264Y-78935498D01*
X85561261Y-78935510D01*
X85530500Y-79090153D01*
X84431500Y-79090153D01*
X84431500Y-75829765D01*
X84451185Y-75762726D01*
X84452398Y-75760874D01*
X84540390Y-75629185D01*
X84540390Y-75629184D01*
X84540394Y-75629179D01*
X84543854Y-75620827D01*
X84598163Y-75489711D01*
X84600737Y-75483497D01*
X84621680Y-75378211D01*
X84631638Y-75328150D01*
X84640402Y-75311393D01*
X84644423Y-75292914D01*
X84663167Y-75267875D01*
X84664023Y-75266239D01*
X84665518Y-75264716D01*
X84974416Y-74955819D01*
X85035739Y-74922334D01*
X85062097Y-74919500D01*
X86594331Y-74919500D01*
X86594347Y-74919501D01*
X86601943Y-74919501D01*
X86760054Y-74919501D01*
X86760057Y-74919501D01*
X86912785Y-74878577D01*
X86962904Y-74849639D01*
X87049716Y-74799520D01*
X87161520Y-74687716D01*
X87161520Y-74687714D01*
X87171728Y-74677507D01*
X87171729Y-74677504D01*
X87962416Y-73886819D01*
X88023739Y-73853334D01*
X88050097Y-73850500D01*
X92913331Y-73850500D01*
X92913347Y-73850501D01*
X92920943Y-73850501D01*
X93079054Y-73850501D01*
X93079057Y-73850501D01*
X93231785Y-73809577D01*
X93281904Y-73780639D01*
X93368716Y-73730520D01*
X93480520Y-73618716D01*
X93480520Y-73618714D01*
X93490728Y-73608507D01*
X93490729Y-73608504D01*
X94611743Y-72487491D01*
X94673063Y-72454008D01*
X94742755Y-72458992D01*
X94798688Y-72500864D01*
X94823105Y-72566328D01*
X94821894Y-72594572D01*
X94805247Y-72699678D01*
X94805247Y-72898321D01*
X94836322Y-73094520D01*
X94836322Y-73094523D01*
X94897704Y-73283437D01*
X94987888Y-73460432D01*
X95014977Y-73497715D01*
X95577751Y-72934940D01*
X95593866Y-72995081D01*
X95660745Y-73110920D01*
X95755327Y-73205502D01*
X95871166Y-73272381D01*
X95931304Y-73288494D01*
X95368530Y-73851268D01*
X95368530Y-73851269D01*
X95405814Y-73878358D01*
X95562578Y-73958234D01*
X95613374Y-74006209D01*
X95630169Y-74074030D01*
X95607631Y-74140165D01*
X95562578Y-74179204D01*
X95405552Y-74259213D01*
X95244780Y-74376021D01*
X95104268Y-74516533D01*
X94987460Y-74677305D01*
X94897241Y-74854367D01*
X94897240Y-74854370D01*
X94835834Y-75043362D01*
X94815594Y-75171153D01*
X94804747Y-75239639D01*
X94804747Y-75438361D01*
X94812880Y-75489711D01*
X94835834Y-75634637D01*
X94897240Y-75823629D01*
X94897241Y-75823632D01*
X94946934Y-75921158D01*
X94987460Y-76000694D01*
X95104266Y-76161464D01*
X95244783Y-76301981D01*
X95405553Y-76418787D01*
X95524079Y-76479179D01*
X95562027Y-76498515D01*
X95612823Y-76546490D01*
X95629618Y-76614311D01*
X95607080Y-76680446D01*
X95562027Y-76719485D01*
X95405552Y-76799213D01*
X95244780Y-76916021D01*
X95104268Y-77056533D01*
X94987460Y-77217305D01*
X94897241Y-77394367D01*
X94897240Y-77394370D01*
X94835834Y-77583362D01*
X94809259Y-77751152D01*
X94804747Y-77779639D01*
X94804747Y-77978361D01*
X94811105Y-78018501D01*
X94835834Y-78174637D01*
X94897240Y-78363629D01*
X94897241Y-78363632D01*
X94987015Y-78539821D01*
X94987460Y-78540694D01*
X95104266Y-78701464D01*
X95244783Y-78841981D01*
X95405553Y-78958787D01*
X95562579Y-79038796D01*
X95613374Y-79086769D01*
X95630169Y-79154590D01*
X95607632Y-79220725D01*
X95562579Y-79259764D01*
X95405813Y-79339641D01*
X95368530Y-79366729D01*
X95368529Y-79366730D01*
X95931305Y-79929504D01*
X95871166Y-79945619D01*
X95755327Y-80012498D01*
X95660745Y-80107080D01*
X95593866Y-80222919D01*
X95577751Y-80283057D01*
X95014977Y-79720282D01*
X95014976Y-79720283D01*
X94987890Y-79757564D01*
X94897704Y-79934562D01*
X94836322Y-80123476D01*
X94836322Y-80123479D01*
X94805247Y-80319678D01*
X94805247Y-80518321D01*
X94836322Y-80714520D01*
X94836322Y-80714523D01*
X94897704Y-80903437D01*
X94987888Y-81080432D01*
X95014977Y-81117715D01*
X95577751Y-80554941D01*
X95593866Y-80615081D01*
X95660745Y-80730920D01*
X95755327Y-80825502D01*
X95871166Y-80892381D01*
X95931304Y-80908494D01*
X95368530Y-81471268D01*
X95368530Y-81471269D01*
X95405814Y-81498358D01*
X95582809Y-81588542D01*
X95771724Y-81649924D01*
X95967926Y-81681000D01*
X96166568Y-81681000D01*
X96362767Y-81649924D01*
X96362770Y-81649924D01*
X96551684Y-81588542D01*
X96728672Y-81498362D01*
X96765963Y-81471268D01*
X96203189Y-80908494D01*
X96263328Y-80892381D01*
X96379167Y-80825502D01*
X96473749Y-80730920D01*
X96540628Y-80615081D01*
X96556742Y-80554942D01*
X97119515Y-81117715D01*
X97146609Y-81080425D01*
X97226762Y-80923117D01*
X97274736Y-80872321D01*
X97342557Y-80855526D01*
X97408692Y-80878063D01*
X97447732Y-80923117D01*
X97527888Y-81080432D01*
X97554977Y-81117715D01*
X98117751Y-80554941D01*
X98133866Y-80615081D01*
X98200745Y-80730920D01*
X98295327Y-80825502D01*
X98411166Y-80892381D01*
X98471304Y-80908494D01*
X97908530Y-81471268D01*
X97908530Y-81471269D01*
X97945814Y-81498358D01*
X98122809Y-81588542D01*
X98311724Y-81649924D01*
X98507926Y-81681000D01*
X98706568Y-81681000D01*
X98902767Y-81649924D01*
X98902770Y-81649924D01*
X99091684Y-81588542D01*
X99268672Y-81498362D01*
X99305963Y-81471268D01*
X98743189Y-80908494D01*
X98803328Y-80892381D01*
X98919167Y-80825502D01*
X99013749Y-80730920D01*
X99080628Y-80615081D01*
X99096742Y-80554942D01*
X99659515Y-81117715D01*
X99686609Y-81080425D01*
X99776789Y-80903437D01*
X99838171Y-80714523D01*
X99838171Y-80714520D01*
X99869247Y-80518321D01*
X99869247Y-80319678D01*
X99838171Y-80123479D01*
X99838171Y-80123476D01*
X99776789Y-79934562D01*
X99686605Y-79757567D01*
X99659515Y-79720283D01*
X99096741Y-80283057D01*
X99080628Y-80222919D01*
X99013749Y-80107080D01*
X98919167Y-80012498D01*
X98803328Y-79945619D01*
X98743189Y-79929504D01*
X99305963Y-79366731D01*
X99305962Y-79366730D01*
X99268679Y-79339641D01*
X99111364Y-79259485D01*
X99060568Y-79211510D01*
X99043773Y-79143689D01*
X99066310Y-79077554D01*
X99111364Y-79038515D01*
X99268672Y-78958362D01*
X99305963Y-78931268D01*
X98743189Y-78368494D01*
X98803328Y-78352381D01*
X98919167Y-78285502D01*
X99013749Y-78190920D01*
X99080628Y-78075081D01*
X99096742Y-78014942D01*
X99659515Y-78577715D01*
X99686609Y-78540425D01*
X99776789Y-78363437D01*
X99838171Y-78174523D01*
X99838171Y-78174520D01*
X99869247Y-77978321D01*
X99869247Y-77779678D01*
X99838171Y-77583479D01*
X99838171Y-77583476D01*
X99776789Y-77394562D01*
X99686605Y-77217567D01*
X99659515Y-77180283D01*
X99096741Y-77743057D01*
X99080628Y-77682919D01*
X99013749Y-77567080D01*
X98919167Y-77472498D01*
X98803328Y-77405619D01*
X98743189Y-77389504D01*
X99305963Y-76826731D01*
X99305962Y-76826730D01*
X99268679Y-76799641D01*
X99111364Y-76719485D01*
X99060568Y-76671510D01*
X99043773Y-76603689D01*
X99066310Y-76537554D01*
X99111364Y-76498515D01*
X99268672Y-76418362D01*
X99305963Y-76391268D01*
X98743189Y-75828494D01*
X98803328Y-75812381D01*
X98919167Y-75745502D01*
X99013749Y-75650920D01*
X99080628Y-75535081D01*
X99096742Y-75474942D01*
X99659515Y-76037715D01*
X99686609Y-76000425D01*
X99776789Y-75823437D01*
X99838171Y-75634523D01*
X99838171Y-75634520D01*
X99869247Y-75438321D01*
X99869247Y-75239678D01*
X99838171Y-75043479D01*
X99838171Y-75043476D01*
X99776789Y-74854562D01*
X99686605Y-74677567D01*
X99659515Y-74640283D01*
X99096741Y-75203057D01*
X99080628Y-75142919D01*
X99013749Y-75027080D01*
X98919167Y-74932498D01*
X98803328Y-74865619D01*
X98743189Y-74849504D01*
X99305963Y-74286731D01*
X99305962Y-74286730D01*
X99268679Y-74259641D01*
X99111364Y-74179485D01*
X99060568Y-74131510D01*
X99043773Y-74063689D01*
X99066310Y-73997554D01*
X99111364Y-73958515D01*
X99268672Y-73878362D01*
X99305963Y-73851268D01*
X98743189Y-73288494D01*
X98803328Y-73272381D01*
X98919167Y-73205502D01*
X99013749Y-73110920D01*
X99080628Y-72995081D01*
X99096742Y-72934942D01*
X99659515Y-73497715D01*
X99686609Y-73460425D01*
X99776789Y-73283437D01*
X99838171Y-73094523D01*
X99838171Y-73094520D01*
X99869247Y-72898321D01*
X99869247Y-72699678D01*
X99838171Y-72503479D01*
X99838171Y-72503476D01*
X99776789Y-72314562D01*
X99686605Y-72137567D01*
X99659515Y-72100283D01*
X99096741Y-72663057D01*
X99080628Y-72602919D01*
X99013749Y-72487080D01*
X98919167Y-72392498D01*
X98803328Y-72325619D01*
X98743189Y-72309504D01*
X99305963Y-71746731D01*
X99305962Y-71746730D01*
X99268679Y-71719641D01*
X99111915Y-71639765D01*
X99061119Y-71591790D01*
X99044324Y-71523969D01*
X99066862Y-71457834D01*
X99111914Y-71418796D01*
X99268941Y-71338787D01*
X99429711Y-71221981D01*
X99570228Y-71081464D01*
X99687034Y-70920694D01*
X99777252Y-70743632D01*
X99838660Y-70554636D01*
X99869747Y-70358361D01*
X99869747Y-70159639D01*
X99838660Y-69963364D01*
X99784674Y-69797211D01*
X99777253Y-69774370D01*
X99777252Y-69774367D01*
X99723679Y-69669225D01*
X99687034Y-69597306D01*
X99570228Y-69436536D01*
X99429711Y-69296019D01*
X99268941Y-69179213D01*
X99111914Y-69099203D01*
X99061119Y-69051229D01*
X99044324Y-68983408D01*
X99066861Y-68917273D01*
X99111916Y-68878234D01*
X99268669Y-68798364D01*
X99305963Y-68771268D01*
X98743189Y-68208494D01*
X98803328Y-68192381D01*
X98919167Y-68125502D01*
X99013749Y-68030920D01*
X99080628Y-67915081D01*
X99096742Y-67854942D01*
X99659515Y-68417715D01*
X99686609Y-68380425D01*
X99776789Y-68203437D01*
X99838171Y-68014523D01*
X99838171Y-68014520D01*
X99869247Y-67818321D01*
X99869247Y-67619678D01*
X99838171Y-67423479D01*
X99838171Y-67423476D01*
X99776789Y-67234562D01*
X99686605Y-67057567D01*
X99659515Y-67020283D01*
X99096741Y-67583057D01*
X99080628Y-67522919D01*
X99013749Y-67407080D01*
X98919167Y-67312498D01*
X98803328Y-67245619D01*
X98743189Y-67229504D01*
X99305963Y-66666731D01*
X99305962Y-66666730D01*
X99268679Y-66639641D01*
X99111915Y-66559765D01*
X99061119Y-66511790D01*
X99044324Y-66443969D01*
X99066862Y-66377834D01*
X99111914Y-66338796D01*
X99268941Y-66258787D01*
X99429711Y-66141981D01*
X99570228Y-66001464D01*
X99687034Y-65840694D01*
X99777252Y-65663632D01*
X99838660Y-65474636D01*
X99869747Y-65278361D01*
X99869747Y-65079639D01*
X99838660Y-64883364D01*
X99792021Y-64739822D01*
X99777253Y-64694370D01*
X99777252Y-64694367D01*
X99687033Y-64517305D01*
X99686454Y-64516508D01*
X99570228Y-64356536D01*
X99429711Y-64216019D01*
X99268941Y-64099213D01*
X99112465Y-64019484D01*
X99061670Y-63971510D01*
X99044875Y-63903689D01*
X99067412Y-63837554D01*
X99112465Y-63798515D01*
X99268941Y-63718787D01*
X99429711Y-63601981D01*
X99570228Y-63461464D01*
X99687034Y-63300694D01*
X99777252Y-63123632D01*
X99838660Y-62934636D01*
X99869747Y-62738361D01*
X99869747Y-62539639D01*
X99838660Y-62343364D01*
X99796954Y-62215005D01*
X99777253Y-62154370D01*
X99777252Y-62154367D01*
X99728805Y-62059286D01*
X99687034Y-61977306D01*
X99570228Y-61816536D01*
X99429711Y-61676019D01*
X99268941Y-61559213D01*
X99112465Y-61479484D01*
X99061670Y-61431510D01*
X99044875Y-61363689D01*
X99067412Y-61297554D01*
X99112465Y-61258515D01*
X99268941Y-61178787D01*
X99429711Y-61061981D01*
X99570228Y-60921464D01*
X99687034Y-60760694D01*
X99777252Y-60583632D01*
X99838660Y-60394636D01*
X99869747Y-60198361D01*
X99869747Y-59999639D01*
X99838660Y-59803364D01*
X99777252Y-59614368D01*
X99777252Y-59614367D01*
X99687033Y-59437305D01*
X99570228Y-59276536D01*
X99429711Y-59136019D01*
X99304872Y-59045318D01*
X99262206Y-58989988D01*
X99256227Y-58920375D01*
X99288833Y-58858580D01*
X99349671Y-58824223D01*
X99377757Y-58821000D01*
X99417075Y-58821000D01*
X99417091Y-58820999D01*
X99476619Y-58814598D01*
X99476626Y-58814596D01*
X99611333Y-58764354D01*
X99611340Y-58764350D01*
X99726434Y-58678190D01*
X99726437Y-58678187D01*
X99812597Y-58563093D01*
X99812601Y-58563086D01*
X99862843Y-58428379D01*
X99862845Y-58428372D01*
X99869246Y-58368844D01*
X99869247Y-58368827D01*
X99869247Y-57809000D01*
X99049498Y-57809000D01*
X99080628Y-57755081D01*
X99115247Y-57625880D01*
X99115247Y-57492120D01*
X99080628Y-57362919D01*
X99049498Y-57309000D01*
X99869247Y-57309000D01*
X99869247Y-56749172D01*
X99869246Y-56749155D01*
X99862845Y-56689627D01*
X99862843Y-56689620D01*
X99812601Y-56554913D01*
X99812597Y-56554906D01*
X99726437Y-56439812D01*
X99726434Y-56439809D01*
X99611340Y-56353649D01*
X99611333Y-56353645D01*
X99476626Y-56303403D01*
X99476619Y-56303401D01*
X99417091Y-56297000D01*
X98857247Y-56297000D01*
X98857247Y-57116748D01*
X98803328Y-57085619D01*
X98674127Y-57051000D01*
X98540367Y-57051000D01*
X98411166Y-57085619D01*
X98357247Y-57116748D01*
X98357247Y-56297000D01*
X97797402Y-56297000D01*
X97737874Y-56303401D01*
X97737867Y-56303403D01*
X97603160Y-56353645D01*
X97603153Y-56353649D01*
X97488059Y-56439809D01*
X97488056Y-56439812D01*
X97401896Y-56554906D01*
X97401892Y-56554913D01*
X97351650Y-56689620D01*
X97351648Y-56689627D01*
X97345247Y-56749155D01*
X97345247Y-56789342D01*
X97325562Y-56856381D01*
X97272758Y-56902136D01*
X97203600Y-56912080D01*
X97140044Y-56883055D01*
X97120930Y-56862229D01*
X97119516Y-56860283D01*
X97119515Y-56860283D01*
X96556741Y-57423057D01*
X96540628Y-57362919D01*
X96473749Y-57247080D01*
X96379167Y-57152498D01*
X96263328Y-57085619D01*
X96203189Y-57069504D01*
X96765963Y-56506731D01*
X96765962Y-56506730D01*
X96728679Y-56479641D01*
X96551684Y-56389457D01*
X96362769Y-56328075D01*
X96166568Y-56297000D01*
X95967926Y-56297000D01*
X95771726Y-56328075D01*
X95771723Y-56328075D01*
X95582809Y-56389457D01*
X95405811Y-56479643D01*
X95368530Y-56506729D01*
X95368529Y-56506730D01*
X95931305Y-57069504D01*
X95871166Y-57085619D01*
X95755327Y-57152498D01*
X95660745Y-57247080D01*
X95593866Y-57362919D01*
X95577751Y-57423057D01*
X95014977Y-56860282D01*
X95014976Y-56860283D01*
X94987890Y-56897564D01*
X94897704Y-57074562D01*
X94836322Y-57263476D01*
X94836322Y-57263479D01*
X94805247Y-57459678D01*
X94805247Y-57658321D01*
X94836322Y-57854520D01*
X94836322Y-57854523D01*
X94897704Y-58043437D01*
X94987888Y-58220432D01*
X95014977Y-58257715D01*
X95577751Y-57694941D01*
X95593866Y-57755081D01*
X95660745Y-57870920D01*
X95755327Y-57965502D01*
X95871166Y-58032381D01*
X95931304Y-58048494D01*
X95368530Y-58611268D01*
X95368530Y-58611269D01*
X95405814Y-58638358D01*
X95562578Y-58718234D01*
X95613374Y-58766209D01*
X95630169Y-58834030D01*
X95607631Y-58900165D01*
X95562578Y-58939204D01*
X95405552Y-59019213D01*
X95244780Y-59136021D01*
X95104268Y-59276533D01*
X94987460Y-59437305D01*
X94897241Y-59614367D01*
X94897240Y-59614370D01*
X94835834Y-59803362D01*
X94804747Y-59999639D01*
X94804747Y-60198360D01*
X94835834Y-60394637D01*
X94897240Y-60583629D01*
X94897241Y-60583632D01*
X94975310Y-60736848D01*
X94987460Y-60760694D01*
X95104266Y-60921464D01*
X95244783Y-61061981D01*
X95405553Y-61178787D01*
X95455056Y-61204010D01*
X95562027Y-61258515D01*
X95612823Y-61306490D01*
X95629618Y-61374311D01*
X95607080Y-61440446D01*
X95562027Y-61479485D01*
X95405552Y-61559213D01*
X95244780Y-61676021D01*
X95104268Y-61816533D01*
X94987460Y-61977305D01*
X94897241Y-62154367D01*
X94897240Y-62154370D01*
X94835834Y-62343362D01*
X94804747Y-62539639D01*
X94804747Y-62738360D01*
X94835834Y-62934637D01*
X94897240Y-63123629D01*
X94897241Y-63123632D01*
X94987460Y-63300694D01*
X95104266Y-63461464D01*
X95244783Y-63601981D01*
X95405553Y-63718787D01*
X95524079Y-63779179D01*
X95562027Y-63798515D01*
X95612823Y-63846490D01*
X95629618Y-63914311D01*
X95607080Y-63980446D01*
X95562027Y-64019485D01*
X95405552Y-64099213D01*
X95244780Y-64216021D01*
X95104268Y-64356533D01*
X94987460Y-64517305D01*
X94897241Y-64694367D01*
X94897240Y-64694370D01*
X94835834Y-64883362D01*
X94804747Y-65079639D01*
X94804747Y-65278361D01*
X94813067Y-65330889D01*
X94835834Y-65474637D01*
X94897240Y-65663629D01*
X94897241Y-65663632D01*
X94987460Y-65840694D01*
X95104266Y-66001464D01*
X95244783Y-66141981D01*
X95405553Y-66258787D01*
X95562579Y-66338796D01*
X95613374Y-66386769D01*
X95630169Y-66454590D01*
X95607632Y-66520725D01*
X95562579Y-66559764D01*
X95405813Y-66639641D01*
X95368530Y-66666729D01*
X95368529Y-66666730D01*
X95931305Y-67229504D01*
X95871166Y-67245619D01*
X95755327Y-67312498D01*
X95660745Y-67407080D01*
X95593866Y-67522919D01*
X95577751Y-67583057D01*
X95014977Y-67020282D01*
X95014976Y-67020283D01*
X94987890Y-67057564D01*
X94897704Y-67234562D01*
X94836322Y-67423476D01*
X94836322Y-67423479D01*
X94805247Y-67619678D01*
X94805247Y-67818321D01*
X94836322Y-68014520D01*
X94836322Y-68014523D01*
X94897704Y-68203437D01*
X94987888Y-68380432D01*
X95014977Y-68417715D01*
X95577751Y-67854941D01*
X95593866Y-67915081D01*
X95660745Y-68030920D01*
X95755327Y-68125502D01*
X95871166Y-68192381D01*
X95931304Y-68208494D01*
X95368530Y-68771268D01*
X95368530Y-68771269D01*
X95405814Y-68798358D01*
X95562578Y-68878234D01*
X95613374Y-68926209D01*
X95630169Y-68994030D01*
X95607631Y-69060165D01*
X95562578Y-69099204D01*
X95405552Y-69179213D01*
X95244780Y-69296021D01*
X95104268Y-69436533D01*
X94987460Y-69597305D01*
X94897241Y-69774367D01*
X94897240Y-69774370D01*
X94835834Y-69963362D01*
X94804747Y-70159639D01*
X94804747Y-70358361D01*
X94804746Y-70358361D01*
X94827357Y-70501119D01*
X94818402Y-70570412D01*
X94792565Y-70608197D01*
X92787584Y-72613181D01*
X92726261Y-72646666D01*
X92699903Y-72649500D01*
X87670942Y-72649500D01*
X87518214Y-72690423D01*
X87518211Y-72690424D01*
X87501921Y-72699829D01*
X87501922Y-72699830D01*
X87381287Y-72769477D01*
X87381282Y-72769481D01*
X87324157Y-72826607D01*
X87269480Y-72881284D01*
X87269478Y-72881286D01*
X86867328Y-73283437D01*
X86468584Y-73682181D01*
X86407261Y-73715666D01*
X86380903Y-73718500D01*
X84848669Y-73718500D01*
X84848653Y-73718499D01*
X84841057Y-73718499D01*
X84682943Y-73718499D01*
X84575587Y-73747265D01*
X84530210Y-73759424D01*
X84530209Y-73759425D01*
X84480096Y-73788359D01*
X84480095Y-73788360D01*
X84443348Y-73809576D01*
X84393285Y-73838479D01*
X84393282Y-73838481D01*
X83816339Y-74415425D01*
X83755016Y-74448910D01*
X83752850Y-74449361D01*
X83597508Y-74480261D01*
X83597498Y-74480264D01*
X83451827Y-74540602D01*
X83451814Y-74540609D01*
X83320711Y-74628210D01*
X83320707Y-74628213D01*
X83209213Y-74739707D01*
X83209210Y-74739711D01*
X83121609Y-74870814D01*
X83121602Y-74870827D01*
X83061264Y-75016498D01*
X83061261Y-75016510D01*
X83030500Y-75171153D01*
X77681500Y-75171153D01*
X77681500Y-68318328D01*
X91465993Y-68318328D01*
X91465993Y-68476021D01*
X91496754Y-68630664D01*
X91496757Y-68630676D01*
X91557095Y-68776347D01*
X91557102Y-68776360D01*
X91644703Y-68907463D01*
X91644706Y-68907467D01*
X91756200Y-69018961D01*
X91756204Y-69018964D01*
X91887307Y-69106565D01*
X91887320Y-69106572D01*
X92032991Y-69166910D01*
X92032996Y-69166912D01*
X92187646Y-69197674D01*
X92187649Y-69197675D01*
X92187651Y-69197675D01*
X92345337Y-69197675D01*
X92345338Y-69197674D01*
X92499990Y-69166912D01*
X92645672Y-69106569D01*
X92776782Y-69018964D01*
X92888282Y-68907464D01*
X92975887Y-68776354D01*
X93036230Y-68630672D01*
X93066993Y-68476017D01*
X93066993Y-68318333D01*
X93066993Y-68318330D01*
X93066992Y-68318328D01*
X93061514Y-68290789D01*
X93036230Y-68163678D01*
X92998485Y-68072553D01*
X92975890Y-68018002D01*
X92975883Y-68017989D01*
X92888282Y-67886886D01*
X92888279Y-67886882D01*
X92776785Y-67775388D01*
X92776781Y-67775385D01*
X92690761Y-67717908D01*
X92645678Y-67687784D01*
X92645665Y-67687777D01*
X92499994Y-67627439D01*
X92499982Y-67627436D01*
X92345338Y-67596675D01*
X92345335Y-67596675D01*
X92187651Y-67596675D01*
X92187648Y-67596675D01*
X92033003Y-67627436D01*
X92032991Y-67627439D01*
X91887320Y-67687777D01*
X91887307Y-67687784D01*
X91756204Y-67775385D01*
X91756200Y-67775388D01*
X91644706Y-67886882D01*
X91644703Y-67886886D01*
X91557102Y-68017989D01*
X91557095Y-68018002D01*
X91496757Y-68163673D01*
X91496754Y-68163685D01*
X91465993Y-68318328D01*
X77681500Y-68318328D01*
X77681500Y-68210844D01*
X77665331Y-68150500D01*
X77640577Y-68058116D01*
X77636002Y-68050193D01*
X77611639Y-68007996D01*
X77611637Y-68007993D01*
X77609796Y-68004804D01*
X77561520Y-67921185D01*
X77449716Y-67809381D01*
X77449715Y-67809380D01*
X77445385Y-67805050D01*
X77445374Y-67805040D01*
X77165574Y-67525240D01*
X77132089Y-67463917D01*
X77131638Y-67461750D01*
X77105201Y-67328846D01*
X77100737Y-67306404D01*
X77090825Y-67282473D01*
X77040397Y-67160728D01*
X77040390Y-67160715D01*
X76952789Y-67029612D01*
X76952786Y-67029608D01*
X76841292Y-66918114D01*
X76841288Y-66918111D01*
X76710185Y-66830510D01*
X76710172Y-66830503D01*
X76564501Y-66770165D01*
X76564489Y-66770162D01*
X76409845Y-66739401D01*
X76409842Y-66739401D01*
X76252158Y-66739401D01*
X76252155Y-66739401D01*
X76097510Y-66770162D01*
X76097498Y-66770165D01*
X75951827Y-66830503D01*
X75951814Y-66830510D01*
X75820711Y-66918111D01*
X75820707Y-66918114D01*
X75709213Y-67029608D01*
X75709210Y-67029612D01*
X75621609Y-67160715D01*
X75621602Y-67160728D01*
X75561264Y-67306399D01*
X75561261Y-67306411D01*
X75530500Y-67461054D01*
X75530500Y-67618747D01*
X75561261Y-67773390D01*
X75561264Y-67773402D01*
X75621602Y-67919073D01*
X75621609Y-67919086D01*
X75709210Y-68050189D01*
X75709213Y-68050193D01*
X75820707Y-68161687D01*
X75820711Y-68161690D01*
X75951814Y-68249291D01*
X75951827Y-68249298D01*
X76097498Y-68309636D01*
X76097503Y-68309638D01*
X76162147Y-68322496D01*
X76252849Y-68340539D01*
X76269605Y-68349303D01*
X76288085Y-68353324D01*
X76313123Y-68372068D01*
X76314760Y-68372924D01*
X76316339Y-68374475D01*
X76444181Y-68502317D01*
X76477666Y-68563640D01*
X76480500Y-68589998D01*
X76480500Y-70519146D01*
X76460815Y-70586185D01*
X76408011Y-70631940D01*
X76338853Y-70641884D01*
X76309051Y-70633708D01*
X76291804Y-70626564D01*
X76291788Y-70626560D01*
X76137144Y-70595799D01*
X76137141Y-70595799D01*
X75979457Y-70595799D01*
X75979454Y-70595799D01*
X75824809Y-70626560D01*
X75824797Y-70626563D01*
X75679126Y-70686901D01*
X75679113Y-70686908D01*
X75548010Y-70774509D01*
X75548006Y-70774512D01*
X75436512Y-70886006D01*
X75436509Y-70886010D01*
X75348908Y-71017113D01*
X75348901Y-71017126D01*
X75288563Y-71162797D01*
X75288560Y-71162809D01*
X75257799Y-71317452D01*
X75257799Y-71475145D01*
X75288560Y-71629788D01*
X75288563Y-71629800D01*
X75348901Y-71775471D01*
X75348908Y-71775484D01*
X75436509Y-71906587D01*
X75436512Y-71906591D01*
X75548006Y-72018085D01*
X75548010Y-72018088D01*
X75679113Y-72105689D01*
X75679126Y-72105696D01*
X75789518Y-72151421D01*
X75824802Y-72166036D01*
X75979452Y-72196798D01*
X75979455Y-72196799D01*
X75979457Y-72196799D01*
X76137143Y-72196799D01*
X76137144Y-72196798D01*
X76291796Y-72166036D01*
X76309048Y-72158889D01*
X76378516Y-72151421D01*
X76440995Y-72182695D01*
X76476648Y-72242784D01*
X76480500Y-72273451D01*
X76480500Y-76118903D01*
X76460815Y-76185942D01*
X76444181Y-76206584D01*
X75368584Y-77282181D01*
X75341656Y-77296884D01*
X75315838Y-77313477D01*
X75309637Y-77314368D01*
X75307261Y-77315666D01*
X75280903Y-77318500D01*
X75160766Y-77318500D01*
X75093727Y-77298815D01*
X75091875Y-77297602D01*
X74960185Y-77209609D01*
X74960172Y-77209602D01*
X74814501Y-77149264D01*
X74814489Y-77149261D01*
X74659845Y-77118500D01*
X74659842Y-77118500D01*
X74502158Y-77118500D01*
X74502155Y-77118500D01*
X74347510Y-77149261D01*
X74341676Y-77151031D01*
X74340873Y-77148385D01*
X74320114Y-77150543D01*
X74287853Y-77155182D01*
X74285561Y-77154135D01*
X74283056Y-77154396D01*
X74253959Y-77139703D01*
X74224297Y-77126157D01*
X74222934Y-77124036D01*
X74220687Y-77122902D01*
X74204152Y-77094811D01*
X74186523Y-77067379D01*
X74186043Y-77064046D01*
X74185245Y-77062689D01*
X74181500Y-77032444D01*
X74181500Y-76814882D01*
X74201185Y-76747843D01*
X74253989Y-76702088D01*
X74323147Y-76692144D01*
X74364633Y-76708041D01*
X74365446Y-76706521D01*
X74370827Y-76709397D01*
X74516498Y-76769735D01*
X74516503Y-76769737D01*
X74664688Y-76799213D01*
X74671153Y-76800499D01*
X74671156Y-76800500D01*
X74671158Y-76800500D01*
X74828844Y-76800500D01*
X74828845Y-76800499D01*
X74983497Y-76769737D01*
X75129179Y-76709394D01*
X75260289Y-76621789D01*
X75371789Y-76510289D01*
X75459394Y-76379179D01*
X75519737Y-76233497D01*
X75550500Y-76078842D01*
X75550500Y-75921158D01*
X75550500Y-75921155D01*
X75550499Y-75921153D01*
X75535086Y-75843668D01*
X75519737Y-75766503D01*
X75489106Y-75692553D01*
X75459397Y-75620827D01*
X75459390Y-75620814D01*
X75371789Y-75489711D01*
X75371786Y-75489707D01*
X75283170Y-75401091D01*
X75249685Y-75339768D01*
X75254669Y-75270076D01*
X75256258Y-75266037D01*
X75269737Y-75233497D01*
X75300500Y-75078842D01*
X75300500Y-74921158D01*
X75300500Y-74921155D01*
X75300499Y-74921153D01*
X75293333Y-74885127D01*
X75269737Y-74766503D01*
X75269735Y-74766498D01*
X75209397Y-74620827D01*
X75209390Y-74620814D01*
X75121789Y-74489711D01*
X75121786Y-74489707D01*
X75010292Y-74378213D01*
X74934719Y-74327716D01*
X74889915Y-74274103D01*
X74879611Y-74224614D01*
X74879611Y-74158997D01*
X74879610Y-74158995D01*
X74869384Y-74107587D01*
X74848848Y-74004345D01*
X74829865Y-73958515D01*
X74788508Y-73858669D01*
X74788501Y-73858656D01*
X74702398Y-73729794D01*
X74681520Y-73663116D01*
X74681500Y-73660903D01*
X74681500Y-72758060D01*
X74681501Y-72758047D01*
X74681501Y-72589944D01*
X74670310Y-72548179D01*
X74640577Y-72437216D01*
X74587728Y-72345678D01*
X74561524Y-72300290D01*
X74561518Y-72300282D01*
X72967819Y-70706583D01*
X72934334Y-70645260D01*
X72931500Y-70618902D01*
X72931500Y-68167847D01*
X72951185Y-68100808D01*
X73003989Y-68055053D01*
X73031309Y-68046230D01*
X73047291Y-68043050D01*
X73164497Y-68019737D01*
X73310179Y-67959394D01*
X73441289Y-67871789D01*
X73552789Y-67760289D01*
X73640394Y-67629179D01*
X73646669Y-67614031D01*
X73661244Y-67578842D01*
X73700737Y-67483497D01*
X73731500Y-67328842D01*
X73731500Y-67171158D01*
X73731500Y-67169096D01*
X73751185Y-67102057D01*
X73767819Y-67081415D01*
X74212416Y-66636819D01*
X74273739Y-66603334D01*
X74300097Y-66600500D01*
X75413331Y-66600500D01*
X75413347Y-66600501D01*
X75420943Y-66600501D01*
X75579054Y-66600501D01*
X75579057Y-66600501D01*
X75731785Y-66559577D01*
X75800770Y-66519748D01*
X75868716Y-66480520D01*
X75980520Y-66368716D01*
X75980520Y-66368714D01*
X75990724Y-66358511D01*
X75990727Y-66358506D01*
X76764662Y-65584572D01*
X76825983Y-65551089D01*
X76828150Y-65550638D01*
X76886085Y-65539113D01*
X76983497Y-65519737D01*
X77129179Y-65459394D01*
X77260289Y-65371789D01*
X77371789Y-65260289D01*
X77459394Y-65129179D01*
X77519737Y-64983497D01*
X77550500Y-64828842D01*
X77550500Y-64778362D01*
X77558167Y-64739822D01*
X77557473Y-64739636D01*
X77564602Y-64713031D01*
X77600500Y-64579057D01*
X77600500Y-62337743D01*
X77620185Y-62270704D01*
X77672989Y-62224949D01*
X77742147Y-62215005D01*
X77748682Y-62216124D01*
X77781598Y-62222671D01*
X77858655Y-62238000D01*
X77858658Y-62238000D01*
X78016344Y-62238000D01*
X78016345Y-62237999D01*
X78170997Y-62207237D01*
X78298635Y-62154368D01*
X78316672Y-62146897D01*
X78316672Y-62146896D01*
X78316679Y-62146894D01*
X78447789Y-62059289D01*
X78559289Y-61947789D01*
X78646894Y-61816679D01*
X78646955Y-61816533D01*
X78691539Y-61708895D01*
X78707237Y-61670997D01*
X78738000Y-61516342D01*
X78738000Y-61358658D01*
X78738000Y-61358655D01*
X78737999Y-61358653D01*
X78726389Y-61300286D01*
X78707237Y-61204003D01*
X78691234Y-61165367D01*
X78663620Y-61098700D01*
X78646897Y-61058327D01*
X78646890Y-61058314D01*
X78646236Y-61057335D01*
X85068922Y-61057335D01*
X85068922Y-61215028D01*
X85099683Y-61369671D01*
X85099686Y-61369683D01*
X85160024Y-61515354D01*
X85160031Y-61515367D01*
X85247632Y-61646470D01*
X85247635Y-61646474D01*
X85359129Y-61757968D01*
X85359133Y-61757971D01*
X85490236Y-61845572D01*
X85490249Y-61845579D01*
X85558383Y-61873800D01*
X85635925Y-61905919D01*
X85727832Y-61924200D01*
X85735713Y-61926038D01*
X85751397Y-61930240D01*
X85790365Y-61940682D01*
X87511126Y-61940682D01*
X87511142Y-61940683D01*
X87518738Y-61940683D01*
X87676849Y-61940683D01*
X87676852Y-61940683D01*
X87829580Y-61899759D01*
X87879699Y-61870821D01*
X87966511Y-61820702D01*
X88078315Y-61708898D01*
X88078315Y-61708896D01*
X88088523Y-61698689D01*
X88088525Y-61698686D01*
X92057241Y-57729970D01*
X92118564Y-57696485D01*
X92188256Y-57701469D01*
X92244189Y-57743341D01*
X92268606Y-57808805D01*
X92268922Y-57817651D01*
X92268922Y-59190085D01*
X92249237Y-59257124D01*
X92232603Y-59277766D01*
X91558873Y-59951495D01*
X91497550Y-59984980D01*
X91454416Y-59985366D01*
X91454327Y-59986280D01*
X91448265Y-59985683D01*
X91448264Y-59985683D01*
X91290580Y-59985683D01*
X91290577Y-59985683D01*
X91135932Y-60016444D01*
X91135920Y-60016447D01*
X90990249Y-60076785D01*
X90990236Y-60076792D01*
X90859133Y-60164393D01*
X90859129Y-60164396D01*
X90747635Y-60275890D01*
X90747632Y-60275894D01*
X90660031Y-60406997D01*
X90660024Y-60407010D01*
X90599686Y-60552681D01*
X90599683Y-60552693D01*
X90568922Y-60707336D01*
X90568922Y-60865029D01*
X90599683Y-61019672D01*
X90599686Y-61019684D01*
X90660024Y-61165355D01*
X90660031Y-61165368D01*
X90747632Y-61296471D01*
X90747635Y-61296475D01*
X90859129Y-61407969D01*
X90859133Y-61407972D01*
X90990236Y-61495573D01*
X90990249Y-61495580D01*
X91048001Y-61519501D01*
X91135925Y-61555920D01*
X91227854Y-61574205D01*
X91235687Y-61576032D01*
X91290365Y-61590684D01*
X91290366Y-61590684D01*
X91448477Y-61590684D01*
X91448479Y-61590684D01*
X91503147Y-61576034D01*
X91510996Y-61574204D01*
X91602919Y-61555920D01*
X91748601Y-61495577D01*
X91879711Y-61407972D01*
X91991211Y-61296472D01*
X92078816Y-61165362D01*
X92094365Y-61127820D01*
X92121242Y-61087596D01*
X93238135Y-59970704D01*
X93238138Y-59970703D01*
X93349942Y-59858899D01*
X93428999Y-59721967D01*
X93469922Y-59569240D01*
X93469922Y-56429242D01*
X93469923Y-56429229D01*
X93469923Y-56261126D01*
X93428998Y-56108396D01*
X93428995Y-56108391D01*
X93349946Y-55971472D01*
X93349940Y-55971464D01*
X92738139Y-55359663D01*
X92738138Y-55359662D01*
X92651326Y-55309542D01*
X92651326Y-55309541D01*
X92651322Y-55309540D01*
X92601207Y-55280605D01*
X92448479Y-55239681D01*
X92290365Y-55239681D01*
X92282769Y-55239681D01*
X92282753Y-55239682D01*
X91456092Y-55239682D01*
X91456076Y-55239681D01*
X91448480Y-55239681D01*
X91290365Y-55239681D01*
X91214001Y-55260143D01*
X91137636Y-55280605D01*
X91137633Y-55280607D01*
X91058575Y-55326250D01*
X90990675Y-55342721D01*
X90972388Y-55340480D01*
X90948265Y-55335682D01*
X90948264Y-55335682D01*
X90790580Y-55335682D01*
X90790577Y-55335682D01*
X90635932Y-55366443D01*
X90635920Y-55366446D01*
X90490249Y-55426784D01*
X90490236Y-55426791D01*
X90359133Y-55514392D01*
X90359129Y-55514395D01*
X90247635Y-55625889D01*
X90247630Y-55625895D01*
X90213796Y-55676531D01*
X90160183Y-55721336D01*
X90090858Y-55730042D01*
X90041804Y-55710741D01*
X89921064Y-55630064D01*
X89921051Y-55630057D01*
X89775380Y-55569719D01*
X89775368Y-55569716D01*
X89620724Y-55538955D01*
X89620721Y-55538955D01*
X89463037Y-55538955D01*
X89463034Y-55538955D01*
X89308389Y-55569716D01*
X89308377Y-55569719D01*
X89162706Y-55630057D01*
X89162693Y-55630064D01*
X89031590Y-55717665D01*
X89031586Y-55717668D01*
X88920092Y-55829162D01*
X88920089Y-55829166D01*
X88832488Y-55960269D01*
X88832481Y-55960282D01*
X88772143Y-56105953D01*
X88772140Y-56105965D01*
X88741379Y-56260608D01*
X88741379Y-56418301D01*
X88772140Y-56572944D01*
X88772143Y-56572956D01*
X88823052Y-56695863D01*
X88830521Y-56765333D01*
X88823052Y-56790767D01*
X88772143Y-56913673D01*
X88772140Y-56913685D01*
X88741379Y-57068328D01*
X88741379Y-57226021D01*
X88772140Y-57380664D01*
X88772143Y-57380676D01*
X88832481Y-57526347D01*
X88832488Y-57526360D01*
X88920089Y-57657463D01*
X88920092Y-57657467D01*
X89031586Y-57768961D01*
X89031590Y-57768964D01*
X89162693Y-57856565D01*
X89162706Y-57856572D01*
X89265003Y-57898944D01*
X89308382Y-57916912D01*
X89463032Y-57947674D01*
X89463035Y-57947675D01*
X89463037Y-57947675D01*
X89620723Y-57947675D01*
X89620724Y-57947674D01*
X89775376Y-57916912D01*
X89876228Y-57875137D01*
X89945695Y-57867669D01*
X90008175Y-57898944D01*
X90043827Y-57959033D01*
X90041334Y-58028858D01*
X90011360Y-58077380D01*
X87385379Y-60703363D01*
X87324056Y-60736848D01*
X87297698Y-60739682D01*
X86633521Y-60739682D01*
X86566482Y-60719997D01*
X86530420Y-60684574D01*
X86491211Y-60625893D01*
X86491209Y-60625890D01*
X86379714Y-60514395D01*
X86379710Y-60514392D01*
X86248607Y-60426791D01*
X86248594Y-60426784D01*
X86102923Y-60366446D01*
X86102911Y-60366443D01*
X85948267Y-60335682D01*
X85948264Y-60335682D01*
X85790580Y-60335682D01*
X85790577Y-60335682D01*
X85635932Y-60366443D01*
X85635920Y-60366446D01*
X85490249Y-60426784D01*
X85490236Y-60426791D01*
X85359133Y-60514392D01*
X85359129Y-60514395D01*
X85247635Y-60625889D01*
X85247632Y-60625893D01*
X85160031Y-60756996D01*
X85160024Y-60757009D01*
X85099686Y-60902680D01*
X85099683Y-60902692D01*
X85068922Y-61057335D01*
X78646236Y-61057335D01*
X78559289Y-60927211D01*
X78559286Y-60927207D01*
X78447792Y-60815713D01*
X78447788Y-60815710D01*
X78316685Y-60728109D01*
X78316672Y-60728102D01*
X78171001Y-60667764D01*
X78170989Y-60667761D01*
X78016345Y-60637000D01*
X78016342Y-60637000D01*
X77858658Y-60637000D01*
X77858653Y-60637000D01*
X77748691Y-60658873D01*
X77679100Y-60652646D01*
X77623922Y-60609783D01*
X77600678Y-60543893D01*
X77600500Y-60537256D01*
X77600500Y-60404695D01*
X77600499Y-60404691D01*
X77596725Y-60390607D01*
X77588370Y-60359423D01*
X77559577Y-60251967D01*
X77528609Y-60198329D01*
X77528609Y-60198328D01*
X77480524Y-60115042D01*
X77480521Y-60115038D01*
X77480520Y-60115036D01*
X77368716Y-60003232D01*
X77368715Y-60003231D01*
X77364385Y-59998901D01*
X77364374Y-59998891D01*
X76003838Y-58638355D01*
X76003836Y-58638352D01*
X75884965Y-58519481D01*
X75884964Y-58519480D01*
X75798152Y-58469360D01*
X75798152Y-58469359D01*
X75798148Y-58469358D01*
X75748033Y-58440423D01*
X75595305Y-58399499D01*
X75437191Y-58399499D01*
X75429595Y-58399499D01*
X75429579Y-58399500D01*
X72953523Y-58399500D01*
X72953507Y-58399499D01*
X72945911Y-58399499D01*
X72787797Y-58399499D01*
X72680441Y-58428265D01*
X72635064Y-58440424D01*
X72635063Y-58440425D01*
X72584950Y-58469359D01*
X72584949Y-58469360D01*
X72541543Y-58494420D01*
X72498139Y-58519479D01*
X72498136Y-58519481D01*
X72386332Y-58631286D01*
X70735438Y-60282181D01*
X70674115Y-60315666D01*
X70647757Y-60318500D01*
X69967555Y-60318500D01*
X69900516Y-60298815D01*
X69854761Y-60246011D01*
X69844817Y-60176853D01*
X69849840Y-60158588D01*
X69848969Y-60158324D01*
X69850731Y-60152509D01*
X69850737Y-60152497D01*
X69881500Y-59997842D01*
X69881500Y-59840158D01*
X69881500Y-59840155D01*
X69881499Y-59840153D01*
X69850738Y-59685510D01*
X69850737Y-59685503D01*
X69821272Y-59614367D01*
X69790397Y-59539827D01*
X69790390Y-59539814D01*
X69702789Y-59408711D01*
X69702786Y-59408707D01*
X69591292Y-59297213D01*
X69591288Y-59297210D01*
X69460185Y-59209609D01*
X69460172Y-59209602D01*
X69314501Y-59149264D01*
X69314489Y-59149261D01*
X69159845Y-59118500D01*
X69159842Y-59118500D01*
X69002158Y-59118500D01*
X69002155Y-59118500D01*
X68847510Y-59149261D01*
X68847498Y-59149264D01*
X68701827Y-59209602D01*
X68701814Y-59209609D01*
X68570711Y-59297210D01*
X68570707Y-59297213D01*
X68459213Y-59408707D01*
X68459210Y-59408711D01*
X68371609Y-59539814D01*
X68371602Y-59539827D01*
X68311264Y-59685498D01*
X68311261Y-59685510D01*
X68280500Y-59840153D01*
X68280500Y-59997846D01*
X68311261Y-60152489D01*
X68313031Y-60158324D01*
X68310279Y-60159158D01*
X68316503Y-60216359D01*
X68285309Y-60278878D01*
X68225266Y-60314608D01*
X68194445Y-60318500D01*
X66667670Y-60318500D01*
X66667654Y-60318499D01*
X66660058Y-60318499D01*
X66501943Y-60318499D01*
X66437817Y-60335682D01*
X66349214Y-60359423D01*
X66349209Y-60359426D01*
X66212290Y-60438475D01*
X66212282Y-60438481D01*
X65705217Y-60945546D01*
X65705214Y-60945548D01*
X65705215Y-60945549D01*
X65600478Y-61050285D01*
X65587534Y-61072707D01*
X65536966Y-61120922D01*
X65468359Y-61134144D01*
X65403495Y-61108176D01*
X65392466Y-61098387D01*
X65341292Y-61047213D01*
X65341288Y-61047210D01*
X65210185Y-60959609D01*
X65210172Y-60959602D01*
X65064501Y-60899264D01*
X65064489Y-60899261D01*
X64909845Y-60868500D01*
X64909842Y-60868500D01*
X64752158Y-60868500D01*
X64752155Y-60868500D01*
X64597510Y-60899261D01*
X64597498Y-60899264D01*
X64451827Y-60959602D01*
X64451814Y-60959609D01*
X64320125Y-61047602D01*
X64253447Y-61068480D01*
X64251234Y-61068500D01*
X63251940Y-61068500D01*
X63211019Y-61079464D01*
X63211019Y-61079465D01*
X63173751Y-61089451D01*
X63099214Y-61109423D01*
X63099209Y-61109426D01*
X62962290Y-61188475D01*
X62962282Y-61188481D01*
X55600479Y-68550284D01*
X55584298Y-68578311D01*
X55577459Y-68590158D01*
X55521423Y-68687215D01*
X55480499Y-68839943D01*
X55480499Y-68998057D01*
X55480499Y-68998059D01*
X55480500Y-69008053D01*
X55480500Y-74832330D01*
X55480499Y-74832348D01*
X55480499Y-74998054D01*
X55480498Y-74998054D01*
X45315202Y-74998054D01*
X45315202Y-54242047D01*
X45334887Y-54175008D01*
X45387691Y-54129253D01*
X45439202Y-54118047D01*
X52287542Y-54118047D01*
X52424911Y-54118383D01*
X52424911Y-54118382D01*
X52424916Y-54118383D01*
X52698211Y-54083069D01*
X52964551Y-54012357D01*
X53219371Y-53907459D01*
X53458306Y-53770172D01*
X53677259Y-53602850D01*
X53872479Y-53408361D01*
X54040620Y-53190036D01*
X54178801Y-52951618D01*
X54284654Y-52697192D01*
X54288831Y-52681695D01*
X54290862Y-52674161D01*
X54335739Y-52507644D01*
X54356363Y-52431119D01*
X54392702Y-52157958D01*
X54393046Y-51882392D01*
X54357391Y-51609141D01*
X54331547Y-51512286D01*
X54286347Y-51342892D01*
X54283608Y-51336263D01*
X54266060Y-51293786D01*
X71074334Y-51293786D01*
X71074334Y-51553501D01*
X71114963Y-51810021D01*
X71195217Y-52057021D01*
X71313130Y-52288435D01*
X71394285Y-52400136D01*
X71394286Y-52400137D01*
X71933855Y-51860567D01*
X72025258Y-51997361D01*
X72150617Y-52122720D01*
X72287409Y-52214121D01*
X71747839Y-52753690D01*
X71747840Y-52753692D01*
X71859542Y-52834847D01*
X72090956Y-52952760D01*
X72337956Y-53033014D01*
X72594477Y-53073644D01*
X72854191Y-53073644D01*
X73110711Y-53033014D01*
X73357711Y-52952760D01*
X73589122Y-52834849D01*
X73700826Y-52753690D01*
X73700827Y-52753690D01*
X73161258Y-52214121D01*
X73298051Y-52122720D01*
X73423410Y-51997361D01*
X73514811Y-51860568D01*
X74054380Y-52400137D01*
X74054380Y-52400136D01*
X74135539Y-52288432D01*
X74253450Y-52057021D01*
X74333704Y-51810021D01*
X74374334Y-51553501D01*
X74374334Y-51293786D01*
X75274334Y-51293786D01*
X75274334Y-51553501D01*
X75314963Y-51810021D01*
X75395217Y-52057021D01*
X75513130Y-52288435D01*
X75594285Y-52400136D01*
X75594286Y-52400137D01*
X76133855Y-51860567D01*
X76225258Y-51997361D01*
X76350617Y-52122720D01*
X76487409Y-52214121D01*
X75947839Y-52753690D01*
X75947840Y-52753692D01*
X76059542Y-52834847D01*
X76290956Y-52952760D01*
X76537956Y-53033014D01*
X76794477Y-53073644D01*
X77054191Y-53073644D01*
X77310711Y-53033014D01*
X77557711Y-52952760D01*
X77789122Y-52834849D01*
X77842382Y-52796153D01*
X87824500Y-52796153D01*
X87824500Y-52953846D01*
X87855261Y-53108489D01*
X87855264Y-53108501D01*
X87915602Y-53254172D01*
X87915609Y-53254185D01*
X88003210Y-53385288D01*
X88003213Y-53385292D01*
X88114707Y-53496786D01*
X88114711Y-53496789D01*
X88245814Y-53584390D01*
X88245827Y-53584397D01*
X88391498Y-53644735D01*
X88391503Y-53644737D01*
X88546153Y-53675499D01*
X88546156Y-53675500D01*
X88546158Y-53675500D01*
X88703844Y-53675500D01*
X88703845Y-53675499D01*
X88858497Y-53644737D01*
X89004179Y-53584394D01*
X89135289Y-53496789D01*
X89246789Y-53385289D01*
X89334394Y-53254179D01*
X89394737Y-53108497D01*
X89425500Y-52953842D01*
X89425500Y-52796158D01*
X89425500Y-52796155D01*
X89425499Y-52796153D01*
X89417053Y-52753692D01*
X89394737Y-52641503D01*
X89339949Y-52509231D01*
X89334397Y-52495827D01*
X89334390Y-52495814D01*
X89246789Y-52364711D01*
X89246786Y-52364707D01*
X89135292Y-52253213D01*
X89135288Y-52253210D01*
X89004185Y-52165609D01*
X89004172Y-52165602D01*
X88858501Y-52105264D01*
X88858489Y-52105261D01*
X88703845Y-52074500D01*
X88703842Y-52074500D01*
X88546158Y-52074500D01*
X88546155Y-52074500D01*
X88391510Y-52105261D01*
X88391498Y-52105264D01*
X88245827Y-52165602D01*
X88245814Y-52165609D01*
X88114711Y-52253210D01*
X88114707Y-52253213D01*
X88003213Y-52364707D01*
X88003210Y-52364711D01*
X87915609Y-52495814D01*
X87915602Y-52495827D01*
X87855264Y-52641498D01*
X87855261Y-52641510D01*
X87824500Y-52796153D01*
X77842382Y-52796153D01*
X77900827Y-52753690D01*
X77361258Y-52214121D01*
X77498051Y-52122720D01*
X77623410Y-51997361D01*
X77714811Y-51860568D01*
X78254380Y-52400137D01*
X78254380Y-52400136D01*
X78335539Y-52288432D01*
X78453450Y-52057021D01*
X78533704Y-51810021D01*
X78574334Y-51553501D01*
X78574334Y-51293786D01*
X78533704Y-51037266D01*
X78453450Y-50790266D01*
X78335537Y-50558852D01*
X78254382Y-50447150D01*
X78254380Y-50447149D01*
X77714811Y-50986718D01*
X77623410Y-50849927D01*
X77498051Y-50724568D01*
X77361258Y-50633166D01*
X77900827Y-50093596D01*
X77900826Y-50093595D01*
X77789125Y-50012440D01*
X77557711Y-49894527D01*
X77310711Y-49814273D01*
X77054191Y-49773644D01*
X76794477Y-49773644D01*
X76537956Y-49814273D01*
X76290956Y-49894527D01*
X76059549Y-50012436D01*
X75947840Y-50093596D01*
X76487410Y-50633166D01*
X76350617Y-50724568D01*
X76225258Y-50849927D01*
X76133856Y-50986720D01*
X75594286Y-50447150D01*
X75513126Y-50558859D01*
X75395217Y-50790266D01*
X75314963Y-51037266D01*
X75274334Y-51293786D01*
X74374334Y-51293786D01*
X74333704Y-51037266D01*
X74253450Y-50790266D01*
X74135537Y-50558852D01*
X74054382Y-50447150D01*
X74054380Y-50447149D01*
X73514811Y-50986718D01*
X73423410Y-50849927D01*
X73298051Y-50724568D01*
X73161258Y-50633166D01*
X73700827Y-50093596D01*
X73700826Y-50093595D01*
X73589125Y-50012440D01*
X73357711Y-49894527D01*
X73110711Y-49814273D01*
X72854191Y-49773644D01*
X72594477Y-49773644D01*
X72337956Y-49814273D01*
X72090956Y-49894527D01*
X71859549Y-50012436D01*
X71747840Y-50093596D01*
X72287410Y-50633166D01*
X72150617Y-50724568D01*
X72025258Y-50849927D01*
X71933856Y-50986720D01*
X71394286Y-50447150D01*
X71313126Y-50558859D01*
X71195217Y-50790266D01*
X71114963Y-51037266D01*
X71074334Y-51293786D01*
X54266060Y-51293786D01*
X54181130Y-51088200D01*
X54043545Y-50849437D01*
X53875950Y-50630693D01*
X53681217Y-50435716D01*
X53462682Y-50267847D01*
X53224092Y-50129964D01*
X52969534Y-50024430D01*
X52969535Y-50024430D01*
X52969532Y-50024429D01*
X52703370Y-49953051D01*
X52703358Y-49953049D01*
X52430177Y-49917054D01*
X52430159Y-49917053D01*
X52365898Y-49917050D01*
X52365844Y-49917047D01*
X52358274Y-49917047D01*
X45439202Y-49917047D01*
X45372163Y-49897362D01*
X45326408Y-49844558D01*
X45315202Y-49793047D01*
X45315202Y-44725779D01*
X71073834Y-44725779D01*
X71073834Y-47121514D01*
X71073835Y-47121520D01*
X71080242Y-47181127D01*
X71130536Y-47315972D01*
X71130540Y-47315979D01*
X71216786Y-47431188D01*
X71216789Y-47431191D01*
X71331998Y-47517437D01*
X71332005Y-47517441D01*
X71466851Y-47567735D01*
X71466850Y-47567735D01*
X71473778Y-47568479D01*
X71526461Y-47574144D01*
X73922206Y-47574143D01*
X73981817Y-47567735D01*
X74116665Y-47517440D01*
X74231880Y-47431190D01*
X74318130Y-47315975D01*
X74368425Y-47181127D01*
X74374834Y-47121517D01*
X74374833Y-45793741D01*
X75273834Y-45793741D01*
X75273834Y-46053546D01*
X75314474Y-46310137D01*
X75394756Y-46557220D01*
X75475868Y-46716408D01*
X75512700Y-46788695D01*
X75665403Y-46998873D01*
X75849105Y-47182575D01*
X76059283Y-47335278D01*
X76206779Y-47410431D01*
X76290757Y-47453221D01*
X76290759Y-47453221D01*
X76290762Y-47453223D01*
X76537841Y-47533504D01*
X76670040Y-47554441D01*
X76794432Y-47574144D01*
X76794437Y-47574144D01*
X77054236Y-47574144D01*
X77167632Y-47556183D01*
X77310827Y-47533504D01*
X77503936Y-47470759D01*
X87699500Y-47470759D01*
X87699500Y-47628452D01*
X87730261Y-47783095D01*
X87730264Y-47783107D01*
X87790602Y-47928778D01*
X87790609Y-47928791D01*
X87878210Y-48059894D01*
X87878213Y-48059898D01*
X87989707Y-48171392D01*
X87989711Y-48171395D01*
X88120814Y-48258996D01*
X88120827Y-48259003D01*
X88266498Y-48319341D01*
X88266503Y-48319343D01*
X88421153Y-48350105D01*
X88421156Y-48350106D01*
X88421158Y-48350106D01*
X88578844Y-48350106D01*
X88578845Y-48350105D01*
X88733497Y-48319343D01*
X88879179Y-48259000D01*
X89010289Y-48171395D01*
X89121789Y-48059895D01*
X89209394Y-47928785D01*
X89269737Y-47783103D01*
X89300500Y-47628448D01*
X89300500Y-47470764D01*
X89300500Y-47470761D01*
X89300499Y-47470759D01*
X89269738Y-47316116D01*
X89269737Y-47316109D01*
X89269683Y-47315979D01*
X89209397Y-47170433D01*
X89209390Y-47170420D01*
X89121789Y-47039317D01*
X89121786Y-47039313D01*
X89010292Y-46927819D01*
X89010288Y-46927816D01*
X88879185Y-46840215D01*
X88879172Y-46840208D01*
X88733501Y-46779870D01*
X88733489Y-46779867D01*
X88578845Y-46749106D01*
X88578842Y-46749106D01*
X88421158Y-46749106D01*
X88421155Y-46749106D01*
X88266510Y-46779867D01*
X88266498Y-46779870D01*
X88120827Y-46840208D01*
X88120814Y-46840215D01*
X87989711Y-46927816D01*
X87989707Y-46927819D01*
X87878213Y-47039313D01*
X87878210Y-47039317D01*
X87790609Y-47170420D01*
X87790602Y-47170433D01*
X87730264Y-47316104D01*
X87730261Y-47316116D01*
X87699500Y-47470759D01*
X77503936Y-47470759D01*
X77557906Y-47453223D01*
X77789385Y-47335278D01*
X77999563Y-47182575D01*
X78183265Y-46998873D01*
X78335968Y-46788695D01*
X78453913Y-46557216D01*
X78534194Y-46310137D01*
X78556873Y-46166942D01*
X78574834Y-46053546D01*
X78574834Y-45793741D01*
X78553281Y-45657665D01*
X78534194Y-45537151D01*
X78453913Y-45290072D01*
X78453911Y-45290069D01*
X78453911Y-45290067D01*
X78411121Y-45206089D01*
X78335968Y-45058593D01*
X78183265Y-44848415D01*
X77999563Y-44664713D01*
X77815956Y-44531315D01*
X77789388Y-44512012D01*
X77789387Y-44512011D01*
X77789385Y-44512010D01*
X77717098Y-44475178D01*
X77557910Y-44394066D01*
X77310827Y-44313784D01*
X77054236Y-44273144D01*
X77054231Y-44273144D01*
X76794437Y-44273144D01*
X76794432Y-44273144D01*
X76537840Y-44313784D01*
X76290757Y-44394066D01*
X76059279Y-44512012D01*
X75849108Y-44664710D01*
X75849102Y-44664715D01*
X75665405Y-44848412D01*
X75665400Y-44848418D01*
X75512702Y-45058589D01*
X75394756Y-45290067D01*
X75314474Y-45537150D01*
X75273834Y-45793741D01*
X74374833Y-45793741D01*
X74374833Y-44725772D01*
X74368425Y-44666161D01*
X74318130Y-44531313D01*
X74318129Y-44531312D01*
X74318127Y-44531308D01*
X74231881Y-44416099D01*
X74231878Y-44416096D01*
X74116669Y-44329850D01*
X74116662Y-44329846D01*
X73981816Y-44279552D01*
X73981817Y-44279552D01*
X73922217Y-44273145D01*
X73922215Y-44273144D01*
X73922207Y-44273144D01*
X73922198Y-44273144D01*
X71526463Y-44273144D01*
X71526457Y-44273145D01*
X71466850Y-44279552D01*
X71332005Y-44329846D01*
X71331998Y-44329850D01*
X71216789Y-44416096D01*
X71216786Y-44416099D01*
X71130540Y-44531308D01*
X71130536Y-44531315D01*
X71080242Y-44666161D01*
X71073835Y-44725760D01*
X71073835Y-44725767D01*
X71073834Y-44725779D01*
X45315202Y-44725779D01*
X45315202Y-41602355D01*
X66373834Y-41602355D01*
X66373834Y-41844932D01*
X66405495Y-42085429D01*
X66468281Y-42319748D01*
X66561107Y-42543849D01*
X66561110Y-42543856D01*
X66682398Y-42753933D01*
X66682400Y-42753936D01*
X66682401Y-42753937D01*
X66830067Y-42946380D01*
X66830073Y-42946387D01*
X67001590Y-43117904D01*
X67001596Y-43117909D01*
X67194045Y-43265580D01*
X67404122Y-43386868D01*
X67628234Y-43479698D01*
X67862545Y-43542482D01*
X68042920Y-43566228D01*
X68103045Y-43574144D01*
X68103046Y-43574144D01*
X68345623Y-43574144D01*
X68393722Y-43567811D01*
X68586123Y-43542482D01*
X68820434Y-43479698D01*
X69044546Y-43386868D01*
X69254623Y-43265580D01*
X69447072Y-43117909D01*
X69618599Y-42946382D01*
X69766270Y-42753933D01*
X69887558Y-42543856D01*
X69980388Y-42319744D01*
X70043172Y-42085433D01*
X70074834Y-41844932D01*
X70074834Y-41602356D01*
X70074834Y-41602355D01*
X79573834Y-41602355D01*
X79573834Y-41844932D01*
X79605495Y-42085429D01*
X79668281Y-42319748D01*
X79761107Y-42543849D01*
X79761110Y-42543856D01*
X79882398Y-42753933D01*
X79882400Y-42753936D01*
X79882401Y-42753937D01*
X80030067Y-42946380D01*
X80030073Y-42946387D01*
X80201590Y-43117904D01*
X80201596Y-43117909D01*
X80394045Y-43265580D01*
X80604122Y-43386868D01*
X80828234Y-43479698D01*
X81062545Y-43542482D01*
X81242920Y-43566228D01*
X81303045Y-43574144D01*
X81303046Y-43574144D01*
X81545623Y-43574144D01*
X81593722Y-43567811D01*
X81786123Y-43542482D01*
X82020434Y-43479698D01*
X82244546Y-43386868D01*
X82454623Y-43265580D01*
X82647072Y-43117909D01*
X82818599Y-42946382D01*
X82966270Y-42753933D01*
X83087558Y-42543856D01*
X83180388Y-42319744D01*
X83243172Y-42085433D01*
X83274834Y-41844932D01*
X83274834Y-41602356D01*
X83243172Y-41361855D01*
X83180388Y-41127544D01*
X83087558Y-40903432D01*
X82966270Y-40693355D01*
X82818599Y-40500906D01*
X82818594Y-40500900D01*
X82647077Y-40329383D01*
X82647070Y-40329377D01*
X82454627Y-40181711D01*
X82454626Y-40181710D01*
X82454623Y-40181708D01*
X82244546Y-40060420D01*
X82244539Y-40060417D01*
X82020438Y-39967591D01*
X81786119Y-39904805D01*
X81545623Y-39873144D01*
X81545622Y-39873144D01*
X81303046Y-39873144D01*
X81303045Y-39873144D01*
X81062548Y-39904805D01*
X80828229Y-39967591D01*
X80604128Y-40060417D01*
X80604119Y-40060421D01*
X80394040Y-40181711D01*
X80201597Y-40329377D01*
X80201590Y-40329383D01*
X80030073Y-40500900D01*
X80030067Y-40500907D01*
X79882401Y-40693350D01*
X79761111Y-40903429D01*
X79761107Y-40903438D01*
X79668281Y-41127539D01*
X79605495Y-41361858D01*
X79573834Y-41602355D01*
X70074834Y-41602355D01*
X70043172Y-41361855D01*
X69980388Y-41127544D01*
X69887558Y-40903432D01*
X69766270Y-40693355D01*
X69618599Y-40500906D01*
X69618594Y-40500900D01*
X69447077Y-40329383D01*
X69447070Y-40329377D01*
X69254627Y-40181711D01*
X69254626Y-40181710D01*
X69254623Y-40181708D01*
X69044546Y-40060420D01*
X69044539Y-40060417D01*
X68820438Y-39967591D01*
X68586119Y-39904805D01*
X68345623Y-39873144D01*
X68345622Y-39873144D01*
X68103046Y-39873144D01*
X68103045Y-39873144D01*
X67862548Y-39904805D01*
X67628229Y-39967591D01*
X67404128Y-40060417D01*
X67404119Y-40060421D01*
X67194040Y-40181711D01*
X67001597Y-40329377D01*
X67001590Y-40329383D01*
X66830073Y-40500900D01*
X66830067Y-40500907D01*
X66682401Y-40693350D01*
X66561111Y-40903429D01*
X66561107Y-40903438D01*
X66468281Y-41127539D01*
X66405495Y-41361858D01*
X66373834Y-41602355D01*
X45315202Y-41602355D01*
X45315202Y-39612610D01*
X45334887Y-39545571D01*
X45387691Y-39499816D01*
X45439202Y-39488610D01*
X64948810Y-39488610D01*
X84548810Y-39488610D01*
X104190202Y-39488610D01*
X104257241Y-39508295D01*
G37*
%TD.AperFunction*%
%TD*%
M02*
