M48
; DRILL file {KiCad 9.0.6} date 2026-03-01T18:26:49+0000
; FORMAT={-:-/ absolute / metric / decimal}
; #@! TF.CreationDate,2026-03-01T18:26:49+00:00
; #@! TF.GenerationSoftware,Kicad,Pcbnew,9.0.6
; #@! TF.FileFunction,Plated,1,6,PTH
FMAT,2
METRIC
; #@! TA.AperFunction,Plated,PTH,ViaDrill
T1C0.300
; #@! TA.AperFunction,Plated,PTH,ComponentDrill
T2C1.016
; #@! TA.AperFunction,Plated,PTH,ComponentDrill
T3C1.800
%
G90
G05
T1
X50.854Y-83.488
X50.864Y-49.572
X50.952Y-54.449
X50.952Y-88.449
X52.508Y-49.572
X52.518Y-83.436
X52.614Y-54.488
X52.614Y-88.488
X54.146Y-53.787
X54.146Y-87.787
X54.224Y-50.34
X54.224Y-84.34
X54.251Y-72.582
X54.864Y-52.072
X54.864Y-86.072
X57.581Y-68.669
X57.581Y-70.654
X59.433Y-72.318
X62.331Y-75.169
X62.331Y-77.669
X62.831Y-65.419
X63.331Y-80.169
X64.081Y-81.169
X64.831Y-61.669
X64.831Y-67.669
X64.831Y-72.169
X64.831Y-73.169
X64.881Y-81.169
X65.027Y-71.0
X65.743Y-69.613
X66.0Y-59.5
X66.081Y-61.919
X66.365Y-77.519
X66.787Y-65.379
X67.331Y-71.5
X67.831Y-80.919
X68.0Y-67.5
X68.287Y-62.169
X68.331Y-70.991
X68.355Y-72.51
X68.917Y-67.758
X69.081Y-59.919
X69.081Y-70.419
X69.25Y-96.5
X69.581Y-77.919
X69.831Y-79.669
X69.857Y-65.422
X69.981Y-78.669
X70.081Y-70.419
X70.502Y-74.73
X70.831Y-62.669
X70.831Y-64.419
X70.831Y-79.419
X70.831Y-82.919
X70.881Y-70.411
X71.0Y-59.648
X71.235Y-78.305
X71.788Y-63.814
X71.831Y-79.876
X72.209Y-74.5
X72.25Y-91.5
X72.449Y-64.739
X72.931Y-67.25
X72.99Y-59.847
X73.081Y-83.419
X73.526Y-91.625
X73.724Y-70.34
X73.901Y-59.764
X73.92Y-79.929
X74.079Y-74.238
X74.172Y-67.4
X74.247Y-64.709
X74.5Y-75.0
X74.581Y-77.919
X74.75Y-76.0
X74.751Y-59.733
X74.831Y-78.919
X74.831Y-79.719
X74.931Y-76.919
X75.081Y-84.919
X76.058Y-71.396
X76.231Y-58.65
X76.331Y-67.54
X76.75Y-64.75
X77.0Y-66.0
X77.938Y-61.438
X78.25Y-93.25
X78.5Y-73.5
X78.581Y-78.419
X78.75Y-55.75
X78.75Y-56.75
X78.75Y-57.75
X78.75Y-58.75
X78.75Y-59.75
X78.75Y-60.75
X78.75Y-61.75
X78.75Y-62.75
X78.75Y-63.75
X78.75Y-64.75
X78.75Y-65.75
X78.75Y-66.75
X78.75Y-67.75
X78.75Y-68.75
X78.75Y-69.75
X78.75Y-70.75
X79.75Y-55.75
X79.75Y-56.75
X79.75Y-57.75
X79.75Y-58.75
X79.75Y-59.75
X79.75Y-60.75
X79.75Y-61.75
X79.75Y-62.75
X79.75Y-63.75
X79.75Y-64.75
X79.75Y-65.75
X79.75Y-66.75
X79.75Y-67.75
X79.75Y-68.75
X79.75Y-69.75
X79.75Y-70.75
X80.25Y-96.25
X80.75Y-55.75
X80.75Y-56.75
X80.75Y-57.75
X80.75Y-58.75
X80.75Y-59.75
X80.75Y-60.75
X80.75Y-61.75
X80.75Y-62.75
X80.75Y-63.75
X80.75Y-64.75
X80.75Y-65.75
X80.75Y-66.75
X80.75Y-67.75
X80.75Y-68.75
X80.75Y-69.75
X80.75Y-70.75
X81.75Y-55.75
X81.75Y-56.75
X81.75Y-57.75
X81.75Y-58.75
X81.75Y-59.75
X81.75Y-60.75
X81.75Y-61.75
X81.75Y-62.75
X81.75Y-63.75
X81.75Y-64.75
X81.75Y-65.75
X81.75Y-66.75
X81.75Y-67.75
X81.75Y-68.75
X81.75Y-69.75
X81.75Y-70.75
X82.036Y-97.255
X83.0Y-78.0
X83.015Y-75.557
X83.831Y-75.25
X84.5Y-76.0
X84.869Y-57.636
X84.869Y-59.136
X84.869Y-60.636
X84.869Y-62.136
X85.869Y-61.136
X85.91Y-67.448
X85.949Y-65.412
X85.949Y-66.412
X85.949Y-68.412
X85.949Y-69.412
X86.331Y-79.169
X86.616Y-54.295
X86.68Y-57.405
X86.788Y-56.221
X87.973Y-74.278
X88.0Y-51.5
X88.25Y-78.75
X88.625Y-52.875
X89.065Y-70.292
X89.542Y-56.339
X89.542Y-57.147
X89.75Y-50.25
X90.5Y-96.0
X90.783Y-57.103
X90.831Y-76.169
X90.869Y-56.136
X91.266Y-65.897
X91.369Y-60.786
X91.733Y-56.773
X92.016Y-67.147
X92.266Y-68.397
X93.209Y-54.662
X93.581Y-78.669
X93.831Y-69.669
X93.831Y-74.169
X94.817Y-51.918
X94.817Y-85.918
X95.458Y-53.65
X95.458Y-87.65
X95.535Y-50.203
X95.535Y-84.203
X97.067Y-49.502
X97.067Y-83.502
X97.174Y-54.418
X97.174Y-88.418
X98.729Y-49.541
X98.729Y-83.541
X98.817Y-54.418
X98.817Y-88.418
T2
X96.067Y-57.559
X96.067Y-60.099
X96.067Y-62.639
X96.067Y-65.179
X96.067Y-67.719
X96.067Y-70.259
X96.067Y-72.799
X96.067Y-75.339
X96.067Y-77.879
X96.067Y-80.419
X98.607Y-57.559
X98.607Y-60.099
X98.607Y-62.639
X98.607Y-65.179
X98.607Y-67.719
X98.607Y-70.259
X98.607Y-72.799
X98.607Y-75.339
X98.607Y-77.879
X98.607Y-80.419
T3
X72.724Y-45.924
X72.724Y-51.424
X76.924Y-45.924
X76.924Y-51.424
M30
