ISO-10303-21;
HEADER;
/* Generated by software containing ST-Developer
 * from STEP Tools, Inc. (www.steptools.com) 
 */

FILE_DESCRIPTION(
/* description */ (''),
/* implementation_level */ '2;1');

FILE_NAME(
/* name */ 'AT-1224-TWT-12V-2-R.ipt.step',
/* time_stamp */ '2024-02-07T22:31:37-05:00',
/* author */ ('Lyons'),
/* organization */ (''),
/* preprocessor_version */ 'ST-DEVELOPER v20',
/* originating_system */ 'Autodesk Inventor 2024',
/* authorisation */ '');

FILE_SCHEMA (('AUTOMOTIVE_DESIGN { 1 0 10303 214 3 1 1 }'));
ENDSEC;

DATA;
#10=MECHANICAL_DESIGN_GEOMETRIC_PRESENTATION_REPRESENTATION('',(#20,#21,
#22,#23,#24,#25,#26,#27,#28,#29,#30,#31,#32,#33,#34,#35,#36,#37,#38,#39,
#40,#41,#42,#43,#44,#45,#46,#47,#48,#49),#1139);
#11=SHAPE_REPRESENTATION_RELATIONSHIP('SRR','None',#1146,#12);
#12=ADVANCED_BREP_SHAPE_REPRESENTATION('',(#569),#1138);
#13=B_SPLINE_CURVE_WITH_KNOTS('',3,(#904,#905,#906,#907,#908,#909,#910,
#911,#912,#913,#914,#915,#916,#917,#918,#919,#920,#921,#922,#923,#924,#925,
#926,#927,#928,#929,#930,#931),.UNSPECIFIED.,.F.,.F.,(4,2,2,2,2,2,2,2,2,
2,2,2,2,4),(-0.0946413036950325,-0.0940022191234988,-0.0827485298332097,
-0.0720930578615221,-0.0621862779985356,-0.0511735595913409,-0.0473925933800895,
-0.0450166828350985,-0.0428555535076764,-0.0401100403771236,-0.0347184538173125,
-0.0233554050022091,-0.0118676764317405,0.),.UNSPECIFIED.);
#14=B_SPLINE_CURVE_WITH_KNOTS('',3,(#936,#937,#938,#939,#940,#941,#942,
#943,#944,#945,#946,#947,#948,#949,#950,#951,#952,#953,#954,#955,#956,#957,
#958,#959,#960,#961,#962,#963),.UNSPECIFIED.,.F.,.F.,(4,2,2,2,2,2,2,2,2,
2,2,2,2,4),(0.,0.00593575787380921,0.0121980936642973,0.022239150622358,
0.0342488883608534,0.0399081626799707,0.0427117499072147,0.0448808148969469,
0.0472278229076859,0.0508860046064117,0.0603139504982062,0.0715736807957856,
0.0833912283833368,0.0946225094299279),.UNSPECIFIED.);
#15=B_SPLINE_CURVE_WITH_KNOTS('',3,(#966,#967,#968,#969,#970,#971,#972,
#973,#974,#975,#976,#977,#978,#979,#980,#981,#982,#983,#984,#985,#986,#987,
#988,#989,#990,#991,#992,#993,#994,#995,#996,#997,#998,#999,#1000,#1001,
#1002,#1003,#1004,#1005,#1006,#1007,#1008),.UNSPECIFIED.,.F.,.F.,(4,3,3,
3,3,3,3,3,3,3,3,3,3,3,4),(-0.189238159460982,-0.183405132920007,-0.177258051480988,
-0.167230530869402,-0.158188781323235,-0.151074887456037,-0.147592812621255,
-0.145713514448036,-0.144165485155585,-0.142378264383441,-0.139306176756372,
-0.129312741118037,-0.118255520205308,-0.106454976102544,-0.0946317203303288),
 .UNSPECIFIED.);
#16=B_SPLINE_CURVE_WITH_KNOTS('',3,(#1009,#1010,#1011,#1012,#1013,#1014,
#1015,#1016,#1017,#1018,#1019,#1020,#1021,#1022,#1023,#1024,#1025,#1026,
#1027,#1028,#1029,#1030,#1031,#1032,#1033,#1034,#1035,#1036,#1037,#1038,
#1039,#1040,#1041,#1042,#1043,#1044,#1045,#1046,#1047,#1048,#1049,#1050,
#1051),.UNSPECIFIED.,.F.,.F.,(4,3,3,3,3,3,3,3,3,3,3,3,3,3,4),(-0.0946317203303288,
-0.0945468431843097,-0.0832747527563739,-0.0726140136493254,-0.0627283329891082,
-0.0525017229552068,-0.0479981444482657,-0.0458516147417251,-0.0442687523706185,
-0.0426186856913984,-0.0401449414340999,-0.0339283475183346,-0.0233259678838083,
-0.0118671017347622,0.),.UNSPECIFIED.);
#17=(
BOUNDED_CURVE()
B_SPLINE_CURVE(2,(#900,#901,#902),.UNSPECIFIED.,.F.,.F.)
B_SPLINE_CURVE_WITH_KNOTS((3,3),(1.42996124579839,1.4772787034861),
 .UNSPECIFIED.)
CURVE()
GEOMETRIC_REPRESENTATION_ITEM()
RATIONAL_B_SPLINE_CURVE((1.,0.999149922587652,0.998859339582559))
REPRESENTATION_ITEM('')
);
#18=(
BOUNDED_CURVE()
B_SPLINE_CURVE(2,(#933,#934,#935),.UNSPECIFIED.,.F.,.F.)
B_SPLINE_CURVE_WITH_KNOTS((3,3),(1.49360583265817,1.57374642566266),
 .UNSPECIFIED.)
CURVE()
GEOMETRIC_REPRESENTATION_ITEM()
RATIONAL_B_SPLINE_CURVE((0.998725420385538,0.998560241584092,1.))
REPRESENTATION_ITEM('')
);
#19=(
BOUNDED_SURFACE()
B_SPLINE_SURFACE(2,2,((#872,#873,#874,#875,#876,#877,#878,#879,#880),(#881,
#882,#883,#884,#885,#886,#887,#888,#889),(#890,#891,#892,#893,#894,#895,
#896,#897,#898)),.UNSPECIFIED.,.F.,.T.,.F.)
B_SPLINE_SURFACE_WITH_KNOTS((3,3),(3,2,2,2,3),(-1.57374642566266,-1.42996124579839),
(-3.14159265358979,-1.5707963267949,0.,1.5707963267949,3.14159265358979),
 .UNSPECIFIED.)
GEOMETRIC_REPRESENTATION_ITEM()
RATIONAL_B_SPLINE_SURFACE(((1.,0.707106781186548,1.,0.707106781186548,1.,
0.707106781186548,1.,0.707106781186548,1.),(0.997416840641785,0.705280211687468,
0.997416840641785,0.705280211687468,0.997416840641785,0.705280211687468,
0.997416840641785,0.705280211687468,0.997416840641785),(1.,0.707106781186548,
1.,0.707106781186548,1.,0.707106781186548,1.,0.707106781186548,1.)))
REPRESENTATION_ITEM('')
SURFACE()
);
#20=STYLED_ITEM('',(#1157),#538);
#21=STYLED_ITEM('',(#1158),#539);
#22=STYLED_ITEM('',(#1158),#540);
#23=STYLED_ITEM('',(#1157),#541);
#24=STYLED_ITEM('',(#1159),#542);
#25=STYLED_ITEM('',(#1159),#543);
#26=STYLED_ITEM('',(#1159),#544);
#27=STYLED_ITEM('',(#1159),#545);
#28=STYLED_ITEM('',(#1158),#546);
#29=STYLED_ITEM('',(#1158),#547);
#30=STYLED_ITEM('',(#1158),#548);
#31=STYLED_ITEM('',(#1158),#549);
#32=STYLED_ITEM('',(#1158),#550);
#33=STYLED_ITEM('',(#1158),#551);
#34=STYLED_ITEM('',(#1158),#552);
#35=STYLED_ITEM('',(#1158),#553);
#36=STYLED_ITEM('',(#1158),#554);
#37=STYLED_ITEM('',(#1158),#555);
#38=STYLED_ITEM('',(#1158),#556);
#39=STYLED_ITEM('',(#1158),#557);
#40=STYLED_ITEM('',(#1158),#558);
#41=STYLED_ITEM('',(#1158),#559);
#42=STYLED_ITEM('',(#1158),#560);
#43=STYLED_ITEM('',(#1160),#561);
#44=STYLED_ITEM('',(#1160),#562);
#45=STYLED_ITEM('',(#1160),#563);
#46=STYLED_ITEM('',(#1160),#564);
#47=STYLED_ITEM('',(#1160),#565);
#48=STYLED_ITEM('',(#1160),#566);
#49=STYLED_ITEM('',(#1156),#569);
#50=ORIENTED_CLOSED_SHELL('',*,#567,.F.);
#51=FACE_BOUND('',#185,.T.);
#52=FACE_BOUND('',#190,.T.);
#53=FACE_BOUND('',#191,.T.);
#54=FACE_BOUND('',#192,.T.);
#55=FACE_BOUND('',#193,.T.);
#56=FACE_BOUND('',#196,.T.);
#57=LINE('',#821,#96);
#58=LINE('',#828,#97);
#59=LINE('',#832,#98);
#60=LINE('',#836,#99);
#61=LINE('',#845,#100);
#62=LINE('',#848,#101);
#63=LINE('',#853,#102);
#64=LINE('',#856,#103);
#65=LINE('',#861,#104);
#66=LINE('',#864,#105);
#67=LINE('',#869,#106);
#68=LINE('',#1056,#107);
#69=LINE('',#1061,#108);
#70=LINE('',#1067,#109);
#71=LINE('',#1070,#110);
#72=LINE('',#1072,#111);
#73=LINE('',#1073,#112);
#74=LINE('',#1075,#113);
#75=LINE('',#1077,#114);
#76=LINE('',#1084,#115);
#77=LINE('',#1087,#116);
#78=LINE('',#1089,#117);
#79=LINE('',#1090,#118);
#80=LINE('',#1092,#119);
#81=LINE('',#1094,#120);
#82=LINE('',#1101,#121);
#83=LINE('',#1104,#122);
#84=LINE('',#1106,#123);
#85=LINE('',#1107,#124);
#86=LINE('',#1109,#125);
#87=LINE('',#1111,#126);
#88=LINE('',#1118,#127);
#89=LINE('',#1121,#128);
#90=LINE('',#1124,#129);
#91=LINE('',#1127,#130);
#92=LINE('',#1129,#131);
#93=LINE('',#1130,#132);
#94=LINE('',#1132,#133);
#95=LINE('',#1134,#134);
#96=VECTOR('',#662,5.5);
#97=VECTOR('',#673,1.1);
#98=VECTOR('',#676,0.285820080024938);
#99=VECTOR('',#679,0.280221142570031);
#100=VECTOR('',#688,0.503802394785724);
#101=VECTOR('',#691,0.50380239478572);
#102=VECTOR('',#694,0.503802394785719);
#103=VECTOR('',#697,0.503802394785723);
#104=VECTOR('',#700,0.503802394785722);
#105=VECTOR('',#703,0.503802394785719);
#106=VECTOR('',#708,6.);
#107=VECTOR('',#719,0.3);
#108=VECTOR('',#726,0.3);
#109=VECTOR('',#731,0.503802394785719);
#110=VECTOR('',#734,0.503802394785723);
#111=VECTOR('',#737,0.500000000000002);
#112=VECTOR('',#738,0.500000000000002);
#113=VECTOR('',#741,0.500000000000002);
#114=VECTOR('',#744,0.500000000000002);
#115=VECTOR('',#751,0.503802394785723);
#116=VECTOR('',#754,0.503802394785719);
#117=VECTOR('',#757,0.500000000000002);
#118=VECTOR('',#758,0.500000000000002);
#119=VECTOR('',#761,0.500000000000002);
#120=VECTOR('',#764,0.500000000000002);
#121=VECTOR('',#771,0.503802394785719);
#122=VECTOR('',#774,0.503802394785724);
#123=VECTOR('',#777,0.500000000000002);
#124=VECTOR('',#778,0.500000000000002);
#125=VECTOR('',#781,0.500000000000002);
#126=VECTOR('',#784,0.500000000000002);
#127=VECTOR('',#791,1.00500293476729);
#128=VECTOR('',#794,0.89952961309806);
#129=VECTOR('',#797,0.719182854742352);
#130=VECTOR('',#800,0.619308470528029);
#131=VECTOR('',#803,0.05);
#132=VECTOR('',#804,0.05);
#133=VECTOR('',#807,0.05);
#134=VECTOR('',#810,0.05);
#135=CYLINDRICAL_SURFACE('',#594,5.5);
#136=CYLINDRICAL_SURFACE('',#600,1.1);
#137=CYLINDRICAL_SURFACE('',#613,6.);
#138=CYLINDRICAL_SURFACE('',#618,0.3);
#139=CYLINDRICAL_SURFACE('',#621,0.3);
#140=CYLINDRICAL_SURFACE('',#626,5.96773293066926);
#141=CYLINDRICAL_SURFACE('',#628,5.46393053588354);
#142=CYLINDRICAL_SURFACE('',#633,5.46393053588354);
#143=CYLINDRICAL_SURFACE('',#635,5.96773293066926);
#144=CYLINDRICAL_SURFACE('',#640,5.96773293066926);
#145=CYLINDRICAL_SURFACE('',#642,5.46393053588354);
#146=CYLINDRICAL_SURFACE('',#649,5.75);
#147=CYLINDRICAL_SURFACE('',#651,2.75);
#148=FACE_OUTER_BOUND('',#182,.T.);
#149=FACE_OUTER_BOUND('',#183,.T.);
#150=FACE_OUTER_BOUND('',#184,.T.);
#151=FACE_OUTER_BOUND('',#186,.T.);
#152=FACE_OUTER_BOUND('',#187,.T.);
#153=FACE_OUTER_BOUND('',#188,.T.);
#154=FACE_OUTER_BOUND('',#189,.T.);
#155=FACE_OUTER_BOUND('',#194,.T.);
#156=FACE_OUTER_BOUND('',#195,.T.);
#157=FACE_OUTER_BOUND('',#197,.T.);
#158=FACE_OUTER_BOUND('',#198,.T.);
#159=FACE_OUTER_BOUND('',#199,.T.);
#160=FACE_OUTER_BOUND('',#200,.T.);
#161=FACE_OUTER_BOUND('',#201,.T.);
#162=FACE_OUTER_BOUND('',#202,.T.);
#163=FACE_OUTER_BOUND('',#203,.T.);
#164=FACE_OUTER_BOUND('',#204,.T.);
#165=FACE_OUTER_BOUND('',#205,.T.);
#166=FACE_OUTER_BOUND('',#206,.T.);
#167=FACE_OUTER_BOUND('',#207,.T.);
#168=FACE_OUTER_BOUND('',#208,.T.);
#169=FACE_OUTER_BOUND('',#209,.T.);
#170=FACE_OUTER_BOUND('',#210,.T.);
#171=FACE_OUTER_BOUND('',#211,.T.);
#172=FACE_OUTER_BOUND('',#212,.T.);
#173=FACE_OUTER_BOUND('',#213,.T.);
#174=FACE_OUTER_BOUND('',#214,.T.);
#175=FACE_OUTER_BOUND('',#215,.T.);
#176=FACE_OUTER_BOUND('',#216,.T.);
#177=FACE_OUTER_BOUND('',#217,.T.);
#178=FACE_OUTER_BOUND('',#218,.T.);
#179=FACE_OUTER_BOUND('',#219,.T.);
#180=FACE_OUTER_BOUND('',#220,.T.);
#181=FACE_OUTER_BOUND('',#221,.T.);
#182=EDGE_LOOP('',(#369));
#183=EDGE_LOOP('',(#370,#371,#372,#373));
#184=EDGE_LOOP('',(#374));
#185=EDGE_LOOP('',(#375));
#186=EDGE_LOOP('',(#376));
#187=EDGE_LOOP('',(#377,#378,#379,#380));
#188=EDGE_LOOP('',(#381,#382,#383,#384));
#189=EDGE_LOOP('',(#385));
#190=EDGE_LOOP('',(#386,#387,#388,#389));
#191=EDGE_LOOP('',(#390,#391,#392,#393));
#192=EDGE_LOOP('',(#394,#395,#396,#397));
#193=EDGE_LOOP('',(#398));
#194=EDGE_LOOP('',(#399,#400,#401,#402,#403,#404));
#195=EDGE_LOOP('',(#405,#406,#407,#408,#409,#410,#411));
#196=EDGE_LOOP('',(#412,#413));
#197=EDGE_LOOP('',(#414));
#198=EDGE_LOOP('',(#415,#416,#417,#418,#419));
#199=EDGE_LOOP('',(#420));
#200=EDGE_LOOP('',(#421,#422,#423,#424,#425));
#201=EDGE_LOOP('',(#426,#427,#428,#429));
#202=EDGE_LOOP('',(#430,#431,#432,#433));
#203=EDGE_LOOP('',(#434,#435,#436,#437));
#204=EDGE_LOOP('',(#438,#439,#440,#441));
#205=EDGE_LOOP('',(#442,#443,#444,#445));
#206=EDGE_LOOP('',(#446,#447,#448,#449));
#207=EDGE_LOOP('',(#450,#451,#452,#453));
#208=EDGE_LOOP('',(#454,#455,#456,#457));
#209=EDGE_LOOP('',(#458,#459,#460,#461));
#210=EDGE_LOOP('',(#462,#463,#464,#465));
#211=EDGE_LOOP('',(#466,#467,#468,#469));
#212=EDGE_LOOP('',(#470,#471,#472,#473));
#213=EDGE_LOOP('',(#474,#475,#476,#477));
#214=EDGE_LOOP('',(#478,#479,#480,#481));
#215=EDGE_LOOP('',(#482,#483,#484,#485));
#216=EDGE_LOOP('',(#486,#487,#488,#489));
#217=EDGE_LOOP('',(#490,#491,#492,#493,#494));
#218=EDGE_LOOP('',(#495,#496,#497,#498,#499));
#219=EDGE_LOOP('',(#500,#501,#502,#503));
#220=EDGE_LOOP('',(#504,#505,#506,#507,#508));
#221=EDGE_LOOP('',(#509,#510,#511,#512));
#222=CIRCLE('',#593,1.1);
#223=CIRCLE('',#595,5.5);
#224=CIRCLE('',#596,5.5);
#225=CIRCLE('',#598,1.1);
#226=CIRCLE('',#602,6.);
#227=CIRCLE('',#603,5.75);
#228=CIRCLE('',#605,6.);
#229=CIRCLE('',#606,5.46393053588354);
#230=CIRCLE('',#607,5.96773293066926);
#231=CIRCLE('',#608,5.96773293066926);
#232=CIRCLE('',#609,5.46393053588354);
#233=CIRCLE('',#610,5.46393053588354);
#234=CIRCLE('',#611,5.96773293066926);
#235=CIRCLE('',#612,5.28423327771703);
#236=CIRCLE('',#614,6.);
#237=CIRCLE('',#615,6.);
#238=CIRCLE('',#617,0.3);
#239=CIRCLE('',#620,0.3);
#240=CIRCLE('',#623,5.46393053588354);
#241=CIRCLE('',#624,5.96773293066926);
#242=CIRCLE('',#630,5.96773293066926);
#243=CIRCLE('',#631,5.46393053588354);
#244=CIRCLE('',#637,5.46393053588354);
#245=CIRCLE('',#638,5.96773293066926);
#246=CIRCLE('',#644,2.75);
#247=CIRCLE('',#645,5.75);
#248=CIRCLE('',#647,2.75);
#249=VERTEX_POINT('',#815);
#250=VERTEX_POINT('',#818);
#251=VERTEX_POINT('',#820);
#252=VERTEX_POINT('',#824);
#253=VERTEX_POINT('',#830);
#254=VERTEX_POINT('',#831);
#255=VERTEX_POINT('',#833);
#256=VERTEX_POINT('',#835);
#257=VERTEX_POINT('',#839);
#258=VERTEX_POINT('',#841);
#259=VERTEX_POINT('',#842);
#260=VERTEX_POINT('',#844);
#261=VERTEX_POINT('',#846);
#262=VERTEX_POINT('',#849);
#263=VERTEX_POINT('',#850);
#264=VERTEX_POINT('',#852);
#265=VERTEX_POINT('',#854);
#266=VERTEX_POINT('',#857);
#267=VERTEX_POINT('',#858);
#268=VERTEX_POINT('',#860);
#269=VERTEX_POINT('',#862);
#270=VERTEX_POINT('',#865);
#271=VERTEX_POINT('',#868);
#272=VERTEX_POINT('',#899);
#273=VERTEX_POINT('',#903);
#274=VERTEX_POINT('',#932);
#275=VERTEX_POINT('',#964);
#276=VERTEX_POINT('',#965);
#277=VERTEX_POINT('',#1053);
#278=VERTEX_POINT('',#1058);
#279=VERTEX_POINT('',#1063);
#280=VERTEX_POINT('',#1064);
#281=VERTEX_POINT('',#1066);
#282=VERTEX_POINT('',#1068);
#283=VERTEX_POINT('',#1080);
#284=VERTEX_POINT('',#1081);
#285=VERTEX_POINT('',#1083);
#286=VERTEX_POINT('',#1085);
#287=VERTEX_POINT('',#1097);
#288=VERTEX_POINT('',#1098);
#289=VERTEX_POINT('',#1100);
#290=VERTEX_POINT('',#1102);
#291=VERTEX_POINT('',#1114);
#292=VERTEX_POINT('',#1115);
#293=VERTEX_POINT('',#1117);
#294=VERTEX_POINT('',#1119);
#295=VERTEX_POINT('',#1123);
#296=VERTEX_POINT('',#1125);
#297=EDGE_CURVE('',#249,#249,#222,.T.);
#298=EDGE_CURVE('',#250,#250,#223,.T.);
#299=EDGE_CURVE('',#250,#251,#57,.T.);
#300=EDGE_CURVE('',#251,#251,#224,.T.);
#301=EDGE_CURVE('',#252,#252,#225,.T.);
#302=EDGE_CURVE('',#249,#252,#58,.T.);
#303=EDGE_CURVE('',#253,#254,#59,.T.);
#304=EDGE_CURVE('',#254,#255,#226,.T.);
#305=EDGE_CURVE('',#255,#256,#60,.T.);
#306=EDGE_CURVE('',#256,#253,#227,.T.);
#307=EDGE_CURVE('',#257,#257,#228,.T.);
#308=EDGE_CURVE('',#258,#259,#229,.T.);
#309=EDGE_CURVE('',#259,#260,#61,.T.);
#310=EDGE_CURVE('',#260,#261,#230,.T.);
#311=EDGE_CURVE('',#261,#258,#62,.T.);
#312=EDGE_CURVE('',#262,#263,#231,.T.);
#313=EDGE_CURVE('',#263,#264,#63,.T.);
#314=EDGE_CURVE('',#264,#265,#232,.T.);
#315=EDGE_CURVE('',#265,#262,#64,.T.);
#316=EDGE_CURVE('',#266,#267,#233,.T.);
#317=EDGE_CURVE('',#267,#268,#65,.T.);
#318=EDGE_CURVE('',#268,#269,#234,.T.);
#319=EDGE_CURVE('',#269,#266,#66,.T.);
#320=EDGE_CURVE('',#270,#270,#235,.T.);
#321=EDGE_CURVE('',#257,#271,#67,.T.);
#322=EDGE_CURVE('',#255,#271,#236,.T.);
#323=EDGE_CURVE('',#271,#254,#237,.T.);
#324=EDGE_CURVE('',#270,#272,#17,.T.);
#325=EDGE_CURVE('',#272,#273,#13,.T.);
#326=EDGE_CURVE('',#273,#274,#18,.T.);
#327=EDGE_CURVE('',#273,#272,#14,.T.);
#328=EDGE_CURVE('',#275,#276,#15,.T.);
#329=EDGE_CURVE('',#276,#275,#16,.T.);
#330=EDGE_CURVE('',#277,#277,#238,.T.);
#331=EDGE_CURVE('',#277,#273,#68,.T.);
#332=EDGE_CURVE('',#278,#278,#239,.T.);
#333=EDGE_CURVE('',#278,#276,#69,.T.);
#334=EDGE_CURVE('',#279,#280,#240,.T.);
#335=EDGE_CURVE('',#281,#279,#70,.T.);
#336=EDGE_CURVE('',#282,#281,#241,.T.);
#337=EDGE_CURVE('',#280,#282,#71,.T.);
#338=EDGE_CURVE('',#266,#279,#72,.T.);
#339=EDGE_CURVE('',#269,#281,#73,.T.);
#340=EDGE_CURVE('',#268,#282,#74,.T.);
#341=EDGE_CURVE('',#267,#280,#75,.T.);
#342=EDGE_CURVE('',#283,#284,#242,.T.);
#343=EDGE_CURVE('',#285,#283,#76,.T.);
#344=EDGE_CURVE('',#286,#285,#243,.T.);
#345=EDGE_CURVE('',#284,#286,#77,.T.);
#346=EDGE_CURVE('',#262,#283,#78,.T.);
#347=EDGE_CURVE('',#265,#285,#79,.T.);
#348=EDGE_CURVE('',#264,#286,#80,.T.);
#349=EDGE_CURVE('',#263,#284,#81,.T.);
#350=EDGE_CURVE('',#287,#288,#244,.T.);
#351=EDGE_CURVE('',#289,#287,#82,.T.);
#352=EDGE_CURVE('',#290,#289,#245,.T.);
#353=EDGE_CURVE('',#288,#290,#83,.T.);
#354=EDGE_CURVE('',#258,#287,#84,.T.);
#355=EDGE_CURVE('',#261,#289,#85,.T.);
#356=EDGE_CURVE('',#260,#290,#86,.T.);
#357=EDGE_CURVE('',#259,#288,#87,.T.);
#358=EDGE_CURVE('',#291,#292,#246,.T.);
#359=EDGE_CURVE('',#293,#291,#88,.T.);
#360=EDGE_CURVE('',#294,#293,#247,.T.);
#361=EDGE_CURVE('',#292,#294,#89,.T.);
#362=EDGE_CURVE('',#295,#254,#90,.T.);
#363=EDGE_CURVE('',#296,#295,#248,.T.);
#364=EDGE_CURVE('',#255,#296,#91,.T.);
#365=EDGE_CURVE('',#295,#291,#92,.T.);
#366=EDGE_CURVE('',#253,#293,#93,.T.);
#367=EDGE_CURVE('',#256,#294,#94,.T.);
#368=EDGE_CURVE('',#296,#292,#95,.T.);
#369=ORIENTED_EDGE('',*,*,#297,.T.);
#370=ORIENTED_EDGE('',*,*,#298,.F.);
#371=ORIENTED_EDGE('',*,*,#299,.T.);
#372=ORIENTED_EDGE('',*,*,#300,.F.);
#373=ORIENTED_EDGE('',*,*,#299,.F.);
#374=ORIENTED_EDGE('',*,*,#298,.T.);
#375=ORIENTED_EDGE('',*,*,#301,.T.);
#376=ORIENTED_EDGE('',*,*,#300,.T.);
#377=ORIENTED_EDGE('',*,*,#297,.F.);
#378=ORIENTED_EDGE('',*,*,#302,.T.);
#379=ORIENTED_EDGE('',*,*,#301,.F.);
#380=ORIENTED_EDGE('',*,*,#302,.F.);
#381=ORIENTED_EDGE('',*,*,#303,.T.);
#382=ORIENTED_EDGE('',*,*,#304,.T.);
#383=ORIENTED_EDGE('',*,*,#305,.T.);
#384=ORIENTED_EDGE('',*,*,#306,.T.);
#385=ORIENTED_EDGE('',*,*,#307,.F.);
#386=ORIENTED_EDGE('',*,*,#308,.T.);
#387=ORIENTED_EDGE('',*,*,#309,.T.);
#388=ORIENTED_EDGE('',*,*,#310,.T.);
#389=ORIENTED_EDGE('',*,*,#311,.T.);
#390=ORIENTED_EDGE('',*,*,#312,.T.);
#391=ORIENTED_EDGE('',*,*,#313,.T.);
#392=ORIENTED_EDGE('',*,*,#314,.T.);
#393=ORIENTED_EDGE('',*,*,#315,.T.);
#394=ORIENTED_EDGE('',*,*,#316,.T.);
#395=ORIENTED_EDGE('',*,*,#317,.T.);
#396=ORIENTED_EDGE('',*,*,#318,.T.);
#397=ORIENTED_EDGE('',*,*,#319,.T.);
#398=ORIENTED_EDGE('',*,*,#320,.T.);
#399=ORIENTED_EDGE('',*,*,#307,.T.);
#400=ORIENTED_EDGE('',*,*,#321,.T.);
#401=ORIENTED_EDGE('',*,*,#322,.F.);
#402=ORIENTED_EDGE('',*,*,#304,.F.);
#403=ORIENTED_EDGE('',*,*,#323,.F.);
#404=ORIENTED_EDGE('',*,*,#321,.F.);
#405=ORIENTED_EDGE('',*,*,#320,.F.);
#406=ORIENTED_EDGE('',*,*,#324,.T.);
#407=ORIENTED_EDGE('',*,*,#325,.T.);
#408=ORIENTED_EDGE('',*,*,#326,.T.);
#409=ORIENTED_EDGE('',*,*,#326,.F.);
#410=ORIENTED_EDGE('',*,*,#327,.T.);
#411=ORIENTED_EDGE('',*,*,#324,.F.);
#412=ORIENTED_EDGE('',*,*,#328,.T.);
#413=ORIENTED_EDGE('',*,*,#329,.T.);
#414=ORIENTED_EDGE('',*,*,#330,.F.);
#415=ORIENTED_EDGE('',*,*,#330,.T.);
#416=ORIENTED_EDGE('',*,*,#331,.T.);
#417=ORIENTED_EDGE('',*,*,#325,.F.);
#418=ORIENTED_EDGE('',*,*,#327,.F.);
#419=ORIENTED_EDGE('',*,*,#331,.F.);
#420=ORIENTED_EDGE('',*,*,#332,.F.);
#421=ORIENTED_EDGE('',*,*,#332,.T.);
#422=ORIENTED_EDGE('',*,*,#333,.T.);
#423=ORIENTED_EDGE('',*,*,#328,.F.);
#424=ORIENTED_EDGE('',*,*,#329,.F.);
#425=ORIENTED_EDGE('',*,*,#333,.F.);
#426=ORIENTED_EDGE('',*,*,#334,.F.);
#427=ORIENTED_EDGE('',*,*,#335,.F.);
#428=ORIENTED_EDGE('',*,*,#336,.F.);
#429=ORIENTED_EDGE('',*,*,#337,.F.);
#430=ORIENTED_EDGE('',*,*,#335,.T.);
#431=ORIENTED_EDGE('',*,*,#338,.F.);
#432=ORIENTED_EDGE('',*,*,#319,.F.);
#433=ORIENTED_EDGE('',*,*,#339,.T.);
#434=ORIENTED_EDGE('',*,*,#336,.T.);
#435=ORIENTED_EDGE('',*,*,#339,.F.);
#436=ORIENTED_EDGE('',*,*,#318,.F.);
#437=ORIENTED_EDGE('',*,*,#340,.T.);
#438=ORIENTED_EDGE('',*,*,#337,.T.);
#439=ORIENTED_EDGE('',*,*,#340,.F.);
#440=ORIENTED_EDGE('',*,*,#317,.F.);
#441=ORIENTED_EDGE('',*,*,#341,.T.);
#442=ORIENTED_EDGE('',*,*,#334,.T.);
#443=ORIENTED_EDGE('',*,*,#341,.F.);
#444=ORIENTED_EDGE('',*,*,#316,.F.);
#445=ORIENTED_EDGE('',*,*,#338,.T.);
#446=ORIENTED_EDGE('',*,*,#342,.F.);
#447=ORIENTED_EDGE('',*,*,#343,.F.);
#448=ORIENTED_EDGE('',*,*,#344,.F.);
#449=ORIENTED_EDGE('',*,*,#345,.F.);
#450=ORIENTED_EDGE('',*,*,#343,.T.);
#451=ORIENTED_EDGE('',*,*,#346,.F.);
#452=ORIENTED_EDGE('',*,*,#315,.F.);
#453=ORIENTED_EDGE('',*,*,#347,.T.);
#454=ORIENTED_EDGE('',*,*,#344,.T.);
#455=ORIENTED_EDGE('',*,*,#347,.F.);
#456=ORIENTED_EDGE('',*,*,#314,.F.);
#457=ORIENTED_EDGE('',*,*,#348,.T.);
#458=ORIENTED_EDGE('',*,*,#345,.T.);
#459=ORIENTED_EDGE('',*,*,#348,.F.);
#460=ORIENTED_EDGE('',*,*,#313,.F.);
#461=ORIENTED_EDGE('',*,*,#349,.T.);
#462=ORIENTED_EDGE('',*,*,#342,.T.);
#463=ORIENTED_EDGE('',*,*,#349,.F.);
#464=ORIENTED_EDGE('',*,*,#312,.F.);
#465=ORIENTED_EDGE('',*,*,#346,.T.);
#466=ORIENTED_EDGE('',*,*,#350,.F.);
#467=ORIENTED_EDGE('',*,*,#351,.F.);
#468=ORIENTED_EDGE('',*,*,#352,.F.);
#469=ORIENTED_EDGE('',*,*,#353,.F.);
#470=ORIENTED_EDGE('',*,*,#351,.T.);
#471=ORIENTED_EDGE('',*,*,#354,.F.);
#472=ORIENTED_EDGE('',*,*,#311,.F.);
#473=ORIENTED_EDGE('',*,*,#355,.T.);
#474=ORIENTED_EDGE('',*,*,#352,.T.);
#475=ORIENTED_EDGE('',*,*,#355,.F.);
#476=ORIENTED_EDGE('',*,*,#310,.F.);
#477=ORIENTED_EDGE('',*,*,#356,.T.);
#478=ORIENTED_EDGE('',*,*,#353,.T.);
#479=ORIENTED_EDGE('',*,*,#356,.F.);
#480=ORIENTED_EDGE('',*,*,#309,.F.);
#481=ORIENTED_EDGE('',*,*,#357,.T.);
#482=ORIENTED_EDGE('',*,*,#350,.T.);
#483=ORIENTED_EDGE('',*,*,#357,.F.);
#484=ORIENTED_EDGE('',*,*,#308,.F.);
#485=ORIENTED_EDGE('',*,*,#354,.T.);
#486=ORIENTED_EDGE('',*,*,#358,.F.);
#487=ORIENTED_EDGE('',*,*,#359,.F.);
#488=ORIENTED_EDGE('',*,*,#360,.F.);
#489=ORIENTED_EDGE('',*,*,#361,.F.);
#490=ORIENTED_EDGE('',*,*,#322,.T.);
#491=ORIENTED_EDGE('',*,*,#323,.T.);
#492=ORIENTED_EDGE('',*,*,#362,.F.);
#493=ORIENTED_EDGE('',*,*,#363,.F.);
#494=ORIENTED_EDGE('',*,*,#364,.F.);
#495=ORIENTED_EDGE('',*,*,#359,.T.);
#496=ORIENTED_EDGE('',*,*,#365,.F.);
#497=ORIENTED_EDGE('',*,*,#362,.T.);
#498=ORIENTED_EDGE('',*,*,#303,.F.);
#499=ORIENTED_EDGE('',*,*,#366,.T.);
#500=ORIENTED_EDGE('',*,*,#360,.T.);
#501=ORIENTED_EDGE('',*,*,#366,.F.);
#502=ORIENTED_EDGE('',*,*,#306,.F.);
#503=ORIENTED_EDGE('',*,*,#367,.T.);
#504=ORIENTED_EDGE('',*,*,#361,.T.);
#505=ORIENTED_EDGE('',*,*,#367,.F.);
#506=ORIENTED_EDGE('',*,*,#305,.F.);
#507=ORIENTED_EDGE('',*,*,#364,.T.);
#508=ORIENTED_EDGE('',*,*,#368,.T.);
#509=ORIENTED_EDGE('',*,*,#358,.T.);
#510=ORIENTED_EDGE('',*,*,#368,.F.);
#511=ORIENTED_EDGE('',*,*,#363,.T.);
#512=ORIENTED_EDGE('',*,*,#365,.T.);
#513=PLANE('',#592);
#514=PLANE('',#597);
#515=PLANE('',#599);
#516=PLANE('',#601);
#517=PLANE('',#604);
#518=PLANE('',#616);
#519=PLANE('',#619);
#520=PLANE('',#622);
#521=PLANE('',#625);
#522=PLANE('',#627);
#523=PLANE('',#629);
#524=PLANE('',#632);
#525=PLANE('',#634);
#526=PLANE('',#636);
#527=PLANE('',#639);
#528=PLANE('',#641);
#529=PLANE('',#643);
#530=PLANE('',#646);
#531=PLANE('',#648);
#532=PLANE('',#650);
#533=ADVANCED_FACE('',(#148),#513,.T.);
#534=ADVANCED_FACE('',(#149),#135,.F.);
#535=ADVANCED_FACE('',(#150,#51),#514,.T.);
#536=ADVANCED_FACE('',(#151),#515,.F.);
#537=ADVANCED_FACE('',(#152),#136,.F.);
#538=ADVANCED_FACE('',(#153),#516,.T.);
#539=ADVANCED_FACE('',(#154,#52,#53,#54,#55),#517,.F.);
#540=ADVANCED_FACE('',(#155),#137,.T.);
#541=ADVANCED_FACE('',(#156,#56),#19,.T.);
#542=ADVANCED_FACE('',(#157),#518,.F.);
#543=ADVANCED_FACE('',(#158),#138,.T.);
#544=ADVANCED_FACE('',(#159),#519,.F.);
#545=ADVANCED_FACE('',(#160),#139,.T.);
#546=ADVANCED_FACE('',(#161),#520,.T.);
#547=ADVANCED_FACE('',(#162),#521,.T.);
#548=ADVANCED_FACE('',(#163),#140,.T.);
#549=ADVANCED_FACE('',(#164),#522,.T.);
#550=ADVANCED_FACE('',(#165),#141,.F.);
#551=ADVANCED_FACE('',(#166),#523,.T.);
#552=ADVANCED_FACE('',(#167),#524,.T.);
#553=ADVANCED_FACE('',(#168),#142,.F.);
#554=ADVANCED_FACE('',(#169),#525,.T.);
#555=ADVANCED_FACE('',(#170),#143,.T.);
#556=ADVANCED_FACE('',(#171),#526,.T.);
#557=ADVANCED_FACE('',(#172),#527,.T.);
#558=ADVANCED_FACE('',(#173),#144,.T.);
#559=ADVANCED_FACE('',(#174),#528,.T.);
#560=ADVANCED_FACE('',(#175),#145,.F.);
#561=ADVANCED_FACE('',(#176),#529,.F.);
#562=ADVANCED_FACE('',(#177),#530,.T.);
#563=ADVANCED_FACE('',(#178),#531,.T.);
#564=ADVANCED_FACE('',(#179),#146,.T.);
#565=ADVANCED_FACE('',(#180),#532,.T.);
#566=ADVANCED_FACE('',(#181),#147,.T.);
#567=CLOSED_SHELL('',(#533,#534,#535,#536,#537));
#568=CLOSED_SHELL('',(#538,#539,#540,#541,#542,#543,#544,#545,#546,#547,
#548,#549,#550,#551,#552,#553,#554,#555,#556,#557,#558,#559,#560,#561,#562,
#563,#564,#565,#566));
#569=BREP_WITH_VOIDS('Solid2',#568,(#50));
#570=DERIVED_UNIT_ELEMENT(#573,1.);
#571=DERIVED_UNIT_ELEMENT(#1141,-3.);
#572=DIMENSIONAL_EXPONENTS(0.,1.,0.,0.,0.,0.,0.);
#573=(
CONVERSION_BASED_UNIT('gram',#575)
MASS_UNIT()
NAMED_UNIT(#572)
);
#574=(
MASS_UNIT()
NAMED_UNIT(*)
SI_UNIT(.KILO.,.GRAM.)
);
#575=MASS_MEASURE_WITH_UNIT(MASS_MEASURE(0.001),#574);
#576=DERIVED_UNIT((#570,#571));
#577=MEASURE_REPRESENTATION_ITEM('density measure',
POSITIVE_RATIO_MEASURE(1.),#576);
#578=PROPERTY_DEFINITION_REPRESENTATION(#583,#580);
#579=PROPERTY_DEFINITION_REPRESENTATION(#584,#581);
#580=REPRESENTATION('material name',(#582),#1138);
#581=REPRESENTATION('density',(#577),#1138);
#582=DESCRIPTIVE_REPRESENTATION_ITEM('Generic','Generic');
#583=PROPERTY_DEFINITION('material property','material name',#1148);
#584=PROPERTY_DEFINITION('material property','density of part',#1148);
#585=DATE_TIME_ROLE('creation_date');
#586=APPLIED_DATE_AND_TIME_ASSIGNMENT(#587,#585,(#1148));
#587=DATE_AND_TIME(#588,#589);
#588=CALENDAR_DATE(2018,14,5);
#589=LOCAL_TIME(8,3,11.,#590);
#590=COORDINATED_UNIVERSAL_TIME_OFFSET(0,0,.BEHIND.);
#591=AXIS2_PLACEMENT_3D('',#813,#652,#653);
#592=AXIS2_PLACEMENT_3D('',#814,#654,#655);
#593=AXIS2_PLACEMENT_3D('',#816,#656,#657);
#594=AXIS2_PLACEMENT_3D('',#817,#658,#659);
#595=AXIS2_PLACEMENT_3D('',#819,#660,#661);
#596=AXIS2_PLACEMENT_3D('',#822,#663,#664);
#597=AXIS2_PLACEMENT_3D('',#823,#665,#666);
#598=AXIS2_PLACEMENT_3D('',#825,#667,#668);
#599=AXIS2_PLACEMENT_3D('',#826,#669,#670);
#600=AXIS2_PLACEMENT_3D('',#827,#671,#672);
#601=AXIS2_PLACEMENT_3D('',#829,#674,#675);
#602=AXIS2_PLACEMENT_3D('',#834,#677,#678);
#603=AXIS2_PLACEMENT_3D('',#837,#680,#681);
#604=AXIS2_PLACEMENT_3D('',#838,#682,#683);
#605=AXIS2_PLACEMENT_3D('',#840,#684,#685);
#606=AXIS2_PLACEMENT_3D('',#843,#686,#687);
#607=AXIS2_PLACEMENT_3D('',#847,#689,#690);
#608=AXIS2_PLACEMENT_3D('',#851,#692,#693);
#609=AXIS2_PLACEMENT_3D('',#855,#695,#696);
#610=AXIS2_PLACEMENT_3D('',#859,#698,#699);
#611=AXIS2_PLACEMENT_3D('',#863,#701,#702);
#612=AXIS2_PLACEMENT_3D('',#866,#704,#705);
#613=AXIS2_PLACEMENT_3D('',#867,#706,#707);
#614=AXIS2_PLACEMENT_3D('',#870,#709,#710);
#615=AXIS2_PLACEMENT_3D('',#871,#711,#712);
#616=AXIS2_PLACEMENT_3D('',#1052,#713,#714);
#617=AXIS2_PLACEMENT_3D('',#1054,#715,#716);
#618=AXIS2_PLACEMENT_3D('',#1055,#717,#718);
#619=AXIS2_PLACEMENT_3D('',#1057,#720,#721);
#620=AXIS2_PLACEMENT_3D('',#1059,#722,#723);
#621=AXIS2_PLACEMENT_3D('',#1060,#724,#725);
#622=AXIS2_PLACEMENT_3D('',#1062,#727,#728);
#623=AXIS2_PLACEMENT_3D('',#1065,#729,#730);
#624=AXIS2_PLACEMENT_3D('',#1069,#732,#733);
#625=AXIS2_PLACEMENT_3D('',#1071,#735,#736);
#626=AXIS2_PLACEMENT_3D('',#1074,#739,#740);
#627=AXIS2_PLACEMENT_3D('',#1076,#742,#743);
#628=AXIS2_PLACEMENT_3D('',#1078,#745,#746);
#629=AXIS2_PLACEMENT_3D('',#1079,#747,#748);
#630=AXIS2_PLACEMENT_3D('',#1082,#749,#750);
#631=AXIS2_PLACEMENT_3D('',#1086,#752,#753);
#632=AXIS2_PLACEMENT_3D('',#1088,#755,#756);
#633=AXIS2_PLACEMENT_3D('',#1091,#759,#760);
#634=AXIS2_PLACEMENT_3D('',#1093,#762,#763);
#635=AXIS2_PLACEMENT_3D('',#1095,#765,#766);
#636=AXIS2_PLACEMENT_3D('',#1096,#767,#768);
#637=AXIS2_PLACEMENT_3D('',#1099,#769,#770);
#638=AXIS2_PLACEMENT_3D('',#1103,#772,#773);
#639=AXIS2_PLACEMENT_3D('',#1105,#775,#776);
#640=AXIS2_PLACEMENT_3D('',#1108,#779,#780);
#641=AXIS2_PLACEMENT_3D('',#1110,#782,#783);
#642=AXIS2_PLACEMENT_3D('',#1112,#785,#786);
#643=AXIS2_PLACEMENT_3D('',#1113,#787,#788);
#644=AXIS2_PLACEMENT_3D('',#1116,#789,#790);
#645=AXIS2_PLACEMENT_3D('',#1120,#792,#793);
#646=AXIS2_PLACEMENT_3D('',#1122,#795,#796);
#647=AXIS2_PLACEMENT_3D('',#1126,#798,#799);
#648=AXIS2_PLACEMENT_3D('',#1128,#801,#802);
#649=AXIS2_PLACEMENT_3D('',#1131,#805,#806);
#650=AXIS2_PLACEMENT_3D('',#1133,#808,#809);
#651=AXIS2_PLACEMENT_3D('',#1135,#811,#812);
#652=DIRECTION('axis',(0.,0.,1.));
#653=DIRECTION('refdir',(1.,0.,0.));
#654=DIRECTION('center_axis',(0.,-1.,-2.22044604925031E-16));
#655=DIRECTION('ref_axis',(1.,0.,0.));
#656=DIRECTION('center_axis',(0.,-1.,-2.22044604925031E-16));
#657=DIRECTION('ref_axis',(1.,0.,0.));
#658=DIRECTION('center_axis',(0.,-1.,-2.22044604925031E-16));
#659=DIRECTION('ref_axis',(1.,0.,0.));
#660=DIRECTION('center_axis',(0.,-1.,-2.22044604925031E-16));
#661=DIRECTION('ref_axis',(1.,0.,0.));
#662=DIRECTION('',(0.,-1.,-2.22044604925031E-16));
#663=DIRECTION('center_axis',(0.,1.,2.22044604925031E-16));
#664=DIRECTION('ref_axis',(1.,0.,0.));
#665=DIRECTION('center_axis',(0.,-1.,-2.22044604925031E-16));
#666=DIRECTION('ref_axis',(1.,0.,0.));
#667=DIRECTION('center_axis',(0.,1.,2.22044604925031E-16));
#668=DIRECTION('ref_axis',(1.,0.,0.));
#669=DIRECTION('center_axis',(0.,-1.,-2.22044604925031E-16));
#670=DIRECTION('ref_axis',(1.,0.,0.));
#671=DIRECTION('center_axis',(0.,-1.,-2.22044604925031E-16));
#672=DIRECTION('ref_axis',(1.,0.,0.));
#673=DIRECTION('',(0.,-1.,-2.22044604925031E-16));
#674=DIRECTION('center_axis',(0.,1.,2.22044604925031E-16));
#675=DIRECTION('ref_axis',(-1.,0.,0.));
#676=DIRECTION('',(1.,0.,0.));
#677=DIRECTION('center_axis',(0.,1.,2.22044604925031E-16));
#678=DIRECTION('ref_axis',(-1.,0.,0.));
#679=DIRECTION('',(-1.,-1.37026635528169E-31,6.17113104704496E-16));
#680=DIRECTION('center_axis',(0.,-1.,-2.22044604925031E-16));
#681=DIRECTION('ref_axis',(0.868836903212244,1.09933930854643E-16,-0.495098410032346));
#682=DIRECTION('center_axis',(0.,1.,2.22044604925031E-16));
#683=DIRECTION('ref_axis',(-1.,0.,0.));
#684=DIRECTION('center_axis',(0.,1.,2.22044604925031E-16));
#685=DIRECTION('ref_axis',(-1.,0.,0.));
#686=DIRECTION('center_axis',(0.,-1.,-2.22044604925031E-16));
#687=DIRECTION('ref_axis',(-0.307555814495665,-2.11282112266685E-16,0.951530042074294));
#688=DIRECTION('',(0.866025403784438,1.11022302462516E-16,-0.5));
#689=DIRECTION('center_axis',(0.,1.,2.22044604925031E-16));
#690=DIRECTION('ref_axis',(0.307555814495665,2.11282112266685E-16,-0.951530042074294));
#691=DIRECTION('',(-0.307555814495666,-2.11282112266685E-16,0.951530042074294));
#692=DIRECTION('center_axis',(0.,1.,2.22044604925031E-16));
#693=DIRECTION('ref_axis',(0.670271281652581,-1.6478289165889E-16,0.742116169472008));
#694=DIRECTION('',(-0.670271281652582,1.64782891658889E-16,-0.742116169472008));
#695=DIRECTION('center_axis',(0.,-1.,-2.22044604925031E-16));
#696=DIRECTION('ref_axis',(-0.670271281652581,1.6478289165889E-16,-0.742116169472008));
#697=DIRECTION('',(0.,-2.22044604925031E-16,1.));
#698=DIRECTION('center_axis',(0.,-1.,-2.22044604925031E-16));
#699=DIRECTION('ref_axis',(0.977827096148247,4.64992206077954E-17,-0.209413872602286));
#700=DIRECTION('',(-0.866025403784439,1.11022302462516E-16,-0.5));
#701=DIRECTION('center_axis',(0.,1.,2.22044604925031E-16));
#702=DIRECTION('ref_axis',(-0.977827096148247,-4.64992206077954E-17,0.209413872602286));
#703=DIRECTION('',(0.977827096148247,4.64992206077959E-17,-0.209413872602288));
#704=DIRECTION('center_axis',(3.09074025719212E-17,1.,2.22044604925031E-16));
#705=DIRECTION('ref_axis',(1.,-3.09074025719212E-17,-6.86282199334114E-33));
#706=DIRECTION('center_axis',(0.,-1.,-2.22044604925031E-16));
#707=DIRECTION('ref_axis',(-1.,0.,0.));
#708=DIRECTION('',(0.,1.,2.22044604925031E-16));
#709=DIRECTION('center_axis',(0.,1.,2.22044604925031E-16));
#710=DIRECTION('ref_axis',(-1.,0.,0.));
#711=DIRECTION('center_axis',(0.,1.,2.22044604925031E-16));
#712=DIRECTION('ref_axis',(-1.,0.,0.));
#713=DIRECTION('center_axis',(0.,1.,2.22044604925031E-16));
#714=DIRECTION('ref_axis',(-1.,0.,0.));
#715=DIRECTION('center_axis',(0.,1.,2.22044604925031E-16));
#716=DIRECTION('ref_axis',(-1.,0.,0.));
#717=DIRECTION('center_axis',(0.,-1.,-2.22044604925031E-16));
#718=DIRECTION('ref_axis',(-1.,0.,0.));
#719=DIRECTION('',(0.,1.,2.22044604925031E-16));
#720=DIRECTION('center_axis',(0.,1.,2.22044604925031E-16));
#721=DIRECTION('ref_axis',(-1.,0.,0.));
#722=DIRECTION('center_axis',(0.,1.,2.22044604925031E-16));
#723=DIRECTION('ref_axis',(-1.,0.,0.));
#724=DIRECTION('center_axis',(0.,-1.,-2.22044604925031E-16));
#725=DIRECTION('ref_axis',(-1.,0.,0.));
#726=DIRECTION('',(0.,1.,2.22044604925031E-16));
#727=DIRECTION('center_axis',(1.31066466368481E-28,-1.,-2.22044604925011E-16));
#728=DIRECTION('ref_axis',(1.,1.31066466368481E-28,2.91026017437066E-44));
#729=DIRECTION('center_axis',(0.,-1.,-2.22044604925031E-16));
#730=DIRECTION('ref_axis',(0.977827096148247,4.64992206077954E-17,-0.209413872602286));
#731=DIRECTION('',(0.977827096148247,4.64992206077959E-17,-0.209413872602288));
#732=DIRECTION('center_axis',(0.,1.,2.22044604925031E-16));
#733=DIRECTION('ref_axis',(-0.977827096148247,-4.64992206077954E-17,0.209413872602286));
#734=DIRECTION('',(-0.866025403784439,1.11022302462516E-16,-0.5));
#735=DIRECTION('center_axis',(0.209413872602288,-2.17121231249228E-16,0.977827096148247));
#736=DIRECTION('ref_axis',(0.,-1.,-2.22044604925031E-16));
#737=DIRECTION('',(0.,-1.,-2.22044604925031E-16));
#738=DIRECTION('',(0.,-1.,-2.22044604925031E-16));
#739=DIRECTION('center_axis',(0.,-1.,-2.22044604925031E-16));
#740=DIRECTION('ref_axis',(-0.977827096148247,-4.64992206077954E-17,0.209413872602286));
#741=DIRECTION('',(0.,-1.,-2.22044604925031E-16));
#742=DIRECTION('center_axis',(0.5,1.92296268638356E-16,-0.866025403784439));
#743=DIRECTION('ref_axis',(0.,1.,2.22044604925031E-16));
#744=DIRECTION('',(0.,-1.,-2.22044604925031E-16));
#745=DIRECTION('center_axis',(0.,-1.,-2.22044604925031E-16));
#746=DIRECTION('ref_axis',(0.977827096148247,4.64992206077954E-17,-0.209413872602286));
#747=DIRECTION('center_axis',(-1.06097017434192E-29,-1.,-2.22044604925057E-16));
#748=DIRECTION('ref_axis',(1.,-1.06097017434192E-29,-2.35582703199021E-45));
#749=DIRECTION('center_axis',(0.,1.,2.22044604925031E-16));
#750=DIRECTION('ref_axis',(0.670271281652581,-1.6478289165889E-16,0.742116169472008));
#751=DIRECTION('',(0.,-2.22044604925031E-16,1.));
#752=DIRECTION('center_axis',(0.,-1.,-2.22044604925031E-16));
#753=DIRECTION('ref_axis',(-0.670271281652581,1.6478289165889E-16,-0.742116169472008));
#754=DIRECTION('',(-0.670271281652582,1.64782891658889E-16,-0.742116169472008));
#755=DIRECTION('center_axis',(-1.,0.,0.));
#756=DIRECTION('ref_axis',(0.,-1.,-2.22044604925031E-16));
#757=DIRECTION('',(0.,-1.,-2.22044604925031E-16));
#758=DIRECTION('',(0.,-1.,-2.22044604925031E-16));
#759=DIRECTION('center_axis',(0.,-1.,-2.22044604925031E-16));
#760=DIRECTION('ref_axis',(-0.670271281652581,1.6478289165889E-16,-0.742116169472008));
#761=DIRECTION('',(0.,-1.,-2.22044604925031E-16));
#762=DIRECTION('center_axis',(0.742116169472008,1.48830121927142E-16,-0.670271281652582));
#763=DIRECTION('ref_axis',(0.,1.,2.22044604925031E-16));
#764=DIRECTION('',(0.,-1.,-2.22044604925031E-16));
#765=DIRECTION('center_axis',(0.,-1.,-2.22044604925031E-16));
#766=DIRECTION('ref_axis',(0.670271281652581,-1.6478289165889E-16,0.742116169472008));
#767=DIRECTION('center_axis',(6.59409638031682E-29,-1.,-2.22044604925118E-16));
#768=DIRECTION('ref_axis',(1.,6.59409638031682E-29,1.4641835256056E-44));
#769=DIRECTION('center_axis',(0.,-1.,-2.22044604925031E-16));
#770=DIRECTION('ref_axis',(-0.307555814495665,-2.11282112266685E-16,0.951530042074294));
#771=DIRECTION('',(-0.307555814495666,-2.11282112266685E-16,0.951530042074294));
#772=DIRECTION('center_axis',(0.,1.,2.22044604925031E-16));
#773=DIRECTION('ref_axis',(0.307555814495665,2.11282112266685E-16,-0.951530042074294));
#774=DIRECTION('',(0.866025403784438,1.11022302462516E-16,-0.5));
#775=DIRECTION('center_axis',(-0.951530042074294,6.82911093220864E-17,-0.307555814495666));
#776=DIRECTION('ref_axis',(0.,-1.,-2.22044604925031E-16));
#777=DIRECTION('',(0.,-1.,-2.22044604925031E-16));
#778=DIRECTION('',(0.,-1.,-2.22044604925031E-16));
#779=DIRECTION('center_axis',(0.,-1.,-2.22044604925031E-16));
#780=DIRECTION('ref_axis',(0.307555814495665,2.11282112266685E-16,-0.951530042074294));
#781=DIRECTION('',(0.,-1.,-2.22044604925031E-16));
#782=DIRECTION('center_axis',(0.5,-1.92296268638356E-16,0.866025403784438));
#783=DIRECTION('ref_axis',(0.,1.,2.22044604925031E-16));
#784=DIRECTION('',(0.,-1.,-2.22044604925031E-16));
#785=DIRECTION('center_axis',(0.,-1.,-2.22044604925031E-16));
#786=DIRECTION('ref_axis',(-0.307555814495665,-2.11282112266685E-16,0.951530042074294));
#787=DIRECTION('center_axis',(0.,-1.,-2.22044604925031E-16));
#788=DIRECTION('ref_axis',(1.,0.,0.));
#789=DIRECTION('center_axis',(0.,-1.,-2.22044604925031E-16));
#790=DIRECTION('ref_axis',(0.,-2.22044604925031E-16,1.));
#791=DIRECTION('',(1.,0.,0.));
#792=DIRECTION('center_axis',(0.,-1.,-2.22044604925031E-16));
#793=DIRECTION('ref_axis',(0.868836903212244,1.09933930854643E-16,-0.495098410032346));
#794=DIRECTION('',(-1.,-1.37026635528169E-31,6.17113104704496E-16));
#795=DIRECTION('center_axis',(0.,-1.,-2.22044604925031E-16));
#796=DIRECTION('ref_axis',(1.,0.,0.));
#797=DIRECTION('',(-1.,0.,0.));
#798=DIRECTION('center_axis',(0.,1.,2.22044604925031E-16));
#799=DIRECTION('ref_axis',(0.,-2.22044604925031E-16,1.));
#800=DIRECTION('',(1.,1.37026635528169E-31,-6.17113104704496E-16));
#801=DIRECTION('center_axis',(0.,2.22044604925031E-16,-1.));
#802=DIRECTION('ref_axis',(0.,1.,2.22044604925031E-16));
#803=DIRECTION('',(0.,1.,2.22044604925031E-16));
#804=DIRECTION('',(0.,1.,2.22044604925031E-16));
#805=DIRECTION('center_axis',(0.,1.,2.22044604925031E-16));
#806=DIRECTION('ref_axis',(-0.999816172658454,-4.25735942616415E-18,0.0191734423252553));
#807=DIRECTION('',(0.,1.,2.22044604925031E-16));
#808=DIRECTION('center_axis',(6.17113104704496E-16,-2.22044604925031E-16,
1.));
#809=DIRECTION('ref_axis',(0.,-1.,-2.22044604925031E-16));
#810=DIRECTION('',(0.,1.,2.22044604925031E-16));
#811=DIRECTION('center_axis',(0.,1.,2.22044604925031E-16));
#812=DIRECTION('ref_axis',(0.,-2.22044604925031E-16,1.));
#813=CARTESIAN_POINT('',(0.,0.,0.));
#814=CARTESIAN_POINT('Origin',(1.50438501792064,5.321,-0.0254034740160672));
#815=CARTESIAN_POINT('',(-1.107,5.321,1.34711147906209E-16));
#816=CARTESIAN_POINT('Origin',(-0.007,5.321,0.));
#817=CARTESIAN_POINT('Origin',(-0.007,4.571,-1.66533453693773E-16));
#818=CARTESIAN_POINT('',(-5.507,4.571,5.07022285837271E-16));
#819=CARTESIAN_POINT('Origin',(-0.007,4.571,-1.66533453693773E-16));
#820=CARTESIAN_POINT('',(-5.507,1.571,-1.59111528937823E-16));
#821=CARTESIAN_POINT('',(-5.507,4.571,-8.40089193224818E-16));
#822=CARTESIAN_POINT('Origin',(-0.007,1.571,-8.32667268468867E-16));
#823=CARTESIAN_POINT('Origin',(-0.007,4.571,-1.66533453693773E-16));
#824=CARTESIAN_POINT('',(-1.107,4.571,-3.18223057875645E-17));
#825=CARTESIAN_POINT('Origin',(-0.007,4.571,-1.66533453693773E-16));
#826=CARTESIAN_POINT('Origin',(-0.007,1.571,-8.32667268468867E-16));
#827=CARTESIAN_POINT('Origin',(-0.007,5.321,0.));
#828=CARTESIAN_POINT('',(-1.107,5.321,-1.34711147906209E-16));
#829=CARTESIAN_POINT('Origin',(-0.007,5.321,0.));
#830=CARTESIAN_POINT('',(4.98881219347041,5.321,-2.84681585768599));
#831=CARTESIAN_POINT('',(5.27463227349534,5.321,-2.84681585768599));
#832=CARTESIAN_POINT('',(2.4909060967352,5.321,-2.84681585768599));
#833=CARTESIAN_POINT('',(5.37450665770967,5.321,2.65318414231401));
#834=CARTESIAN_POINT('Origin',(-0.007,5.321,0.));
#835=CARTESIAN_POINT('',(5.09428551513964,5.321,2.65318414231401));
#836=CARTESIAN_POINT('',(2.99340756411885,5.321,2.65318414231401));
#837=CARTESIAN_POINT('Origin',(-0.007,5.321,0.));
#838=CARTESIAN_POINT('Origin',(-0.007,-3.679,-1.99840144432528E-15));
#839=CARTESIAN_POINT('',(5.993,-3.679,-1.26361336483687E-15));
#840=CARTESIAN_POINT('Origin',(-0.007,-3.679,-1.99840144432528E-15));
#841=CARTESIAN_POINT('',(1.6734636063114,-3.679,-5.19909405270029));
#842=CARTESIAN_POINT('',(4.72490264858866,-3.679,-2.73196526794177));
#843=CARTESIAN_POINT('Origin',(-0.007,-3.679,-1.99840144432528E-15));
#844=CARTESIAN_POINT('',(5.16120832096054,-3.679,-2.98386646533463));
#845=CARTESIAN_POINT('',(2.35895132429433,-3.679,-1.36598263397089));
#846=CARTESIAN_POINT('',(1.82841096218459,-3.679,-5.67847716660787));
#847=CARTESIAN_POINT('Origin',(-0.007,-3.679,-1.99840144432528E-15));
#848=CARTESIAN_POINT('',(0.910705481092294,-3.679,-2.83923858330394));
#849=CARTESIAN_POINT('',(-0.007,-3.679,5.96773293066926));
#850=CARTESIAN_POINT('',(3.993,-3.679,4.42875110294023));
#851=CARTESIAN_POINT('Origin',(-0.007,-3.679,-1.99840144432528E-15));
#852=CARTESIAN_POINT('',(3.65531572314734,-3.679,4.05487119955103));
#853=CARTESIAN_POINT('',(1.993,-3.679,2.21437555147012));
#854=CARTESIAN_POINT('',(-0.007,-3.679,5.46393053588354));
#855=CARTESIAN_POINT('Origin',(-0.007,-3.679,-1.99840144432528E-15));
#856=CARTESIAN_POINT('',(-0.007,-3.679,2.73196526794177));
#857=CARTESIAN_POINT('',(-5.34977932945874,-3.679,1.14422285314926));
#858=CARTESIAN_POINT('',(-4.73890264858867,-3.679,-2.73196526794177));
#859=CARTESIAN_POINT('Origin',(-0.007,-3.679,-1.99840144432528E-15));
#860=CARTESIAN_POINT('',(-5.17520832096054,-3.679,-2.98386646533463));
#861=CARTESIAN_POINT('',(-2.37295132429433,-3.679,-1.36598263397088));
#862=CARTESIAN_POINT('',(-5.84241096218459,-3.679,1.24972606366764));
#863=CARTESIAN_POINT('Origin',(-0.007,-3.679,-1.99840144432528E-15));
#864=CARTESIAN_POINT('',(-2.9247054810923,-3.679,0.624863031833814));
#865=CARTESIAN_POINT('',(-5.28913382504855,-3.679,-1.35129087962809E-15));
#866=CARTESIAN_POINT('Origin',(-0.00490054733151778,-3.679,-1.99840144432528E-15));
#867=CARTESIAN_POINT('Origin',(-0.007,5.321,0.));
#868=CARTESIAN_POINT('',(5.993,5.321,7.34788079488412E-16));
#869=CARTESIAN_POINT('',(5.993,5.321,7.34788079488412E-16));
#870=CARTESIAN_POINT('Origin',(-0.007,5.321,0.));
#871=CARTESIAN_POINT('Origin',(-0.007,5.321,0.));
#872=CARTESIAN_POINT('Ctrl Pts',(-0.00490054733660171,-3.31411350119895,
1.87719595846874E-12));
#873=CARTESIAN_POINT('Ctrl Pts',(-0.00490054733660171,-3.31411350119895,
1.87459495745695E-12));
#874=CARTESIAN_POINT('Ctrl Pts',(-0.00490054733659911,-3.31411350119895,
1.87459495745695E-12));
#875=CARTESIAN_POINT('Ctrl Pts',(-0.00490054733659651,-3.31411350119895,
1.87459495745695E-12));
#876=CARTESIAN_POINT('Ctrl Pts',(-0.00490054733659651,-3.31411350119895,
1.87719595846874E-12));
#877=CARTESIAN_POINT('Ctrl Pts',(-0.00490054733659651,-3.31411350119895,
1.87979695948054E-12));
#878=CARTESIAN_POINT('Ctrl Pts',(-0.00490054733659911,-3.31411350119895,
1.87979695948054E-12));
#879=CARTESIAN_POINT('Ctrl Pts',(-0.00490054733660171,-3.31411350119895,
1.87979695948054E-12));
#880=CARTESIAN_POINT('Ctrl Pts',(-0.00490054733660171,-3.31411350119895,
1.87719595846874E-12));
#881=CARTESIAN_POINT('Ctrl Pts',(-2.66015614815329,-3.30628021193308,1.87757216034943E-12));
#882=CARTESIAN_POINT('Ctrl Pts',(-2.66015614815329,-3.30628021193295,-2.65525560081481));
#883=CARTESIAN_POINT('Ctrl Pts',(-0.00490054733660007,-3.30628021193263,
-2.65525560081481));
#884=CARTESIAN_POINT('Ctrl Pts',(2.65035505348009,-3.3062802119323,-2.65525560081481));
#885=CARTESIAN_POINT('Ctrl Pts',(2.65035505348009,-3.30628021193243,1.87757216034943E-12));
#886=CARTESIAN_POINT('Ctrl Pts',(2.65035505348009,-3.30628021193256,2.65525560081857));
#887=CARTESIAN_POINT('Ctrl Pts',(-0.00490054733660007,-3.30628021193288,
2.65525560081857));
#888=CARTESIAN_POINT('Ctrl Pts',(-2.66015614815329,-3.30628021193321,2.65525560081857));
#889=CARTESIAN_POINT('Ctrl Pts',(-2.66015614815329,-3.30628021193308,1.87757216034943E-12));
#890=CARTESIAN_POINT('Ctrl Pts',(-5.28913382505959,-3.6790000000015,1.8596719040871E-12));
#891=CARTESIAN_POINT('Ctrl Pts',(-5.28913382505959,-3.67900000000125,-5.28423327772117));
#892=CARTESIAN_POINT('Ctrl Pts',(-0.00490054733655438,-3.6790000000006,
-5.28423327772117));
#893=CARTESIAN_POINT('Ctrl Pts',(5.27933273038648,-3.67899999999995,-5.28423327772117));
#894=CARTESIAN_POINT('Ctrl Pts',(5.27933273038648,-3.67900000000021,1.8596719040871E-12));
#895=CARTESIAN_POINT('Ctrl Pts',(5.27933273038648,-3.67900000000046,5.28423327772489));
#896=CARTESIAN_POINT('Ctrl Pts',(-0.00490054733655438,-3.67900000000111,
5.28423327772489));
#897=CARTESIAN_POINT('Ctrl Pts',(-5.28913382505959,-3.67900000000176,5.28423327772489));
#898=CARTESIAN_POINT('Ctrl Pts',(-5.28913382505959,-3.6790000000015,1.8596719040871E-12));
#899=CARTESIAN_POINT('',(-3.557,-3.47509261115615,-1.62944299133012E-15));
#900=CARTESIAN_POINT('Ctrl Pts',(-5.28913382505959,-3.6790000000015,1.8596719040871E-12));
#901=CARTESIAN_POINT('Ctrl Pts',(-4.42547898048538,-3.55655649146142,1.86555238119267E-12));
#902=CARTESIAN_POINT('Ctrl Pts',(-3.55699999999952,-3.47509261115607,1.86946476894419E-12));
#903=CARTESIAN_POINT('',(-2.957,-3.4237515600887,1.8184736302237E-12));
#904=CARTESIAN_POINT('Ctrl Pts',(-3.557,-3.47509261115612,-2.0333693962772E-14));
#905=CARTESIAN_POINT('Ctrl Pts',(-3.557,-3.47509261115612,0.0021280654823595));
#906=CARTESIAN_POINT('Ctrl Pts',(-3.55697735674221,-3.47509066658617,0.00425715560238658));
#907=CARTESIAN_POINT('Ctrl Pts',(-3.55613339227932,-3.47501818823034,0.0438900434089414));
#908=CARTESIAN_POINT('Ctrl Pts',(-3.54830822335946,-3.47434611360951,0.0809022468595191));
#909=CARTESIAN_POINT('Ctrl Pts',(-3.52020564331719,-3.47193329507491,0.148266563497148));
#910=CARTESIAN_POINT('Ctrl Pts',(-3.5008391693023,-3.47027076424665,0.178325077560619));
#911=CARTESIAN_POINT('Ctrl Pts',(-3.45424185021682,-3.46627250763491,0.228434976827386));
#912=CARTESIAN_POINT('Ctrl Pts',(-3.42797794432852,-3.46401966574023,0.24869867688434));
#913=CARTESIAN_POINT('Ctrl Pts',(-3.36671768253175,-3.45876787894358,0.281606405360183));
#914=CARTESIAN_POINT('Ctrl Pts',(-3.33158061456995,-3.45575720460943,0.292875299842294));
#915=CARTESIAN_POINT('Ctrl Pts',(-3.282841710912,-3.45158406756407,0.299148701351565));
#916=CARTESIAN_POINT('Ctrl Pts',(-3.27029697095392,-3.45051020759384,0.299968186782741));
#917=CARTESIAN_POINT('Ctrl Pts',(-3.24984650534711,-3.44876002337996,0.300018511875281));
#918=CARTESIAN_POINT('Ctrl Pts',(-3.24195697162328,-3.44808492691997,0.299726525955041));
#919=CARTESIAN_POINT('Ctrl Pts',(-3.22693049368349,-3.44679933000129,0.29857554507223));
#920=CARTESIAN_POINT('Ctrl Pts',(-3.2197946907407,-3.4461889092222,0.297770553675347));
#921=CARTESIAN_POINT('Ctrl Pts',(-3.20367422948281,-3.44481010457597,0.295363404227541));
#922=CARTESIAN_POINT('Ctrl Pts',(-3.19471955075724,-3.44404433780936,0.293605765327724));
#923=CARTESIAN_POINT('Ctrl Pts',(-3.16845686116882,-3.4417988635935,0.287194998609992));
#924=CARTESIAN_POINT('Ctrl Pts',(-3.15146726695761,-3.44034677492008,0.281396432559256));
#925=CARTESIAN_POINT('Ctrl Pts',(-3.10058616811438,-3.43599946997443,0.258768258583576));
#926=CARTESIAN_POINT('Ctrl Pts',(-3.06926367182858,-3.43332547232184,0.237033381328342));
#927=CARTESIAN_POINT('Ctrl Pts',(-3.01602762671231,-3.42878313087691,0.18273920165656));
#928=CARTESIAN_POINT('Ctrl Pts',(-2.99471031631814,-3.4269656243365,0.150562029631048));
#929=CARTESIAN_POINT('Ctrl Pts',(-2.96482431833499,-3.42441813727912,0.0787189355323811));
#930=CARTESIAN_POINT('Ctrl Pts',(-2.95700000000023,-3.42375156008872,0.0395589214409003));
#931=CARTESIAN_POINT('Ctrl Pts',(-2.957,-3.4237515600887,1.76537831193374E-12));
#932=CARTESIAN_POINT('',(-0.00490054733151663,-3.31411350119897,-1.91738036585653E-15));
#933=CARTESIAN_POINT('Ctrl Pts',(-2.95699999999991,-3.4237515600887,1.87193047642821E-12));
#934=CARTESIAN_POINT('Ctrl Pts',(-1.48314816113108,-3.30975251193605,1.87740539952303E-12));
#935=CARTESIAN_POINT('Ctrl Pts',(-0.00490054733660171,-3.31411350119895,
1.87719595846874E-12));
#936=CARTESIAN_POINT('Ctrl Pts',(-2.957,-3.4237515600887,1.76537831193374E-12));
#937=CARTESIAN_POINT('Ctrl Pts',(-2.95699999999988,-3.42375156008869,-0.0197858595775987));
#938=CARTESIAN_POINT('Ctrl Pts',(-2.95895739788121,-3.42391833807455,-0.0395218818072465));
#939=CARTESIAN_POINT('Ctrl Pts',(-2.96694193752782,-3.42459875028582,-0.0793847749210805));
#940=CARTESIAN_POINT('Ctrl Pts',(-2.97316471777965,-3.42512905963794,-0.0993619089326055));
#941=CARTESIAN_POINT('Ctrl Pts',(-2.99462381930197,-3.4269582781931,-0.149257304481508));
#942=CARTESIAN_POINT('Ctrl Pts',(-3.01287983915899,-3.42851480111048,-0.177544374441387));
#943=CARTESIAN_POINT('Ctrl Pts',(-3.06234774506113,-3.43273514888394,-0.231749764661563));
#944=CARTESIAN_POINT('Ctrl Pts',(-3.09490068969319,-3.4355138830721,-0.255572222803211));
#945=CARTESIAN_POINT('Ctrl Pts',(-3.14820855446823,-3.44006827668829,-0.280211040417972));
#946=CARTESIAN_POINT('Ctrl Pts',(-3.16598345416238,-3.44158742210227,-0.286477737707654));
#947=CARTESIAN_POINT('Ctrl Pts',(-3.19325968992355,-3.44391950332494,-0.293298362782326));
#948=CARTESIAN_POINT('Ctrl Pts',(-3.20239552976628,-3.44470074778782,-0.295135707455103));
#949=CARTESIAN_POINT('Ctrl Pts',(-3.21872372122864,-3.44609729959846,-0.297635419747172));
#950=CARTESIAN_POINT('Ctrl Pts',(-3.22588281434959,-3.44670970413615,-0.298468810920004));
#951=CARTESIAN_POINT('Ctrl Pts',(-3.24083582455319,-3.44798899838617,-0.299665640730077));
#952=CARTESIAN_POINT('Ctrl Pts',(-3.24862812079629,-3.44865576424441,-0.299984475539477));
#953=CARTESIAN_POINT('Ctrl Pts',(-3.26857477255888,-3.45036280245311,-0.300022781840786));
#954=CARTESIAN_POINT('Ctrl Pts',(-3.28071618062504,-3.45140211062618,-0.299307872377656));
#955=CARTESIAN_POINT('Ctrl Pts',(-3.3238746154637,-3.45509731894816,-0.294123362197056));
#956=CARTESIAN_POINT('Ctrl Pts',(-3.35420132541757,-3.45769545964105,-0.285541205458827));
#957=CARTESIAN_POINT('Ctrl Pts',(-3.41663739576557,-3.46304702944921,-0.256741872811366));
#958=CARTESIAN_POINT('Ctrl Pts',(-3.44740921803051,-3.46568632448192,-0.234836559958862));
#959=CARTESIAN_POINT('Ctrl Pts',(-3.50060471286909,-3.47025056628616,-0.179452413260067));
#960=CARTESIAN_POINT('Ctrl Pts',(-3.52202167128467,-3.47208918495108,-0.14599219684234));
#961=CARTESIAN_POINT('Ctrl Pts',(-3.55000651036919,-3.47449195825669,-0.0744808488931164));
#962=CARTESIAN_POINT('Ctrl Pts',(-3.557,-3.47509261115612,-0.0373986520450843));
#963=CARTESIAN_POINT('Ctrl Pts',(-3.557,-3.47509261115612,-2.0333693962772E-14));
#964=CARTESIAN_POINT('',(2.943,-3.4234270256632,-1.94165284420915E-15));
#965=CARTESIAN_POINT('',(3.543,-3.47469899341105,-1.78307134110201E-15));
#966=CARTESIAN_POINT('Ctrl Pts',(2.943,-3.4234270256632,-1.94165284420915E-15));
#967=CARTESIAN_POINT('Ctrl Pts',(2.943,-3.4234270256632,0.0194434218032503));
#968=CARTESIAN_POINT('Ctrl Pts',(2.94489023029949,-3.42358786281667,0.038839553776472));
#969=CARTESIAN_POINT('Ctrl Pts',(2.94864326116625,-3.42390724775169,0.0579146812402445));
#970=CARTESIAN_POINT('Ctrl Pts',(2.95259835827048,-3.42424382863165,0.0780168290970718));
#971=CARTESIAN_POINT('Ctrl Pts',(2.95860145996711,-3.42475472147858,0.0976569019372663));
#972=CARTESIAN_POINT('Ctrl Pts',(2.96655615859521,-3.42543186948983,0.116528119135961));
#973=CARTESIAN_POINT('Ctrl Pts',(2.9795323823924,-3.42653647753957,0.147312080809947));
#974=CARTESIAN_POINT('Ctrl Pts',(2.99755257778119,-3.42807078481818,0.175696572683557));
#975=CARTESIAN_POINT('Ctrl Pts',(3.01985865484555,-3.42997120750293,0.200519176346458));
#976=CARTESIAN_POINT('Ctrl Pts',(3.03997189818712,-3.43168480616933,0.222901555211318));
#977=CARTESIAN_POINT('Ctrl Pts',(3.06332781081044,-3.43367548547388,0.242118902280621));
#978=CARTESIAN_POINT('Ctrl Pts',(3.0891337773193,-3.43587637645573,0.257536765371415));
#979=CARTESIAN_POINT('Ctrl Pts',(3.10943747031003,-3.43760799982997,0.269667276300397));
#980=CARTESIAN_POINT('Ctrl Pts',(3.13109807401958,-3.43945612760113,0.279350408018597));
#981=CARTESIAN_POINT('Ctrl Pts',(3.15366235200342,-3.44138230738019,0.286389218809712));
#982=CARTESIAN_POINT('Ctrl Pts',(3.1647070071528,-3.44232512467001,0.289834542338581));
#983=CARTESIAN_POINT('Ctrl Pts',(3.175940632845,-3.44328428941694,0.292637734130861));
#984=CARTESIAN_POINT('Ctrl Pts',(3.18730684820652,-3.44425500065966,0.294785129956223));
#985=CARTESIAN_POINT('Ctrl Pts',(3.19344126770606,-3.44477889975768,0.295944093287933));
#986=CARTESIAN_POINT('Ctrl Pts',(3.19961015951016,-3.44530580767829,0.296911250572392));
#987=CARTESIAN_POINT('Ctrl Pts',(3.20580450632065,-3.44583495518708,0.297685228471196));
#988=CARTESIAN_POINT('Ctrl Pts',(3.21090695916548,-3.44627082845898,0.298322775229944));
#989=CARTESIAN_POINT('Ctrl Pts',(3.21602487002784,-3.4467080663874,0.298829017971795));
#990=CARTESIAN_POINT('Ctrl Pts',(3.22115316463013,-3.44714623561551,0.299203468870801));
#991=CARTESIAN_POINT('Ctrl Pts',(3.22707385016468,-3.44765210792038,0.299635777502243));
#992=CARTESIAN_POINT('Ctrl Pts',(3.2330060109011,-3.44815901947315,0.29989224788583));
#993=CARTESIAN_POINT('Ctrl Pts',(3.23894181005583,-3.44866630027571,0.299972550568174));
#994=CARTESIAN_POINT('Ctrl Pts',(3.24914496761992,-3.44953827485283,0.300110584369424));
#995=CARTESIAN_POINT('Ctrl Pts',(3.25934866594028,-3.45041046819215,0.299727960456611));
#996=CARTESIAN_POINT('Ctrl Pts',(3.26951310674734,-3.45127947266251,0.298826128661138));
#997=CARTESIAN_POINT('Ctrl Pts',(3.30257781626605,-3.45410632570127,0.295892489032745));
#998=CARTESIAN_POINT('Ctrl Pts',(3.33493669467315,-3.45687463806074,0.287490424412578));
#999=CARTESIAN_POINT('Ctrl Pts',(3.36526613512335,-3.45947066622964,0.273954361531256));
#1000=CARTESIAN_POINT('Ctrl Pts',(3.39882409610434,-3.46234303745391,0.25897740635948));
#1001=CARTESIAN_POINT('Ctrl Pts',(3.42936613633079,-3.46495898131356,0.237952275140603));
#1002=CARTESIAN_POINT('Ctrl Pts',(3.45535442557148,-3.46718572183763,0.211909409749089));
#1003=CARTESIAN_POINT('Ctrl Pts',(3.4830897811152,-3.46956215529836,0.184115809165319));
#1004=CARTESIAN_POINT('Ctrl Pts',(3.50511793828236,-3.47145064249978,0.151128234649993));
#1005=CARTESIAN_POINT('Ctrl Pts',(3.52016289564664,-3.47274063925982,0.114807357241473));
#1006=CARTESIAN_POINT('Ctrl Pts',(3.53523680897223,-3.47403311878505,0.0784165756188163));
#1007=CARTESIAN_POINT('Ctrl Pts',(3.543,-3.47469899258246,0.0394039591512568));
#1008=CARTESIAN_POINT('Ctrl Pts',(3.543,-3.47469899341105,-1.64984457814699E-15));
#1009=CARTESIAN_POINT('Ctrl Pts',(3.543,-3.47469899341105,-1.64984457814699E-15));
#1010=CARTESIAN_POINT('Ctrl Pts',(3.543,-3.474698993417,-0.000282874333353433));
#1011=CARTESIAN_POINT('Ctrl Pts',(3.54299959990866,-3.47469895910678,-0.000565769855152242));
#1012=CARTESIAN_POINT('Ctrl Pts',(3.54299879955756,-3.47469889046587,-0.000848683699356082));
#1013=CARTESIAN_POINT('Ctrl Pts',(3.542892509109,-3.47468977462516,-0.0384209936172939));
#1014=CARTESIAN_POINT('Ctrl Pts',(3.5357289461291,-3.47407533917722,-0.0756313927195606));
#1015=CARTESIAN_POINT('Ctrl Pts',(3.52189091691729,-3.47288880600301,-0.110543459603163));
#1016=CARTESIAN_POINT('Ctrl Pts',(3.50880340487806,-3.47176662545514,-0.143562041126562));
#1017=CARTESIAN_POINT('Ctrl Pts',(3.48996353887495,-3.47015141699106,-0.17397632395555));
#1018=CARTESIAN_POINT('Ctrl Pts',(3.46626596460345,-3.46812070575612,-0.200380410843202));
#1019=CARTESIAN_POINT('Ctrl Pts',(3.4442912544715,-3.46623763155458,-0.224864864357629));
#1020=CARTESIAN_POINT('Ctrl Pts',(3.41845092535542,-3.46402398662408,-0.245554379391086));
#1021=CARTESIAN_POINT('Ctrl Pts',(3.38979057926953,-3.46157012099703,-0.261634336121457));
#1022=CARTESIAN_POINT('Ctrl Pts',(3.36014181830596,-3.45903162843329,-0.278268845417847));
#1023=CARTESIAN_POINT('Ctrl Pts',(3.32789167289648,-3.45627174573543,-0.289736903235295));
#1024=CARTESIAN_POINT('Ctrl Pts',(3.29442286280833,-3.45340945384163,-0.295559958689598));
#1025=CARTESIAN_POINT('Ctrl Pts',(3.27968392064996,-3.45214896222116,-0.298124306728859));
#1026=CARTESIAN_POINT('Ctrl Pts',(3.26477451390536,-3.45087423900732,-0.299582441352728));
#1027=CARTESIAN_POINT('Ctrl Pts',(3.24981948145336,-3.44959598468339,-0.299922481105882));
#1028=CARTESIAN_POINT('Ctrl Pts',(3.24269150058858,-3.44898673342362,-0.300084553429131));
#1029=CARTESIAN_POINT('Ctrl Pts',(3.2355599670576,-3.44837726194,-0.299992468943359));
#1030=CARTESIAN_POINT('Ctrl Pts',(3.22843846823649,-3.44776873253812,-0.299646394593196));
#1031=CARTESIAN_POINT('Ctrl Pts',(3.22318703729869,-3.44731999973511,-0.299391197534982));
#1032=CARTESIAN_POINT('Ctrl Pts',(3.21794313734285,-3.44687195643995,-0.298997990085956));
#1033=CARTESIAN_POINT('Ctrl Pts',(3.2127122036001,-3.44642506705099,-0.298467166350403));
#1034=CARTESIAN_POINT('Ctrl Pts',(3.20725917772263,-3.44595920387585,-0.297913805189912));
#1035=CARTESIAN_POINT('Ctrl Pts',(3.20182219221823,-3.44549476124641,-0.297211091848957));
#1036=CARTESIAN_POINT('Ctrl Pts',(3.19640737341047,-3.44503226205965,-0.296359793405735));
#1037=CARTESIAN_POINT('Ctrl Pts',(3.18828959423301,-3.44433889328755,-0.295083545202141));
#1038=CARTESIAN_POINT('Ctrl Pts',(3.18022719724595,-3.44365036762774,-0.293474221038999));
#1039=CARTESIAN_POINT('Ctrl Pts',(3.17224060791314,-3.44296842604966,-0.29153577556022));
#1040=CARTESIAN_POINT('Ctrl Pts',(3.15217006807963,-3.44125468629959,-0.286664403617118));
#1041=CARTESIAN_POINT('Ctrl Pts',(3.1326513964516,-3.43958877645358,-0.279732271357477));
#1042=CARTESIAN_POINT('Ctrl Pts',(3.11399639685494,-3.43799719400727,-0.270846950094684));
#1043=CARTESIAN_POINT('Ctrl Pts',(3.08218035892714,-3.43528275559548,-0.255693065108896));
#1044=CARTESIAN_POINT('Ctrl Pts',(3.05326358245353,-3.43281755774904,-0.235042218676314));
#1045=CARTESIAN_POINT('Ctrl Pts',(3.02858724644811,-3.43071491203804,-0.209826526240838));
#1046=CARTESIAN_POINT('Ctrl Pts',(3.00191749483743,-3.42844240939318,-0.182573847650392));
#1047=CARTESIAN_POINT('Ctrl Pts',(2.98067055289352,-3.4266333540104,-0.150468316796131));
#1048=CARTESIAN_POINT('Ctrl Pts',(2.9660082381125,-3.42538522767932,-0.115219633077255));
#1049=CARTESIAN_POINT('Ctrl Pts',(2.95082356112,-3.42409263537952,-0.0787151735375833));
#1050=CARTESIAN_POINT('Ctrl Pts',(2.943,-3.4234270256632,-0.0395570057825429));
#1051=CARTESIAN_POINT('Ctrl Pts',(2.943,-3.4234270256632,-2.01513165215799E-15));
#1052=CARTESIAN_POINT('Origin',(-3.257,-9.679,-4.44089209850063E-15));
#1053=CARTESIAN_POINT('',(-2.957,-9.679,-4.40415269452621E-15));
#1054=CARTESIAN_POINT('Origin',(-3.257,-9.679,-4.44089209850063E-15));
#1055=CARTESIAN_POINT('Origin',(-3.257,-3.679,-3.10862446895044E-15));
#1056=CARTESIAN_POINT('',(-2.957,-3.679,-3.07188506497602E-15));
#1057=CARTESIAN_POINT('Origin',(3.243,-9.679,-3.33066907387547E-15));
#1058=CARTESIAN_POINT('',(3.543,-9.679,-3.29392966990105E-15));
#1059=CARTESIAN_POINT('Origin',(3.243,-9.679,-3.33066907387547E-15));
#1060=CARTESIAN_POINT('Origin',(3.243,-3.679,-1.99840144432528E-15));
#1061=CARTESIAN_POINT('',(3.543,-3.679,-1.96166204035086E-15));
#1062=CARTESIAN_POINT('Origin',(-5.4874027192174,-4.179,-0.863696528228494));
#1063=CARTESIAN_POINT('',(-5.34977932945874,-4.179,1.14422285314926));
#1064=CARTESIAN_POINT('',(-4.73890264858867,-4.179,-2.73196526794177));
#1065=CARTESIAN_POINT('Origin',(-0.007,-4.179,-2.1094237467878E-15));
#1066=CARTESIAN_POINT('',(-5.84241096218459,-4.179,1.24972606366764));
#1067=CARTESIAN_POINT('',(-5.34977932945874,-4.179,1.14422285314926));
#1068=CARTESIAN_POINT('',(-5.17520832096054,-4.179,-2.98386646533463));
#1069=CARTESIAN_POINT('Origin',(-0.007,-4.179,-2.1094237467878E-15));
#1070=CARTESIAN_POINT('',(-5.17520832096054,-4.179,-2.98386646533463));
#1071=CARTESIAN_POINT('Origin',(-5.84241096218459,-3.679,1.24972606366764));
#1072=CARTESIAN_POINT('',(-5.34977932945874,-3.679,1.14422285314926));
#1073=CARTESIAN_POINT('',(-5.84241096218459,-3.679,1.24972606366764));
#1074=CARTESIAN_POINT('Origin',(-0.007,-3.679,-1.99840144432528E-15));
#1075=CARTESIAN_POINT('',(-5.17520832096054,-3.679,-2.98386646533463));
#1076=CARTESIAN_POINT('Origin',(-4.73890264858867,-3.679,-2.73196526794177));
#1077=CARTESIAN_POINT('',(-4.73890264858867,-3.679,-2.73196526794177));
#1078=CARTESIAN_POINT('Origin',(-0.007,-3.679,-1.99840144432528E-15));
#1079=CARTESIAN_POINT('Origin',(1.9852182250024,-4.179,5.17801624192583));
#1080=CARTESIAN_POINT('',(-0.007,-4.179,5.96773293066926));
#1081=CARTESIAN_POINT('',(3.993,-4.179,4.42875110294023));
#1082=CARTESIAN_POINT('Origin',(-0.007,-4.179,-2.1094237467878E-15));
#1083=CARTESIAN_POINT('',(-0.007,-4.179,5.46393053588354));
#1084=CARTESIAN_POINT('',(-0.007,-4.179,5.96773293066926));
#1085=CARTESIAN_POINT('',(3.65531572314734,-4.179,4.05487119955103));
#1086=CARTESIAN_POINT('Origin',(-0.007,-4.179,-2.1094237467878E-15));
#1087=CARTESIAN_POINT('',(3.65531572314734,-4.179,4.05487119955103));
#1088=CARTESIAN_POINT('Origin',(-0.007,-3.679,5.46393053588354));
#1089=CARTESIAN_POINT('',(-0.007,-3.679,5.96773293066926));
#1090=CARTESIAN_POINT('',(-0.007,-3.679,5.46393053588354));
#1091=CARTESIAN_POINT('Origin',(-0.007,-3.679,-1.99840144432528E-15));
#1092=CARTESIAN_POINT('',(3.65531572314734,-3.679,4.05487119955103));
#1093=CARTESIAN_POINT('Origin',(3.993,-3.679,4.42875110294023));
#1094=CARTESIAN_POINT('',(3.993,-3.679,4.42875110294023));
#1095=CARTESIAN_POINT('Origin',(-0.007,-3.679,-1.99840144432528E-15));
#1096=CARTESIAN_POINT('Origin',(3.481184494215,-4.179,-4.31431971369734));
#1097=CARTESIAN_POINT('',(1.6734636063114,-4.179,-5.19909405270029));
#1098=CARTESIAN_POINT('',(4.72490264858866,-4.179,-2.73196526794177));
#1099=CARTESIAN_POINT('Origin',(-0.007,-4.179,-2.1094237467878E-15));
#1100=CARTESIAN_POINT('',(1.82841096218459,-4.179,-5.67847716660787));
#1101=CARTESIAN_POINT('',(1.6734636063114,-4.179,-5.19909405270029));
#1102=CARTESIAN_POINT('',(5.16120832096054,-4.179,-2.98386646533463));
#1103=CARTESIAN_POINT('Origin',(-0.007,-4.179,-2.1094237467878E-15));
#1104=CARTESIAN_POINT('',(5.16120832096054,-4.179,-2.98386646533463));
#1105=CARTESIAN_POINT('Origin',(1.82841096218459,-3.679,-5.67847716660787));
#1106=CARTESIAN_POINT('',(1.6734636063114,-3.679,-5.19909405270029));
#1107=CARTESIAN_POINT('',(1.82841096218459,-3.679,-5.67847716660787));
#1108=CARTESIAN_POINT('Origin',(-0.007,-3.679,-1.99840144432528E-15));
#1109=CARTESIAN_POINT('',(5.16120832096054,-3.679,-2.98386646533463));
#1110=CARTESIAN_POINT('Origin',(4.72490264858866,-3.679,-2.73196526794177));
#1111=CARTESIAN_POINT('',(4.72490264858866,-3.679,-2.73196526794177));
#1112=CARTESIAN_POINT('Origin',(-0.007,-3.679,-1.99840144432528E-15));
#1113=CARTESIAN_POINT('Origin',(1.50438501792064,5.371,-0.0254034740160672));
#1114=CARTESIAN_POINT('',(5.9938151282377,5.371,-2.84681585768599));
#1115=CARTESIAN_POINT('',(5.9938151282377,5.371,2.65318414231401));
#1116=CARTESIAN_POINT('Origin',(5.9938151282377,5.371,-0.0968158576859896));
#1117=CARTESIAN_POINT('',(4.98881219347041,5.371,-2.84681585768599));
#1118=CARTESIAN_POINT('',(5.9938151282377,5.371,-2.84681585768599));
#1119=CARTESIAN_POINT('',(5.09428551513964,5.371,2.65318414231401));
#1120=CARTESIAN_POINT('Origin',(-0.007,5.371,1.11022302462516E-17));
#1121=CARTESIAN_POINT('',(5.09428551513964,5.371,2.65318414231401));
#1122=CARTESIAN_POINT('Origin',(1.50438501792064,5.321,-0.0254034740160672));
#1123=CARTESIAN_POINT('',(5.9938151282377,5.321,-2.84681585768599));
#1124=CARTESIAN_POINT('',(5.9938151282377,5.321,-2.84681585768599));
#1125=CARTESIAN_POINT('',(5.9938151282377,5.321,2.65318414231401));
#1126=CARTESIAN_POINT('Origin',(5.9938151282377,5.321,-0.0968158576859896));
#1127=CARTESIAN_POINT('',(5.09428551513964,5.321,2.65318414231401));
#1128=CARTESIAN_POINT('Origin',(4.98881219347041,5.321,-2.84681585768599));
#1129=CARTESIAN_POINT('',(5.9938151282377,5.321,-2.84681585768599));
#1130=CARTESIAN_POINT('',(4.98881219347041,5.321,-2.84681585768599));
#1131=CARTESIAN_POINT('Origin',(-0.007,5.321,0.));
#1132=CARTESIAN_POINT('',(5.09428551513964,5.321,2.65318414231401));
#1133=CARTESIAN_POINT('Origin',(5.9938151282377,5.321,2.65318414231401));
#1134=CARTESIAN_POINT('',(5.9938151282377,5.321,2.65318414231401));
#1135=CARTESIAN_POINT('Origin',(5.9938151282377,5.321,-0.0968158576859896));
#1136=UNCERTAINTY_MEASURE_WITH_UNIT(LENGTH_MEASURE(0.01),#1140,
'DISTANCE_ACCURACY_VALUE',
'Maximum model space distance between geometric entities at asserted c
onnectivities');
#1137=UNCERTAINTY_MEASURE_WITH_UNIT(LENGTH_MEASURE(0.01),#1140,
'DISTANCE_ACCURACY_VALUE',
'Maximum model space distance between geometric entities at asserted c
onnectivities');
#1138=(
GEOMETRIC_REPRESENTATION_CONTEXT(3)
GLOBAL_UNCERTAINTY_ASSIGNED_CONTEXT((#1136))
GLOBAL_UNIT_ASSIGNED_CONTEXT((#1140,#1142,#1143))
REPRESENTATION_CONTEXT('','3D')
);
#1139=(
GEOMETRIC_REPRESENTATION_CONTEXT(3)
GLOBAL_UNCERTAINTY_ASSIGNED_CONTEXT((#1137))
GLOBAL_UNIT_ASSIGNED_CONTEXT((#1140,#1142,#1143))
REPRESENTATION_CONTEXT('','3D')
);
#1140=(
LENGTH_UNIT()
NAMED_UNIT(*)
SI_UNIT(.MILLI.,.METRE.)
);
#1141=(
LENGTH_UNIT()
NAMED_UNIT(*)
SI_UNIT(.CENTI.,.METRE.)
);
#1142=(
NAMED_UNIT(*)
PLANE_ANGLE_UNIT()
SI_UNIT($,.RADIAN.)
);
#1143=(
NAMED_UNIT(*)
SI_UNIT($,.STERADIAN.)
SOLID_ANGLE_UNIT()
);
#1144=SHAPE_DEFINITION_REPRESENTATION(#1145,#1146);
#1145=PRODUCT_DEFINITION_SHAPE('',$,#1148);
#1146=SHAPE_REPRESENTATION('',(#591),#1138);
#1147=PRODUCT_DEFINITION_CONTEXT('part definition',#1152,'design');
#1148=PRODUCT_DEFINITION('AT-1224-TWT-12V-2-R','AT-1224-TWT-12V-2-R',#1149,
#1147);
#1149=PRODUCT_DEFINITION_FORMATION('',$,#1154);
#1150=PRODUCT_RELATED_PRODUCT_CATEGORY('AT-1224-TWT-12V-2-R',
'AT-1224-TWT-12V-2-R',(#1154));
#1151=APPLICATION_PROTOCOL_DEFINITION('international standard',
'automotive_design',2009,#1152);
#1152=APPLICATION_CONTEXT(
'Core Data for Automotive Mechanical Design Process');
#1153=PRODUCT_CONTEXT('part definition',#1152,'mechanical');
#1154=PRODUCT('AT-1224-TWT-12V-2-R','AT-1224-TWT-12V-2-R',$,(#1153));
#1155=PRESENTATION_STYLE_ASSIGNMENT((#1161));
#1156=PRESENTATION_STYLE_ASSIGNMENT((#1162));
#1157=PRESENTATION_STYLE_ASSIGNMENT((#1163));
#1158=PRESENTATION_STYLE_ASSIGNMENT((#1164));
#1159=PRESENTATION_STYLE_ASSIGNMENT((#1165));
#1160=PRESENTATION_STYLE_ASSIGNMENT((#1166));
#1161=SURFACE_STYLE_USAGE(.BOTH.,#1179);
#1162=SURFACE_STYLE_USAGE(.BOTH.,#1180);
#1163=SURFACE_STYLE_USAGE(.BOTH.,#1181);
#1164=SURFACE_STYLE_USAGE(.BOTH.,#1182);
#1165=SURFACE_STYLE_USAGE(.BOTH.,#1183);
#1166=SURFACE_STYLE_USAGE(.BOTH.,#1184);
#1167=SURFACE_STYLE_RENDERING_WITH_PROPERTIES($,#1203,(#1173));
#1168=SURFACE_STYLE_RENDERING_WITH_PROPERTIES($,#1204,(#1174));
#1169=SURFACE_STYLE_RENDERING_WITH_PROPERTIES($,#1205,(#1175));
#1170=SURFACE_STYLE_RENDERING_WITH_PROPERTIES($,#1206,(#1176));
#1171=SURFACE_STYLE_RENDERING_WITH_PROPERTIES($,#1207,(#1177));
#1172=SURFACE_STYLE_RENDERING_WITH_PROPERTIES($,#1208,(#1178));
#1173=SURFACE_STYLE_TRANSPARENT(0.);
#1174=SURFACE_STYLE_TRANSPARENT(0.);
#1175=SURFACE_STYLE_TRANSPARENT(0.);
#1176=SURFACE_STYLE_TRANSPARENT(0.);
#1177=SURFACE_STYLE_TRANSPARENT(0.);
#1178=SURFACE_STYLE_TRANSPARENT(0.);
#1179=SURFACE_SIDE_STYLE('',(#1185,#1167));
#1180=SURFACE_SIDE_STYLE('',(#1186,#1168));
#1181=SURFACE_SIDE_STYLE('',(#1187,#1169));
#1182=SURFACE_SIDE_STYLE('',(#1188,#1170));
#1183=SURFACE_SIDE_STYLE('',(#1189,#1171));
#1184=SURFACE_SIDE_STYLE('',(#1190,#1172));
#1185=SURFACE_STYLE_FILL_AREA(#1191);
#1186=SURFACE_STYLE_FILL_AREA(#1192);
#1187=SURFACE_STYLE_FILL_AREA(#1193);
#1188=SURFACE_STYLE_FILL_AREA(#1194);
#1189=SURFACE_STYLE_FILL_AREA(#1195);
#1190=SURFACE_STYLE_FILL_AREA(#1196);
#1191=FILL_AREA_STYLE('',(#1197));
#1192=FILL_AREA_STYLE('',(#1198));
#1193=FILL_AREA_STYLE('',(#1199));
#1194=FILL_AREA_STYLE('',(#1200));
#1195=FILL_AREA_STYLE('',(#1201));
#1196=FILL_AREA_STYLE('',(#1202));
#1197=FILL_AREA_STYLE_COLOUR('',#1203);
#1198=FILL_AREA_STYLE_COLOUR('',#1204);
#1199=FILL_AREA_STYLE_COLOUR('',#1205);
#1200=FILL_AREA_STYLE_COLOUR('',#1206);
#1201=FILL_AREA_STYLE_COLOUR('',#1207);
#1202=FILL_AREA_STYLE_COLOUR('',#1208);
#1203=COLOUR_RGB('',0.749019607843137,0.749019607843137,0.749019607843137);
#1204=COLOUR_RGB('',0.752941176470588,0.752941176470588,0.752941176470588);
#1205=COLOUR_RGB('',0.0549019607843137,0.0549019607843137,0.0549019607843137);
#1206=COLOUR_RGB('',0.32156862745098,0.32156862745098,0.32156862745098);
#1207=COLOUR_RGB('',0.67843137254902,0.533333333333333,0.0941176470588235);
#1208=COLOUR_RGB('',1.,1.,1.);
ENDSEC;
END-ISO-10303-21;
